  0
SECTION
  2
HEADER
  9
$ANGBASE
  50
0.0
  9
$ANGDIR
  70
1
  9
$MEASUREMENT
  70
1
  0
ENDSEC
  0
SECTION
  2
TABLES
  0
TABLE
  2
LTYPE
  70
4
  0
LTYPE
  5
40F
  2
CONTINUOUS
  70
0
  3
Solid line
  72
65
  73
0
  40
0.0
  0
LTYPE
  5
410
  2
DASHDOT
 70
0
  3
Dash Dot ____ _ ____ _
 72
65
 73
4
 40
2.0
 49
1.25
 49
-0.25
 49
0.25
 49
-0.25
  0
LTYPE
  5
411
  2
DASHED
 70
0
  3
Dashed __ __ __ __ __
 72
65
 73
2
 40
0.75
 49
0.5
 49
-0.25
  0
LTYPE
  5
43B
  2
DOTTED
 70
0
  3
Dotted .  .  .  .
 72
65
 73
2
 40
0.2
 49
0.0
 49
-0.2
  0
ENDTAB
  0
TABLE
  2
STYLE
  70
4
  0
STYLE
  2
KICAD
  70
0
  40
0
  41
1
  42
1
  50
0
  71
0
  3
isocp.shx
  0
STYLE
  2
KICADB
  70
0
  40
0
  41
1
  42
1
  50
0
  71
0
  3
isocp.shx
  0
STYLE
  2
KICADI
  70
0
  40
0
  41
1
  42
1
  50
15
  71
0
  3
isocp.shx
  0
STYLE
  2
KICADBI
  70
0
  40
0
  41
1
  42
1
  50
15
  71
0
  3
isocp.shx
  0
ENDTAB
  0
TABLE
  2
LAYER
  70
1
  0
LAYER
  2
BLACK
  70
0
  62
7
  6
CONTINUOUS
  0
ENDTAB
  0
ENDSEC
  0
SECTION
  2
ENTITIES
0
LINE
8
BLACK
6
CONTINUOUS
10
115.401
20
-16.655
11
115.401
21
-16.655
0
LINE
8
BLACK
6
CONTINUOUS
10
115.401
20
-16.655
11
115.405
21
-16.6554
0
LINE
8
BLACK
6
CONTINUOUS
10
115.405
20
-16.6554
11
115.41
21
-16.6568
0
LINE
8
BLACK
6
CONTINUOUS
10
115.41
20
-16.6568
11
115.414
21
-16.6591
0
LINE
8
BLACK
6
CONTINUOUS
10
115.414
20
-16.6591
11
115.418
21
-16.6622
0
LINE
8
BLACK
6
CONTINUOUS
10
115.418
20
-16.6622
11
115.421
21
-16.666
0
LINE
8
BLACK
6
CONTINUOUS
10
115.421
20
-16.666
11
115.423
21
-16.6704
0
LINE
8
BLACK
6
CONTINUOUS
10
115.423
20
-16.6704
11
115.425
21
-16.6751
0
LINE
8
BLACK
6
CONTINUOUS
10
115.425
20
-16.6751
11
115.425
21
-16.68
0
LINE
8
BLACK
6
CONTINUOUS
10
115.425
20
-16.68
11
115.425
21
-16.6812
0
LINE
8
BLACK
6
CONTINUOUS
10
115.425
20
-16.6812
11
115.425
21
-142.239
0
LINE
8
BLACK
6
CONTINUOUS
10
115.425
20
-142.239
11
115.425
21
-142.24
0
LINE
8
BLACK
6
CONTINUOUS
10
115.425
20
-142.24
11
115.425
21
-142.241
0
LINE
8
BLACK
6
CONTINUOUS
10
115.425
20
-142.241
11
115.425
21
-142.241
0
LINE
8
BLACK
6
CONTINUOUS
10
115.425
20
-142.241
11
115.425
21
-142.245
0
LINE
8
BLACK
6
CONTINUOUS
10
115.425
20
-142.245
11
115.423
21
-142.25
0
LINE
8
BLACK
6
CONTINUOUS
10
115.423
20
-142.25
11
115.421
21
-142.254
0
LINE
8
BLACK
6
CONTINUOUS
10
115.421
20
-142.254
11
115.418
21
-142.258
0
LINE
8
BLACK
6
CONTINUOUS
10
115.418
20
-142.258
11
115.414
21
-142.261
0
LINE
8
BLACK
6
CONTINUOUS
10
115.414
20
-142.261
11
115.41
21
-142.263
0
LINE
8
BLACK
6
CONTINUOUS
10
115.41
20
-142.263
11
115.405
21
-142.265
0
LINE
8
BLACK
6
CONTINUOUS
10
115.405
20
-142.265
11
115.4
21
-142.265
0
LINE
8
BLACK
6
CONTINUOUS
10
115.4
20
-142.265
11
115.399
21
-142.265
0
LINE
8
BLACK
6
CONTINUOUS
10
115.399
20
-142.265
11
19.4312
21
-142.265
0
LINE
8
BLACK
6
CONTINUOUS
10
19.4312
20
-142.265
11
19.43
21
-142.265
0
LINE
8
BLACK
6
CONTINUOUS
10
19.43
20
-142.265
11
19.4251
21
-142.265
0
LINE
8
BLACK
6
CONTINUOUS
10
19.4251
20
-142.265
11
19.4204
21
-142.263
0
LINE
8
BLACK
6
CONTINUOUS
10
19.4204
20
-142.263
11
19.416
21
-142.261
0
LINE
8
BLACK
6
CONTINUOUS
10
19.416
20
-142.261
11
19.4122
21
-142.258
0
LINE
8
BLACK
6
CONTINUOUS
10
19.4122
20
-142.258
11
19.4091
21
-142.254
0
LINE
8
BLACK
6
CONTINUOUS
10
19.4091
20
-142.254
11
19.4068
21
-142.25
0
LINE
8
BLACK
6
CONTINUOUS
10
19.4068
20
-142.25
11
19.4054
21
-142.245
0
LINE
8
BLACK
6
CONTINUOUS
10
19.4054
20
-142.245
11
19.4049
21
-142.24
0
LINE
8
BLACK
6
CONTINUOUS
10
19.4049
20
-142.24
11
19.405
21
-142.239
0
LINE
8
BLACK
6
CONTINUOUS
10
19.405
20
-142.239
11
19.405
21
-16.6812
0
LINE
8
BLACK
6
CONTINUOUS
10
19.405
20
-16.6812
11
19.4049
21
-16.68
0
LINE
8
BLACK
6
CONTINUOUS
10
19.4049
20
-16.68
11
19.4054
21
-16.6751
0
LINE
8
BLACK
6
CONTINUOUS
10
19.4054
20
-16.6751
11
19.4068
21
-16.6704
0
LINE
8
BLACK
6
CONTINUOUS
10
19.4068
20
-16.6704
11
19.4091
21
-16.666
0
LINE
8
BLACK
6
CONTINUOUS
10
19.4091
20
-16.666
11
19.4122
21
-16.6622
0
LINE
8
BLACK
6
CONTINUOUS
10
19.4122
20
-16.6622
11
19.416
21
-16.6591
0
LINE
8
BLACK
6
CONTINUOUS
10
19.416
20
-16.6591
11
19.4204
21
-16.6568
0
LINE
8
BLACK
6
CONTINUOUS
10
19.4204
20
-16.6568
11
19.4251
21
-16.6554
0
LINE
8
BLACK
6
CONTINUOUS
10
19.4251
20
-16.6554
11
19.4288
21
-16.655
0
LINE
8
BLACK
6
CONTINUOUS
10
19.4288
20
-16.655
11
19.4288
21
-16.655
0
LINE
8
BLACK
6
CONTINUOUS
10
19.4288
20
-16.655
11
19.43
21
-16.6549
0
LINE
8
BLACK
6
CONTINUOUS
10
19.43
20
-16.6549
11
19.4312
21
-16.655
0
LINE
8
BLACK
6
CONTINUOUS
10
19.4312
20
-16.655
11
115.399
21
-16.655
0
LINE
8
BLACK
6
CONTINUOUS
10
115.399
20
-16.655
11
115.4
21
-16.6549
0
LINE
8
BLACK
6
CONTINUOUS
10
115.4
20
-16.6549
11
115.401
21
-16.655
0
LINE
8
BLACK
6
CONTINUOUS
10
19.455
20
-16.705
11
19.455
21
-142.215
0
LINE
8
BLACK
6
CONTINUOUS
10
19.455
20
-142.215
11
115.375
21
-142.215
0
LINE
8
BLACK
6
CONTINUOUS
10
115.375
20
-142.215
11
115.375
21
-16.705
0
LINE
8
BLACK
6
CONTINUOUS
10
115.375
20
-16.705
11
19.455
21
-16.705
0
LINE
8
BLACK
6
CONTINUOUS
10
79.9812
20
-131.535
11
79.9849
21
-131.535
0
LINE
8
BLACK
6
CONTINUOUS
10
79.9849
20
-131.535
11
79.9896
21
-131.537
0
LINE
8
BLACK
6
CONTINUOUS
10
79.9896
20
-131.537
11
79.994
21
-131.539
0
LINE
8
BLACK
6
CONTINUOUS
10
79.994
20
-131.539
11
79.9978
21
-131.542
0
LINE
8
BLACK
6
CONTINUOUS
10
79.9978
20
-131.542
11
80.0009
21
-131.546
0
LINE
8
BLACK
6
CONTINUOUS
10
80.0009
20
-131.546
11
80.0032
21
-131.55
0
LINE
8
BLACK
6
CONTINUOUS
10
80.0032
20
-131.55
11
80.0046
21
-131.555
0
LINE
8
BLACK
6
CONTINUOUS
10
80.0046
20
-131.555
11
80.0051
21
-131.56
0
LINE
8
BLACK
6
CONTINUOUS
10
80.0051
20
-131.56
11
80.005
21
-131.561
0
LINE
8
BLACK
6
CONTINUOUS
10
80.005
20
-131.561
11
80.005
21
-135.159
0
LINE
8
BLACK
6
CONTINUOUS
10
80.005
20
-135.159
11
80.0051
21
-135.16
0
LINE
8
BLACK
6
CONTINUOUS
10
80.0051
20
-135.16
11
80.0046
21
-135.165
0
LINE
8
BLACK
6
CONTINUOUS
10
80.0046
20
-135.165
11
80.0032
21
-135.17
0
LINE
8
BLACK
6
CONTINUOUS
10
80.0032
20
-135.17
11
80.0009
21
-135.174
0
LINE
8
BLACK
6
CONTINUOUS
10
80.0009
20
-135.174
11
79.9978
21
-135.178
0
LINE
8
BLACK
6
CONTINUOUS
10
79.9978
20
-135.178
11
79.994
21
-135.181
0
LINE
8
BLACK
6
CONTINUOUS
10
79.994
20
-135.181
11
79.9896
21
-135.183
0
LINE
8
BLACK
6
CONTINUOUS
10
79.9896
20
-135.183
11
79.9849
21
-135.185
0
LINE
8
BLACK
6
CONTINUOUS
10
79.9849
20
-135.185
11
79.9812
21
-135.185
0
LINE
8
BLACK
6
CONTINUOUS
10
79.9812
20
-135.185
11
79.9812
21
-135.185
0
LINE
8
BLACK
6
CONTINUOUS
10
79.9812
20
-135.185
11
79.98
21
-135.185
0
LINE
8
BLACK
6
CONTINUOUS
10
79.98
20
-135.185
11
79.9788
21
-135.185
0
LINE
8
BLACK
6
CONTINUOUS
10
79.9788
20
-135.185
11
53.5312
21
-135.185
0
LINE
8
BLACK
6
CONTINUOUS
10
53.5312
20
-135.185
11
53.53
21
-135.185
0
LINE
8
BLACK
6
CONTINUOUS
10
53.53
20
-135.185
11
53.5288
21
-135.185
0
LINE
8
BLACK
6
CONTINUOUS
10
53.5288
20
-135.185
11
53.5288
21
-135.185
0
LINE
8
BLACK
6
CONTINUOUS
10
53.5288
20
-135.185
11
53.5251
21
-135.185
0
LINE
8
BLACK
6
CONTINUOUS
10
53.5251
20
-135.185
11
53.5204
21
-135.183
0
LINE
8
BLACK
6
CONTINUOUS
10
53.5204
20
-135.183
11
53.516
21
-135.181
0
LINE
8
BLACK
6
CONTINUOUS
10
53.516
20
-135.181
11
53.5122
21
-135.178
0
LINE
8
BLACK
6
CONTINUOUS
10
53.5122
20
-135.178
11
53.5091
21
-135.174
0
LINE
8
BLACK
6
CONTINUOUS
10
53.5091
20
-135.174
11
53.5068
21
-135.17
0
LINE
8
BLACK
6
CONTINUOUS
10
53.5068
20
-135.17
11
53.5054
21
-135.165
0
LINE
8
BLACK
6
CONTINUOUS
10
53.5054
20
-135.165
11
53.5049
21
-135.16
0
LINE
8
BLACK
6
CONTINUOUS
10
53.5049
20
-135.16
11
53.505
21
-135.159
0
LINE
8
BLACK
6
CONTINUOUS
10
53.505
20
-135.159
11
53.505
21
-131.561
0
LINE
8
BLACK
6
CONTINUOUS
10
53.505
20
-131.561
11
53.5049
21
-131.56
0
LINE
8
BLACK
6
CONTINUOUS
10
53.5049
20
-131.56
11
53.5054
21
-131.555
0
LINE
8
BLACK
6
CONTINUOUS
10
53.5054
20
-131.555
11
53.5068
21
-131.55
0
LINE
8
BLACK
6
CONTINUOUS
10
53.5068
20
-131.55
11
53.5091
21
-131.546
0
LINE
8
BLACK
6
CONTINUOUS
10
53.5091
20
-131.546
11
53.5122
21
-131.542
0
LINE
8
BLACK
6
CONTINUOUS
10
53.5122
20
-131.542
11
53.516
21
-131.539
0
LINE
8
BLACK
6
CONTINUOUS
10
53.516
20
-131.539
11
53.5204
21
-131.537
0
LINE
8
BLACK
6
CONTINUOUS
10
53.5204
20
-131.537
11
53.5251
21
-131.535
0
LINE
8
BLACK
6
CONTINUOUS
10
53.5251
20
-131.535
11
53.5288
21
-131.535
0
LINE
8
BLACK
6
CONTINUOUS
10
53.5288
20
-131.535
11
53.53
21
-131.535
0
LINE
8
BLACK
6
CONTINUOUS
10
53.53
20
-131.535
11
53.5312
21
-131.535
0
LINE
8
BLACK
6
CONTINUOUS
10
53.5312
20
-131.535
11
79.9788
21
-131.535
0
LINE
8
BLACK
6
CONTINUOUS
10
79.9788
20
-131.535
11
79.98
21
-131.535
0
LINE
8
BLACK
6
CONTINUOUS
10
79.98
20
-131.535
11
79.9812
21
-131.535
0
LINE
8
BLACK
6
CONTINUOUS
10
53.555
20
-131.585
11
53.555
21
-135.135
0
LINE
8
BLACK
6
CONTINUOUS
10
53.555
20
-135.135
11
79.955
21
-135.135
0
LINE
8
BLACK
6
CONTINUOUS
10
79.955
20
-135.135
11
79.955
21
-131.585
0
LINE
8
BLACK
6
CONTINUOUS
10
79.955
20
-131.585
11
53.555
21
-131.585
0
LINE
8
BLACK
6
CONTINUOUS
10
36.5912
20
-104.565
11
36.5949
21
-104.565
0
LINE
8
BLACK
6
CONTINUOUS
10
36.5949
20
-104.565
11
36.5996
21
-104.567
0
LINE
8
BLACK
6
CONTINUOUS
10
36.5996
20
-104.567
11
36.604
21
-104.569
0
LINE
8
BLACK
6
CONTINUOUS
10
36.604
20
-104.569
11
36.6078
21
-104.572
0
LINE
8
BLACK
6
CONTINUOUS
10
36.6078
20
-104.572
11
36.6109
21
-104.576
0
LINE
8
BLACK
6
CONTINUOUS
10
36.6109
20
-104.576
11
36.6132
21
-104.58
0
LINE
8
BLACK
6
CONTINUOUS
10
36.6132
20
-104.58
11
36.6146
21
-104.585
0
LINE
8
BLACK
6
CONTINUOUS
10
36.6146
20
-104.585
11
36.6151
21
-104.59
0
LINE
8
BLACK
6
CONTINUOUS
10
36.6151
20
-104.59
11
36.615
21
-104.591
0
LINE
8
BLACK
6
CONTINUOUS
10
36.615
20
-104.591
11
36.615
21
-118.339
0
LINE
8
BLACK
6
CONTINUOUS
10
36.615
20
-118.339
11
36.6151
21
-118.34
0
LINE
8
BLACK
6
CONTINUOUS
10
36.6151
20
-118.34
11
36.6146
21
-118.345
0
LINE
8
BLACK
6
CONTINUOUS
10
36.6146
20
-118.345
11
36.6132
21
-118.35
0
LINE
8
BLACK
6
CONTINUOUS
10
36.6132
20
-118.35
11
36.6109
21
-118.354
0
LINE
8
BLACK
6
CONTINUOUS
10
36.6109
20
-118.354
11
36.6078
21
-118.358
0
LINE
8
BLACK
6
CONTINUOUS
10
36.6078
20
-118.358
11
36.604
21
-118.361
0
LINE
8
BLACK
6
CONTINUOUS
10
36.604
20
-118.361
11
36.5996
21
-118.363
0
LINE
8
BLACK
6
CONTINUOUS
10
36.5996
20
-118.363
11
36.5949
21
-118.365
0
LINE
8
BLACK
6
CONTINUOUS
10
36.5949
20
-118.365
11
36.5912
21
-118.365
0
LINE
8
BLACK
6
CONTINUOUS
10
36.5912
20
-118.365
11
36.5912
21
-118.365
0
LINE
8
BLACK
6
CONTINUOUS
10
36.5912
20
-118.365
11
36.59
21
-118.365
0
LINE
8
BLACK
6
CONTINUOUS
10
36.59
20
-118.365
11
36.5888
21
-118.365
0
LINE
8
BLACK
6
CONTINUOUS
10
36.5888
20
-118.365
11
23.2512
21
-118.365
0
LINE
8
BLACK
6
CONTINUOUS
10
23.2512
20
-118.365
11
23.25
21
-118.365
0
LINE
8
BLACK
6
CONTINUOUS
10
23.25
20
-118.365
11
23.2488
21
-118.365
0
LINE
8
BLACK
6
CONTINUOUS
10
23.2488
20
-118.365
11
23.2488
21
-118.365
0
LINE
8
BLACK
6
CONTINUOUS
10
23.2488
20
-118.365
11
23.2451
21
-118.365
0
LINE
8
BLACK
6
CONTINUOUS
10
23.2451
20
-118.365
11
23.2404
21
-118.363
0
LINE
8
BLACK
6
CONTINUOUS
10
23.2404
20
-118.363
11
23.236
21
-118.361
0
LINE
8
BLACK
6
CONTINUOUS
10
23.236
20
-118.361
11
23.2322
21
-118.358
0
LINE
8
BLACK
6
CONTINUOUS
10
23.2322
20
-118.358
11
23.2291
21
-118.354
0
LINE
8
BLACK
6
CONTINUOUS
10
23.2291
20
-118.354
11
23.2268
21
-118.35
0
LINE
8
BLACK
6
CONTINUOUS
10
23.2268
20
-118.35
11
23.2254
21
-118.345
0
LINE
8
BLACK
6
CONTINUOUS
10
23.2254
20
-118.345
11
23.2249
21
-118.34
0
LINE
8
BLACK
6
CONTINUOUS
10
23.2249
20
-118.34
11
23.225
21
-118.339
0
LINE
8
BLACK
6
CONTINUOUS
10
23.225
20
-118.339
11
23.225
21
-104.591
0
LINE
8
BLACK
6
CONTINUOUS
10
23.225
20
-104.591
11
23.2249
21
-104.59
0
LINE
8
BLACK
6
CONTINUOUS
10
23.2249
20
-104.59
11
23.2254
21
-104.585
0
LINE
8
BLACK
6
CONTINUOUS
10
23.2254
20
-104.585
11
23.2268
21
-104.58
0
LINE
8
BLACK
6
CONTINUOUS
10
23.2268
20
-104.58
11
23.2291
21
-104.576
0
LINE
8
BLACK
6
CONTINUOUS
10
23.2291
20
-104.576
11
23.2322
21
-104.572
0
LINE
8
BLACK
6
CONTINUOUS
10
23.2322
20
-104.572
11
23.236
21
-104.569
0
LINE
8
BLACK
6
CONTINUOUS
10
23.236
20
-104.569
11
23.2404
21
-104.567
0
LINE
8
BLACK
6
CONTINUOUS
10
23.2404
20
-104.567
11
23.2451
21
-104.565
0
LINE
8
BLACK
6
CONTINUOUS
10
23.2451
20
-104.565
11
23.2488
21
-104.565
0
LINE
8
BLACK
6
CONTINUOUS
10
23.2488
20
-104.565
11
23.25
21
-104.565
0
LINE
8
BLACK
6
CONTINUOUS
10
23.25
20
-104.565
11
23.2512
21
-104.565
0
LINE
8
BLACK
6
CONTINUOUS
10
23.2512
20
-104.565
11
36.5888
21
-104.565
0
LINE
8
BLACK
6
CONTINUOUS
10
36.5888
20
-104.565
11
36.59
21
-104.565
0
LINE
8
BLACK
6
CONTINUOUS
10
36.59
20
-104.565
11
36.5912
21
-104.565
0
LINE
8
BLACK
6
CONTINUOUS
10
23.275
20
-104.615
11
23.275
21
-118.315
0
LINE
8
BLACK
6
CONTINUOUS
10
23.275
20
-118.315
11
36.565
21
-118.315
0
LINE
8
BLACK
6
CONTINUOUS
10
36.565
20
-118.315
11
36.565
21
-104.615
0
LINE
8
BLACK
6
CONTINUOUS
10
36.565
20
-104.615
11
23.275
21
-104.615
0
LINE
8
BLACK
6
CONTINUOUS
10
111.601
20
-104.555
11
111.605
21
-104.555
0
LINE
8
BLACK
6
CONTINUOUS
10
111.605
20
-104.555
11
111.61
21
-104.557
0
LINE
8
BLACK
6
CONTINUOUS
10
111.61
20
-104.557
11
111.614
21
-104.559
0
LINE
8
BLACK
6
CONTINUOUS
10
111.614
20
-104.559
11
111.618
21
-104.562
0
LINE
8
BLACK
6
CONTINUOUS
10
111.618
20
-104.562
11
111.621
21
-104.566
0
LINE
8
BLACK
6
CONTINUOUS
10
111.621
20
-104.566
11
111.623
21
-104.57
0
LINE
8
BLACK
6
CONTINUOUS
10
111.623
20
-104.57
11
111.625
21
-104.575
0
LINE
8
BLACK
6
CONTINUOUS
10
111.625
20
-104.575
11
111.625
21
-104.58
0
LINE
8
BLACK
6
CONTINUOUS
10
111.625
20
-104.58
11
111.625
21
-104.581
0
LINE
8
BLACK
6
CONTINUOUS
10
111.625
20
-104.581
11
111.625
21
-118.329
0
LINE
8
BLACK
6
CONTINUOUS
10
111.625
20
-118.329
11
111.625
21
-118.33
0
LINE
8
BLACK
6
CONTINUOUS
10
111.625
20
-118.33
11
111.625
21
-118.335
0
LINE
8
BLACK
6
CONTINUOUS
10
111.625
20
-118.335
11
111.623
21
-118.34
0
LINE
8
BLACK
6
CONTINUOUS
10
111.623
20
-118.34
11
111.621
21
-118.344
0
LINE
8
BLACK
6
CONTINUOUS
10
111.621
20
-118.344
11
111.618
21
-118.348
0
LINE
8
BLACK
6
CONTINUOUS
10
111.618
20
-118.348
11
111.614
21
-118.351
0
LINE
8
BLACK
6
CONTINUOUS
10
111.614
20
-118.351
11
111.61
21
-118.353
0
LINE
8
BLACK
6
CONTINUOUS
10
111.61
20
-118.353
11
111.605
21
-118.355
0
LINE
8
BLACK
6
CONTINUOUS
10
111.605
20
-118.355
11
111.601
21
-118.355
0
LINE
8
BLACK
6
CONTINUOUS
10
111.601
20
-118.355
11
111.601
21
-118.355
0
LINE
8
BLACK
6
CONTINUOUS
10
111.601
20
-118.355
11
111.6
21
-118.355
0
LINE
8
BLACK
6
CONTINUOUS
10
111.6
20
-118.355
11
111.599
21
-118.355
0
LINE
8
BLACK
6
CONTINUOUS
10
111.599
20
-118.355
11
98.2612
21
-118.355
0
LINE
8
BLACK
6
CONTINUOUS
10
98.2612
20
-118.355
11
98.26
21
-118.355
0
LINE
8
BLACK
6
CONTINUOUS
10
98.26
20
-118.355
11
98.2588
21
-118.355
0
LINE
8
BLACK
6
CONTINUOUS
10
98.2588
20
-118.355
11
98.2588
21
-118.355
0
LINE
8
BLACK
6
CONTINUOUS
10
98.2588
20
-118.355
11
98.2551
21
-118.355
0
LINE
8
BLACK
6
CONTINUOUS
10
98.2551
20
-118.355
11
98.2504
21
-118.353
0
LINE
8
BLACK
6
CONTINUOUS
10
98.2504
20
-118.353
11
98.246
21
-118.351
0
LINE
8
BLACK
6
CONTINUOUS
10
98.246
20
-118.351
11
98.2422
21
-118.348
0
LINE
8
BLACK
6
CONTINUOUS
10
98.2422
20
-118.348
11
98.2391
21
-118.344
0
LINE
8
BLACK
6
CONTINUOUS
10
98.2391
20
-118.344
11
98.2368
21
-118.34
0
LINE
8
BLACK
6
CONTINUOUS
10
98.2368
20
-118.34
11
98.2354
21
-118.335
0
LINE
8
BLACK
6
CONTINUOUS
10
98.2354
20
-118.335
11
98.2349
21
-118.33
0
LINE
8
BLACK
6
CONTINUOUS
10
98.2349
20
-118.33
11
98.235
21
-118.329
0
LINE
8
BLACK
6
CONTINUOUS
10
98.235
20
-118.329
11
98.235
21
-104.581
0
LINE
8
BLACK
6
CONTINUOUS
10
98.235
20
-104.581
11
98.2349
21
-104.58
0
LINE
8
BLACK
6
CONTINUOUS
10
98.2349
20
-104.58
11
98.2354
21
-104.575
0
LINE
8
BLACK
6
CONTINUOUS
10
98.2354
20
-104.575
11
98.2368
21
-104.57
0
LINE
8
BLACK
6
CONTINUOUS
10
98.2368
20
-104.57
11
98.2391
21
-104.566
0
LINE
8
BLACK
6
CONTINUOUS
10
98.2391
20
-104.566
11
98.2422
21
-104.562
0
LINE
8
BLACK
6
CONTINUOUS
10
98.2422
20
-104.562
11
98.246
21
-104.559
0
LINE
8
BLACK
6
CONTINUOUS
10
98.246
20
-104.559
11
98.2504
21
-104.557
0
LINE
8
BLACK
6
CONTINUOUS
10
98.2504
20
-104.557
11
98.2551
21
-104.555
0
LINE
8
BLACK
6
CONTINUOUS
10
98.2551
20
-104.555
11
98.2588
21
-104.555
0
LINE
8
BLACK
6
CONTINUOUS
10
98.2588
20
-104.555
11
98.26
21
-104.555
0
LINE
8
BLACK
6
CONTINUOUS
10
98.26
20
-104.555
11
98.2612
21
-104.555
0
LINE
8
BLACK
6
CONTINUOUS
10
98.2612
20
-104.555
11
111.599
21
-104.555
0
LINE
8
BLACK
6
CONTINUOUS
10
111.599
20
-104.555
11
111.6
21
-104.555
0
LINE
8
BLACK
6
CONTINUOUS
10
111.6
20
-104.555
11
111.601
21
-104.555
0
LINE
8
BLACK
6
CONTINUOUS
10
98.285
20
-104.605
11
98.285
21
-118.305
0
LINE
8
BLACK
6
CONTINUOUS
10
98.285
20
-118.305
11
111.575
21
-118.305
0
LINE
8
BLACK
6
CONTINUOUS
10
111.575
20
-118.305
11
111.575
21
-104.605
0
LINE
8
BLACK
6
CONTINUOUS
10
111.575
20
-104.605
11
98.285
21
-104.605
0
LINE
8
BLACK
6
CONTINUOUS
10
61.5912
20
-104.545
11
61.5949
21
-104.545
0
LINE
8
BLACK
6
CONTINUOUS
10
61.5949
20
-104.545
11
61.5996
21
-104.547
0
LINE
8
BLACK
6
CONTINUOUS
10
61.5996
20
-104.547
11
61.604
21
-104.549
0
LINE
8
BLACK
6
CONTINUOUS
10
61.604
20
-104.549
11
61.6078
21
-104.552
0
LINE
8
BLACK
6
CONTINUOUS
10
61.6078
20
-104.552
11
61.6109
21
-104.556
0
LINE
8
BLACK
6
CONTINUOUS
10
61.6109
20
-104.556
11
61.6132
21
-104.56
0
LINE
8
BLACK
6
CONTINUOUS
10
61.6132
20
-104.56
11
61.6146
21
-104.565
0
LINE
8
BLACK
6
CONTINUOUS
10
61.6146
20
-104.565
11
61.6151
21
-104.57
0
LINE
8
BLACK
6
CONTINUOUS
10
61.6151
20
-104.57
11
61.615
21
-104.571
0
LINE
8
BLACK
6
CONTINUOUS
10
61.615
20
-104.571
11
61.615
21
-118.319
0
LINE
8
BLACK
6
CONTINUOUS
10
61.615
20
-118.319
11
61.6151
21
-118.32
0
LINE
8
BLACK
6
CONTINUOUS
10
61.6151
20
-118.32
11
61.6146
21
-118.325
0
LINE
8
BLACK
6
CONTINUOUS
10
61.6146
20
-118.325
11
61.6132
21
-118.33
0
LINE
8
BLACK
6
CONTINUOUS
10
61.6132
20
-118.33
11
61.6109
21
-118.334
0
LINE
8
BLACK
6
CONTINUOUS
10
61.6109
20
-118.334
11
61.6078
21
-118.338
0
LINE
8
BLACK
6
CONTINUOUS
10
61.6078
20
-118.338
11
61.604
21
-118.341
0
LINE
8
BLACK
6
CONTINUOUS
10
61.604
20
-118.341
11
61.5996
21
-118.343
0
LINE
8
BLACK
6
CONTINUOUS
10
61.5996
20
-118.343
11
61.5949
21
-118.345
0
LINE
8
BLACK
6
CONTINUOUS
10
61.5949
20
-118.345
11
61.5912
21
-118.345
0
LINE
8
BLACK
6
CONTINUOUS
10
61.5912
20
-118.345
11
61.5912
21
-118.345
0
LINE
8
BLACK
6
CONTINUOUS
10
61.5912
20
-118.345
11
61.59
21
-118.345
0
LINE
8
BLACK
6
CONTINUOUS
10
61.59
20
-118.345
11
61.5888
21
-118.345
0
LINE
8
BLACK
6
CONTINUOUS
10
61.5888
20
-118.345
11
48.2512
21
-118.345
0
LINE
8
BLACK
6
CONTINUOUS
10
48.2512
20
-118.345
11
48.25
21
-118.345
0
LINE
8
BLACK
6
CONTINUOUS
10
48.25
20
-118.345
11
48.2488
21
-118.345
0
LINE
8
BLACK
6
CONTINUOUS
10
48.2488
20
-118.345
11
48.2488
21
-118.345
0
LINE
8
BLACK
6
CONTINUOUS
10
48.2488
20
-118.345
11
48.2451
21
-118.345
0
LINE
8
BLACK
6
CONTINUOUS
10
48.2451
20
-118.345
11
48.2404
21
-118.343
0
LINE
8
BLACK
6
CONTINUOUS
10
48.2404
20
-118.343
11
48.236
21
-118.341
0
LINE
8
BLACK
6
CONTINUOUS
10
48.236
20
-118.341
11
48.2322
21
-118.338
0
LINE
8
BLACK
6
CONTINUOUS
10
48.2322
20
-118.338
11
48.2291
21
-118.334
0
LINE
8
BLACK
6
CONTINUOUS
10
48.2291
20
-118.334
11
48.2268
21
-118.33
0
LINE
8
BLACK
6
CONTINUOUS
10
48.2268
20
-118.33
11
48.2254
21
-118.325
0
LINE
8
BLACK
6
CONTINUOUS
10
48.2254
20
-118.325
11
48.2249
21
-118.32
0
LINE
8
BLACK
6
CONTINUOUS
10
48.2249
20
-118.32
11
48.225
21
-118.319
0
LINE
8
BLACK
6
CONTINUOUS
10
48.225
20
-118.319
11
48.225
21
-104.571
0
LINE
8
BLACK
6
CONTINUOUS
10
48.225
20
-104.571
11
48.2249
21
-104.57
0
LINE
8
BLACK
6
CONTINUOUS
10
48.2249
20
-104.57
11
48.2254
21
-104.565
0
LINE
8
BLACK
6
CONTINUOUS
10
48.2254
20
-104.565
11
48.2268
21
-104.56
0
LINE
8
BLACK
6
CONTINUOUS
10
48.2268
20
-104.56
11
48.2291
21
-104.556
0
LINE
8
BLACK
6
CONTINUOUS
10
48.2291
20
-104.556
11
48.2322
21
-104.552
0
LINE
8
BLACK
6
CONTINUOUS
10
48.2322
20
-104.552
11
48.236
21
-104.549
0
LINE
8
BLACK
6
CONTINUOUS
10
48.236
20
-104.549
11
48.2404
21
-104.547
0
LINE
8
BLACK
6
CONTINUOUS
10
48.2404
20
-104.547
11
48.2451
21
-104.545
0
LINE
8
BLACK
6
CONTINUOUS
10
48.2451
20
-104.545
11
48.2488
21
-104.545
0
LINE
8
BLACK
6
CONTINUOUS
10
48.2488
20
-104.545
11
48.25
21
-104.545
0
LINE
8
BLACK
6
CONTINUOUS
10
48.25
20
-104.545
11
48.2512
21
-104.545
0
LINE
8
BLACK
6
CONTINUOUS
10
48.2512
20
-104.545
11
61.5888
21
-104.545
0
LINE
8
BLACK
6
CONTINUOUS
10
61.5888
20
-104.545
11
61.59
21
-104.545
0
LINE
8
BLACK
6
CONTINUOUS
10
61.59
20
-104.545
11
61.5912
21
-104.545
0
LINE
8
BLACK
6
CONTINUOUS
10
48.275
20
-104.595
11
48.275
21
-118.295
0
LINE
8
BLACK
6
CONTINUOUS
10
48.275
20
-118.295
11
61.565
21
-118.295
0
LINE
8
BLACK
6
CONTINUOUS
10
61.565
20
-118.295
11
61.565
21
-104.595
0
LINE
8
BLACK
6
CONTINUOUS
10
61.565
20
-104.595
11
48.275
21
-104.595
0
LINE
8
BLACK
6
CONTINUOUS
10
86.5812
20
-104.525
11
86.5849
21
-104.525
0
LINE
8
BLACK
6
CONTINUOUS
10
86.5849
20
-104.525
11
86.5896
21
-104.527
0
LINE
8
BLACK
6
CONTINUOUS
10
86.5896
20
-104.527
11
86.594
21
-104.529
0
LINE
8
BLACK
6
CONTINUOUS
10
86.594
20
-104.529
11
86.5978
21
-104.532
0
LINE
8
BLACK
6
CONTINUOUS
10
86.5978
20
-104.532
11
86.6009
21
-104.536
0
LINE
8
BLACK
6
CONTINUOUS
10
86.6009
20
-104.536
11
86.6032
21
-104.54
0
LINE
8
BLACK
6
CONTINUOUS
10
86.6032
20
-104.54
11
86.6046
21
-104.545
0
LINE
8
BLACK
6
CONTINUOUS
10
86.6046
20
-104.545
11
86.6051
21
-104.55
0
LINE
8
BLACK
6
CONTINUOUS
10
86.6051
20
-104.55
11
86.605
21
-104.551
0
LINE
8
BLACK
6
CONTINUOUS
10
86.605
20
-104.551
11
86.605
21
-118.299
0
LINE
8
BLACK
6
CONTINUOUS
10
86.605
20
-118.299
11
86.6051
21
-118.3
0
LINE
8
BLACK
6
CONTINUOUS
10
86.6051
20
-118.3
11
86.6046
21
-118.305
0
LINE
8
BLACK
6
CONTINUOUS
10
86.6046
20
-118.305
11
86.6032
21
-118.31
0
LINE
8
BLACK
6
CONTINUOUS
10
86.6032
20
-118.31
11
86.6009
21
-118.314
0
LINE
8
BLACK
6
CONTINUOUS
10
86.6009
20
-118.314
11
86.5978
21
-118.318
0
LINE
8
BLACK
6
CONTINUOUS
10
86.5978
20
-118.318
11
86.594
21
-118.321
0
LINE
8
BLACK
6
CONTINUOUS
10
86.594
20
-118.321
11
86.5896
21
-118.323
0
LINE
8
BLACK
6
CONTINUOUS
10
86.5896
20
-118.323
11
86.5849
21
-118.325
0
LINE
8
BLACK
6
CONTINUOUS
10
86.5849
20
-118.325
11
86.5812
21
-118.325
0
LINE
8
BLACK
6
CONTINUOUS
10
86.5812
20
-118.325
11
86.5812
21
-118.325
0
LINE
8
BLACK
6
CONTINUOUS
10
86.5812
20
-118.325
11
86.58
21
-118.325
0
LINE
8
BLACK
6
CONTINUOUS
10
86.58
20
-118.325
11
86.5788
21
-118.325
0
LINE
8
BLACK
6
CONTINUOUS
10
86.5788
20
-118.325
11
73.2412
21
-118.325
0
LINE
8
BLACK
6
CONTINUOUS
10
73.2412
20
-118.325
11
73.24
21
-118.325
0
LINE
8
BLACK
6
CONTINUOUS
10
73.24
20
-118.325
11
73.2388
21
-118.325
0
LINE
8
BLACK
6
CONTINUOUS
10
73.2388
20
-118.325
11
73.2388
21
-118.325
0
LINE
8
BLACK
6
CONTINUOUS
10
73.2388
20
-118.325
11
73.2351
21
-118.325
0
LINE
8
BLACK
6
CONTINUOUS
10
73.2351
20
-118.325
11
73.2304
21
-118.323
0
LINE
8
BLACK
6
CONTINUOUS
10
73.2304
20
-118.323
11
73.226
21
-118.321
0
LINE
8
BLACK
6
CONTINUOUS
10
73.226
20
-118.321
11
73.2222
21
-118.318
0
LINE
8
BLACK
6
CONTINUOUS
10
73.2222
20
-118.318
11
73.2191
21
-118.314
0
LINE
8
BLACK
6
CONTINUOUS
10
73.2191
20
-118.314
11
73.2168
21
-118.31
0
LINE
8
BLACK
6
CONTINUOUS
10
73.2168
20
-118.31
11
73.2154
21
-118.305
0
LINE
8
BLACK
6
CONTINUOUS
10
73.2154
20
-118.305
11
73.2149
21
-118.3
0
LINE
8
BLACK
6
CONTINUOUS
10
73.2149
20
-118.3
11
73.215
21
-118.299
0
LINE
8
BLACK
6
CONTINUOUS
10
73.215
20
-118.299
11
73.215
21
-104.551
0
LINE
8
BLACK
6
CONTINUOUS
10
73.215
20
-104.551
11
73.2149
21
-104.55
0
LINE
8
BLACK
6
CONTINUOUS
10
73.2149
20
-104.55
11
73.2154
21
-104.545
0
LINE
8
BLACK
6
CONTINUOUS
10
73.2154
20
-104.545
11
73.2168
21
-104.54
0
LINE
8
BLACK
6
CONTINUOUS
10
73.2168
20
-104.54
11
73.2191
21
-104.536
0
LINE
8
BLACK
6
CONTINUOUS
10
73.2191
20
-104.536
11
73.2222
21
-104.532
0
LINE
8
BLACK
6
CONTINUOUS
10
73.2222
20
-104.532
11
73.226
21
-104.529
0
LINE
8
BLACK
6
CONTINUOUS
10
73.226
20
-104.529
11
73.2304
21
-104.527
0
LINE
8
BLACK
6
CONTINUOUS
10
73.2304
20
-104.527
11
73.2351
21
-104.525
0
LINE
8
BLACK
6
CONTINUOUS
10
73.2351
20
-104.525
11
73.2388
21
-104.525
0
LINE
8
BLACK
6
CONTINUOUS
10
73.2388
20
-104.525
11
73.24
21
-104.525
0
LINE
8
BLACK
6
CONTINUOUS
10
73.24
20
-104.525
11
73.2412
21
-104.525
0
LINE
8
BLACK
6
CONTINUOUS
10
73.2412
20
-104.525
11
86.5788
21
-104.525
0
LINE
8
BLACK
6
CONTINUOUS
10
86.5788
20
-104.525
11
86.58
21
-104.525
0
LINE
8
BLACK
6
CONTINUOUS
10
86.58
20
-104.525
11
86.5812
21
-104.525
0
LINE
8
BLACK
6
CONTINUOUS
10
73.265
20
-104.575
11
73.265
21
-118.275
0
LINE
8
BLACK
6
CONTINUOUS
10
73.265
20
-118.275
11
86.555
21
-118.275
0
LINE
8
BLACK
6
CONTINUOUS
10
86.555
20
-118.275
11
86.555
21
-104.575
0
LINE
8
BLACK
6
CONTINUOUS
10
86.555
20
-104.575
11
73.265
21
-104.575
0
LINE
8
BLACK
6
CONTINUOUS
10
61.6012
20
-64.555
11
61.6049
21
-64.5554
0
LINE
8
BLACK
6
CONTINUOUS
10
61.6049
20
-64.5554
11
61.6096
21
-64.5568
0
LINE
8
BLACK
6
CONTINUOUS
10
61.6096
20
-64.5568
11
61.614
21
-64.5591
0
LINE
8
BLACK
6
CONTINUOUS
10
61.614
20
-64.5591
11
61.6178
21
-64.5622
0
LINE
8
BLACK
6
CONTINUOUS
10
61.6178
20
-64.5622
11
61.6209
21
-64.566
0
LINE
8
BLACK
6
CONTINUOUS
10
61.6209
20
-64.566
11
61.6232
21
-64.5704
0
LINE
8
BLACK
6
CONTINUOUS
10
61.6232
20
-64.5704
11
61.6246
21
-64.5751
0
LINE
8
BLACK
6
CONTINUOUS
10
61.6246
20
-64.5751
11
61.6251
21
-64.58
0
LINE
8
BLACK
6
CONTINUOUS
10
61.6251
20
-64.58
11
61.625
21
-64.5812
0
LINE
8
BLACK
6
CONTINUOUS
10
61.625
20
-64.5812
11
61.625
21
-78.3288
0
LINE
8
BLACK
6
CONTINUOUS
10
61.625
20
-78.3288
11
61.6251
21
-78.33
0
LINE
8
BLACK
6
CONTINUOUS
10
61.6251
20
-78.33
11
61.6246
21
-78.3349
0
LINE
8
BLACK
6
CONTINUOUS
10
61.6246
20
-78.3349
11
61.6232
21
-78.3396
0
LINE
8
BLACK
6
CONTINUOUS
10
61.6232
20
-78.3396
11
61.6209
21
-78.344
0
LINE
8
BLACK
6
CONTINUOUS
10
61.6209
20
-78.344
11
61.6178
21
-78.3478
0
LINE
8
BLACK
6
CONTINUOUS
10
61.6178
20
-78.3478
11
61.614
21
-78.3509
0
LINE
8
BLACK
6
CONTINUOUS
10
61.614
20
-78.3509
11
61.6096
21
-78.3532
0
LINE
8
BLACK
6
CONTINUOUS
10
61.6096
20
-78.3532
11
61.6049
21
-78.3546
0
LINE
8
BLACK
6
CONTINUOUS
10
61.6049
20
-78.3546
11
61.6012
21
-78.355
0
LINE
8
BLACK
6
CONTINUOUS
10
61.6012
20
-78.355
11
61.6012
21
-78.355
0
LINE
8
BLACK
6
CONTINUOUS
10
61.6012
20
-78.355
11
61.6
21
-78.3551
0
LINE
8
BLACK
6
CONTINUOUS
10
61.6
20
-78.3551
11
61.5988
21
-78.355
0
LINE
8
BLACK
6
CONTINUOUS
10
61.5988
20
-78.355
11
48.2612
21
-78.355
0
LINE
8
BLACK
6
CONTINUOUS
10
48.2612
20
-78.355
11
48.26
21
-78.3551
0
LINE
8
BLACK
6
CONTINUOUS
10
48.26
20
-78.3551
11
48.2588
21
-78.355
0
LINE
8
BLACK
6
CONTINUOUS
10
48.2588
20
-78.355
11
48.2588
21
-78.355
0
LINE
8
BLACK
6
CONTINUOUS
10
48.2588
20
-78.355
11
48.2551
21
-78.3546
0
LINE
8
BLACK
6
CONTINUOUS
10
48.2551
20
-78.3546
11
48.2504
21
-78.3532
0
LINE
8
BLACK
6
CONTINUOUS
10
48.2504
20
-78.3532
11
48.246
21
-78.3509
0
LINE
8
BLACK
6
CONTINUOUS
10
48.246
20
-78.3509
11
48.2422
21
-78.3478
0
LINE
8
BLACK
6
CONTINUOUS
10
48.2422
20
-78.3478
11
48.2391
21
-78.344
0
LINE
8
BLACK
6
CONTINUOUS
10
48.2391
20
-78.344
11
48.2368
21
-78.3396
0
LINE
8
BLACK
6
CONTINUOUS
10
48.2368
20
-78.3396
11
48.2354
21
-78.3349
0
LINE
8
BLACK
6
CONTINUOUS
10
48.2354
20
-78.3349
11
48.2349
21
-78.33
0
LINE
8
BLACK
6
CONTINUOUS
10
48.2349
20
-78.33
11
48.235
21
-78.3288
0
LINE
8
BLACK
6
CONTINUOUS
10
48.235
20
-78.3288
11
48.235
21
-64.5812
0
LINE
8
BLACK
6
CONTINUOUS
10
48.235
20
-64.5812
11
48.2349
21
-64.58
0
LINE
8
BLACK
6
CONTINUOUS
10
48.2349
20
-64.58
11
48.2354
21
-64.5751
0
LINE
8
BLACK
6
CONTINUOUS
10
48.2354
20
-64.5751
11
48.2368
21
-64.5704
0
LINE
8
BLACK
6
CONTINUOUS
10
48.2368
20
-64.5704
11
48.2391
21
-64.566
0
LINE
8
BLACK
6
CONTINUOUS
10
48.2391
20
-64.566
11
48.2422
21
-64.5622
0
LINE
8
BLACK
6
CONTINUOUS
10
48.2422
20
-64.5622
11
48.246
21
-64.5591
0
LINE
8
BLACK
6
CONTINUOUS
10
48.246
20
-64.5591
11
48.2504
21
-64.5568
0
LINE
8
BLACK
6
CONTINUOUS
10
48.2504
20
-64.5568
11
48.2551
21
-64.5554
0
LINE
8
BLACK
6
CONTINUOUS
10
48.2551
20
-64.5554
11
48.2588
21
-64.555
0
LINE
8
BLACK
6
CONTINUOUS
10
48.2588
20
-64.555
11
48.26
21
-64.5549
0
LINE
8
BLACK
6
CONTINUOUS
10
48.26
20
-64.5549
11
48.2612
21
-64.555
0
LINE
8
BLACK
6
CONTINUOUS
10
48.2612
20
-64.555
11
61.5988
21
-64.555
0
LINE
8
BLACK
6
CONTINUOUS
10
61.5988
20
-64.555
11
61.6
21
-64.5549
0
LINE
8
BLACK
6
CONTINUOUS
10
61.6
20
-64.5549
11
61.6012
21
-64.555
0
LINE
8
BLACK
6
CONTINUOUS
10
48.285
20
-64.605
11
48.285
21
-78.305
0
LINE
8
BLACK
6
CONTINUOUS
10
48.285
20
-78.305
11
61.575
21
-78.305
0
LINE
8
BLACK
6
CONTINUOUS
10
61.575
20
-78.305
11
61.575
21
-64.605
0
LINE
8
BLACK
6
CONTINUOUS
10
61.575
20
-64.605
11
48.285
21
-64.605
0
LINE
8
BLACK
6
CONTINUOUS
10
36.6012
20
-64.555
11
36.6049
21
-64.5554
0
LINE
8
BLACK
6
CONTINUOUS
10
36.6049
20
-64.5554
11
36.6096
21
-64.5568
0
LINE
8
BLACK
6
CONTINUOUS
10
36.6096
20
-64.5568
11
36.614
21
-64.5591
0
LINE
8
BLACK
6
CONTINUOUS
10
36.614
20
-64.5591
11
36.6178
21
-64.5622
0
LINE
8
BLACK
6
CONTINUOUS
10
36.6178
20
-64.5622
11
36.6209
21
-64.566
0
LINE
8
BLACK
6
CONTINUOUS
10
36.6209
20
-64.566
11
36.6232
21
-64.5704
0
LINE
8
BLACK
6
CONTINUOUS
10
36.6232
20
-64.5704
11
36.6246
21
-64.5751
0
LINE
8
BLACK
6
CONTINUOUS
10
36.6246
20
-64.5751
11
36.6251
21
-64.58
0
LINE
8
BLACK
6
CONTINUOUS
10
36.6251
20
-64.58
11
36.625
21
-64.5812
0
LINE
8
BLACK
6
CONTINUOUS
10
36.625
20
-64.5812
11
36.625
21
-78.3288
0
LINE
8
BLACK
6
CONTINUOUS
10
36.625
20
-78.3288
11
36.6251
21
-78.33
0
LINE
8
BLACK
6
CONTINUOUS
10
36.6251
20
-78.33
11
36.6246
21
-78.3349
0
LINE
8
BLACK
6
CONTINUOUS
10
36.6246
20
-78.3349
11
36.6232
21
-78.3396
0
LINE
8
BLACK
6
CONTINUOUS
10
36.6232
20
-78.3396
11
36.6209
21
-78.344
0
LINE
8
BLACK
6
CONTINUOUS
10
36.6209
20
-78.344
11
36.6178
21
-78.3478
0
LINE
8
BLACK
6
CONTINUOUS
10
36.6178
20
-78.3478
11
36.614
21
-78.3509
0
LINE
8
BLACK
6
CONTINUOUS
10
36.614
20
-78.3509
11
36.6096
21
-78.3532
0
LINE
8
BLACK
6
CONTINUOUS
10
36.6096
20
-78.3532
11
36.6049
21
-78.3546
0
LINE
8
BLACK
6
CONTINUOUS
10
36.6049
20
-78.3546
11
36.6012
21
-78.355
0
LINE
8
BLACK
6
CONTINUOUS
10
36.6012
20
-78.355
11
36.6012
21
-78.355
0
LINE
8
BLACK
6
CONTINUOUS
10
36.6012
20
-78.355
11
36.6
21
-78.3551
0
LINE
8
BLACK
6
CONTINUOUS
10
36.6
20
-78.3551
11
36.5988
21
-78.355
0
LINE
8
BLACK
6
CONTINUOUS
10
36.5988
20
-78.355
11
23.2612
21
-78.355
0
LINE
8
BLACK
6
CONTINUOUS
10
23.2612
20
-78.355
11
23.26
21
-78.3551
0
LINE
8
BLACK
6
CONTINUOUS
10
23.26
20
-78.3551
11
23.2588
21
-78.355
0
LINE
8
BLACK
6
CONTINUOUS
10
23.2588
20
-78.355
11
23.2588
21
-78.355
0
LINE
8
BLACK
6
CONTINUOUS
10
23.2588
20
-78.355
11
23.2551
21
-78.3546
0
LINE
8
BLACK
6
CONTINUOUS
10
23.2551
20
-78.3546
11
23.2504
21
-78.3532
0
LINE
8
BLACK
6
CONTINUOUS
10
23.2504
20
-78.3532
11
23.246
21
-78.3509
0
LINE
8
BLACK
6
CONTINUOUS
10
23.246
20
-78.3509
11
23.2422
21
-78.3478
0
LINE
8
BLACK
6
CONTINUOUS
10
23.2422
20
-78.3478
11
23.2391
21
-78.344
0
LINE
8
BLACK
6
CONTINUOUS
10
23.2391
20
-78.344
11
23.2368
21
-78.3396
0
LINE
8
BLACK
6
CONTINUOUS
10
23.2368
20
-78.3396
11
23.2354
21
-78.3349
0
LINE
8
BLACK
6
CONTINUOUS
10
23.2354
20
-78.3349
11
23.2349
21
-78.33
0
LINE
8
BLACK
6
CONTINUOUS
10
23.2349
20
-78.33
11
23.235
21
-78.3288
0
LINE
8
BLACK
6
CONTINUOUS
10
23.235
20
-78.3288
11
23.235
21
-64.5812
0
LINE
8
BLACK
6
CONTINUOUS
10
23.235
20
-64.5812
11
23.2349
21
-64.58
0
LINE
8
BLACK
6
CONTINUOUS
10
23.2349
20
-64.58
11
23.2354
21
-64.5751
0
LINE
8
BLACK
6
CONTINUOUS
10
23.2354
20
-64.5751
11
23.2368
21
-64.5704
0
LINE
8
BLACK
6
CONTINUOUS
10
23.2368
20
-64.5704
11
23.2391
21
-64.566
0
LINE
8
BLACK
6
CONTINUOUS
10
23.2391
20
-64.566
11
23.2422
21
-64.5622
0
LINE
8
BLACK
6
CONTINUOUS
10
23.2422
20
-64.5622
11
23.246
21
-64.5591
0
LINE
8
BLACK
6
CONTINUOUS
10
23.246
20
-64.5591
11
23.2504
21
-64.5568
0
LINE
8
BLACK
6
CONTINUOUS
10
23.2504
20
-64.5568
11
23.2551
21
-64.5554
0
LINE
8
BLACK
6
CONTINUOUS
10
23.2551
20
-64.5554
11
23.2588
21
-64.555
0
LINE
8
BLACK
6
CONTINUOUS
10
23.2588
20
-64.555
11
23.26
21
-64.5549
0
LINE
8
BLACK
6
CONTINUOUS
10
23.26
20
-64.5549
11
23.2612
21
-64.555
0
LINE
8
BLACK
6
CONTINUOUS
10
23.2612
20
-64.555
11
36.5988
21
-64.555
0
LINE
8
BLACK
6
CONTINUOUS
10
36.5988
20
-64.555
11
36.6
21
-64.5549
0
LINE
8
BLACK
6
CONTINUOUS
10
36.6
20
-64.5549
11
36.6012
21
-64.555
0
LINE
8
BLACK
6
CONTINUOUS
10
23.285
20
-64.605
11
23.285
21
-78.305
0
LINE
8
BLACK
6
CONTINUOUS
10
23.285
20
-78.305
11
36.575
21
-78.305
0
LINE
8
BLACK
6
CONTINUOUS
10
36.575
20
-78.305
11
36.575
21
-64.605
0
LINE
8
BLACK
6
CONTINUOUS
10
36.575
20
-64.605
11
23.285
21
-64.605
0
LINE
8
BLACK
6
CONTINUOUS
10
86.6012
20
-64.555
11
86.6049
21
-64.5554
0
LINE
8
BLACK
6
CONTINUOUS
10
86.6049
20
-64.5554
11
86.6096
21
-64.5568
0
LINE
8
BLACK
6
CONTINUOUS
10
86.6096
20
-64.5568
11
86.614
21
-64.5591
0
LINE
8
BLACK
6
CONTINUOUS
10
86.614
20
-64.5591
11
86.6178
21
-64.5622
0
LINE
8
BLACK
6
CONTINUOUS
10
86.6178
20
-64.5622
11
86.6209
21
-64.566
0
LINE
8
BLACK
6
CONTINUOUS
10
86.6209
20
-64.566
11
86.6232
21
-64.5704
0
LINE
8
BLACK
6
CONTINUOUS
10
86.6232
20
-64.5704
11
86.6246
21
-64.5751
0
LINE
8
BLACK
6
CONTINUOUS
10
86.6246
20
-64.5751
11
86.6251
21
-64.58
0
LINE
8
BLACK
6
CONTINUOUS
10
86.6251
20
-64.58
11
86.625
21
-64.5812
0
LINE
8
BLACK
6
CONTINUOUS
10
86.625
20
-64.5812
11
86.625
21
-78.3288
0
LINE
8
BLACK
6
CONTINUOUS
10
86.625
20
-78.3288
11
86.6251
21
-78.33
0
LINE
8
BLACK
6
CONTINUOUS
10
86.6251
20
-78.33
11
86.6246
21
-78.3349
0
LINE
8
BLACK
6
CONTINUOUS
10
86.6246
20
-78.3349
11
86.6232
21
-78.3396
0
LINE
8
BLACK
6
CONTINUOUS
10
86.6232
20
-78.3396
11
86.6209
21
-78.344
0
LINE
8
BLACK
6
CONTINUOUS
10
86.6209
20
-78.344
11
86.6178
21
-78.3478
0
LINE
8
BLACK
6
CONTINUOUS
10
86.6178
20
-78.3478
11
86.614
21
-78.3509
0
LINE
8
BLACK
6
CONTINUOUS
10
86.614
20
-78.3509
11
86.6096
21
-78.3532
0
LINE
8
BLACK
6
CONTINUOUS
10
86.6096
20
-78.3532
11
86.6049
21
-78.3546
0
LINE
8
BLACK
6
CONTINUOUS
10
86.6049
20
-78.3546
11
86.6012
21
-78.355
0
LINE
8
BLACK
6
CONTINUOUS
10
86.6012
20
-78.355
11
86.6012
21
-78.355
0
LINE
8
BLACK
6
CONTINUOUS
10
86.6012
20
-78.355
11
86.6
21
-78.3551
0
LINE
8
BLACK
6
CONTINUOUS
10
86.6
20
-78.3551
11
86.5988
21
-78.355
0
LINE
8
BLACK
6
CONTINUOUS
10
86.5988
20
-78.355
11
73.2612
21
-78.355
0
LINE
8
BLACK
6
CONTINUOUS
10
73.2612
20
-78.355
11
73.26
21
-78.3551
0
LINE
8
BLACK
6
CONTINUOUS
10
73.26
20
-78.3551
11
73.2588
21
-78.355
0
LINE
8
BLACK
6
CONTINUOUS
10
73.2588
20
-78.355
11
73.2588
21
-78.355
0
LINE
8
BLACK
6
CONTINUOUS
10
73.2588
20
-78.355
11
73.2551
21
-78.3546
0
LINE
8
BLACK
6
CONTINUOUS
10
73.2551
20
-78.3546
11
73.2504
21
-78.3532
0
LINE
8
BLACK
6
CONTINUOUS
10
73.2504
20
-78.3532
11
73.246
21
-78.3509
0
LINE
8
BLACK
6
CONTINUOUS
10
73.246
20
-78.3509
11
73.2422
21
-78.3478
0
LINE
8
BLACK
6
CONTINUOUS
10
73.2422
20
-78.3478
11
73.2391
21
-78.344
0
LINE
8
BLACK
6
CONTINUOUS
10
73.2391
20
-78.344
11
73.2368
21
-78.3396
0
LINE
8
BLACK
6
CONTINUOUS
10
73.2368
20
-78.3396
11
73.2354
21
-78.3349
0
LINE
8
BLACK
6
CONTINUOUS
10
73.2354
20
-78.3349
11
73.2349
21
-78.33
0
LINE
8
BLACK
6
CONTINUOUS
10
73.2349
20
-78.33
11
73.235
21
-78.3288
0
LINE
8
BLACK
6
CONTINUOUS
10
73.235
20
-78.3288
11
73.235
21
-64.5812
0
LINE
8
BLACK
6
CONTINUOUS
10
73.235
20
-64.5812
11
73.2349
21
-64.58
0
LINE
8
BLACK
6
CONTINUOUS
10
73.2349
20
-64.58
11
73.2354
21
-64.5751
0
LINE
8
BLACK
6
CONTINUOUS
10
73.2354
20
-64.5751
11
73.2368
21
-64.5704
0
LINE
8
BLACK
6
CONTINUOUS
10
73.2368
20
-64.5704
11
73.2391
21
-64.566
0
LINE
8
BLACK
6
CONTINUOUS
10
73.2391
20
-64.566
11
73.2422
21
-64.5622
0
LINE
8
BLACK
6
CONTINUOUS
10
73.2422
20
-64.5622
11
73.246
21
-64.5591
0
LINE
8
BLACK
6
CONTINUOUS
10
73.246
20
-64.5591
11
73.2504
21
-64.5568
0
LINE
8
BLACK
6
CONTINUOUS
10
73.2504
20
-64.5568
11
73.2551
21
-64.5554
0
LINE
8
BLACK
6
CONTINUOUS
10
73.2551
20
-64.5554
11
73.2588
21
-64.555
0
LINE
8
BLACK
6
CONTINUOUS
10
73.2588
20
-64.555
11
73.26
21
-64.5549
0
LINE
8
BLACK
6
CONTINUOUS
10
73.26
20
-64.5549
11
73.2612
21
-64.555
0
LINE
8
BLACK
6
CONTINUOUS
10
73.2612
20
-64.555
11
86.5988
21
-64.555
0
LINE
8
BLACK
6
CONTINUOUS
10
86.5988
20
-64.555
11
86.6
21
-64.5549
0
LINE
8
BLACK
6
CONTINUOUS
10
86.6
20
-64.5549
11
86.6012
21
-64.555
0
LINE
8
BLACK
6
CONTINUOUS
10
73.285
20
-64.605
11
73.285
21
-78.305
0
LINE
8
BLACK
6
CONTINUOUS
10
73.285
20
-78.305
11
86.575
21
-78.305
0
LINE
8
BLACK
6
CONTINUOUS
10
86.575
20
-78.305
11
86.575
21
-64.605
0
LINE
8
BLACK
6
CONTINUOUS
10
86.575
20
-64.605
11
73.285
21
-64.605
0
LINE
8
BLACK
6
CONTINUOUS
10
111.611
20
-64.525
11
111.615
21
-64.5254
0
LINE
8
BLACK
6
CONTINUOUS
10
111.615
20
-64.5254
11
111.62
21
-64.5268
0
LINE
8
BLACK
6
CONTINUOUS
10
111.62
20
-64.5268
11
111.624
21
-64.5291
0
LINE
8
BLACK
6
CONTINUOUS
10
111.624
20
-64.5291
11
111.628
21
-64.5322
0
LINE
8
BLACK
6
CONTINUOUS
10
111.628
20
-64.5322
11
111.631
21
-64.536
0
LINE
8
BLACK
6
CONTINUOUS
10
111.631
20
-64.536
11
111.633
21
-64.5404
0
LINE
8
BLACK
6
CONTINUOUS
10
111.633
20
-64.5404
11
111.635
21
-64.5451
0
LINE
8
BLACK
6
CONTINUOUS
10
111.635
20
-64.5451
11
111.635
21
-64.55
0
LINE
8
BLACK
6
CONTINUOUS
10
111.635
20
-64.55
11
111.635
21
-64.5512
0
LINE
8
BLACK
6
CONTINUOUS
10
111.635
20
-64.5512
11
111.635
21
-78.2988
0
LINE
8
BLACK
6
CONTINUOUS
10
111.635
20
-78.2988
11
111.635
21
-78.3
0
LINE
8
BLACK
6
CONTINUOUS
10
111.635
20
-78.3
11
111.635
21
-78.3049
0
LINE
8
BLACK
6
CONTINUOUS
10
111.635
20
-78.3049
11
111.633
21
-78.3096
0
LINE
8
BLACK
6
CONTINUOUS
10
111.633
20
-78.3096
11
111.631
21
-78.314
0
LINE
8
BLACK
6
CONTINUOUS
10
111.631
20
-78.314
11
111.628
21
-78.3178
0
LINE
8
BLACK
6
CONTINUOUS
10
111.628
20
-78.3178
11
111.624
21
-78.3209
0
LINE
8
BLACK
6
CONTINUOUS
10
111.624
20
-78.3209
11
111.62
21
-78.3232
0
LINE
8
BLACK
6
CONTINUOUS
10
111.62
20
-78.3232
11
111.615
21
-78.3246
0
LINE
8
BLACK
6
CONTINUOUS
10
111.615
20
-78.3246
11
111.611
21
-78.325
0
LINE
8
BLACK
6
CONTINUOUS
10
111.611
20
-78.325
11
111.611
21
-78.325
0
LINE
8
BLACK
6
CONTINUOUS
10
111.611
20
-78.325
11
111.61
21
-78.3251
0
LINE
8
BLACK
6
CONTINUOUS
10
111.61
20
-78.3251
11
111.609
21
-78.325
0
LINE
8
BLACK
6
CONTINUOUS
10
111.609
20
-78.325
11
98.2712
21
-78.325
0
LINE
8
BLACK
6
CONTINUOUS
10
98.2712
20
-78.325
11
98.27
21
-78.3251
0
LINE
8
BLACK
6
CONTINUOUS
10
98.27
20
-78.3251
11
98.2688
21
-78.325
0
LINE
8
BLACK
6
CONTINUOUS
10
98.2688
20
-78.325
11
98.2688
21
-78.325
0
LINE
8
BLACK
6
CONTINUOUS
10
98.2688
20
-78.325
11
98.2651
21
-78.3246
0
LINE
8
BLACK
6
CONTINUOUS
10
98.2651
20
-78.3246
11
98.2604
21
-78.3232
0
LINE
8
BLACK
6
CONTINUOUS
10
98.2604
20
-78.3232
11
98.256
21
-78.3209
0
LINE
8
BLACK
6
CONTINUOUS
10
98.256
20
-78.3209
11
98.2522
21
-78.3178
0
LINE
8
BLACK
6
CONTINUOUS
10
98.2522
20
-78.3178
11
98.2491
21
-78.314
0
LINE
8
BLACK
6
CONTINUOUS
10
98.2491
20
-78.314
11
98.2468
21
-78.3096
0
LINE
8
BLACK
6
CONTINUOUS
10
98.2468
20
-78.3096
11
98.2454
21
-78.3049
0
LINE
8
BLACK
6
CONTINUOUS
10
98.2454
20
-78.3049
11
98.2449
21
-78.3
0
LINE
8
BLACK
6
CONTINUOUS
10
98.2449
20
-78.3
11
98.245
21
-78.2988
0
LINE
8
BLACK
6
CONTINUOUS
10
98.245
20
-78.2988
11
98.245
21
-64.5512
0
LINE
8
BLACK
6
CONTINUOUS
10
98.245
20
-64.5512
11
98.2449
21
-64.55
0
LINE
8
BLACK
6
CONTINUOUS
10
98.2449
20
-64.55
11
98.2454
21
-64.5451
0
LINE
8
BLACK
6
CONTINUOUS
10
98.2454
20
-64.5451
11
98.2468
21
-64.5404
0
LINE
8
BLACK
6
CONTINUOUS
10
98.2468
20
-64.5404
11
98.2491
21
-64.536
0
LINE
8
BLACK
6
CONTINUOUS
10
98.2491
20
-64.536
11
98.2522
21
-64.5322
0
LINE
8
BLACK
6
CONTINUOUS
10
98.2522
20
-64.5322
11
98.256
21
-64.5291
0
LINE
8
BLACK
6
CONTINUOUS
10
98.256
20
-64.5291
11
98.2604
21
-64.5268
0
LINE
8
BLACK
6
CONTINUOUS
10
98.2604
20
-64.5268
11
98.2651
21
-64.5254
0
LINE
8
BLACK
6
CONTINUOUS
10
98.2651
20
-64.5254
11
98.2688
21
-64.525
0
LINE
8
BLACK
6
CONTINUOUS
10
98.2688
20
-64.525
11
98.27
21
-64.5249
0
LINE
8
BLACK
6
CONTINUOUS
10
98.27
20
-64.5249
11
98.2712
21
-64.525
0
LINE
8
BLACK
6
CONTINUOUS
10
98.2712
20
-64.525
11
111.609
21
-64.525
0
LINE
8
BLACK
6
CONTINUOUS
10
111.609
20
-64.525
11
111.61
21
-64.5249
0
LINE
8
BLACK
6
CONTINUOUS
10
111.61
20
-64.5249
11
111.611
21
-64.525
0
LINE
8
BLACK
6
CONTINUOUS
10
98.295
20
-64.575
11
98.295
21
-78.275
0
LINE
8
BLACK
6
CONTINUOUS
10
98.295
20
-78.275
11
111.585
21
-78.275
0
LINE
8
BLACK
6
CONTINUOUS
10
111.585
20
-78.275
11
111.585
21
-64.575
0
LINE
8
BLACK
6
CONTINUOUS
10
111.585
20
-64.575
11
98.295
21
-64.575
0
LINE
8
BLACK
6
CONTINUOUS
10
111.591
20
-24.555
11
111.595
21
-24.5554
0
LINE
8
BLACK
6
CONTINUOUS
10
111.595
20
-24.5554
11
111.6
21
-24.5568
0
LINE
8
BLACK
6
CONTINUOUS
10
111.6
20
-24.5568
11
111.604
21
-24.5591
0
LINE
8
BLACK
6
CONTINUOUS
10
111.604
20
-24.5591
11
111.608
21
-24.5622
0
LINE
8
BLACK
6
CONTINUOUS
10
111.608
20
-24.5622
11
111.611
21
-24.566
0
LINE
8
BLACK
6
CONTINUOUS
10
111.611
20
-24.566
11
111.613
21
-24.5704
0
LINE
8
BLACK
6
CONTINUOUS
10
111.613
20
-24.5704
11
111.615
21
-24.5751
0
LINE
8
BLACK
6
CONTINUOUS
10
111.615
20
-24.5751
11
111.615
21
-24.58
0
LINE
8
BLACK
6
CONTINUOUS
10
111.615
20
-24.58
11
111.615
21
-24.5812
0
LINE
8
BLACK
6
CONTINUOUS
10
111.615
20
-24.5812
11
111.615
21
-38.3288
0
LINE
8
BLACK
6
CONTINUOUS
10
111.615
20
-38.3288
11
111.615
21
-38.33
0
LINE
8
BLACK
6
CONTINUOUS
10
111.615
20
-38.33
11
111.615
21
-38.3349
0
LINE
8
BLACK
6
CONTINUOUS
10
111.615
20
-38.3349
11
111.613
21
-38.3396
0
LINE
8
BLACK
6
CONTINUOUS
10
111.613
20
-38.3396
11
111.611
21
-38.344
0
LINE
8
BLACK
6
CONTINUOUS
10
111.611
20
-38.344
11
111.608
21
-38.3478
0
LINE
8
BLACK
6
CONTINUOUS
10
111.608
20
-38.3478
11
111.604
21
-38.3509
0
LINE
8
BLACK
6
CONTINUOUS
10
111.604
20
-38.3509
11
111.6
21
-38.3532
0
LINE
8
BLACK
6
CONTINUOUS
10
111.6
20
-38.3532
11
111.595
21
-38.3546
0
LINE
8
BLACK
6
CONTINUOUS
10
111.595
20
-38.3546
11
111.591
21
-38.355
0
LINE
8
BLACK
6
CONTINUOUS
10
111.591
20
-38.355
11
111.591
21
-38.355
0
LINE
8
BLACK
6
CONTINUOUS
10
111.591
20
-38.355
11
111.59
21
-38.3551
0
LINE
8
BLACK
6
CONTINUOUS
10
111.59
20
-38.3551
11
111.589
21
-38.355
0
LINE
8
BLACK
6
CONTINUOUS
10
111.589
20
-38.355
11
98.2512
21
-38.355
0
LINE
8
BLACK
6
CONTINUOUS
10
98.2512
20
-38.355
11
98.25
21
-38.3551
0
LINE
8
BLACK
6
CONTINUOUS
10
98.25
20
-38.3551
11
98.2488
21
-38.355
0
LINE
8
BLACK
6
CONTINUOUS
10
98.2488
20
-38.355
11
98.2488
21
-38.355
0
LINE
8
BLACK
6
CONTINUOUS
10
98.2488
20
-38.355
11
98.2451
21
-38.3546
0
LINE
8
BLACK
6
CONTINUOUS
10
98.2451
20
-38.3546
11
98.2404
21
-38.3532
0
LINE
8
BLACK
6
CONTINUOUS
10
98.2404
20
-38.3532
11
98.236
21
-38.3509
0
LINE
8
BLACK
6
CONTINUOUS
10
98.236
20
-38.3509
11
98.2322
21
-38.3478
0
LINE
8
BLACK
6
CONTINUOUS
10
98.2322
20
-38.3478
11
98.2291
21
-38.344
0
LINE
8
BLACK
6
CONTINUOUS
10
98.2291
20
-38.344
11
98.2268
21
-38.3396
0
LINE
8
BLACK
6
CONTINUOUS
10
98.2268
20
-38.3396
11
98.2254
21
-38.3349
0
LINE
8
BLACK
6
CONTINUOUS
10
98.2254
20
-38.3349
11
98.2249
21
-38.33
0
LINE
8
BLACK
6
CONTINUOUS
10
98.2249
20
-38.33
11
98.225
21
-38.3288
0
LINE
8
BLACK
6
CONTINUOUS
10
98.225
20
-38.3288
11
98.225
21
-24.5812
0
LINE
8
BLACK
6
CONTINUOUS
10
98.225
20
-24.5812
11
98.2249
21
-24.58
0
LINE
8
BLACK
6
CONTINUOUS
10
98.2249
20
-24.58
11
98.2254
21
-24.5751
0
LINE
8
BLACK
6
CONTINUOUS
10
98.2254
20
-24.5751
11
98.2268
21
-24.5704
0
LINE
8
BLACK
6
CONTINUOUS
10
98.2268
20
-24.5704
11
98.2291
21
-24.566
0
LINE
8
BLACK
6
CONTINUOUS
10
98.2291
20
-24.566
11
98.2322
21
-24.5622
0
LINE
8
BLACK
6
CONTINUOUS
10
98.2322
20
-24.5622
11
98.236
21
-24.5591
0
LINE
8
BLACK
6
CONTINUOUS
10
98.236
20
-24.5591
11
98.2404
21
-24.5568
0
LINE
8
BLACK
6
CONTINUOUS
10
98.2404
20
-24.5568
11
98.2451
21
-24.5554
0
LINE
8
BLACK
6
CONTINUOUS
10
98.2451
20
-24.5554
11
98.2488
21
-24.555
0
LINE
8
BLACK
6
CONTINUOUS
10
98.2488
20
-24.555
11
98.25
21
-24.5549
0
LINE
8
BLACK
6
CONTINUOUS
10
98.25
20
-24.5549
11
98.2512
21
-24.555
0
LINE
8
BLACK
6
CONTINUOUS
10
98.2512
20
-24.555
11
111.589
21
-24.555
0
LINE
8
BLACK
6
CONTINUOUS
10
111.589
20
-24.555
11
111.59
21
-24.5549
0
LINE
8
BLACK
6
CONTINUOUS
10
111.59
20
-24.5549
11
111.591
21
-24.555
0
LINE
8
BLACK
6
CONTINUOUS
10
98.275
20
-24.605
11
98.275
21
-38.305
0
LINE
8
BLACK
6
CONTINUOUS
10
98.275
20
-38.305
11
111.565
21
-38.305
0
LINE
8
BLACK
6
CONTINUOUS
10
111.565
20
-38.305
11
111.565
21
-24.605
0
LINE
8
BLACK
6
CONTINUOUS
10
111.565
20
-24.605
11
98.275
21
-24.605
0
LINE
8
BLACK
6
CONTINUOUS
10
86.5912
20
-24.545
11
86.5949
21
-24.5454
0
LINE
8
BLACK
6
CONTINUOUS
10
86.5949
20
-24.5454
11
86.5996
21
-24.5468
0
LINE
8
BLACK
6
CONTINUOUS
10
86.5996
20
-24.5468
11
86.604
21
-24.5491
0
LINE
8
BLACK
6
CONTINUOUS
10
86.604
20
-24.5491
11
86.6078
21
-24.5522
0
LINE
8
BLACK
6
CONTINUOUS
10
86.6078
20
-24.5522
11
86.6109
21
-24.556
0
LINE
8
BLACK
6
CONTINUOUS
10
86.6109
20
-24.556
11
86.6132
21
-24.5604
0
LINE
8
BLACK
6
CONTINUOUS
10
86.6132
20
-24.5604
11
86.6146
21
-24.5651
0
LINE
8
BLACK
6
CONTINUOUS
10
86.6146
20
-24.5651
11
86.6151
21
-24.57
0
LINE
8
BLACK
6
CONTINUOUS
10
86.6151
20
-24.57
11
86.615
21
-24.5712
0
LINE
8
BLACK
6
CONTINUOUS
10
86.615
20
-24.5712
11
86.615
21
-38.3188
0
LINE
8
BLACK
6
CONTINUOUS
10
86.615
20
-38.3188
11
86.6151
21
-38.32
0
LINE
8
BLACK
6
CONTINUOUS
10
86.6151
20
-38.32
11
86.6146
21
-38.3249
0
LINE
8
BLACK
6
CONTINUOUS
10
86.6146
20
-38.3249
11
86.6132
21
-38.3296
0
LINE
8
BLACK
6
CONTINUOUS
10
86.6132
20
-38.3296
11
86.6109
21
-38.334
0
LINE
8
BLACK
6
CONTINUOUS
10
86.6109
20
-38.334
11
86.6078
21
-38.3378
0
LINE
8
BLACK
6
CONTINUOUS
10
86.6078
20
-38.3378
11
86.604
21
-38.3409
0
LINE
8
BLACK
6
CONTINUOUS
10
86.604
20
-38.3409
11
86.5996
21
-38.3432
0
LINE
8
BLACK
6
CONTINUOUS
10
86.5996
20
-38.3432
11
86.5949
21
-38.3446
0
LINE
8
BLACK
6
CONTINUOUS
10
86.5949
20
-38.3446
11
86.5912
21
-38.345
0
LINE
8
BLACK
6
CONTINUOUS
10
86.5912
20
-38.345
11
86.5912
21
-38.345
0
LINE
8
BLACK
6
CONTINUOUS
10
86.5912
20
-38.345
11
86.59
21
-38.3451
0
LINE
8
BLACK
6
CONTINUOUS
10
86.59
20
-38.3451
11
86.5888
21
-38.345
0
LINE
8
BLACK
6
CONTINUOUS
10
86.5888
20
-38.345
11
73.2512
21
-38.345
0
LINE
8
BLACK
6
CONTINUOUS
10
73.2512
20
-38.345
11
73.25
21
-38.3451
0
LINE
8
BLACK
6
CONTINUOUS
10
73.25
20
-38.3451
11
73.2488
21
-38.345
0
LINE
8
BLACK
6
CONTINUOUS
10
73.2488
20
-38.345
11
73.2488
21
-38.345
0
LINE
8
BLACK
6
CONTINUOUS
10
73.2488
20
-38.345
11
73.2451
21
-38.3446
0
LINE
8
BLACK
6
CONTINUOUS
10
73.2451
20
-38.3446
11
73.2404
21
-38.3432
0
LINE
8
BLACK
6
CONTINUOUS
10
73.2404
20
-38.3432
11
73.236
21
-38.3409
0
LINE
8
BLACK
6
CONTINUOUS
10
73.236
20
-38.3409
11
73.2322
21
-38.3378
0
LINE
8
BLACK
6
CONTINUOUS
10
73.2322
20
-38.3378
11
73.2291
21
-38.334
0
LINE
8
BLACK
6
CONTINUOUS
10
73.2291
20
-38.334
11
73.2268
21
-38.3296
0
LINE
8
BLACK
6
CONTINUOUS
10
73.2268
20
-38.3296
11
73.2254
21
-38.3249
0
LINE
8
BLACK
6
CONTINUOUS
10
73.2254
20
-38.3249
11
73.2249
21
-38.32
0
LINE
8
BLACK
6
CONTINUOUS
10
73.2249
20
-38.32
11
73.225
21
-38.3188
0
LINE
8
BLACK
6
CONTINUOUS
10
73.225
20
-38.3188
11
73.225
21
-24.5712
0
LINE
8
BLACK
6
CONTINUOUS
10
73.225
20
-24.5712
11
73.2249
21
-24.57
0
LINE
8
BLACK
6
CONTINUOUS
10
73.2249
20
-24.57
11
73.2254
21
-24.5651
0
LINE
8
BLACK
6
CONTINUOUS
10
73.2254
20
-24.5651
11
73.2268
21
-24.5604
0
LINE
8
BLACK
6
CONTINUOUS
10
73.2268
20
-24.5604
11
73.2291
21
-24.556
0
LINE
8
BLACK
6
CONTINUOUS
10
73.2291
20
-24.556
11
73.2322
21
-24.5522
0
LINE
8
BLACK
6
CONTINUOUS
10
73.2322
20
-24.5522
11
73.236
21
-24.5491
0
LINE
8
BLACK
6
CONTINUOUS
10
73.236
20
-24.5491
11
73.2404
21
-24.5468
0
LINE
8
BLACK
6
CONTINUOUS
10
73.2404
20
-24.5468
11
73.2451
21
-24.5454
0
LINE
8
BLACK
6
CONTINUOUS
10
73.2451
20
-24.5454
11
73.2488
21
-24.545
0
LINE
8
BLACK
6
CONTINUOUS
10
73.2488
20
-24.545
11
73.25
21
-24.5449
0
LINE
8
BLACK
6
CONTINUOUS
10
73.25
20
-24.5449
11
73.2512
21
-24.545
0
LINE
8
BLACK
6
CONTINUOUS
10
73.2512
20
-24.545
11
86.5888
21
-24.545
0
LINE
8
BLACK
6
CONTINUOUS
10
86.5888
20
-24.545
11
86.59
21
-24.5449
0
LINE
8
BLACK
6
CONTINUOUS
10
86.59
20
-24.5449
11
86.5912
21
-24.545
0
LINE
8
BLACK
6
CONTINUOUS
10
73.275
20
-24.595
11
73.275
21
-38.295
0
LINE
8
BLACK
6
CONTINUOUS
10
73.275
20
-38.295
11
86.565
21
-38.295
0
LINE
8
BLACK
6
CONTINUOUS
10
86.565
20
-38.295
11
86.565
21
-24.595
0
LINE
8
BLACK
6
CONTINUOUS
10
86.565
20
-24.595
11
73.275
21
-24.595
0
LINE
8
BLACK
6
CONTINUOUS
10
33.6129
20
-23.01
11
33.6129
21
-23.01
0
LINE
8
BLACK
6
CONTINUOUS
10
33.6129
20
-23.01
11
33.6218
21
-23.0109
0
LINE
8
BLACK
6
CONTINUOUS
10
33.6218
20
-23.0109
11
33.6331
21
-23.0143
0
LINE
8
BLACK
6
CONTINUOUS
10
33.6331
20
-23.0143
11
33.6435
21
-23.0199
0
LINE
8
BLACK
6
CONTINUOUS
10
33.6435
20
-23.0199
11
33.6526
21
-23.0274
0
LINE
8
BLACK
6
CONTINUOUS
10
33.6526
20
-23.0274
11
33.6601
21
-23.0365
0
LINE
8
BLACK
6
CONTINUOUS
10
33.6601
20
-23.0365
11
33.6657
21
-23.0469
0
LINE
8
BLACK
6
CONTINUOUS
10
33.6657
20
-23.0469
11
33.6691
21
-23.0582
0
LINE
8
BLACK
6
CONTINUOUS
10
33.6691
20
-23.0582
11
33.6703
21
-23.07
0
LINE
8
BLACK
6
CONTINUOUS
10
33.6703
20
-23.07
11
33.67
21
-23.0729
0
LINE
8
BLACK
6
CONTINUOUS
10
33.67
20
-23.0729
11
33.67
21
-36.2671
0
LINE
8
BLACK
6
CONTINUOUS
10
33.67
20
-36.2671
11
33.6703
21
-36.27
0
LINE
8
BLACK
6
CONTINUOUS
10
33.6703
20
-36.27
11
33.67
21
-36.2729
0
LINE
8
BLACK
6
CONTINUOUS
10
33.67
20
-36.2729
11
33.67
21
-36.2729
0
LINE
8
BLACK
6
CONTINUOUS
10
33.67
20
-36.2729
11
33.6691
21
-36.2818
0
LINE
8
BLACK
6
CONTINUOUS
10
33.6691
20
-36.2818
11
33.6657
21
-36.2931
0
LINE
8
BLACK
6
CONTINUOUS
10
33.6657
20
-36.2931
11
33.6601
21
-36.3035
0
LINE
8
BLACK
6
CONTINUOUS
10
33.6601
20
-36.3035
11
33.6526
21
-36.3126
0
LINE
8
BLACK
6
CONTINUOUS
10
33.6526
20
-36.3126
11
33.6435
21
-36.3201
0
LINE
8
BLACK
6
CONTINUOUS
10
33.6435
20
-36.3201
11
33.6331
21
-36.3257
0
LINE
8
BLACK
6
CONTINUOUS
10
33.6331
20
-36.3257
11
33.6218
21
-36.3291
0
LINE
8
BLACK
6
CONTINUOUS
10
33.6218
20
-36.3291
11
33.61
21
-36.3303
0
LINE
8
BLACK
6
CONTINUOUS
10
33.61
20
-36.3303
11
33.6071
21
-36.33
0
LINE
8
BLACK
6
CONTINUOUS
10
33.6071
20
-36.33
11
26.2129
21
-36.33
0
LINE
8
BLACK
6
CONTINUOUS
10
26.2129
20
-36.33
11
26.21
21
-36.3303
0
LINE
8
BLACK
6
CONTINUOUS
10
26.21
20
-36.3303
11
26.1982
21
-36.3291
0
LINE
8
BLACK
6
CONTINUOUS
10
26.1982
20
-36.3291
11
26.1869
21
-36.3257
0
LINE
8
BLACK
6
CONTINUOUS
10
26.1869
20
-36.3257
11
26.1765
21
-36.3201
0
LINE
8
BLACK
6
CONTINUOUS
10
26.1765
20
-36.3201
11
26.1674
21
-36.3126
0
LINE
8
BLACK
6
CONTINUOUS
10
26.1674
20
-36.3126
11
26.1599
21
-36.3035
0
LINE
8
BLACK
6
CONTINUOUS
10
26.1599
20
-36.3035
11
26.1543
21
-36.2931
0
LINE
8
BLACK
6
CONTINUOUS
10
26.1543
20
-36.2931
11
26.1509
21
-36.2818
0
LINE
8
BLACK
6
CONTINUOUS
10
26.1509
20
-36.2818
11
26.1497
21
-36.27
0
LINE
8
BLACK
6
CONTINUOUS
10
26.1497
20
-36.27
11
26.15
21
-36.2671
0
LINE
8
BLACK
6
CONTINUOUS
10
26.15
20
-36.2671
11
26.15
21
-23.073
0
LINE
8
BLACK
6
CONTINUOUS
10
26.15
20
-23.073
11
26.1497
21
-23.07
0
LINE
8
BLACK
6
CONTINUOUS
10
26.1497
20
-23.07
11
26.1509
21
-23.0582
0
LINE
8
BLACK
6
CONTINUOUS
10
26.1509
20
-23.0582
11
26.1543
21
-23.0469
0
LINE
8
BLACK
6
CONTINUOUS
10
26.1543
20
-23.0469
11
26.1599
21
-23.0365
0
LINE
8
BLACK
6
CONTINUOUS
10
26.1599
20
-23.0365
11
26.1674
21
-23.0274
0
LINE
8
BLACK
6
CONTINUOUS
10
26.1674
20
-23.0274
11
26.1765
21
-23.0199
0
LINE
8
BLACK
6
CONTINUOUS
10
26.1765
20
-23.0199
11
26.1869
21
-23.0143
0
LINE
8
BLACK
6
CONTINUOUS
10
26.1869
20
-23.0143
11
26.1982
21
-23.0109
0
LINE
8
BLACK
6
CONTINUOUS
10
26.1982
20
-23.0109
11
26.2071
21
-23.01
0
LINE
8
BLACK
6
CONTINUOUS
10
26.2071
20
-23.01
11
26.2071
21
-23.01
0
LINE
8
BLACK
6
CONTINUOUS
10
26.2071
20
-23.01
11
26.21
21
-23.0097
0
LINE
8
BLACK
6
CONTINUOUS
10
26.21
20
-23.0097
11
26.2129
21
-23.01
0
LINE
8
BLACK
6
CONTINUOUS
10
26.2129
20
-23.01
11
33.6071
21
-23.01
0
LINE
8
BLACK
6
CONTINUOUS
10
33.6071
20
-23.01
11
33.61
21
-23.0097
0
LINE
8
BLACK
6
CONTINUOUS
10
33.61
20
-23.0097
11
33.6129
21
-23.01
0
LINE
8
BLACK
6
CONTINUOUS
10
26.27
20
-23.13
11
26.27
21
-36.21
0
LINE
8
BLACK
6
CONTINUOUS
10
26.27
20
-36.21
11
33.55
21
-36.21
0
LINE
8
BLACK
6
CONTINUOUS
10
33.55
20
-36.21
11
33.55
21
-23.13
0
LINE
8
BLACK
6
CONTINUOUS
10
33.55
20
-23.13
11
26.27
21
-23.13
0
LINE
8
BLACK
6
CONTINUOUS
10
61.5229
20
-23.61
11
61.5229
21
-23.61
0
LINE
8
BLACK
6
CONTINUOUS
10
61.5229
20
-23.61
11
61.5318
21
-23.6109
0
LINE
8
BLACK
6
CONTINUOUS
10
61.5318
20
-23.6109
11
61.5431
21
-23.6143
0
LINE
8
BLACK
6
CONTINUOUS
10
61.5431
20
-23.6143
11
61.5535
21
-23.6199
0
LINE
8
BLACK
6
CONTINUOUS
10
61.5535
20
-23.6199
11
61.5626
21
-23.6274
0
LINE
8
BLACK
6
CONTINUOUS
10
61.5626
20
-23.6274
11
61.5701
21
-23.6365
0
LINE
8
BLACK
6
CONTINUOUS
10
61.5701
20
-23.6365
11
61.5757
21
-23.6469
0
LINE
8
BLACK
6
CONTINUOUS
10
61.5757
20
-23.6469
11
61.5791
21
-23.6582
0
LINE
8
BLACK
6
CONTINUOUS
10
61.5791
20
-23.6582
11
61.5803
21
-23.67
0
LINE
8
BLACK
6
CONTINUOUS
10
61.5803
20
-23.67
11
61.58
21
-23.6729
0
LINE
8
BLACK
6
CONTINUOUS
10
61.58
20
-23.6729
11
61.58
21
-35.6671
0
LINE
8
BLACK
6
CONTINUOUS
10
61.58
20
-35.6671
11
61.5803
21
-35.67
0
LINE
8
BLACK
6
CONTINUOUS
10
61.5803
20
-35.67
11
61.58
21
-35.6729
0
LINE
8
BLACK
6
CONTINUOUS
10
61.58
20
-35.6729
11
61.58
21
-35.6729
0
LINE
8
BLACK
6
CONTINUOUS
10
61.58
20
-35.6729
11
61.5791
21
-35.6818
0
LINE
8
BLACK
6
CONTINUOUS
10
61.5791
20
-35.6818
11
61.5757
21
-35.6931
0
LINE
8
BLACK
6
CONTINUOUS
10
61.5757
20
-35.6931
11
61.5701
21
-35.7035
0
LINE
8
BLACK
6
CONTINUOUS
10
61.5701
20
-35.7035
11
61.5626
21
-35.7126
0
LINE
8
BLACK
6
CONTINUOUS
10
61.5626
20
-35.7126
11
61.5535
21
-35.7201
0
LINE
8
BLACK
6
CONTINUOUS
10
61.5535
20
-35.7201
11
61.5431
21
-35.7257
0
LINE
8
BLACK
6
CONTINUOUS
10
61.5431
20
-35.7257
11
61.5318
21
-35.7291
0
LINE
8
BLACK
6
CONTINUOUS
10
61.5318
20
-35.7291
11
61.52
21
-35.7303
0
LINE
8
BLACK
6
CONTINUOUS
10
61.52
20
-35.7303
11
61.5171
21
-35.73
0
LINE
8
BLACK
6
CONTINUOUS
10
61.5171
20
-35.73
11
48.3229
21
-35.73
0
LINE
8
BLACK
6
CONTINUOUS
10
48.3229
20
-35.73
11
48.32
21
-35.7303
0
LINE
8
BLACK
6
CONTINUOUS
10
48.32
20
-35.7303
11
48.3082
21
-35.7291
0
LINE
8
BLACK
6
CONTINUOUS
10
48.3082
20
-35.7291
11
48.2969
21
-35.7257
0
LINE
8
BLACK
6
CONTINUOUS
10
48.2969
20
-35.7257
11
48.2865
21
-35.7201
0
LINE
8
BLACK
6
CONTINUOUS
10
48.2865
20
-35.7201
11
48.2774
21
-35.7126
0
LINE
8
BLACK
6
CONTINUOUS
10
48.2774
20
-35.7126
11
48.2699
21
-35.7035
0
LINE
8
BLACK
6
CONTINUOUS
10
48.2699
20
-35.7035
11
48.2643
21
-35.6931
0
LINE
8
BLACK
6
CONTINUOUS
10
48.2643
20
-35.6931
11
48.2609
21
-35.6818
0
LINE
8
BLACK
6
CONTINUOUS
10
48.2609
20
-35.6818
11
48.2597
21
-35.67
0
LINE
8
BLACK
6
CONTINUOUS
10
48.2597
20
-35.67
11
48.26
21
-35.6671
0
LINE
8
BLACK
6
CONTINUOUS
10
48.26
20
-35.6671
11
48.26
21
-23.673
0
LINE
8
BLACK
6
CONTINUOUS
10
48.26
20
-23.673
11
48.2597
21
-23.67
0
LINE
8
BLACK
6
CONTINUOUS
10
48.2597
20
-23.67
11
48.2609
21
-23.6582
0
LINE
8
BLACK
6
CONTINUOUS
10
48.2609
20
-23.6582
11
48.2643
21
-23.6469
0
LINE
8
BLACK
6
CONTINUOUS
10
48.2643
20
-23.6469
11
48.2699
21
-23.6365
0
LINE
8
BLACK
6
CONTINUOUS
10
48.2699
20
-23.6365
11
48.2774
21
-23.6274
0
LINE
8
BLACK
6
CONTINUOUS
10
48.2774
20
-23.6274
11
48.2865
21
-23.6199
0
LINE
8
BLACK
6
CONTINUOUS
10
48.2865
20
-23.6199
11
48.2969
21
-23.6143
0
LINE
8
BLACK
6
CONTINUOUS
10
48.2969
20
-23.6143
11
48.3082
21
-23.6109
0
LINE
8
BLACK
6
CONTINUOUS
10
48.3082
20
-23.6109
11
48.3171
21
-23.61
0
LINE
8
BLACK
6
CONTINUOUS
10
48.3171
20
-23.61
11
48.3171
21
-23.61
0
LINE
8
BLACK
6
CONTINUOUS
10
48.3171
20
-23.61
11
48.32
21
-23.6097
0
LINE
8
BLACK
6
CONTINUOUS
10
48.32
20
-23.6097
11
48.3229
21
-23.61
0
LINE
8
BLACK
6
CONTINUOUS
10
48.3229
20
-23.61
11
61.5171
21
-23.61
0
LINE
8
BLACK
6
CONTINUOUS
10
61.5171
20
-23.61
11
61.52
21
-23.6097
0
LINE
8
BLACK
6
CONTINUOUS
10
61.52
20
-23.6097
11
61.5229
21
-23.61
0
LINE
8
BLACK
6
CONTINUOUS
10
48.38
20
-23.73
11
48.38
21
-35.61
0
LINE
8
BLACK
6
CONTINUOUS
10
48.38
20
-35.61
11
61.46
21
-35.61
0
LINE
8
BLACK
6
CONTINUOUS
10
61.46
20
-35.61
11
61.46
21
-23.73
0
LINE
8
BLACK
6
CONTINUOUS
10
61.46
20
-23.73
11
48.38
21
-23.73
0
LINE
8
BLACK
6
CONTINUOUS
10
90.9312
20
-16.715
11
90.9349
21
-16.7154
0
LINE
8
BLACK
6
CONTINUOUS
10
90.9349
20
-16.7154
11
90.9396
21
-16.7168
0
LINE
8
BLACK
6
CONTINUOUS
10
90.9396
20
-16.7168
11
90.944
21
-16.7191
0
LINE
8
BLACK
6
CONTINUOUS
10
90.944
20
-16.7191
11
90.9478
21
-16.7222
0
LINE
8
BLACK
6
CONTINUOUS
10
90.9478
20
-16.7222
11
90.9509
21
-16.726
0
LINE
8
BLACK
6
CONTINUOUS
10
90.9509
20
-16.726
11
90.9532
21
-16.7304
0
LINE
8
BLACK
6
CONTINUOUS
10
90.9532
20
-16.7304
11
90.9546
21
-16.7351
0
LINE
8
BLACK
6
CONTINUOUS
10
90.9546
20
-16.7351
11
90.9551
21
-16.74
0
LINE
8
BLACK
6
CONTINUOUS
10
90.9551
20
-16.74
11
90.955
21
-16.7412
0
LINE
8
BLACK
6
CONTINUOUS
10
90.955
20
-16.7412
11
90.955
21
-23.2388
0
LINE
8
BLACK
6
CONTINUOUS
10
90.955
20
-23.2388
11
90.9551
21
-23.24
0
LINE
8
BLACK
6
CONTINUOUS
10
90.9551
20
-23.24
11
90.9546
21
-23.2449
0
LINE
8
BLACK
6
CONTINUOUS
10
90.9546
20
-23.2449
11
90.9532
21
-23.2496
0
LINE
8
BLACK
6
CONTINUOUS
10
90.9532
20
-23.2496
11
90.9509
21
-23.254
0
LINE
8
BLACK
6
CONTINUOUS
10
90.9509
20
-23.254
11
90.9478
21
-23.2578
0
LINE
8
BLACK
6
CONTINUOUS
10
90.9478
20
-23.2578
11
90.944
21
-23.2609
0
LINE
8
BLACK
6
CONTINUOUS
10
90.944
20
-23.2609
11
90.9396
21
-23.2632
0
LINE
8
BLACK
6
CONTINUOUS
10
90.9396
20
-23.2632
11
90.9349
21
-23.2646
0
LINE
8
BLACK
6
CONTINUOUS
10
90.9349
20
-23.2646
11
90.9312
21
-23.265
0
LINE
8
BLACK
6
CONTINUOUS
10
90.9312
20
-23.265
11
90.9312
21
-23.265
0
LINE
8
BLACK
6
CONTINUOUS
10
90.9312
20
-23.265
11
90.93
21
-23.2651
0
LINE
8
BLACK
6
CONTINUOUS
10
90.93
20
-23.2651
11
90.9288
21
-23.265
0
LINE
8
BLACK
6
CONTINUOUS
10
90.9288
20
-23.265
11
84.4812
21
-23.265
0
LINE
8
BLACK
6
CONTINUOUS
10
84.4812
20
-23.265
11
84.48
21
-23.2651
0
LINE
8
BLACK
6
CONTINUOUS
10
84.48
20
-23.2651
11
84.4788
21
-23.265
0
LINE
8
BLACK
6
CONTINUOUS
10
84.4788
20
-23.265
11
84.4788
21
-23.265
0
LINE
8
BLACK
6
CONTINUOUS
10
84.4788
20
-23.265
11
84.4751
21
-23.2646
0
LINE
8
BLACK
6
CONTINUOUS
10
84.4751
20
-23.2646
11
84.4704
21
-23.2632
0
LINE
8
BLACK
6
CONTINUOUS
10
84.4704
20
-23.2632
11
84.466
21
-23.2609
0
LINE
8
BLACK
6
CONTINUOUS
10
84.466
20
-23.2609
11
84.4622
21
-23.2578
0
LINE
8
BLACK
6
CONTINUOUS
10
84.4622
20
-23.2578
11
84.4591
21
-23.254
0
LINE
8
BLACK
6
CONTINUOUS
10
84.4591
20
-23.254
11
84.4568
21
-23.2496
0
LINE
8
BLACK
6
CONTINUOUS
10
84.4568
20
-23.2496
11
84.4554
21
-23.2449
0
LINE
8
BLACK
6
CONTINUOUS
10
84.4554
20
-23.2449
11
84.4549
21
-23.24
0
LINE
8
BLACK
6
CONTINUOUS
10
84.4549
20
-23.24
11
84.455
21
-23.2388
0
LINE
8
BLACK
6
CONTINUOUS
10
84.455
20
-23.2388
11
84.455
21
-16.7412
0
LINE
8
BLACK
6
CONTINUOUS
10
84.455
20
-16.7412
11
84.4549
21
-16.74
0
LINE
8
BLACK
6
CONTINUOUS
10
84.4549
20
-16.74
11
84.4554
21
-16.7351
0
LINE
8
BLACK
6
CONTINUOUS
10
84.4554
20
-16.7351
11
84.4568
21
-16.7304
0
LINE
8
BLACK
6
CONTINUOUS
10
84.4568
20
-16.7304
11
84.4591
21
-16.726
0
LINE
8
BLACK
6
CONTINUOUS
10
84.4591
20
-16.726
11
84.4622
21
-16.7222
0
LINE
8
BLACK
6
CONTINUOUS
10
84.4622
20
-16.7222
11
84.466
21
-16.7191
0
LINE
8
BLACK
6
CONTINUOUS
10
84.466
20
-16.7191
11
84.4704
21
-16.7168
0
LINE
8
BLACK
6
CONTINUOUS
10
84.4704
20
-16.7168
11
84.4751
21
-16.7154
0
LINE
8
BLACK
6
CONTINUOUS
10
84.4751
20
-16.7154
11
84.4788
21
-16.715
0
LINE
8
BLACK
6
CONTINUOUS
10
84.4788
20
-16.715
11
84.48
21
-16.7149
0
LINE
8
BLACK
6
CONTINUOUS
10
84.48
20
-16.7149
11
84.4812
21
-16.715
0
LINE
8
BLACK
6
CONTINUOUS
10
84.4812
20
-16.715
11
90.9288
21
-16.715
0
LINE
8
BLACK
6
CONTINUOUS
10
90.9288
20
-16.715
11
90.93
21
-16.7149
0
LINE
8
BLACK
6
CONTINUOUS
10
90.93
20
-16.7149
11
90.9312
21
-16.715
0
LINE
8
BLACK
6
CONTINUOUS
10
84.505
20
-16.765
11
84.505
21
-23.215
0
LINE
8
BLACK
6
CONTINUOUS
10
84.505
20
-23.215
11
90.905
21
-23.215
0
LINE
8
BLACK
6
CONTINUOUS
10
90.905
20
-23.215
11
90.905
21
-16.765
0
LINE
8
BLACK
6
CONTINUOUS
10
90.905
20
-16.765
11
84.505
21
-16.765
0
LINE
8
BLACK
6
CONTINUOUS
10
115.951
20
-16.705
11
115.955
21
-16.7054
0
LINE
8
BLACK
6
CONTINUOUS
10
115.955
20
-16.7054
11
115.96
21
-16.7068
0
LINE
8
BLACK
6
CONTINUOUS
10
115.96
20
-16.7068
11
115.964
21
-16.7091
0
LINE
8
BLACK
6
CONTINUOUS
10
115.964
20
-16.7091
11
115.968
21
-16.7122
0
LINE
8
BLACK
6
CONTINUOUS
10
115.968
20
-16.7122
11
115.971
21
-16.716
0
LINE
8
BLACK
6
CONTINUOUS
10
115.971
20
-16.716
11
115.973
21
-16.7204
0
LINE
8
BLACK
6
CONTINUOUS
10
115.973
20
-16.7204
11
115.975
21
-16.7251
0
LINE
8
BLACK
6
CONTINUOUS
10
115.975
20
-16.7251
11
115.975
21
-16.73
0
LINE
8
BLACK
6
CONTINUOUS
10
115.975
20
-16.73
11
115.975
21
-16.7312
0
LINE
8
BLACK
6
CONTINUOUS
10
115.975
20
-16.7312
11
115.975
21
-23.2288
0
LINE
8
BLACK
6
CONTINUOUS
10
115.975
20
-23.2288
11
115.975
21
-23.23
0
LINE
8
BLACK
6
CONTINUOUS
10
115.975
20
-23.23
11
115.975
21
-23.2349
0
LINE
8
BLACK
6
CONTINUOUS
10
115.975
20
-23.2349
11
115.973
21
-23.2396
0
LINE
8
BLACK
6
CONTINUOUS
10
115.973
20
-23.2396
11
115.971
21
-23.244
0
LINE
8
BLACK
6
CONTINUOUS
10
115.971
20
-23.244
11
115.968
21
-23.2478
0
LINE
8
BLACK
6
CONTINUOUS
10
115.968
20
-23.2478
11
115.964
21
-23.2509
0
LINE
8
BLACK
6
CONTINUOUS
10
115.964
20
-23.2509
11
115.96
21
-23.2532
0
LINE
8
BLACK
6
CONTINUOUS
10
115.96
20
-23.2532
11
115.955
21
-23.2546
0
LINE
8
BLACK
6
CONTINUOUS
10
115.955
20
-23.2546
11
115.951
21
-23.255
0
LINE
8
BLACK
6
CONTINUOUS
10
115.951
20
-23.255
11
115.951
21
-23.255
0
LINE
8
BLACK
6
CONTINUOUS
10
115.951
20
-23.255
11
115.95
21
-23.2551
0
LINE
8
BLACK
6
CONTINUOUS
10
115.95
20
-23.2551
11
115.949
21
-23.255
0
LINE
8
BLACK
6
CONTINUOUS
10
115.949
20
-23.255
11
109.501
21
-23.255
0
LINE
8
BLACK
6
CONTINUOUS
10
109.501
20
-23.255
11
109.5
21
-23.2551
0
LINE
8
BLACK
6
CONTINUOUS
10
109.5
20
-23.2551
11
109.499
21
-23.255
0
LINE
8
BLACK
6
CONTINUOUS
10
109.499
20
-23.255
11
109.499
21
-23.255
0
LINE
8
BLACK
6
CONTINUOUS
10
109.499
20
-23.255
11
109.495
21
-23.2546
0
LINE
8
BLACK
6
CONTINUOUS
10
109.495
20
-23.2546
11
109.49
21
-23.2532
0
LINE
8
BLACK
6
CONTINUOUS
10
109.49
20
-23.2532
11
109.486
21
-23.2509
0
LINE
8
BLACK
6
CONTINUOUS
10
109.486
20
-23.2509
11
109.482
21
-23.2478
0
LINE
8
BLACK
6
CONTINUOUS
10
109.482
20
-23.2478
11
109.479
21
-23.244
0
LINE
8
BLACK
6
CONTINUOUS
10
109.479
20
-23.244
11
109.477
21
-23.2396
0
LINE
8
BLACK
6
CONTINUOUS
10
109.477
20
-23.2396
11
109.475
21
-23.2349
0
LINE
8
BLACK
6
CONTINUOUS
10
109.475
20
-23.2349
11
109.475
21
-23.23
0
LINE
8
BLACK
6
CONTINUOUS
10
109.475
20
-23.23
11
109.475
21
-23.2288
0
LINE
8
BLACK
6
CONTINUOUS
10
109.475
20
-23.2288
11
109.475
21
-16.7312
0
LINE
8
BLACK
6
CONTINUOUS
10
109.475
20
-16.7312
11
109.475
21
-16.73
0
LINE
8
BLACK
6
CONTINUOUS
10
109.475
20
-16.73
11
109.475
21
-16.7251
0
LINE
8
BLACK
6
CONTINUOUS
10
109.475
20
-16.7251
11
109.477
21
-16.7204
0
LINE
8
BLACK
6
CONTINUOUS
10
109.477
20
-16.7204
11
109.479
21
-16.716
0
LINE
8
BLACK
6
CONTINUOUS
10
109.479
20
-16.716
11
109.482
21
-16.7122
0
LINE
8
BLACK
6
CONTINUOUS
10
109.482
20
-16.7122
11
109.486
21
-16.7091
0
LINE
8
BLACK
6
CONTINUOUS
10
109.486
20
-16.7091
11
109.49
21
-16.7068
0
LINE
8
BLACK
6
CONTINUOUS
10
109.49
20
-16.7068
11
109.495
21
-16.7054
0
LINE
8
BLACK
6
CONTINUOUS
10
109.495
20
-16.7054
11
109.499
21
-16.705
0
LINE
8
BLACK
6
CONTINUOUS
10
109.499
20
-16.705
11
109.5
21
-16.7049
0
LINE
8
BLACK
6
CONTINUOUS
10
109.5
20
-16.7049
11
109.501
21
-16.705
0
LINE
8
BLACK
6
CONTINUOUS
10
109.501
20
-16.705
11
115.949
21
-16.705
0
LINE
8
BLACK
6
CONTINUOUS
10
115.949
20
-16.705
11
115.95
21
-16.7049
0
LINE
8
BLACK
6
CONTINUOUS
10
115.95
20
-16.7049
11
115.951
21
-16.705
0
LINE
8
BLACK
6
CONTINUOUS
10
109.525
20
-16.755
11
109.525
21
-23.205
0
LINE
8
BLACK
6
CONTINUOUS
10
109.525
20
-23.205
11
115.925
21
-23.205
0
LINE
8
BLACK
6
CONTINUOUS
10
115.925
20
-23.205
11
115.925
21
-16.755
0
LINE
8
BLACK
6
CONTINUOUS
10
115.925
20
-16.755
11
109.525
21
-16.755
0
LINE
8
BLACK
6
CONTINUOUS
10
61.416
20
-119.157
11
61.7421
21
-118.208
0
LINE
8
BLACK
6
CONTINUOUS
10
61.7421
20
-118.208
11
62.22
21
-117.325
0
LINE
8
BLACK
6
CONTINUOUS
10
62.22
20
-117.325
11
62.8368
21
-116.532
0
LINE
8
BLACK
6
CONTINUOUS
10
62.8368
20
-116.532
11
63.5756
21
-115.852
0
LINE
8
BLACK
6
CONTINUOUS
10
63.5756
20
-115.852
11
64.4162
21
-115.303
0
LINE
8
BLACK
6
CONTINUOUS
10
64.4162
20
-115.303
11
65.3358
21
-114.899
0
LINE
8
BLACK
6
CONTINUOUS
10
65.3358
20
-114.899
11
66.3093
21
-114.653
0
LINE
8
BLACK
6
CONTINUOUS
10
66.3093
20
-114.653
11
67.31
21
-114.57
0
LINE
8
BLACK
6
CONTINUOUS
10
67.31
20
-114.57
11
68.3107
21
-114.653
0
LINE
8
BLACK
6
CONTINUOUS
10
68.3107
20
-114.653
11
69.2842
21
-114.899
0
LINE
8
BLACK
6
CONTINUOUS
10
69.2842
20
-114.899
11
70.2038
21
-115.303
0
LINE
8
BLACK
6
CONTINUOUS
10
70.2038
20
-115.303
11
71.0444
21
-115.852
0
LINE
8
BLACK
6
CONTINUOUS
10
71.0444
20
-115.852
11
71.7832
21
-116.532
0
LINE
8
BLACK
6
CONTINUOUS
10
71.7832
20
-116.532
11
72.4
21
-117.325
0
LINE
8
BLACK
6
CONTINUOUS
10
72.4
20
-117.325
11
72.8779
21
-118.208
0
LINE
8
BLACK
6
CONTINUOUS
10
72.8779
20
-118.208
11
73.204
21
-119.157
0
LINE
8
BLACK
6
CONTINUOUS
10
73.204
20
-119.157
11
73.3692
21
-120.148
0
LINE
8
BLACK
6
CONTINUOUS
10
73.3692
20
-120.148
11
73.3692
21
-121.152
0
LINE
8
BLACK
6
CONTINUOUS
10
73.3692
20
-121.152
11
73.204
21
-122.143
0
LINE
8
BLACK
6
CONTINUOUS
10
73.204
20
-122.143
11
72.8779
21
-123.092
0
LINE
8
BLACK
6
CONTINUOUS
10
72.8779
20
-123.092
11
72.4
21
-123.975
0
LINE
8
BLACK
6
CONTINUOUS
10
72.4
20
-123.975
11
71.7832
21
-124.768
0
LINE
8
BLACK
6
CONTINUOUS
10
71.7832
20
-124.768
11
71.0444
21
-125.448
0
LINE
8
BLACK
6
CONTINUOUS
10
71.0444
20
-125.448
11
70.2038
21
-125.997
0
LINE
8
BLACK
6
CONTINUOUS
10
70.2038
20
-125.997
11
69.2842
21
-126.401
0
LINE
8
BLACK
6
CONTINUOUS
10
69.2842
20
-126.401
11
68.3107
21
-126.647
0
LINE
8
BLACK
6
CONTINUOUS
10
68.3107
20
-126.647
11
67.31
21
-126.73
0
LINE
8
BLACK
6
CONTINUOUS
10
67.31
20
-126.73
11
66.3093
21
-126.647
0
LINE
8
BLACK
6
CONTINUOUS
10
66.3093
20
-126.647
11
65.3358
21
-126.401
0
LINE
8
BLACK
6
CONTINUOUS
10
65.3358
20
-126.401
11
64.4162
21
-125.997
0
LINE
8
BLACK
6
CONTINUOUS
10
64.4162
20
-125.997
11
63.5756
21
-125.448
0
LINE
8
BLACK
6
CONTINUOUS
10
63.5756
20
-125.448
11
62.8368
21
-124.768
0
LINE
8
BLACK
6
CONTINUOUS
10
62.8368
20
-124.768
11
62.22
21
-123.975
0
LINE
8
BLACK
6
CONTINUOUS
10
62.22
20
-123.975
11
61.7421
21
-123.092
0
LINE
8
BLACK
6
CONTINUOUS
10
61.7421
20
-123.092
11
61.416
21
-122.143
0
LINE
8
BLACK
6
CONTINUOUS
10
61.416
20
-122.143
11
61.2508
21
-121.152
0
LINE
8
BLACK
6
CONTINUOUS
10
61.2508
20
-121.152
11
61.2508
21
-120.148
0
LINE
8
BLACK
6
CONTINUOUS
10
61.2508
20
-120.148
11
61.416
21
-119.157
0
LINE
8
BLACK
6
CONTINUOUS
10
61.5518
20
-122.108
11
61.8703
21
-123.036
0
LINE
8
BLACK
6
CONTINUOUS
10
61.8703
20
-123.036
11
62.3372
21
-123.899
0
LINE
8
BLACK
6
CONTINUOUS
10
62.3372
20
-123.899
11
62.9398
21
-124.673
0
LINE
8
BLACK
6
CONTINUOUS
10
62.9398
20
-124.673
11
63.6616
21
-125.337
0
LINE
8
BLACK
6
CONTINUOUS
10
63.6616
20
-125.337
11
64.4829
21
-125.874
0
LINE
8
BLACK
6
CONTINUOUS
10
64.4829
20
-125.874
11
65.3813
21
-126.268
0
LINE
8
BLACK
6
CONTINUOUS
10
65.3813
20
-126.268
11
66.3323
21
-126.509
0
LINE
8
BLACK
6
CONTINUOUS
10
66.3323
20
-126.509
11
67.31
21
-126.59
0
LINE
8
BLACK
6
CONTINUOUS
10
67.31
20
-126.59
11
68.2877
21
-126.509
0
LINE
8
BLACK
6
CONTINUOUS
10
68.2877
20
-126.509
11
69.2387
21
-126.268
0
LINE
8
BLACK
6
CONTINUOUS
10
69.2387
20
-126.268
11
70.1371
21
-125.874
0
LINE
8
BLACK
6
CONTINUOUS
10
70.1371
20
-125.874
11
70.9584
21
-125.337
0
LINE
8
BLACK
6
CONTINUOUS
10
70.9584
20
-125.337
11
71.6802
21
-124.673
0
LINE
8
BLACK
6
CONTINUOUS
10
71.6802
20
-124.673
11
72.2828
21
-123.899
0
LINE
8
BLACK
6
CONTINUOUS
10
72.2828
20
-123.899
11
72.7497
21
-123.036
0
LINE
8
BLACK
6
CONTINUOUS
10
72.7497
20
-123.036
11
73.0682
21
-122.108
0
LINE
8
BLACK
6
CONTINUOUS
10
73.0682
20
-122.108
11
73.2297
21
-121.141
0
LINE
8
BLACK
6
CONTINUOUS
10
73.2297
20
-121.141
11
73.2297
21
-120.159
0
LINE
8
BLACK
6
CONTINUOUS
10
73.2297
20
-120.159
11
73.0682
21
-119.192
0
LINE
8
BLACK
6
CONTINUOUS
10
73.0682
20
-119.192
11
72.7497
21
-118.264
0
LINE
8
BLACK
6
CONTINUOUS
10
72.7497
20
-118.264
11
72.2828
21
-117.401
0
LINE
8
BLACK
6
CONTINUOUS
10
72.2828
20
-117.401
11
71.6802
21
-116.627
0
LINE
8
BLACK
6
CONTINUOUS
10
71.6802
20
-116.627
11
70.9584
21
-115.963
0
LINE
8
BLACK
6
CONTINUOUS
10
70.9584
20
-115.963
11
70.1371
21
-115.426
0
LINE
8
BLACK
6
CONTINUOUS
10
70.1371
20
-115.426
11
69.2387
21
-115.032
0
LINE
8
BLACK
6
CONTINUOUS
10
69.2387
20
-115.032
11
68.2877
21
-114.791
0
LINE
8
BLACK
6
CONTINUOUS
10
68.2877
20
-114.791
11
67.31
21
-114.71
0
LINE
8
BLACK
6
CONTINUOUS
10
67.31
20
-114.71
11
66.3323
21
-114.791
0
LINE
8
BLACK
6
CONTINUOUS
10
66.3323
20
-114.791
11
65.3813
21
-115.032
0
LINE
8
BLACK
6
CONTINUOUS
10
65.3813
20
-115.032
11
64.4829
21
-115.426
0
LINE
8
BLACK
6
CONTINUOUS
10
64.4829
20
-115.426
11
63.6616
21
-115.963
0
LINE
8
BLACK
6
CONTINUOUS
10
63.6616
20
-115.963
11
62.9398
21
-116.627
0
LINE
8
BLACK
6
CONTINUOUS
10
62.9398
20
-116.627
11
62.3372
21
-117.401
0
LINE
8
BLACK
6
CONTINUOUS
10
62.3372
20
-117.401
11
61.8703
21
-118.264
0
LINE
8
BLACK
6
CONTINUOUS
10
61.8703
20
-118.264
11
61.5518
21
-119.192
0
LINE
8
BLACK
6
CONTINUOUS
10
61.5518
20
-119.192
11
61.3903
21
-120.159
0
LINE
8
BLACK
6
CONTINUOUS
10
61.3903
20
-120.159
11
61.3903
21
-121.141
0
LINE
8
BLACK
6
CONTINUOUS
10
61.3903
20
-121.141
11
61.5518
21
-122.108
  0
ENDSEC
  0
EOF
