  0
SECTION
  2
HEADER
  9
$ANGBASE
  50
0.0
  9
$ANGDIR
  70
1
  9
$MEASUREMENT
  70
1
  0
ENDSEC
  0
SECTION
  2
TABLES
  0
TABLE
  2
LTYPE
  70
4
  0
LTYPE
  5
40F
  2
CONTINUOUS
  70
0
  3
Solid line
  72
65
  73
0
  40
0.0
  0
LTYPE
  5
410
  2
DASHDOT
 70
0
  3
Dash Dot ____ _ ____ _
 72
65
 73
4
 40
2.0
 49
1.25
 49
-0.25
 49
0.25
 49
-0.25
  0
LTYPE
  5
411
  2
DASHED
 70
0
  3
Dashed __ __ __ __ __
 72
65
 73
2
 40
0.75
 49
0.5
 49
-0.25
  0
LTYPE
  5
43B
  2
DOTTED
 70
0
  3
Dotted .  .  .  .
 72
65
 73
2
 40
0.2
 49
0.0
 49
-0.2
  0
ENDTAB
  0
TABLE
  2
STYLE
  70
4
  0
STYLE
  2
KICAD
  70
0
  40
0
  41
1
  42
1
  50
0
  71
0
  3
isocp.shx
  0
STYLE
  2
KICADB
  70
0
  40
0
  41
1
  42
1
  50
0
  71
0
  3
isocp.shx
  0
STYLE
  2
KICADI
  70
0
  40
0
  41
1
  42
1
  50
15
  71
0
  3
isocp.shx
  0
STYLE
  2
KICADBI
  70
0
  40
0
  41
1
  42
1
  50
15
  71
0
  3
isocp.shx
  0
ENDTAB
  0
TABLE
  2
LAYER
  70
1
  0
LAYER
  2
BLACK
  70
0
  62
7
  6
CONTINUOUS
  0
ENDTAB
  0
ENDSEC
  0
SECTION
  2
ENTITIES
0
LINE
8
BLACK
6
CONTINUOUS
10
115.401
20
-16.655
11
115.401
21
-16.655
0
LINE
8
BLACK
6
CONTINUOUS
10
115.401
20
-16.655
11
115.405
21
-16.6554
0
LINE
8
BLACK
6
CONTINUOUS
10
115.405
20
-16.6554
11
115.41
21
-16.6568
0
LINE
8
BLACK
6
CONTINUOUS
10
115.41
20
-16.6568
11
115.414
21
-16.6591
0
LINE
8
BLACK
6
CONTINUOUS
10
115.414
20
-16.6591
11
115.418
21
-16.6622
0
LINE
8
BLACK
6
CONTINUOUS
10
115.418
20
-16.6622
11
115.421
21
-16.666
0
LINE
8
BLACK
6
CONTINUOUS
10
115.421
20
-16.666
11
115.423
21
-16.6704
0
LINE
8
BLACK
6
CONTINUOUS
10
115.423
20
-16.6704
11
115.425
21
-16.6751
0
LINE
8
BLACK
6
CONTINUOUS
10
115.425
20
-16.6751
11
115.425
21
-16.68
0
LINE
8
BLACK
6
CONTINUOUS
10
115.425
20
-16.68
11
115.425
21
-16.6812
0
LINE
8
BLACK
6
CONTINUOUS
10
115.425
20
-16.6812
11
115.425
21
-142.239
0
LINE
8
BLACK
6
CONTINUOUS
10
115.425
20
-142.239
11
115.425
21
-142.24
0
LINE
8
BLACK
6
CONTINUOUS
10
115.425
20
-142.24
11
115.425
21
-142.241
0
LINE
8
BLACK
6
CONTINUOUS
10
115.425
20
-142.241
11
115.425
21
-142.241
0
LINE
8
BLACK
6
CONTINUOUS
10
115.425
20
-142.241
11
115.425
21
-142.245
0
LINE
8
BLACK
6
CONTINUOUS
10
115.425
20
-142.245
11
115.423
21
-142.25
0
LINE
8
BLACK
6
CONTINUOUS
10
115.423
20
-142.25
11
115.421
21
-142.254
0
LINE
8
BLACK
6
CONTINUOUS
10
115.421
20
-142.254
11
115.418
21
-142.258
0
LINE
8
BLACK
6
CONTINUOUS
10
115.418
20
-142.258
11
115.414
21
-142.261
0
LINE
8
BLACK
6
CONTINUOUS
10
115.414
20
-142.261
11
115.41
21
-142.263
0
LINE
8
BLACK
6
CONTINUOUS
10
115.41
20
-142.263
11
115.405
21
-142.265
0
LINE
8
BLACK
6
CONTINUOUS
10
115.405
20
-142.265
11
115.4
21
-142.265
0
LINE
8
BLACK
6
CONTINUOUS
10
115.4
20
-142.265
11
115.399
21
-142.265
0
LINE
8
BLACK
6
CONTINUOUS
10
115.399
20
-142.265
11
19.4312
21
-142.265
0
LINE
8
BLACK
6
CONTINUOUS
10
19.4312
20
-142.265
11
19.43
21
-142.265
0
LINE
8
BLACK
6
CONTINUOUS
10
19.43
20
-142.265
11
19.4251
21
-142.265
0
LINE
8
BLACK
6
CONTINUOUS
10
19.4251
20
-142.265
11
19.4204
21
-142.263
0
LINE
8
BLACK
6
CONTINUOUS
10
19.4204
20
-142.263
11
19.416
21
-142.261
0
LINE
8
BLACK
6
CONTINUOUS
10
19.416
20
-142.261
11
19.4122
21
-142.258
0
LINE
8
BLACK
6
CONTINUOUS
10
19.4122
20
-142.258
11
19.4091
21
-142.254
0
LINE
8
BLACK
6
CONTINUOUS
10
19.4091
20
-142.254
11
19.4068
21
-142.25
0
LINE
8
BLACK
6
CONTINUOUS
10
19.4068
20
-142.25
11
19.4054
21
-142.245
0
LINE
8
BLACK
6
CONTINUOUS
10
19.4054
20
-142.245
11
19.4049
21
-142.24
0
LINE
8
BLACK
6
CONTINUOUS
10
19.4049
20
-142.24
11
19.405
21
-142.239
0
LINE
8
BLACK
6
CONTINUOUS
10
19.405
20
-142.239
11
19.405
21
-16.6812
0
LINE
8
BLACK
6
CONTINUOUS
10
19.405
20
-16.6812
11
19.4049
21
-16.68
0
LINE
8
BLACK
6
CONTINUOUS
10
19.4049
20
-16.68
11
19.4054
21
-16.6751
0
LINE
8
BLACK
6
CONTINUOUS
10
19.4054
20
-16.6751
11
19.4068
21
-16.6704
0
LINE
8
BLACK
6
CONTINUOUS
10
19.4068
20
-16.6704
11
19.4091
21
-16.666
0
LINE
8
BLACK
6
CONTINUOUS
10
19.4091
20
-16.666
11
19.4122
21
-16.6622
0
LINE
8
BLACK
6
CONTINUOUS
10
19.4122
20
-16.6622
11
19.416
21
-16.6591
0
LINE
8
BLACK
6
CONTINUOUS
10
19.416
20
-16.6591
11
19.4204
21
-16.6568
0
LINE
8
BLACK
6
CONTINUOUS
10
19.4204
20
-16.6568
11
19.4251
21
-16.6554
0
LINE
8
BLACK
6
CONTINUOUS
10
19.4251
20
-16.6554
11
19.4288
21
-16.655
0
LINE
8
BLACK
6
CONTINUOUS
10
19.4288
20
-16.655
11
19.4288
21
-16.655
0
LINE
8
BLACK
6
CONTINUOUS
10
19.4288
20
-16.655
11
19.43
21
-16.6549
0
LINE
8
BLACK
6
CONTINUOUS
10
19.43
20
-16.6549
11
19.4312
21
-16.655
0
LINE
8
BLACK
6
CONTINUOUS
10
19.4312
20
-16.655
11
115.399
21
-16.655
0
LINE
8
BLACK
6
CONTINUOUS
10
115.399
20
-16.655
11
115.4
21
-16.6549
0
LINE
8
BLACK
6
CONTINUOUS
10
115.4
20
-16.6549
11
115.401
21
-16.655
0
LINE
8
BLACK
6
CONTINUOUS
10
19.455
20
-16.705
11
19.455
21
-142.215
0
LINE
8
BLACK
6
CONTINUOUS
10
19.455
20
-142.215
11
115.375
21
-142.215
0
LINE
8
BLACK
6
CONTINUOUS
10
115.375
20
-142.215
11
115.375
21
-16.705
0
LINE
8
BLACK
6
CONTINUOUS
10
115.375
20
-16.705
11
19.455
21
-16.705
  0
ENDSEC
  0
EOF
