%TF.GenerationSoftware,KiCad,Pcbnew,(5.1.9)-1*%
%TF.CreationDate,2021-11-13T23:25:43+00:00*%
%TF.ProjectId,KOSMOS Function Generator,4b4f534d-4f53-4204-9675-6e6374696f6e,rev?*%
%TF.SameCoordinates,Original*%
%TF.FileFunction,Other,Fab,Top*%
%FSLAX46Y46*%
G04 Gerber Fmt 4.6, Leading zero omitted, Abs format (unit mm)*
G04 Created by KiCad (PCBNEW (5.1.9)-1) date 2021-11-13 23:25:43*
%MOMM*%
%LPD*%
G01*
G04 APERTURE LIST*
%TA.AperFunction,Profile*%
%ADD10C,0.050000*%
%TD*%
%ADD11C,0.100000*%
%ADD12C,0.120000*%
%ADD13C,0.150000*%
%ADD14C,0.200000*%
G04 APERTURE END LIST*
D10*
X19430000Y-142240000D02*
X19430000Y-16680000D01*
X115400000Y-142240000D02*
X19430000Y-142240000D01*
X115400000Y-16680000D02*
X115400000Y-142240000D01*
X19430000Y-16680000D02*
X115400000Y-16680000D01*
D11*
%TO.C,RV2*%
X108440000Y-69650000D02*
G75*
G03*
X108440000Y-69650000I-3500000J0D01*
G01*
X109690000Y-76150000D02*
X100190000Y-76150000D01*
X109690000Y-64800000D02*
X100190000Y-64800000D01*
X100190000Y-76150000D02*
X100190000Y-64800000D01*
X109690000Y-76150000D02*
X109690000Y-64800000D01*
%TO.C,D8*%
X85200000Y-18520306D02*
X85200000Y-21459694D01*
X90200000Y-19990000D02*
G75*
G03*
X90200000Y-19990000I-2500000J0D01*
G01*
X85199984Y-21459666D02*
G75*
G03*
X85200000Y-18520306I2500016J1469666D01*
G01*
%TO.C,D9*%
X115220000Y-19980000D02*
G75*
G03*
X115220000Y-19980000I-2500000J0D01*
G01*
X110220000Y-18510306D02*
X110220000Y-21449694D01*
X110219984Y-21449666D02*
G75*
G03*
X110220000Y-18510306I2500016J1469666D01*
G01*
%TO.C,J2*%
X54695000Y-134630000D02*
X54060000Y-133995000D01*
X79460000Y-134630000D02*
X54695000Y-134630000D01*
X79460000Y-132090000D02*
X79460000Y-134630000D01*
X54060000Y-132090000D02*
X79460000Y-132090000D01*
X54060000Y-133995000D02*
X54060000Y-132090000D01*
%TO.C,RV1*%
X33430000Y-69680000D02*
G75*
G03*
X33430000Y-69680000I-3500000J0D01*
G01*
X34680000Y-76180000D02*
X25180000Y-76180000D01*
X34680000Y-64830000D02*
X25180000Y-64830000D01*
X25180000Y-76180000D02*
X25180000Y-64830000D01*
X34680000Y-76180000D02*
X34680000Y-64830000D01*
%TO.C,RV3*%
X59680000Y-76180000D02*
X59680000Y-64830000D01*
X50180000Y-76180000D02*
X50180000Y-64830000D01*
X59680000Y-64830000D02*
X50180000Y-64830000D01*
X59680000Y-76180000D02*
X50180000Y-76180000D01*
X58430000Y-69680000D02*
G75*
G03*
X58430000Y-69680000I-3500000J0D01*
G01*
%TO.C,RV4*%
X84680000Y-76180000D02*
X84680000Y-64830000D01*
X75180000Y-76180000D02*
X75180000Y-64830000D01*
X84680000Y-64830000D02*
X75180000Y-64830000D01*
X84680000Y-76180000D02*
X75180000Y-76180000D01*
X83430000Y-69680000D02*
G75*
G03*
X83430000Y-69680000I-3500000J0D01*
G01*
%TO.C,RV5*%
X109670000Y-36180000D02*
X109670000Y-24830000D01*
X100170000Y-36180000D02*
X100170000Y-24830000D01*
X109670000Y-24830000D02*
X100170000Y-24830000D01*
X109670000Y-36180000D02*
X100170000Y-36180000D01*
X108420000Y-29680000D02*
G75*
G03*
X108420000Y-29680000I-3500000J0D01*
G01*
%TO.C,RV6*%
X83420000Y-29670000D02*
G75*
G03*
X83420000Y-29670000I-3500000J0D01*
G01*
X84670000Y-36170000D02*
X75170000Y-36170000D01*
X84670000Y-24820000D02*
X75170000Y-24820000D01*
X75170000Y-36170000D02*
X75170000Y-24820000D01*
X84670000Y-36170000D02*
X84670000Y-24820000D01*
%TO.C,RV7*%
X34670000Y-116190000D02*
X34670000Y-104840000D01*
X25170000Y-116190000D02*
X25170000Y-104840000D01*
X34670000Y-104840000D02*
X25170000Y-104840000D01*
X34670000Y-116190000D02*
X25170000Y-116190000D01*
X33420000Y-109690000D02*
G75*
G03*
X33420000Y-109690000I-3500000J0D01*
G01*
%TO.C,RV8*%
X83410000Y-109650000D02*
G75*
G03*
X83410000Y-109650000I-3500000J0D01*
G01*
X84660000Y-116150000D02*
X75160000Y-116150000D01*
X84660000Y-104800000D02*
X75160000Y-104800000D01*
X75160000Y-116150000D02*
X75160000Y-104800000D01*
X84660000Y-116150000D02*
X84660000Y-104800000D01*
%TO.C,RV9*%
X108430000Y-109680000D02*
G75*
G03*
X108430000Y-109680000I-3500000J0D01*
G01*
X109680000Y-116180000D02*
X100180000Y-116180000D01*
X109680000Y-104830000D02*
X100180000Y-104830000D01*
X100180000Y-116180000D02*
X100180000Y-104830000D01*
X109680000Y-116180000D02*
X109680000Y-104830000D01*
%TO.C,RV10*%
X59670000Y-116170000D02*
X59670000Y-104820000D01*
X50170000Y-116170000D02*
X50170000Y-104820000D01*
X59670000Y-104820000D02*
X50170000Y-104820000D01*
X59670000Y-116170000D02*
X50170000Y-116170000D01*
X58420000Y-109670000D02*
G75*
G03*
X58420000Y-109670000I-3500000J0D01*
G01*
D12*
%TO.C,SW3*%
X72195788Y-120650000D02*
G75*
G03*
X72195788Y-120650000I-4885788J0D01*
G01*
%TD*%
%TO.C,RV2*%
D13*
X113002380Y-78221428D02*
X113002380Y-78792857D01*
X113002380Y-78507142D02*
X112002380Y-78507142D01*
X112145238Y-78602380D01*
X112240476Y-78697619D01*
X112288095Y-78792857D01*
X112002380Y-77602380D02*
X112002380Y-77507142D01*
X112050000Y-77411904D01*
X112097619Y-77364285D01*
X112192857Y-77316666D01*
X112383333Y-77269047D01*
X112621428Y-77269047D01*
X112811904Y-77316666D01*
X112907142Y-77364285D01*
X112954761Y-77411904D01*
X113002380Y-77507142D01*
X113002380Y-77602380D01*
X112954761Y-77697619D01*
X112907142Y-77745238D01*
X112811904Y-77792857D01*
X112621428Y-77840476D01*
X112383333Y-77840476D01*
X112192857Y-77792857D01*
X112097619Y-77745238D01*
X112050000Y-77697619D01*
X112002380Y-77602380D01*
X112002380Y-76650000D02*
X112002380Y-76554761D01*
X112050000Y-76459523D01*
X112097619Y-76411904D01*
X112192857Y-76364285D01*
X112383333Y-76316666D01*
X112621428Y-76316666D01*
X112811904Y-76364285D01*
X112907142Y-76411904D01*
X112954761Y-76459523D01*
X113002380Y-76554761D01*
X113002380Y-76650000D01*
X112954761Y-76745238D01*
X112907142Y-76792857D01*
X112811904Y-76840476D01*
X112621428Y-76888095D01*
X112383333Y-76888095D01*
X112192857Y-76840476D01*
X112097619Y-76792857D01*
X112050000Y-76745238D01*
X112002380Y-76650000D01*
X113002380Y-75888095D02*
X112002380Y-75888095D01*
X112621428Y-75792857D02*
X113002380Y-75507142D01*
X112335714Y-75507142D02*
X112716666Y-75888095D01*
X105432380Y-70125238D02*
X104956190Y-70458571D01*
X105432380Y-70696666D02*
X104432380Y-70696666D01*
X104432380Y-70315714D01*
X104480000Y-70220476D01*
X104527619Y-70172857D01*
X104622857Y-70125238D01*
X104765714Y-70125238D01*
X104860952Y-70172857D01*
X104908571Y-70220476D01*
X104956190Y-70315714D01*
X104956190Y-70696666D01*
X104432380Y-69839523D02*
X105432380Y-69506190D01*
X104432380Y-69172857D01*
X104527619Y-68887142D02*
X104480000Y-68839523D01*
X104432380Y-68744285D01*
X104432380Y-68506190D01*
X104480000Y-68410952D01*
X104527619Y-68363333D01*
X104622857Y-68315714D01*
X104718095Y-68315714D01*
X104860952Y-68363333D01*
X105432380Y-68934761D01*
X105432380Y-68315714D01*
%TO.C,D8*%
X87057142Y-24402380D02*
X86580952Y-24402380D01*
X86580952Y-23402380D01*
X87390476Y-23878571D02*
X87723809Y-23878571D01*
X87866666Y-24402380D02*
X87390476Y-24402380D01*
X87390476Y-23402380D01*
X87866666Y-23402380D01*
X88295238Y-24402380D02*
X88295238Y-23402380D01*
X88533333Y-23402380D01*
X88676190Y-23450000D01*
X88771428Y-23545238D01*
X88819047Y-23640476D01*
X88866666Y-23830952D01*
X88866666Y-23973809D01*
X88819047Y-24164285D01*
X88771428Y-24259523D01*
X88676190Y-24354761D01*
X88533333Y-24402380D01*
X88295238Y-24402380D01*
D14*
X87089523Y-20351904D02*
X87089523Y-19551904D01*
X87280000Y-19551904D01*
X87394285Y-19590000D01*
X87470476Y-19666190D01*
X87508571Y-19742380D01*
X87546666Y-19894761D01*
X87546666Y-20009047D01*
X87508571Y-20161428D01*
X87470476Y-20237619D01*
X87394285Y-20313809D01*
X87280000Y-20351904D01*
X87089523Y-20351904D01*
X88003809Y-19894761D02*
X87927619Y-19856666D01*
X87889523Y-19818571D01*
X87851428Y-19742380D01*
X87851428Y-19704285D01*
X87889523Y-19628095D01*
X87927619Y-19590000D01*
X88003809Y-19551904D01*
X88156190Y-19551904D01*
X88232380Y-19590000D01*
X88270476Y-19628095D01*
X88308571Y-19704285D01*
X88308571Y-19742380D01*
X88270476Y-19818571D01*
X88232380Y-19856666D01*
X88156190Y-19894761D01*
X88003809Y-19894761D01*
X87927619Y-19932857D01*
X87889523Y-19970952D01*
X87851428Y-20047142D01*
X87851428Y-20199523D01*
X87889523Y-20275714D01*
X87927619Y-20313809D01*
X88003809Y-20351904D01*
X88156190Y-20351904D01*
X88232380Y-20313809D01*
X88270476Y-20275714D01*
X88308571Y-20199523D01*
X88308571Y-20047142D01*
X88270476Y-19970952D01*
X88232380Y-19932857D01*
X88156190Y-19894761D01*
%TO.C,D9*%
D13*
X112077142Y-24392380D02*
X111600952Y-24392380D01*
X111600952Y-23392380D01*
X112410476Y-23868571D02*
X112743809Y-23868571D01*
X112886666Y-24392380D02*
X112410476Y-24392380D01*
X112410476Y-23392380D01*
X112886666Y-23392380D01*
X113315238Y-24392380D02*
X113315238Y-23392380D01*
X113553333Y-23392380D01*
X113696190Y-23440000D01*
X113791428Y-23535238D01*
X113839047Y-23630476D01*
X113886666Y-23820952D01*
X113886666Y-23963809D01*
X113839047Y-24154285D01*
X113791428Y-24249523D01*
X113696190Y-24344761D01*
X113553333Y-24392380D01*
X113315238Y-24392380D01*
D14*
X112109523Y-20341904D02*
X112109523Y-19541904D01*
X112300000Y-19541904D01*
X112414285Y-19580000D01*
X112490476Y-19656190D01*
X112528571Y-19732380D01*
X112566666Y-19884761D01*
X112566666Y-19999047D01*
X112528571Y-20151428D01*
X112490476Y-20227619D01*
X112414285Y-20303809D01*
X112300000Y-20341904D01*
X112109523Y-20341904D01*
X112947619Y-20341904D02*
X113100000Y-20341904D01*
X113176190Y-20303809D01*
X113214285Y-20265714D01*
X113290476Y-20151428D01*
X113328571Y-19999047D01*
X113328571Y-19694285D01*
X113290476Y-19618095D01*
X113252380Y-19580000D01*
X113176190Y-19541904D01*
X113023809Y-19541904D01*
X112947619Y-19580000D01*
X112909523Y-19618095D01*
X112871428Y-19694285D01*
X112871428Y-19884761D01*
X112909523Y-19960952D01*
X112947619Y-19999047D01*
X113023809Y-20037142D01*
X113176190Y-20037142D01*
X113252380Y-19999047D01*
X113290476Y-19960952D01*
X113328571Y-19884761D01*
%TO.C,J2*%
D13*
X80877142Y-139193333D02*
X80924761Y-139240952D01*
X80972380Y-139383809D01*
X80972380Y-139479047D01*
X80924761Y-139621904D01*
X80829523Y-139717142D01*
X80734285Y-139764761D01*
X80543809Y-139812380D01*
X80400952Y-139812380D01*
X80210476Y-139764761D01*
X80115238Y-139717142D01*
X80020000Y-139621904D01*
X79972380Y-139479047D01*
X79972380Y-139383809D01*
X80020000Y-139240952D01*
X80067619Y-139193333D01*
X80972380Y-138621904D02*
X80924761Y-138717142D01*
X80877142Y-138764761D01*
X80781904Y-138812380D01*
X80496190Y-138812380D01*
X80400952Y-138764761D01*
X80353333Y-138717142D01*
X80305714Y-138621904D01*
X80305714Y-138479047D01*
X80353333Y-138383809D01*
X80400952Y-138336190D01*
X80496190Y-138288571D01*
X80781904Y-138288571D01*
X80877142Y-138336190D01*
X80924761Y-138383809D01*
X80972380Y-138479047D01*
X80972380Y-138621904D01*
X80305714Y-137860000D02*
X80972380Y-137860000D01*
X80400952Y-137860000D02*
X80353333Y-137812380D01*
X80305714Y-137717142D01*
X80305714Y-137574285D01*
X80353333Y-137479047D01*
X80448571Y-137431428D01*
X80972380Y-137431428D01*
X80305714Y-136955238D02*
X80972380Y-136955238D01*
X80400952Y-136955238D02*
X80353333Y-136907619D01*
X80305714Y-136812380D01*
X80305714Y-136669523D01*
X80353333Y-136574285D01*
X80448571Y-136526666D01*
X80972380Y-136526666D01*
X81067619Y-136288571D02*
X81067619Y-135526666D01*
X79972380Y-135098095D02*
X79972380Y-135002857D01*
X80020000Y-134907619D01*
X80067619Y-134860000D01*
X80162857Y-134812380D01*
X80353333Y-134764761D01*
X80591428Y-134764761D01*
X80781904Y-134812380D01*
X80877142Y-134860000D01*
X80924761Y-134907619D01*
X80972380Y-135002857D01*
X80972380Y-135098095D01*
X80924761Y-135193333D01*
X80877142Y-135240952D01*
X80781904Y-135288571D01*
X80591428Y-135336190D01*
X80353333Y-135336190D01*
X80162857Y-135288571D01*
X80067619Y-135240952D01*
X80020000Y-135193333D01*
X79972380Y-135098095D01*
X80972380Y-133812380D02*
X80972380Y-134383809D01*
X80972380Y-134098095D02*
X79972380Y-134098095D01*
X80115238Y-134193333D01*
X80210476Y-134288571D01*
X80258095Y-134383809D01*
X80972380Y-133479047D02*
X80305714Y-132955238D01*
X80305714Y-133479047D02*
X80972380Y-132955238D01*
X80972380Y-132050476D02*
X80972380Y-132621904D01*
X80972380Y-132336190D02*
X79972380Y-132336190D01*
X80115238Y-132431428D01*
X80210476Y-132526666D01*
X80258095Y-132621904D01*
X79972380Y-131431428D02*
X79972380Y-131336190D01*
X80020000Y-131240952D01*
X80067619Y-131193333D01*
X80162857Y-131145714D01*
X80353333Y-131098095D01*
X80591428Y-131098095D01*
X80781904Y-131145714D01*
X80877142Y-131193333D01*
X80924761Y-131240952D01*
X80972380Y-131336190D01*
X80972380Y-131431428D01*
X80924761Y-131526666D01*
X80877142Y-131574285D01*
X80781904Y-131621904D01*
X80591428Y-131669523D01*
X80353333Y-131669523D01*
X80162857Y-131621904D01*
X80067619Y-131574285D01*
X80020000Y-131526666D01*
X79972380Y-131431428D01*
X81067619Y-130907619D02*
X81067619Y-130145714D01*
X80972380Y-129907619D02*
X79972380Y-129907619D01*
X80686666Y-129574285D01*
X79972380Y-129240952D01*
X80972380Y-129240952D01*
X80972380Y-128336190D02*
X80448571Y-128336190D01*
X80353333Y-128383809D01*
X80305714Y-128479047D01*
X80305714Y-128669523D01*
X80353333Y-128764761D01*
X80924761Y-128336190D02*
X80972380Y-128431428D01*
X80972380Y-128669523D01*
X80924761Y-128764761D01*
X80829523Y-128812380D01*
X80734285Y-128812380D01*
X80639047Y-128764761D01*
X80591428Y-128669523D01*
X80591428Y-128431428D01*
X80543809Y-128336190D01*
X80972380Y-127717142D02*
X80924761Y-127812380D01*
X80829523Y-127860000D01*
X79972380Y-127860000D01*
X80924761Y-126955238D02*
X80972380Y-127050476D01*
X80972380Y-127240952D01*
X80924761Y-127336190D01*
X80829523Y-127383809D01*
X80448571Y-127383809D01*
X80353333Y-127336190D01*
X80305714Y-127240952D01*
X80305714Y-127050476D01*
X80353333Y-126955238D01*
X80448571Y-126907619D01*
X80543809Y-126907619D01*
X80639047Y-127383809D01*
X66426666Y-132812380D02*
X66426666Y-133526666D01*
X66379047Y-133669523D01*
X66283809Y-133764761D01*
X66140952Y-133812380D01*
X66045714Y-133812380D01*
X66855238Y-132907619D02*
X66902857Y-132860000D01*
X66998095Y-132812380D01*
X67236190Y-132812380D01*
X67331428Y-132860000D01*
X67379047Y-132907619D01*
X67426666Y-133002857D01*
X67426666Y-133098095D01*
X67379047Y-133240952D01*
X66807619Y-133812380D01*
X67426666Y-133812380D01*
%TO.C,RV1*%
X37992380Y-78251428D02*
X37992380Y-78822857D01*
X37992380Y-78537142D02*
X36992380Y-78537142D01*
X37135238Y-78632380D01*
X37230476Y-78727619D01*
X37278095Y-78822857D01*
X36992380Y-77632380D02*
X36992380Y-77537142D01*
X37040000Y-77441904D01*
X37087619Y-77394285D01*
X37182857Y-77346666D01*
X37373333Y-77299047D01*
X37611428Y-77299047D01*
X37801904Y-77346666D01*
X37897142Y-77394285D01*
X37944761Y-77441904D01*
X37992380Y-77537142D01*
X37992380Y-77632380D01*
X37944761Y-77727619D01*
X37897142Y-77775238D01*
X37801904Y-77822857D01*
X37611428Y-77870476D01*
X37373333Y-77870476D01*
X37182857Y-77822857D01*
X37087619Y-77775238D01*
X37040000Y-77727619D01*
X36992380Y-77632380D01*
X36992380Y-76680000D02*
X36992380Y-76584761D01*
X37040000Y-76489523D01*
X37087619Y-76441904D01*
X37182857Y-76394285D01*
X37373333Y-76346666D01*
X37611428Y-76346666D01*
X37801904Y-76394285D01*
X37897142Y-76441904D01*
X37944761Y-76489523D01*
X37992380Y-76584761D01*
X37992380Y-76680000D01*
X37944761Y-76775238D01*
X37897142Y-76822857D01*
X37801904Y-76870476D01*
X37611428Y-76918095D01*
X37373333Y-76918095D01*
X37182857Y-76870476D01*
X37087619Y-76822857D01*
X37040000Y-76775238D01*
X36992380Y-76680000D01*
X37992380Y-75918095D02*
X36992380Y-75918095D01*
X37611428Y-75822857D02*
X37992380Y-75537142D01*
X37325714Y-75537142D02*
X37706666Y-75918095D01*
X30422380Y-70155238D02*
X29946190Y-70488571D01*
X30422380Y-70726666D02*
X29422380Y-70726666D01*
X29422380Y-70345714D01*
X29470000Y-70250476D01*
X29517619Y-70202857D01*
X29612857Y-70155238D01*
X29755714Y-70155238D01*
X29850952Y-70202857D01*
X29898571Y-70250476D01*
X29946190Y-70345714D01*
X29946190Y-70726666D01*
X29422380Y-69869523D02*
X30422380Y-69536190D01*
X29422380Y-69202857D01*
X30422380Y-68345714D02*
X30422380Y-68917142D01*
X30422380Y-68631428D02*
X29422380Y-68631428D01*
X29565238Y-68726666D01*
X29660476Y-68821904D01*
X29708095Y-68917142D01*
%TO.C,RV3*%
X62992380Y-78251428D02*
X62992380Y-78822857D01*
X62992380Y-78537142D02*
X61992380Y-78537142D01*
X62135238Y-78632380D01*
X62230476Y-78727619D01*
X62278095Y-78822857D01*
X61992380Y-77632380D02*
X61992380Y-77537142D01*
X62040000Y-77441904D01*
X62087619Y-77394285D01*
X62182857Y-77346666D01*
X62373333Y-77299047D01*
X62611428Y-77299047D01*
X62801904Y-77346666D01*
X62897142Y-77394285D01*
X62944761Y-77441904D01*
X62992380Y-77537142D01*
X62992380Y-77632380D01*
X62944761Y-77727619D01*
X62897142Y-77775238D01*
X62801904Y-77822857D01*
X62611428Y-77870476D01*
X62373333Y-77870476D01*
X62182857Y-77822857D01*
X62087619Y-77775238D01*
X62040000Y-77727619D01*
X61992380Y-77632380D01*
X61992380Y-76680000D02*
X61992380Y-76584761D01*
X62040000Y-76489523D01*
X62087619Y-76441904D01*
X62182857Y-76394285D01*
X62373333Y-76346666D01*
X62611428Y-76346666D01*
X62801904Y-76394285D01*
X62897142Y-76441904D01*
X62944761Y-76489523D01*
X62992380Y-76584761D01*
X62992380Y-76680000D01*
X62944761Y-76775238D01*
X62897142Y-76822857D01*
X62801904Y-76870476D01*
X62611428Y-76918095D01*
X62373333Y-76918095D01*
X62182857Y-76870476D01*
X62087619Y-76822857D01*
X62040000Y-76775238D01*
X61992380Y-76680000D01*
X62992380Y-75918095D02*
X61992380Y-75918095D01*
X62611428Y-75822857D02*
X62992380Y-75537142D01*
X62325714Y-75537142D02*
X62706666Y-75918095D01*
X55422380Y-70155238D02*
X54946190Y-70488571D01*
X55422380Y-70726666D02*
X54422380Y-70726666D01*
X54422380Y-70345714D01*
X54470000Y-70250476D01*
X54517619Y-70202857D01*
X54612857Y-70155238D01*
X54755714Y-70155238D01*
X54850952Y-70202857D01*
X54898571Y-70250476D01*
X54946190Y-70345714D01*
X54946190Y-70726666D01*
X54422380Y-69869523D02*
X55422380Y-69536190D01*
X54422380Y-69202857D01*
X54422380Y-68964761D02*
X54422380Y-68345714D01*
X54803333Y-68679047D01*
X54803333Y-68536190D01*
X54850952Y-68440952D01*
X54898571Y-68393333D01*
X54993809Y-68345714D01*
X55231904Y-68345714D01*
X55327142Y-68393333D01*
X55374761Y-68440952D01*
X55422380Y-68536190D01*
X55422380Y-68821904D01*
X55374761Y-68917142D01*
X55327142Y-68964761D01*
%TO.C,RV4*%
X87992380Y-78251428D02*
X87992380Y-78822857D01*
X87992380Y-78537142D02*
X86992380Y-78537142D01*
X87135238Y-78632380D01*
X87230476Y-78727619D01*
X87278095Y-78822857D01*
X86992380Y-77632380D02*
X86992380Y-77537142D01*
X87040000Y-77441904D01*
X87087619Y-77394285D01*
X87182857Y-77346666D01*
X87373333Y-77299047D01*
X87611428Y-77299047D01*
X87801904Y-77346666D01*
X87897142Y-77394285D01*
X87944761Y-77441904D01*
X87992380Y-77537142D01*
X87992380Y-77632380D01*
X87944761Y-77727619D01*
X87897142Y-77775238D01*
X87801904Y-77822857D01*
X87611428Y-77870476D01*
X87373333Y-77870476D01*
X87182857Y-77822857D01*
X87087619Y-77775238D01*
X87040000Y-77727619D01*
X86992380Y-77632380D01*
X86992380Y-76680000D02*
X86992380Y-76584761D01*
X87040000Y-76489523D01*
X87087619Y-76441904D01*
X87182857Y-76394285D01*
X87373333Y-76346666D01*
X87611428Y-76346666D01*
X87801904Y-76394285D01*
X87897142Y-76441904D01*
X87944761Y-76489523D01*
X87992380Y-76584761D01*
X87992380Y-76680000D01*
X87944761Y-76775238D01*
X87897142Y-76822857D01*
X87801904Y-76870476D01*
X87611428Y-76918095D01*
X87373333Y-76918095D01*
X87182857Y-76870476D01*
X87087619Y-76822857D01*
X87040000Y-76775238D01*
X86992380Y-76680000D01*
X87992380Y-75918095D02*
X86992380Y-75918095D01*
X87611428Y-75822857D02*
X87992380Y-75537142D01*
X87325714Y-75537142D02*
X87706666Y-75918095D01*
X80422380Y-70155238D02*
X79946190Y-70488571D01*
X80422380Y-70726666D02*
X79422380Y-70726666D01*
X79422380Y-70345714D01*
X79470000Y-70250476D01*
X79517619Y-70202857D01*
X79612857Y-70155238D01*
X79755714Y-70155238D01*
X79850952Y-70202857D01*
X79898571Y-70250476D01*
X79946190Y-70345714D01*
X79946190Y-70726666D01*
X79422380Y-69869523D02*
X80422380Y-69536190D01*
X79422380Y-69202857D01*
X79755714Y-68440952D02*
X80422380Y-68440952D01*
X79374761Y-68679047D02*
X80089047Y-68917142D01*
X80089047Y-68298095D01*
%TO.C,RV5*%
X112982380Y-38251428D02*
X112982380Y-38822857D01*
X112982380Y-38537142D02*
X111982380Y-38537142D01*
X112125238Y-38632380D01*
X112220476Y-38727619D01*
X112268095Y-38822857D01*
X111982380Y-37632380D02*
X111982380Y-37537142D01*
X112030000Y-37441904D01*
X112077619Y-37394285D01*
X112172857Y-37346666D01*
X112363333Y-37299047D01*
X112601428Y-37299047D01*
X112791904Y-37346666D01*
X112887142Y-37394285D01*
X112934761Y-37441904D01*
X112982380Y-37537142D01*
X112982380Y-37632380D01*
X112934761Y-37727619D01*
X112887142Y-37775238D01*
X112791904Y-37822857D01*
X112601428Y-37870476D01*
X112363333Y-37870476D01*
X112172857Y-37822857D01*
X112077619Y-37775238D01*
X112030000Y-37727619D01*
X111982380Y-37632380D01*
X111982380Y-36680000D02*
X111982380Y-36584761D01*
X112030000Y-36489523D01*
X112077619Y-36441904D01*
X112172857Y-36394285D01*
X112363333Y-36346666D01*
X112601428Y-36346666D01*
X112791904Y-36394285D01*
X112887142Y-36441904D01*
X112934761Y-36489523D01*
X112982380Y-36584761D01*
X112982380Y-36680000D01*
X112934761Y-36775238D01*
X112887142Y-36822857D01*
X112791904Y-36870476D01*
X112601428Y-36918095D01*
X112363333Y-36918095D01*
X112172857Y-36870476D01*
X112077619Y-36822857D01*
X112030000Y-36775238D01*
X111982380Y-36680000D01*
X112982380Y-35918095D02*
X111982380Y-35918095D01*
X112601428Y-35822857D02*
X112982380Y-35537142D01*
X112315714Y-35537142D02*
X112696666Y-35918095D01*
X105412380Y-30155238D02*
X104936190Y-30488571D01*
X105412380Y-30726666D02*
X104412380Y-30726666D01*
X104412380Y-30345714D01*
X104460000Y-30250476D01*
X104507619Y-30202857D01*
X104602857Y-30155238D01*
X104745714Y-30155238D01*
X104840952Y-30202857D01*
X104888571Y-30250476D01*
X104936190Y-30345714D01*
X104936190Y-30726666D01*
X104412380Y-29869523D02*
X105412380Y-29536190D01*
X104412380Y-29202857D01*
X104412380Y-28393333D02*
X104412380Y-28869523D01*
X104888571Y-28917142D01*
X104840952Y-28869523D01*
X104793333Y-28774285D01*
X104793333Y-28536190D01*
X104840952Y-28440952D01*
X104888571Y-28393333D01*
X104983809Y-28345714D01*
X105221904Y-28345714D01*
X105317142Y-28393333D01*
X105364761Y-28440952D01*
X105412380Y-28536190D01*
X105412380Y-28774285D01*
X105364761Y-28869523D01*
X105317142Y-28917142D01*
%TO.C,RV6*%
X87982380Y-37765238D02*
X87982380Y-38336666D01*
X87982380Y-38050952D02*
X86982380Y-38050952D01*
X87125238Y-38146190D01*
X87220476Y-38241428D01*
X87268095Y-38336666D01*
X86982380Y-37146190D02*
X86982380Y-37050952D01*
X87030000Y-36955714D01*
X87077619Y-36908095D01*
X87172857Y-36860476D01*
X87363333Y-36812857D01*
X87601428Y-36812857D01*
X87791904Y-36860476D01*
X87887142Y-36908095D01*
X87934761Y-36955714D01*
X87982380Y-37050952D01*
X87982380Y-37146190D01*
X87934761Y-37241428D01*
X87887142Y-37289047D01*
X87791904Y-37336666D01*
X87601428Y-37384285D01*
X87363333Y-37384285D01*
X87172857Y-37336666D01*
X87077619Y-37289047D01*
X87030000Y-37241428D01*
X86982380Y-37146190D01*
X87982380Y-36384285D02*
X86982380Y-36384285D01*
X87601428Y-36289047D02*
X87982380Y-36003333D01*
X87315714Y-36003333D02*
X87696666Y-36384285D01*
X80412380Y-30145238D02*
X79936190Y-30478571D01*
X80412380Y-30716666D02*
X79412380Y-30716666D01*
X79412380Y-30335714D01*
X79460000Y-30240476D01*
X79507619Y-30192857D01*
X79602857Y-30145238D01*
X79745714Y-30145238D01*
X79840952Y-30192857D01*
X79888571Y-30240476D01*
X79936190Y-30335714D01*
X79936190Y-30716666D01*
X79412380Y-29859523D02*
X80412380Y-29526190D01*
X79412380Y-29192857D01*
X79412380Y-28430952D02*
X79412380Y-28621428D01*
X79460000Y-28716666D01*
X79507619Y-28764285D01*
X79650476Y-28859523D01*
X79840952Y-28907142D01*
X80221904Y-28907142D01*
X80317142Y-28859523D01*
X80364761Y-28811904D01*
X80412380Y-28716666D01*
X80412380Y-28526190D01*
X80364761Y-28430952D01*
X80317142Y-28383333D01*
X80221904Y-28335714D01*
X79983809Y-28335714D01*
X79888571Y-28383333D01*
X79840952Y-28430952D01*
X79793333Y-28526190D01*
X79793333Y-28716666D01*
X79840952Y-28811904D01*
X79888571Y-28859523D01*
X79983809Y-28907142D01*
%TO.C,RV7*%
X37982380Y-118261428D02*
X37982380Y-118832857D01*
X37982380Y-118547142D02*
X36982380Y-118547142D01*
X37125238Y-118642380D01*
X37220476Y-118737619D01*
X37268095Y-118832857D01*
X36982380Y-117642380D02*
X36982380Y-117547142D01*
X37030000Y-117451904D01*
X37077619Y-117404285D01*
X37172857Y-117356666D01*
X37363333Y-117309047D01*
X37601428Y-117309047D01*
X37791904Y-117356666D01*
X37887142Y-117404285D01*
X37934761Y-117451904D01*
X37982380Y-117547142D01*
X37982380Y-117642380D01*
X37934761Y-117737619D01*
X37887142Y-117785238D01*
X37791904Y-117832857D01*
X37601428Y-117880476D01*
X37363333Y-117880476D01*
X37172857Y-117832857D01*
X37077619Y-117785238D01*
X37030000Y-117737619D01*
X36982380Y-117642380D01*
X36982380Y-116690000D02*
X36982380Y-116594761D01*
X37030000Y-116499523D01*
X37077619Y-116451904D01*
X37172857Y-116404285D01*
X37363333Y-116356666D01*
X37601428Y-116356666D01*
X37791904Y-116404285D01*
X37887142Y-116451904D01*
X37934761Y-116499523D01*
X37982380Y-116594761D01*
X37982380Y-116690000D01*
X37934761Y-116785238D01*
X37887142Y-116832857D01*
X37791904Y-116880476D01*
X37601428Y-116928095D01*
X37363333Y-116928095D01*
X37172857Y-116880476D01*
X37077619Y-116832857D01*
X37030000Y-116785238D01*
X36982380Y-116690000D01*
X37982380Y-115928095D02*
X36982380Y-115928095D01*
X37601428Y-115832857D02*
X37982380Y-115547142D01*
X37315714Y-115547142D02*
X37696666Y-115928095D01*
X30412380Y-110165238D02*
X29936190Y-110498571D01*
X30412380Y-110736666D02*
X29412380Y-110736666D01*
X29412380Y-110355714D01*
X29460000Y-110260476D01*
X29507619Y-110212857D01*
X29602857Y-110165238D01*
X29745714Y-110165238D01*
X29840952Y-110212857D01*
X29888571Y-110260476D01*
X29936190Y-110355714D01*
X29936190Y-110736666D01*
X29412380Y-109879523D02*
X30412380Y-109546190D01*
X29412380Y-109212857D01*
X29412380Y-108974761D02*
X29412380Y-108308095D01*
X30412380Y-108736666D01*
%TO.C,RV8*%
X87972380Y-118221428D02*
X87972380Y-118792857D01*
X87972380Y-118507142D02*
X86972380Y-118507142D01*
X87115238Y-118602380D01*
X87210476Y-118697619D01*
X87258095Y-118792857D01*
X86972380Y-117602380D02*
X86972380Y-117507142D01*
X87020000Y-117411904D01*
X87067619Y-117364285D01*
X87162857Y-117316666D01*
X87353333Y-117269047D01*
X87591428Y-117269047D01*
X87781904Y-117316666D01*
X87877142Y-117364285D01*
X87924761Y-117411904D01*
X87972380Y-117507142D01*
X87972380Y-117602380D01*
X87924761Y-117697619D01*
X87877142Y-117745238D01*
X87781904Y-117792857D01*
X87591428Y-117840476D01*
X87353333Y-117840476D01*
X87162857Y-117792857D01*
X87067619Y-117745238D01*
X87020000Y-117697619D01*
X86972380Y-117602380D01*
X86972380Y-116650000D02*
X86972380Y-116554761D01*
X87020000Y-116459523D01*
X87067619Y-116411904D01*
X87162857Y-116364285D01*
X87353333Y-116316666D01*
X87591428Y-116316666D01*
X87781904Y-116364285D01*
X87877142Y-116411904D01*
X87924761Y-116459523D01*
X87972380Y-116554761D01*
X87972380Y-116650000D01*
X87924761Y-116745238D01*
X87877142Y-116792857D01*
X87781904Y-116840476D01*
X87591428Y-116888095D01*
X87353333Y-116888095D01*
X87162857Y-116840476D01*
X87067619Y-116792857D01*
X87020000Y-116745238D01*
X86972380Y-116650000D01*
X87972380Y-115888095D02*
X86972380Y-115888095D01*
X87591428Y-115792857D02*
X87972380Y-115507142D01*
X87305714Y-115507142D02*
X87686666Y-115888095D01*
X80402380Y-110125238D02*
X79926190Y-110458571D01*
X80402380Y-110696666D02*
X79402380Y-110696666D01*
X79402380Y-110315714D01*
X79450000Y-110220476D01*
X79497619Y-110172857D01*
X79592857Y-110125238D01*
X79735714Y-110125238D01*
X79830952Y-110172857D01*
X79878571Y-110220476D01*
X79926190Y-110315714D01*
X79926190Y-110696666D01*
X79402380Y-109839523D02*
X80402380Y-109506190D01*
X79402380Y-109172857D01*
X79830952Y-108696666D02*
X79783333Y-108791904D01*
X79735714Y-108839523D01*
X79640476Y-108887142D01*
X79592857Y-108887142D01*
X79497619Y-108839523D01*
X79450000Y-108791904D01*
X79402380Y-108696666D01*
X79402380Y-108506190D01*
X79450000Y-108410952D01*
X79497619Y-108363333D01*
X79592857Y-108315714D01*
X79640476Y-108315714D01*
X79735714Y-108363333D01*
X79783333Y-108410952D01*
X79830952Y-108506190D01*
X79830952Y-108696666D01*
X79878571Y-108791904D01*
X79926190Y-108839523D01*
X80021428Y-108887142D01*
X80211904Y-108887142D01*
X80307142Y-108839523D01*
X80354761Y-108791904D01*
X80402380Y-108696666D01*
X80402380Y-108506190D01*
X80354761Y-108410952D01*
X80307142Y-108363333D01*
X80211904Y-108315714D01*
X80021428Y-108315714D01*
X79926190Y-108363333D01*
X79878571Y-108410952D01*
X79830952Y-108506190D01*
%TO.C,RV9*%
X112992380Y-118251428D02*
X112992380Y-118822857D01*
X112992380Y-118537142D02*
X111992380Y-118537142D01*
X112135238Y-118632380D01*
X112230476Y-118727619D01*
X112278095Y-118822857D01*
X111992380Y-117632380D02*
X111992380Y-117537142D01*
X112040000Y-117441904D01*
X112087619Y-117394285D01*
X112182857Y-117346666D01*
X112373333Y-117299047D01*
X112611428Y-117299047D01*
X112801904Y-117346666D01*
X112897142Y-117394285D01*
X112944761Y-117441904D01*
X112992380Y-117537142D01*
X112992380Y-117632380D01*
X112944761Y-117727619D01*
X112897142Y-117775238D01*
X112801904Y-117822857D01*
X112611428Y-117870476D01*
X112373333Y-117870476D01*
X112182857Y-117822857D01*
X112087619Y-117775238D01*
X112040000Y-117727619D01*
X111992380Y-117632380D01*
X111992380Y-116680000D02*
X111992380Y-116584761D01*
X112040000Y-116489523D01*
X112087619Y-116441904D01*
X112182857Y-116394285D01*
X112373333Y-116346666D01*
X112611428Y-116346666D01*
X112801904Y-116394285D01*
X112897142Y-116441904D01*
X112944761Y-116489523D01*
X112992380Y-116584761D01*
X112992380Y-116680000D01*
X112944761Y-116775238D01*
X112897142Y-116822857D01*
X112801904Y-116870476D01*
X112611428Y-116918095D01*
X112373333Y-116918095D01*
X112182857Y-116870476D01*
X112087619Y-116822857D01*
X112040000Y-116775238D01*
X111992380Y-116680000D01*
X112992380Y-115918095D02*
X111992380Y-115918095D01*
X112611428Y-115822857D02*
X112992380Y-115537142D01*
X112325714Y-115537142D02*
X112706666Y-115918095D01*
X105422380Y-110155238D02*
X104946190Y-110488571D01*
X105422380Y-110726666D02*
X104422380Y-110726666D01*
X104422380Y-110345714D01*
X104470000Y-110250476D01*
X104517619Y-110202857D01*
X104612857Y-110155238D01*
X104755714Y-110155238D01*
X104850952Y-110202857D01*
X104898571Y-110250476D01*
X104946190Y-110345714D01*
X104946190Y-110726666D01*
X104422380Y-109869523D02*
X105422380Y-109536190D01*
X104422380Y-109202857D01*
X105422380Y-108821904D02*
X105422380Y-108631428D01*
X105374761Y-108536190D01*
X105327142Y-108488571D01*
X105184285Y-108393333D01*
X104993809Y-108345714D01*
X104612857Y-108345714D01*
X104517619Y-108393333D01*
X104470000Y-108440952D01*
X104422380Y-108536190D01*
X104422380Y-108726666D01*
X104470000Y-108821904D01*
X104517619Y-108869523D01*
X104612857Y-108917142D01*
X104850952Y-108917142D01*
X104946190Y-108869523D01*
X104993809Y-108821904D01*
X105041428Y-108726666D01*
X105041428Y-108536190D01*
X104993809Y-108440952D01*
X104946190Y-108393333D01*
X104850952Y-108345714D01*
%TO.C,RV10*%
X62982380Y-118241428D02*
X62982380Y-118812857D01*
X62982380Y-118527142D02*
X61982380Y-118527142D01*
X62125238Y-118622380D01*
X62220476Y-118717619D01*
X62268095Y-118812857D01*
X61982380Y-117622380D02*
X61982380Y-117527142D01*
X62030000Y-117431904D01*
X62077619Y-117384285D01*
X62172857Y-117336666D01*
X62363333Y-117289047D01*
X62601428Y-117289047D01*
X62791904Y-117336666D01*
X62887142Y-117384285D01*
X62934761Y-117431904D01*
X62982380Y-117527142D01*
X62982380Y-117622380D01*
X62934761Y-117717619D01*
X62887142Y-117765238D01*
X62791904Y-117812857D01*
X62601428Y-117860476D01*
X62363333Y-117860476D01*
X62172857Y-117812857D01*
X62077619Y-117765238D01*
X62030000Y-117717619D01*
X61982380Y-117622380D01*
X61982380Y-116670000D02*
X61982380Y-116574761D01*
X62030000Y-116479523D01*
X62077619Y-116431904D01*
X62172857Y-116384285D01*
X62363333Y-116336666D01*
X62601428Y-116336666D01*
X62791904Y-116384285D01*
X62887142Y-116431904D01*
X62934761Y-116479523D01*
X62982380Y-116574761D01*
X62982380Y-116670000D01*
X62934761Y-116765238D01*
X62887142Y-116812857D01*
X62791904Y-116860476D01*
X62601428Y-116908095D01*
X62363333Y-116908095D01*
X62172857Y-116860476D01*
X62077619Y-116812857D01*
X62030000Y-116765238D01*
X61982380Y-116670000D01*
X62982380Y-115908095D02*
X61982380Y-115908095D01*
X62601428Y-115812857D02*
X62982380Y-115527142D01*
X62315714Y-115527142D02*
X62696666Y-115908095D01*
X55412380Y-110621428D02*
X54936190Y-110954761D01*
X55412380Y-111192857D02*
X54412380Y-111192857D01*
X54412380Y-110811904D01*
X54460000Y-110716666D01*
X54507619Y-110669047D01*
X54602857Y-110621428D01*
X54745714Y-110621428D01*
X54840952Y-110669047D01*
X54888571Y-110716666D01*
X54936190Y-110811904D01*
X54936190Y-111192857D01*
X54412380Y-110335714D02*
X55412380Y-110002380D01*
X54412380Y-109669047D01*
X55412380Y-108811904D02*
X55412380Y-109383333D01*
X55412380Y-109097619D02*
X54412380Y-109097619D01*
X54555238Y-109192857D01*
X54650476Y-109288095D01*
X54698095Y-109383333D01*
X54412380Y-108192857D02*
X54412380Y-108097619D01*
X54460000Y-108002380D01*
X54507619Y-107954761D01*
X54602857Y-107907142D01*
X54793333Y-107859523D01*
X55031428Y-107859523D01*
X55221904Y-107907142D01*
X55317142Y-107954761D01*
X55364761Y-108002380D01*
X55412380Y-108097619D01*
X55412380Y-108192857D01*
X55364761Y-108288095D01*
X55317142Y-108335714D01*
X55221904Y-108383333D01*
X55031428Y-108430952D01*
X54793333Y-108430952D01*
X54602857Y-108383333D01*
X54507619Y-108335714D01*
X54460000Y-108288095D01*
X54412380Y-108192857D01*
%TO.C,SW1*%
X19955261Y-27773261D02*
X20098119Y-27820880D01*
X20336214Y-27820880D01*
X20431452Y-27773261D01*
X20479071Y-27725642D01*
X20526690Y-27630404D01*
X20526690Y-27535166D01*
X20479071Y-27439928D01*
X20431452Y-27392309D01*
X20336214Y-27344690D01*
X20145738Y-27297071D01*
X20050500Y-27249452D01*
X20002880Y-27201833D01*
X19955261Y-27106595D01*
X19955261Y-27011357D01*
X20002880Y-26916119D01*
X20050500Y-26868500D01*
X20145738Y-26820880D01*
X20383833Y-26820880D01*
X20526690Y-26868500D01*
X20860023Y-26820880D02*
X21098119Y-27820880D01*
X21288595Y-27106595D01*
X21479071Y-27820880D01*
X21717166Y-26820880D01*
X21860023Y-27916119D02*
X22621928Y-27916119D01*
X22812404Y-27773261D02*
X22955261Y-27820880D01*
X23193357Y-27820880D01*
X23288595Y-27773261D01*
X23336214Y-27725642D01*
X23383833Y-27630404D01*
X23383833Y-27535166D01*
X23336214Y-27439928D01*
X23288595Y-27392309D01*
X23193357Y-27344690D01*
X23002880Y-27297071D01*
X22907642Y-27249452D01*
X22860023Y-27201833D01*
X22812404Y-27106595D01*
X22812404Y-27011357D01*
X22860023Y-26916119D01*
X22907642Y-26868500D01*
X23002880Y-26820880D01*
X23240976Y-26820880D01*
X23383833Y-26868500D01*
X23812404Y-27820880D02*
X23812404Y-26820880D01*
X24193357Y-26820880D01*
X24288595Y-26868500D01*
X24336214Y-26916119D01*
X24383833Y-27011357D01*
X24383833Y-27154214D01*
X24336214Y-27249452D01*
X24288595Y-27297071D01*
X24193357Y-27344690D01*
X23812404Y-27344690D01*
X24812404Y-27820880D02*
X24812404Y-26820880D01*
X25050500Y-26820880D01*
X25193357Y-26868500D01*
X25288595Y-26963738D01*
X25336214Y-27058976D01*
X25383833Y-27249452D01*
X25383833Y-27392309D01*
X25336214Y-27582785D01*
X25288595Y-27678023D01*
X25193357Y-27773261D01*
X25050500Y-27820880D01*
X24812404Y-27820880D01*
X25669547Y-26820880D02*
X26240976Y-26820880D01*
X25955261Y-27820880D02*
X25955261Y-26820880D01*
X28576666Y-27874761D02*
X28719523Y-27922380D01*
X28957619Y-27922380D01*
X29052857Y-27874761D01*
X29100476Y-27827142D01*
X29148095Y-27731904D01*
X29148095Y-27636666D01*
X29100476Y-27541428D01*
X29052857Y-27493809D01*
X28957619Y-27446190D01*
X28767142Y-27398571D01*
X28671904Y-27350952D01*
X28624285Y-27303333D01*
X28576666Y-27208095D01*
X28576666Y-27112857D01*
X28624285Y-27017619D01*
X28671904Y-26970000D01*
X28767142Y-26922380D01*
X29005238Y-26922380D01*
X29148095Y-26970000D01*
X29481428Y-26922380D02*
X29719523Y-27922380D01*
X29910000Y-27208095D01*
X30100476Y-27922380D01*
X30338571Y-26922380D01*
X31243333Y-27922380D02*
X30671904Y-27922380D01*
X30957619Y-27922380D02*
X30957619Y-26922380D01*
X30862380Y-27065238D01*
X30767142Y-27160476D01*
X30671904Y-27208095D01*
%TO.C,SW2*%
X45924761Y-34050952D02*
X45972380Y-33908095D01*
X45972380Y-33669999D01*
X45924761Y-33574761D01*
X45877142Y-33527142D01*
X45781904Y-33479523D01*
X45686666Y-33479523D01*
X45591428Y-33527142D01*
X45543809Y-33574761D01*
X45496190Y-33669999D01*
X45448571Y-33860476D01*
X45400952Y-33955714D01*
X45353333Y-34003333D01*
X45258095Y-34050952D01*
X45162857Y-34050952D01*
X45067619Y-34003333D01*
X45020000Y-33955714D01*
X44972380Y-33860476D01*
X44972380Y-33622380D01*
X45020000Y-33479523D01*
X44972380Y-33146190D02*
X45972380Y-32908095D01*
X45258095Y-32717619D01*
X45972380Y-32527142D01*
X44972380Y-32289047D01*
X46067619Y-32146190D02*
X46067619Y-31384285D01*
X45972380Y-31146190D02*
X44972380Y-31146190D01*
X44972380Y-30908095D01*
X45020000Y-30765238D01*
X45115238Y-30669999D01*
X45210476Y-30622380D01*
X45400952Y-30574761D01*
X45543809Y-30574761D01*
X45734285Y-30622380D01*
X45829523Y-30669999D01*
X45924761Y-30765238D01*
X45972380Y-30908095D01*
X45972380Y-31146190D01*
X45972380Y-30146190D02*
X44972380Y-30146190D01*
X44972380Y-29765238D01*
X45020000Y-29669999D01*
X45067619Y-29622380D01*
X45162857Y-29574761D01*
X45305714Y-29574761D01*
X45400952Y-29622380D01*
X45448571Y-29669999D01*
X45496190Y-29765238D01*
X45496190Y-30146190D01*
X45972380Y-29146190D02*
X44972380Y-29146190D01*
X44972380Y-28908095D01*
X45020000Y-28765238D01*
X45115238Y-28669999D01*
X45210476Y-28622380D01*
X45400952Y-28574761D01*
X45543809Y-28574761D01*
X45734285Y-28622380D01*
X45829523Y-28669999D01*
X45924761Y-28765238D01*
X45972380Y-28908095D01*
X45972380Y-29146190D01*
X44972380Y-28289047D02*
X44972380Y-27717619D01*
X45972380Y-28003333D02*
X44972380Y-28003333D01*
X46067619Y-27622380D02*
X46067619Y-26860476D01*
X45972380Y-26717619D02*
X45305714Y-26193809D01*
X45305714Y-26717619D02*
X45972380Y-26193809D01*
X45067619Y-25860476D02*
X45020000Y-25812857D01*
X44972380Y-25717619D01*
X44972380Y-25479523D01*
X45020000Y-25384285D01*
X45067619Y-25336666D01*
X45162857Y-25289047D01*
X45258095Y-25289047D01*
X45400952Y-25336666D01*
X45972380Y-25908095D01*
X45972380Y-25289047D01*
X57524761Y-31003333D02*
X57572380Y-30860476D01*
X57572380Y-30622380D01*
X57524761Y-30527142D01*
X57477142Y-30479523D01*
X57381904Y-30431904D01*
X57286666Y-30431904D01*
X57191428Y-30479523D01*
X57143809Y-30527142D01*
X57096190Y-30622380D01*
X57048571Y-30812857D01*
X57000952Y-30908095D01*
X56953333Y-30955714D01*
X56858095Y-31003333D01*
X56762857Y-31003333D01*
X56667619Y-30955714D01*
X56620000Y-30908095D01*
X56572380Y-30812857D01*
X56572380Y-30574761D01*
X56620000Y-30431904D01*
X56572380Y-30098571D02*
X57572380Y-29860476D01*
X56858095Y-29670000D01*
X57572380Y-29479523D01*
X56572380Y-29241428D01*
X56667619Y-28908095D02*
X56620000Y-28860476D01*
X56572380Y-28765238D01*
X56572380Y-28527142D01*
X56620000Y-28431904D01*
X56667619Y-28384285D01*
X56762857Y-28336666D01*
X56858095Y-28336666D01*
X57000952Y-28384285D01*
X57572380Y-28955714D01*
X57572380Y-28336666D01*
%TO.C,SW3*%
X64262380Y-127912761D02*
X64405238Y-127960380D01*
X64643333Y-127960380D01*
X64738571Y-127912761D01*
X64786190Y-127865142D01*
X64833809Y-127769904D01*
X64833809Y-127674666D01*
X64786190Y-127579428D01*
X64738571Y-127531809D01*
X64643333Y-127484190D01*
X64452857Y-127436571D01*
X64357619Y-127388952D01*
X64310000Y-127341333D01*
X64262380Y-127246095D01*
X64262380Y-127150857D01*
X64310000Y-127055619D01*
X64357619Y-127008000D01*
X64452857Y-126960380D01*
X64690952Y-126960380D01*
X64833809Y-127008000D01*
X65167142Y-126960380D02*
X65405238Y-127960380D01*
X65595714Y-127246095D01*
X65786190Y-127960380D01*
X66024285Y-126960380D01*
X66167142Y-128055619D02*
X66929047Y-128055619D01*
X67167142Y-127960380D02*
X67167142Y-126960380D01*
X67548095Y-126960380D01*
X67643333Y-127008000D01*
X67690952Y-127055619D01*
X67738571Y-127150857D01*
X67738571Y-127293714D01*
X67690952Y-127388952D01*
X67643333Y-127436571D01*
X67548095Y-127484190D01*
X67167142Y-127484190D01*
X68595714Y-127293714D02*
X68595714Y-127960380D01*
X68167142Y-127293714D02*
X68167142Y-127817523D01*
X68214761Y-127912761D01*
X68310000Y-127960380D01*
X68452857Y-127960380D01*
X68548095Y-127912761D01*
X68595714Y-127865142D01*
X69024285Y-127912761D02*
X69119523Y-127960380D01*
X69310000Y-127960380D01*
X69405238Y-127912761D01*
X69452857Y-127817523D01*
X69452857Y-127769904D01*
X69405238Y-127674666D01*
X69310000Y-127627047D01*
X69167142Y-127627047D01*
X69071904Y-127579428D01*
X69024285Y-127484190D01*
X69024285Y-127436571D01*
X69071904Y-127341333D01*
X69167142Y-127293714D01*
X69310000Y-127293714D01*
X69405238Y-127341333D01*
X69881428Y-127960380D02*
X69881428Y-126960380D01*
X70310000Y-127960380D02*
X70310000Y-127436571D01*
X70262380Y-127341333D01*
X70167142Y-127293714D01*
X70024285Y-127293714D01*
X69929047Y-127341333D01*
X69881428Y-127388952D01*
%TD*%
M02*
