M48
; DRILL file {KiCad (5.1.9)-1} date 10/01/21 12:29:50
; FORMAT={-:-/ absolute / inch / decimal}
; #@! TF.CreationDate,2021-10-01T12:29:50+01:00
; #@! TF.GenerationSoftware,Kicad,Pcbnew,(5.1.9)-1
; #@! TF.FileFunction,Plated,1,2,PTH
FMAT,2
INCH
T1C0.0157
T2C0.0315
T3C0.0354
T4C0.0394
T5C0.0400
T6C0.0433
T7C0.0709
T8C0.0827
T9C0.0906
%
G90
G05
T1
X1.0Y-5.4
X1.01Y-3.88
X1.19Y-5.125
X1.2827Y-3.4277
X1.3Y-3.875
X1.41Y-2.44
X1.52Y-2.595
X1.65Y-5.175
X1.675Y-4.5
X1.691Y-5.0106
X1.8725Y-3.9535
X1.935Y-3.23
X2.0004Y-4.5704
X2.0543Y-3.9503
X2.065Y-3.8
X2.12Y-3.23
X2.155Y-1.77
X2.19Y-1.8556
X2.195Y-1.7985
X2.2492Y-1.834
X2.3487Y-4.2222
X2.3835Y-4.975
X2.525Y-1.665
X2.54Y-2.625
X2.575Y-2.595
X2.585Y-2.695
X2.6293Y-5.4512
X2.63Y-1.57
X2.63Y-2.655
X2.6848Y-5.5685
X2.7343Y-3.6416
X2.7417Y-3.9343
X3.02Y-3.625
X3.0584Y-3.9215
X3.105Y-3.65
X3.225Y-3.7685
X3.27Y-4.78
X3.305Y-3.74
X3.315Y-4.955
X3.335Y-4.515
X3.3625Y-1.84
X3.595Y-2.015
X3.635Y-5.11
X3.645Y-3.915
X3.6527Y-3.6929
X3.6595Y-3.7945
X3.6802Y-4.7552
X3.69Y-3.9514
X3.6937Y-1.7158
X3.7137Y-2.8811
X3.76Y-3.01
X3.795Y-4.5
X3.82Y-4.1
X3.9Y-4.675
X4.06Y-5.365
X4.065Y-5.25
X4.165Y-2.365
X4.235Y-5.235
X4.245Y-2.285
X4.34Y-5.09
X4.385Y-3.1325
X4.46Y-4.87
T2
X0.825Y-5.35
X0.9Y-3.3
X0.9016Y-3.7
X0.9425Y-1.5225
X0.95Y-4.75
X0.95Y-4.9
X0.95Y-5.05
X0.95Y-5.2
X0.9675Y-1.715
X0.9675Y-1.815
X0.9675Y-1.915
X0.9675Y-2.015
X0.975Y-4.025
X0.9984Y-3.3
X1.0Y-3.7
X1.0409Y-1.5225
X1.125Y-2.165
X1.125Y-5.35
X1.2234Y-2.165
X1.25Y-5.35
X1.2675Y-1.715
X1.2675Y-1.815
X1.2675Y-1.915
X1.2675Y-2.015
X1.3484Y-5.35
X1.35Y-4.75
X1.35Y-4.9
X1.35Y-5.05
X1.35Y-5.2
X1.375Y-4.025
X1.5Y-4.2
X1.5Y-4.6
X1.5Y-4.75
X1.5Y-4.85
X1.5Y-4.95
X1.5Y-5.05
X1.5Y-5.15
X1.5Y-5.25
X1.5Y-5.35
X1.5225Y-1.685
X1.5225Y-1.815
X1.525Y-4.025
X1.65Y-4.2
X1.65Y-4.6
X1.8Y-4.2
X1.8Y-4.6
X1.8Y-4.75
X1.8Y-4.85
X1.8Y-4.95
X1.8Y-5.05
X1.8Y-5.15
X1.8Y-5.25
X1.8Y-5.35
X1.9225Y-1.685
X1.9225Y-1.815
X1.925Y-4.025
X1.95Y-4.75
X1.95Y-4.9
X1.95Y-5.05
X1.95Y-5.2
X2.0Y-5.4
X2.0484Y-5.2
X2.3Y-5.4
X2.35Y-4.75
X2.35Y-4.9
X2.35Y-5.05
X2.45Y-5.4
X2.475Y-0.775
X2.5Y-1.075
X2.5Y-1.475
X2.5Y-4.16
X2.5Y-4.46
X2.525Y-3.75
X2.625Y-1.075
X2.625Y-1.475
X2.65Y-4.16
X2.65Y-4.46
X2.75Y-5.4
X2.775Y-1.05
X2.775Y-1.45
X2.8Y-4.16
X2.8Y-4.46
X2.875Y-0.775
X2.875Y-3.95
X2.9Y-1.925
X2.9Y-2.175
X2.9Y-2.3
X2.9Y-2.425
X2.9Y-5.4
X2.925Y-3.75
X2.975Y-4.75
X2.975Y-4.875
X3.0Y-1.575
X3.025Y-0.775
X3.125Y-0.775
X3.2Y-2.05
X3.225Y-0.775
X3.25Y-5.25
X3.275Y-3.95
X3.2984Y-2.05
X3.3Y-1.575
X3.3Y-1.925
X3.3Y-2.175
X3.3Y-2.3
X3.3Y-2.425
X3.3Y-5.4
X3.3484Y-5.25
X3.375Y-4.75
X3.375Y-4.875
X3.5Y-1.75
X3.5Y-1.85
X3.5Y-1.95
X3.5Y-2.05
X3.5Y-2.15
X3.5Y-2.25
X3.5Y-2.35
X3.5Y-3.25
X3.5Y-3.35
X3.5Y-3.45
X3.5Y-3.55
X3.5Y-3.65
X3.5Y-3.75
X3.5Y-3.85
X3.5Y-3.95
X3.5Y-4.2
X3.5Y-4.6
X3.5Y-4.75
X3.5Y-4.85
X3.5Y-4.95
X3.5Y-5.05
X3.5Y-5.15
X3.5Y-5.25
X3.5Y-5.35
X3.525Y-1.025
X3.525Y-1.425
X3.65Y-4.2
X3.65Y-4.6
X3.775Y-1.025
X3.775Y-1.425
X3.8Y-1.75
X3.8Y-1.85
X3.8Y-1.95
X3.8Y-2.05
X3.8Y-2.15
X3.8Y-2.25
X3.8Y-2.35
X3.8Y-3.25
X3.8Y-3.35
X3.8Y-3.45
X3.8Y-3.55
X3.8Y-3.65
X3.8Y-3.75
X3.8Y-3.85
X3.8Y-3.95
X3.8Y-4.2
X3.8Y-4.6
X3.8Y-4.75
X3.8Y-4.85
X3.8Y-4.95
X3.8Y-5.05
X3.8Y-5.15
X3.8Y-5.25
X3.8Y-5.35
X3.93Y-5.24
X3.93Y-5.37
X3.95Y-4.75
X3.95Y-4.88
X3.95Y-5.0
X3.9516Y-5.1
X3.975Y-3.3
X3.975Y-3.45
X3.975Y-3.6
X3.975Y-3.75
X3.9766Y-3.175
X3.9766Y-3.975
X3.99Y-2.34
X4.0Y-1.575
X4.0Y-1.7
X4.0Y-1.825
X4.0Y-1.975
X4.0Y-2.2
X4.0016Y-2.1
X4.025Y-0.775
X4.05Y-5.1
X4.0734Y-3.6
X4.075Y-3.175
X4.075Y-3.975
X4.1Y-2.1
X4.125Y-0.775
X4.225Y-0.775
X4.25Y-4.75
X4.3Y-1.575
X4.33Y-5.24
X4.33Y-5.37
X4.35Y-4.88
X4.35Y-5.0
X4.375Y-3.3
X4.375Y-3.45
X4.375Y-3.75
X4.39Y-2.34
X4.4Y-1.7
X4.4Y-1.825
X4.4Y-1.975
X4.4Y-2.2
X4.475Y-1.025
X4.475Y-1.425
X4.48Y-4.62
X4.48Y-5.02
X4.48Y-5.12
X4.48Y-5.52
X4.5Y-1.725
X4.5Y-2.125
T3
X3.4028Y-0.787
X3.5028Y-0.787
X4.3878Y-0.7866
X4.4878Y-0.7866
T4
X1.0795Y-4.6138
X1.0799Y-3.0386
X1.178Y-4.6138
X1.1783Y-3.0386
X1.2764Y-4.6138
X1.2768Y-3.0386
X2.0638Y-4.613
X2.0642Y-3.0386
X2.1622Y-4.613
X2.1626Y-3.0386
X2.1783Y-5.2504
X2.2606Y-4.613
X2.261Y-3.0386
X2.2783Y-5.2504
X2.3783Y-5.2504
X2.4783Y-5.2504
X2.5783Y-5.2504
X2.6783Y-5.2504
X2.7783Y-5.2504
X2.8783Y-5.2504
X2.9783Y-5.2504
X3.0476Y-4.6122
X3.048Y-1.4634
X3.0484Y-3.0386
X3.0783Y-5.2504
X3.1461Y-4.6122
X3.1465Y-1.4634
X3.1469Y-3.0386
X3.2445Y-4.6122
X3.2449Y-1.4634
X3.2453Y-3.0386
X4.0323Y-1.4638
X4.0327Y-4.6134
X4.0331Y-3.0374
X4.1307Y-1.4638
X4.1311Y-4.6134
X4.1315Y-3.0374
X4.2291Y-1.4638
X4.2295Y-4.6134
X4.2299Y-3.0374
T5
X1.6146Y-3.55
X1.6146Y-3.65
X1.7146Y-3.55
X1.7146Y-3.65
X1.8146Y-3.55
X1.8146Y-3.65
X1.9146Y-3.55
X1.9146Y-3.65
X2.0146Y-3.55
X2.0146Y-3.65
T6
X1.2Y-3.4
X1.2Y-3.8
X2.375Y-3.35
X2.375Y-3.75
T7
X0.989Y-4.3185
X0.9894Y-2.7433
X1.3669Y-4.3185
X1.3673Y-2.7433
X1.9732Y-4.3177
X1.9736Y-2.7433
X2.3512Y-4.3177
X2.3516Y-2.7433
X2.9571Y-4.3169
X2.9575Y-1.1681
X2.9579Y-2.7433
X3.335Y-4.3169
X3.3354Y-1.1681
X3.3358Y-2.7433
X3.9417Y-1.1685
X3.9421Y-4.3181
X3.9425Y-2.7421
X4.3197Y-1.1685
X4.3201Y-4.3181
X4.3205Y-2.7421
T8
X1.1776Y-0.9831
X1.1776Y-1.1681
X1.1776Y-1.3531
X1.9772Y-1.073
X1.9772Y-1.2632
X2.1622Y-1.073
X2.1622Y-1.2632
X2.3472Y-1.073
X2.3472Y-1.2632
T9
X2.5811Y-4.75
X2.7189Y-4.75
T0
M30
