%TF.GenerationSoftware,KiCad,Pcbnew,(5.1.9)-1*%
%TF.CreationDate,2021-10-01T12:29:47+01:00*%
%TF.ProjectId,KOSMOS Function Generator,4b4f534d-4f53-4204-9675-6e6374696f6e,rev?*%
%TF.SameCoordinates,Original*%
%TF.FileFunction,Other,User*%
%FSLAX46Y46*%
G04 Gerber Fmt 4.6, Leading zero omitted, Abs format (unit mm)*
G04 Created by KiCad (PCBNEW (5.1.9)-1) date 2021-10-01 12:29:47*
%MOMM*%
%LPD*%
G01*
G04 APERTURE LIST*
%TA.AperFunction,Profile*%
%ADD10C,0.050000*%
%TD*%
%ADD11C,0.050000*%
%ADD12C,0.120000*%
G04 APERTURE END LIST*
D10*
X19430000Y-142240000D02*
X19430000Y-16680000D01*
X115400000Y-142240000D02*
X19430000Y-142240000D01*
X115400000Y-16680000D02*
X115400000Y-142240000D01*
X19430000Y-16680000D02*
X115400000Y-16680000D01*
D11*
%TO.C,RV2*%
X111610000Y-78300000D02*
X111610000Y-64550000D01*
X98270000Y-78300000D02*
X111610000Y-78300000D01*
X98270000Y-64550000D02*
X98270000Y-78300000D01*
X111610000Y-64550000D02*
X98270000Y-64550000D01*
%TO.C,D8*%
X90930000Y-16740000D02*
X84480000Y-16740000D01*
X90930000Y-23240000D02*
X90930000Y-16740000D01*
X84480000Y-23240000D02*
X90930000Y-23240000D01*
X84480000Y-16740000D02*
X84480000Y-23240000D01*
%TO.C,D9*%
X109500000Y-16730000D02*
X109500000Y-23230000D01*
X109500000Y-23230000D02*
X115950000Y-23230000D01*
X115950000Y-23230000D02*
X115950000Y-16730000D01*
X115950000Y-16730000D02*
X109500000Y-16730000D01*
%TO.C,J2*%
X53530000Y-131560000D02*
X53530000Y-135160000D01*
X79980000Y-131560000D02*
X53530000Y-131560000D01*
X79980000Y-135160000D02*
X79980000Y-131560000D01*
X53530000Y-135160000D02*
X79980000Y-135160000D01*
%TO.C,RV1*%
X36600000Y-78330000D02*
X36600000Y-64580000D01*
X23260000Y-78330000D02*
X36600000Y-78330000D01*
X23260000Y-64580000D02*
X23260000Y-78330000D01*
X36600000Y-64580000D02*
X23260000Y-64580000D01*
%TO.C,RV3*%
X61600000Y-64580000D02*
X48260000Y-64580000D01*
X48260000Y-64580000D02*
X48260000Y-78330000D01*
X48260000Y-78330000D02*
X61600000Y-78330000D01*
X61600000Y-78330000D02*
X61600000Y-64580000D01*
%TO.C,RV4*%
X86600000Y-64580000D02*
X73260000Y-64580000D01*
X73260000Y-64580000D02*
X73260000Y-78330000D01*
X73260000Y-78330000D02*
X86600000Y-78330000D01*
X86600000Y-78330000D02*
X86600000Y-64580000D01*
%TO.C,RV5*%
X111590000Y-24580000D02*
X98250000Y-24580000D01*
X98250000Y-24580000D02*
X98250000Y-38330000D01*
X98250000Y-38330000D02*
X111590000Y-38330000D01*
X111590000Y-38330000D02*
X111590000Y-24580000D01*
%TO.C,RV6*%
X86590000Y-38320000D02*
X86590000Y-24570000D01*
X73250000Y-38320000D02*
X86590000Y-38320000D01*
X73250000Y-24570000D02*
X73250000Y-38320000D01*
X86590000Y-24570000D02*
X73250000Y-24570000D01*
%TO.C,RV7*%
X36590000Y-104590000D02*
X23250000Y-104590000D01*
X23250000Y-104590000D02*
X23250000Y-118340000D01*
X23250000Y-118340000D02*
X36590000Y-118340000D01*
X36590000Y-118340000D02*
X36590000Y-104590000D01*
%TO.C,RV8*%
X86580000Y-118300000D02*
X86580000Y-104550000D01*
X73240000Y-118300000D02*
X86580000Y-118300000D01*
X73240000Y-104550000D02*
X73240000Y-118300000D01*
X86580000Y-104550000D02*
X73240000Y-104550000D01*
%TO.C,RV9*%
X111600000Y-118330000D02*
X111600000Y-104580000D01*
X98260000Y-118330000D02*
X111600000Y-118330000D01*
X98260000Y-104580000D02*
X98260000Y-118330000D01*
X111600000Y-104580000D02*
X98260000Y-104580000D01*
%TO.C,RV10*%
X61590000Y-104570000D02*
X48250000Y-104570000D01*
X48250000Y-104570000D02*
X48250000Y-118320000D01*
X48250000Y-118320000D02*
X61590000Y-118320000D01*
X61590000Y-118320000D02*
X61590000Y-104570000D01*
D12*
%TO.C,SW1*%
X26210000Y-36270000D02*
X26210000Y-23070000D01*
X33610000Y-36270000D02*
X26210000Y-36270000D01*
X33610000Y-23070000D02*
X33610000Y-36270000D01*
X26210000Y-23070000D02*
X33610000Y-23070000D01*
%TO.C,SW2*%
X48320000Y-23670000D02*
X61520000Y-23670000D01*
X48320000Y-35670000D02*
X48320000Y-23670000D01*
X61520000Y-35670000D02*
X48320000Y-35670000D01*
X61520000Y-23670000D02*
X61520000Y-35670000D01*
%TO.C,SW3*%
X73310000Y-120650000D02*
G75*
G03*
X73310000Y-120650000I-6000000J0D01*
G01*
%TD*%
M02*
