%TF.GenerationSoftware,KiCad,Pcbnew,(5.1.9)-1*%
%TF.CreationDate,2021-10-01T12:29:47+01:00*%
%TF.ProjectId,KOSMOS Function Generator,4b4f534d-4f53-4204-9675-6e6374696f6e,rev?*%
%TF.SameCoordinates,Original*%
%TF.FileFunction,OtherDrawing,Comment*%
%FSLAX46Y46*%
G04 Gerber Fmt 4.6, Leading zero omitted, Abs format (unit mm)*
G04 Created by KiCad (PCBNEW (5.1.9)-1) date 2021-10-01 12:29:47*
%MOMM*%
%LPD*%
G01*
G04 APERTURE LIST*
%TA.AperFunction,Profile*%
%ADD10C,0.050000*%
%TD*%
%ADD11C,0.200000*%
%ADD12C,0.625000*%
%ADD13C,0.312500*%
G04 APERTURE END LIST*
D10*
X19430000Y-142240000D02*
X19430000Y-16680000D01*
X115400000Y-142240000D02*
X19430000Y-142240000D01*
X115400000Y-16680000D02*
X115400000Y-142240000D01*
X19430000Y-16680000D02*
X115400000Y-16680000D01*
D11*
X74921723Y-154681620D02*
X84921723Y-154681620D01*
X34921723Y-179681620D02*
G75*
G03*
X34921723Y-179681620I-5000000J0D01*
G01*
X99921723Y-154681620D02*
X109921723Y-154681620D01*
X59921723Y-154681620D02*
G75*
G03*
X59921723Y-154681620I-5000000J0D01*
G01*
X29921723Y-174681620D02*
X29921723Y-184681620D01*
X84921723Y-154681620D02*
G75*
G03*
X84921723Y-154681620I-5000000J0D01*
G01*
X104921723Y-174681620D02*
X104921723Y-184681620D01*
X104921723Y-149681620D02*
X104921723Y-159681620D01*
X109921723Y-154681620D02*
G75*
G03*
X109921723Y-154681620I-5000000J0D01*
G01*
X49921723Y-179681620D02*
X59921723Y-179681620D01*
X99921723Y-179681620D02*
X109921723Y-179681620D01*
X54921723Y-174681620D02*
X54921723Y-184681620D01*
X59921723Y-179681620D02*
G75*
G03*
X59921723Y-179681620I-5000000J0D01*
G01*
X109921723Y-179681620D02*
G75*
G03*
X109921723Y-179681620I-5000000J0D01*
G01*
X84921723Y-179681620D02*
G75*
G03*
X84921723Y-179681620I-5000000J0D01*
G01*
X19421723Y-121695659D02*
X19421723Y-187681620D01*
X79921723Y-174681620D02*
X79921723Y-184681620D01*
X74921723Y-179681620D02*
X84921723Y-179681620D01*
X19421723Y-187681620D02*
X114749722Y-187681620D01*
X24921723Y-179681620D02*
X34921723Y-179681620D01*
X24921723Y-154681620D02*
X34921723Y-154681620D01*
X34921723Y-154681620D02*
G75*
G03*
X34921723Y-154681620I-5000000J0D01*
G01*
X54921723Y-149681620D02*
X54921723Y-159681620D01*
X49921723Y-154681620D02*
X59921723Y-154681620D01*
X79921723Y-149681620D02*
X79921723Y-159681620D01*
X115421723Y-16681620D02*
X19421723Y-16681620D01*
X115421723Y-187681620D02*
X115421723Y-16681620D01*
X76501722Y-133283030D02*
X74801723Y-133451030D01*
X57788023Y-132517030D02*
X57955422Y-134217030D01*
X70488022Y-132517030D02*
X70655423Y-134217030D01*
X55248022Y-132517030D02*
X55415422Y-134217030D01*
X19421723Y-16681620D02*
X19421723Y-187681620D01*
X17421723Y-204681620D02*
X117421723Y-204681620D01*
X75568023Y-132517030D02*
X75735422Y-134217030D01*
X68881723Y-133283030D02*
X67181722Y-133451030D01*
X62868023Y-132517030D02*
X63035423Y-134217030D01*
X117421723Y-4681620D02*
X17421723Y-4681620D01*
X17421723Y-4681620D02*
X17421723Y-204681620D01*
X71421723Y-133283030D02*
X69721722Y-133451030D01*
X81581723Y-133283030D02*
X79881723Y-133451030D01*
X73961722Y-133283030D02*
X72261722Y-133451030D01*
X73028022Y-132517030D02*
X73195422Y-134217030D01*
X67948022Y-132517030D02*
X68115423Y-134217030D01*
X58721723Y-133283030D02*
X57021723Y-133451030D01*
X61261722Y-133283030D02*
X59561723Y-133451030D01*
X65408023Y-132517030D02*
X65575423Y-134217030D01*
X60328023Y-132517030D02*
X60495422Y-134217030D01*
X80648023Y-132517030D02*
X80815423Y-134217030D01*
X79041723Y-133283030D02*
X77341723Y-133451030D01*
X117421723Y-204681620D02*
X117421723Y-4681620D01*
X78108023Y-132517030D02*
X78275423Y-134217030D01*
X66341723Y-133283030D02*
X64641723Y-133451030D01*
X19421723Y-187681620D02*
X115421723Y-187681620D01*
X63801723Y-133283030D02*
X62101723Y-133451030D01*
X56181722Y-133283030D02*
X54481722Y-133451030D01*
X80648023Y-132517030D02*
X80815423Y-134217030D01*
X109921723Y-154681620D02*
G75*
G03*
X109921723Y-154681620I-5000000J0D01*
G01*
X109921723Y-179681620D02*
G75*
G03*
X109921723Y-179681620I-5000000J0D01*
G01*
X84921723Y-179681620D02*
G75*
G03*
X84921723Y-179681620I-5000000J0D01*
G01*
X76501722Y-133283030D02*
X74801723Y-133451030D01*
X49921723Y-179681620D02*
X59921723Y-179681620D01*
X74921723Y-179681620D02*
X84921723Y-179681620D01*
X104921723Y-174681620D02*
X104921723Y-184681620D01*
X79921723Y-174681620D02*
X79921723Y-184681620D01*
X59921723Y-179681620D02*
G75*
G03*
X59921723Y-179681620I-5000000J0D01*
G01*
X19421723Y-121695659D02*
X19421723Y-187681620D01*
X73028022Y-132517030D02*
X73195422Y-134217030D01*
X73961722Y-133283030D02*
X72261722Y-133451030D01*
X54921723Y-174681620D02*
X54921723Y-184681620D01*
X24921723Y-179681620D02*
X34921723Y-179681620D01*
X99921723Y-179681620D02*
X109921723Y-179681620D01*
X34921723Y-179681620D02*
G75*
G03*
X34921723Y-179681620I-5000000J0D01*
G01*
X70488022Y-132517030D02*
X70655423Y-134217030D01*
X78108023Y-132517030D02*
X78275423Y-134217030D01*
X24921723Y-154681620D02*
X34921723Y-154681620D01*
X29921723Y-174681620D02*
X29921723Y-184681620D01*
X79041723Y-133283030D02*
X77341723Y-133451030D01*
X81581723Y-133283030D02*
X79881723Y-133451030D01*
X54921723Y-149681620D02*
X54921723Y-159681620D01*
X75568023Y-132517030D02*
X75735422Y-134217030D01*
X71421723Y-133283030D02*
X69721722Y-133451030D01*
X29921723Y-149681620D02*
X29921723Y-159681620D01*
X34921723Y-154681620D02*
G75*
G03*
X34921723Y-154681620I-5000000J0D01*
G01*
X49921723Y-154681620D02*
X59921723Y-154681620D01*
X59921723Y-154681620D02*
G75*
G03*
X59921723Y-154681620I-5000000J0D01*
G01*
X79921723Y-149681620D02*
X79921723Y-159681620D01*
X74921723Y-154681620D02*
X84921723Y-154681620D01*
X84921723Y-154681620D02*
G75*
G03*
X84921723Y-154681620I-5000000J0D01*
G01*
X104921723Y-149681620D02*
X104921723Y-159681620D01*
X99921723Y-154681620D02*
X109921723Y-154681620D01*
X19421723Y-187681620D02*
X114749722Y-187681620D01*
X54583523Y-106248220D02*
X55259922Y-113115020D01*
X21921723Y-187681620D02*
X37921723Y-187681620D01*
X71921723Y-146681620D02*
X87921723Y-146681620D01*
X87921723Y-171681620D02*
X87921723Y-187681620D01*
X33355122Y-109343420D02*
X26488322Y-110019819D01*
X46921723Y-171681620D02*
X62921722Y-171681620D01*
X96921723Y-162681620D02*
X112921723Y-162681620D01*
X108421723Y-109681620D02*
G75*
G03*
X108421723Y-109681620I-3500000J0D01*
G01*
X96921723Y-146681620D02*
X96921723Y-162681620D01*
X108355122Y-109343420D02*
X101488322Y-110019819D01*
X104583523Y-106248220D02*
X105259922Y-113115020D01*
X83421723Y-109681620D02*
G75*
G03*
X83421723Y-109681620I-3500000J0D01*
G01*
X96921723Y-171681620D02*
X96921723Y-187681620D01*
X71921723Y-171681620D02*
X87921723Y-171681620D01*
X46921723Y-171681620D02*
X46921723Y-187681620D01*
X21921723Y-171681620D02*
X21921723Y-187681620D01*
X96921723Y-146681620D02*
X112921723Y-146681620D01*
X71921723Y-162681620D02*
X87921723Y-162681620D01*
X87921723Y-146681620D02*
X87921723Y-162681620D01*
X71921723Y-146681620D02*
X71921723Y-162681620D01*
X83355122Y-109343420D02*
X76488322Y-110019819D01*
X96921723Y-171681620D02*
X112921723Y-171681620D01*
X21921723Y-171681620D02*
X37921723Y-171681620D01*
X58421723Y-109681620D02*
G75*
G03*
X58421723Y-109681620I-3500000J0D01*
G01*
X71921723Y-171681620D02*
X71921723Y-187681620D01*
X33421723Y-109681620D02*
G75*
G03*
X33421723Y-109681620I-3500000J0D01*
G01*
X96921723Y-187681620D02*
X112921723Y-187681620D01*
X46921723Y-187681620D02*
X62921722Y-187681620D01*
X62921722Y-171681620D02*
X62921722Y-187681620D01*
X37921723Y-171681620D02*
X37921723Y-187681620D01*
X58355122Y-109343420D02*
X51488322Y-110019819D01*
X112921723Y-146681620D02*
X112921723Y-162681620D01*
X29583523Y-106248220D02*
X30259922Y-113115020D01*
X71921723Y-187681620D02*
X87921723Y-187681620D01*
X79583523Y-106248220D02*
X80259922Y-113115020D01*
X112921723Y-171681620D02*
X112921723Y-187681620D01*
X20421723Y-200081619D02*
X20421723Y-203281619D01*
X22021723Y-201681620D02*
G75*
G03*
X22021723Y-201681620I-1600000J0D01*
G01*
X116021723Y-201681620D02*
G75*
G03*
X116021723Y-201681620I-1600000J0D01*
G01*
X112821723Y-7681620D02*
X116021723Y-7681620D01*
X46921723Y-162681620D02*
X62921722Y-162681620D01*
X46921723Y-146681620D02*
X62921722Y-146681620D01*
X62921722Y-146681620D02*
X62921722Y-162681620D01*
X46921723Y-146681620D02*
X46921723Y-162681620D01*
X21921723Y-162681620D02*
X37921723Y-162681620D01*
X21921723Y-146681620D02*
X37921723Y-146681620D01*
X112821723Y-201681620D02*
X116021723Y-201681620D01*
X22021723Y-7681620D02*
G75*
G03*
X22021723Y-7681620I-1600000J0D01*
G01*
X37921723Y-146681620D02*
X37921723Y-162681620D01*
X21921723Y-146681620D02*
X21921723Y-162681620D01*
X116021723Y-7681620D02*
G75*
G03*
X116021723Y-7681620I-1600000J0D01*
G01*
X18821723Y-201681620D02*
X22021723Y-201681620D01*
X114421723Y-200081619D02*
X114421723Y-203281619D01*
X18821723Y-7681620D02*
X22021723Y-7681620D01*
X114421723Y-6081619D02*
X114421723Y-9281619D01*
X20421723Y-6081619D02*
X20421723Y-9281619D01*
D12*
X64058075Y-196110051D02*
X63200932Y-196110051D01*
X62772360Y-196348147D01*
X62558075Y-196586242D01*
X62129503Y-197300527D01*
X61915217Y-198252908D01*
X61915217Y-200157670D01*
X62129503Y-200633861D01*
X62343789Y-200871956D01*
X62772360Y-201110051D01*
X63629503Y-201110051D01*
X64058075Y-200871956D01*
X64272360Y-200633861D01*
X64486646Y-200157670D01*
X64486646Y-198967194D01*
X64272360Y-198491004D01*
X64058075Y-198252908D01*
X63629503Y-198014813D01*
X62772360Y-198014813D01*
X62343789Y-198252908D01*
X62129503Y-198491004D01*
X61915217Y-198967194D01*
X69843789Y-199205289D02*
X73272360Y-199205289D01*
X71558075Y-201110051D02*
X71558075Y-197300527D01*
X81200932Y-201110051D02*
X78629503Y-201110051D01*
X79915217Y-201110051D02*
X79915217Y-196110051D01*
X79486646Y-196824337D01*
X79058075Y-197300527D01*
X78629503Y-197538623D01*
X59188629Y-10683898D02*
X57688629Y-10683898D01*
X57688629Y-13302945D02*
X57688629Y-8302945D01*
X59831486Y-8302945D01*
X61331486Y-11874374D02*
X63474343Y-11874374D01*
X60902915Y-13302945D02*
X62402915Y-8302945D01*
X63902915Y-13302945D01*
X67974343Y-13302945D02*
X66474343Y-10921993D01*
X65402915Y-13302945D02*
X65402915Y-8302945D01*
X67117201Y-8302945D01*
X67545772Y-8541041D01*
X67760058Y-8779136D01*
X67974343Y-9255326D01*
X67974343Y-9969612D01*
X67760058Y-10445802D01*
X67545772Y-10683898D01*
X67117201Y-10921993D01*
X65402915Y-10921993D01*
X69902915Y-13302945D02*
X69902915Y-8302945D01*
X72045772Y-13302945D02*
X72045772Y-8302945D01*
X74617201Y-13302945D01*
X74617201Y-8302945D01*
X76760058Y-13302945D02*
X76760058Y-8302945D01*
D13*
X54749114Y-101110959D02*
X54641971Y-101230006D01*
X54320543Y-101349054D01*
X54106257Y-101349054D01*
X53784828Y-101230006D01*
X53570543Y-100991911D01*
X53463400Y-100753816D01*
X53356257Y-100277625D01*
X53356257Y-99920482D01*
X53463400Y-99444292D01*
X53570543Y-99206197D01*
X53784828Y-98968102D01*
X54106257Y-98849054D01*
X54320543Y-98849054D01*
X54641971Y-98968102D01*
X54749114Y-99087149D01*
X55391971Y-98849054D02*
X56141971Y-101349054D01*
X56891971Y-98849054D01*
X48395713Y-20634768D02*
X49467142Y-20634768D01*
X48181427Y-21349054D02*
X48931427Y-18849054D01*
X49681427Y-21349054D01*
X50431427Y-21349054D02*
X50431427Y-18849054D01*
X50967142Y-18849054D01*
X51288570Y-18968102D01*
X51502856Y-19206197D01*
X51609999Y-19444292D01*
X51717142Y-19920482D01*
X51717142Y-20277625D01*
X51609999Y-20753816D01*
X51502856Y-20991911D01*
X51288570Y-21230006D01*
X50967142Y-21349054D01*
X50431427Y-21349054D01*
X56002856Y-18730006D02*
X54074284Y-21944292D01*
X58359999Y-20634768D02*
X59431427Y-20634768D01*
X58145713Y-21349054D02*
X58895713Y-18849054D01*
X59645713Y-21349054D01*
X60395713Y-21349054D02*
X60395713Y-18849054D01*
X60931427Y-18849054D01*
X61252856Y-18968102D01*
X61467142Y-19206197D01*
X61574284Y-19444292D01*
X61681427Y-19920482D01*
X61681427Y-20277625D01*
X61574284Y-20753816D01*
X61467142Y-20991911D01*
X61252856Y-21230006D01*
X60931427Y-21349054D01*
X60395713Y-21349054D01*
X62538570Y-21230006D02*
X62859999Y-21349054D01*
X63395713Y-21349054D01*
X63609999Y-21230006D01*
X63717142Y-21110959D01*
X63824284Y-20872863D01*
X63824284Y-20634768D01*
X63717142Y-20396673D01*
X63609999Y-20277625D01*
X63395713Y-20158578D01*
X62967142Y-20039530D01*
X62752856Y-19920482D01*
X62645713Y-19801435D01*
X62538570Y-19563340D01*
X62538570Y-19325244D01*
X62645713Y-19087149D01*
X62752856Y-18968102D01*
X62967142Y-18849054D01*
X63502856Y-18849054D01*
X63824284Y-18968102D01*
X66074284Y-21349054D02*
X65324284Y-20158578D01*
X64788570Y-21349054D02*
X64788570Y-18849054D01*
X65645713Y-18849054D01*
X65859999Y-18968102D01*
X65967142Y-19087149D01*
X66074284Y-19325244D01*
X66074284Y-19682387D01*
X65967142Y-19920482D01*
X65859999Y-20039530D01*
X65645713Y-20158578D01*
X64788570Y-20158578D01*
X72783475Y-144582186D02*
X73104904Y-144701234D01*
X73640618Y-144701234D01*
X73854904Y-144582186D01*
X73962046Y-144463139D01*
X74069189Y-144225043D01*
X74069189Y-143986948D01*
X73962046Y-143748853D01*
X73854904Y-143629805D01*
X73640618Y-143510758D01*
X73212046Y-143391710D01*
X72997761Y-143272662D01*
X72890618Y-143153615D01*
X72783475Y-142915520D01*
X72783475Y-142677424D01*
X72890618Y-142439329D01*
X72997761Y-142320282D01*
X73212046Y-142201234D01*
X73747761Y-142201234D01*
X74069189Y-142320282D01*
X75033475Y-142201234D02*
X75033475Y-144225043D01*
X75140618Y-144463139D01*
X75247761Y-144582186D01*
X75462046Y-144701234D01*
X75890618Y-144701234D01*
X76104904Y-144582186D01*
X76212046Y-144463139D01*
X76319189Y-144225043D01*
X76319189Y-142201234D01*
X77283475Y-144582186D02*
X77604904Y-144701234D01*
X78140618Y-144701234D01*
X78354904Y-144582186D01*
X78462046Y-144463139D01*
X78569189Y-144225043D01*
X78569189Y-143986948D01*
X78462046Y-143748853D01*
X78354904Y-143629805D01*
X78140618Y-143510758D01*
X77712046Y-143391710D01*
X77497761Y-143272662D01*
X77390618Y-143153615D01*
X77283475Y-142915520D01*
X77283475Y-142677424D01*
X77390618Y-142439329D01*
X77497761Y-142320282D01*
X77712046Y-142201234D01*
X78247761Y-142201234D01*
X78569189Y-142320282D01*
X79212046Y-142201234D02*
X80497761Y-142201234D01*
X79854904Y-144701234D02*
X79854904Y-142201234D01*
X81140618Y-143986948D02*
X82212046Y-143986948D01*
X80926332Y-144701234D02*
X81676332Y-142201234D01*
X82426332Y-144701234D01*
X83176332Y-144701234D02*
X83176332Y-142201234D01*
X84247761Y-144701234D02*
X84247761Y-142201234D01*
X85533475Y-144701234D01*
X85533475Y-142201234D01*
X76856309Y-168391710D02*
X77606309Y-168391710D01*
X77927737Y-169701234D02*
X76856309Y-169701234D01*
X76856309Y-167201234D01*
X77927737Y-167201234D01*
X79320595Y-167201234D02*
X79749166Y-167201234D01*
X79963452Y-167320282D01*
X80177737Y-167558377D01*
X80284880Y-168034567D01*
X80284880Y-168867901D01*
X80177737Y-169344091D01*
X79963452Y-169582186D01*
X79749166Y-169701234D01*
X79320595Y-169701234D01*
X79106309Y-169582186D01*
X78892023Y-169344091D01*
X78784880Y-168867901D01*
X78784880Y-168034567D01*
X78892023Y-167558377D01*
X79106309Y-167320282D01*
X79320595Y-167201234D01*
X82534880Y-169463139D02*
X82427737Y-169582186D01*
X82106309Y-169701234D01*
X81892023Y-169701234D01*
X81570595Y-169582186D01*
X81356309Y-169344091D01*
X81249166Y-169105996D01*
X81142023Y-168629805D01*
X81142023Y-168272662D01*
X81249166Y-167796472D01*
X81356309Y-167558377D01*
X81570595Y-167320282D01*
X81892023Y-167201234D01*
X82106309Y-167201234D01*
X82427737Y-167320282D01*
X82534880Y-167439329D01*
X98645585Y-144701234D02*
X97895585Y-143510758D01*
X97359871Y-144701234D02*
X97359871Y-142201234D01*
X98217014Y-142201234D01*
X98431299Y-142320282D01*
X98538442Y-142439329D01*
X98645585Y-142677424D01*
X98645585Y-143034567D01*
X98538442Y-143272662D01*
X98431299Y-143391710D01*
X98217014Y-143510758D01*
X97359871Y-143510758D01*
X99609871Y-143391710D02*
X100359871Y-143391710D01*
X100681299Y-144701234D02*
X99609871Y-144701234D01*
X99609871Y-142201234D01*
X100681299Y-142201234D01*
X102717014Y-144701234D02*
X101645585Y-144701234D01*
X101645585Y-142201234D01*
X103467014Y-143391710D02*
X104217014Y-143391710D01*
X104538442Y-144701234D02*
X103467014Y-144701234D01*
X103467014Y-142201234D01*
X104538442Y-142201234D01*
X105395585Y-143986948D02*
X106467014Y-143986948D01*
X105181299Y-144701234D02*
X105931299Y-142201234D01*
X106681299Y-144701234D01*
X107324157Y-144582186D02*
X107645585Y-144701234D01*
X108181299Y-144701234D01*
X108395585Y-144582186D01*
X108502728Y-144463139D01*
X108609871Y-144225043D01*
X108609871Y-143986948D01*
X108502728Y-143748853D01*
X108395585Y-143629805D01*
X108181299Y-143510758D01*
X107752728Y-143391710D01*
X107538442Y-143272662D01*
X107431299Y-143153615D01*
X107324157Y-142915520D01*
X107324157Y-142677424D01*
X107431299Y-142439329D01*
X107538442Y-142320282D01*
X107752728Y-142201234D01*
X108288442Y-142201234D01*
X108609871Y-142320282D01*
X109574157Y-143391710D02*
X110324157Y-143391710D01*
X110645585Y-144701234D02*
X109574157Y-144701234D01*
X109574157Y-142201234D01*
X110645585Y-142201234D01*
X104749114Y-101110959D02*
X104641971Y-101230006D01*
X104320543Y-101349054D01*
X104106257Y-101349054D01*
X103784828Y-101230006D01*
X103570543Y-100991911D01*
X103463400Y-100753816D01*
X103356257Y-100277625D01*
X103356257Y-99920482D01*
X103463400Y-99444292D01*
X103570543Y-99206197D01*
X103784828Y-98968102D01*
X104106257Y-98849054D01*
X104320543Y-98849054D01*
X104641971Y-98968102D01*
X104749114Y-99087149D01*
X105391971Y-98849054D02*
X106141971Y-101349054D01*
X106891971Y-98849054D01*
X104749114Y-101110959D02*
X104641971Y-101230006D01*
X104320543Y-101349054D01*
X104106257Y-101349054D01*
X103784828Y-101230006D01*
X103570543Y-100991911D01*
X103463400Y-100753816D01*
X103356257Y-100277625D01*
X103356257Y-99920482D01*
X103463400Y-99444292D01*
X103570543Y-99206197D01*
X103784828Y-98968102D01*
X104106257Y-98849054D01*
X104320543Y-98849054D01*
X104641971Y-98968102D01*
X104749114Y-99087149D01*
X105391971Y-98849054D02*
X106141971Y-101349054D01*
X106891971Y-98849054D01*
X49394376Y-61349054D02*
X49394376Y-58849054D01*
X49930090Y-58849054D01*
X50251519Y-58968102D01*
X50465804Y-59206197D01*
X50572947Y-59444292D01*
X50680090Y-59920482D01*
X50680090Y-60277625D01*
X50572947Y-60753816D01*
X50465804Y-60991911D01*
X50251519Y-61230006D01*
X49930090Y-61349054D01*
X49394376Y-61349054D01*
X51644376Y-60039530D02*
X52394376Y-60039530D01*
X52715804Y-61349054D02*
X51644376Y-61349054D01*
X51644376Y-58849054D01*
X52715804Y-58849054D01*
X54965804Y-61110959D02*
X54858662Y-61230006D01*
X54537233Y-61349054D01*
X54322947Y-61349054D01*
X54001519Y-61230006D01*
X53787233Y-60991911D01*
X53680090Y-60753816D01*
X53572947Y-60277625D01*
X53572947Y-59920482D01*
X53680090Y-59444292D01*
X53787233Y-59206197D01*
X54001519Y-58968102D01*
X54322947Y-58849054D01*
X54537233Y-58849054D01*
X54858662Y-58968102D01*
X54965804Y-59087149D01*
X55822947Y-60634768D02*
X56894376Y-60634768D01*
X55608662Y-61349054D02*
X56358662Y-58849054D01*
X57108662Y-61349054D01*
X58287233Y-60158578D02*
X58287233Y-61349054D01*
X57537233Y-58849054D02*
X58287233Y-60158578D01*
X59037233Y-58849054D01*
X101311339Y-21349054D02*
X100239911Y-21349054D01*
X100239911Y-18849054D01*
X102061339Y-20039530D02*
X102811339Y-20039530D01*
X103132768Y-21349054D02*
X102061339Y-21349054D01*
X102061339Y-18849054D01*
X103132768Y-18849054D01*
X103775625Y-18849054D02*
X104525625Y-21349054D01*
X105275625Y-18849054D01*
X106025625Y-20039530D02*
X106775625Y-20039530D01*
X107097054Y-21349054D02*
X106025625Y-21349054D01*
X106025625Y-18849054D01*
X107097054Y-18849054D01*
X109132768Y-21349054D02*
X108061339Y-21349054D01*
X108061339Y-18849054D01*
X48395713Y-20634768D02*
X49467142Y-20634768D01*
X48181427Y-21349054D02*
X48931427Y-18849054D01*
X49681427Y-21349054D01*
X50431427Y-21349054D02*
X50431427Y-18849054D01*
X50967142Y-18849054D01*
X51288570Y-18968102D01*
X51502856Y-19206197D01*
X51609999Y-19444292D01*
X51717142Y-19920482D01*
X51717142Y-20277625D01*
X51609999Y-20753816D01*
X51502856Y-20991911D01*
X51288570Y-21230006D01*
X50967142Y-21349054D01*
X50431427Y-21349054D01*
X56002856Y-18730006D02*
X54074284Y-21944292D01*
X58359999Y-20634768D02*
X59431427Y-20634768D01*
X58145713Y-21349054D02*
X58895713Y-18849054D01*
X59645713Y-21349054D01*
X60395713Y-21349054D02*
X60395713Y-18849054D01*
X60931427Y-18849054D01*
X61252856Y-18968102D01*
X61467142Y-19206197D01*
X61574284Y-19444292D01*
X61681427Y-19920482D01*
X61681427Y-20277625D01*
X61574284Y-20753816D01*
X61467142Y-20991911D01*
X61252856Y-21230006D01*
X60931427Y-21349054D01*
X60395713Y-21349054D01*
X62538570Y-21230006D02*
X62859999Y-21349054D01*
X63395713Y-21349054D01*
X63609999Y-21230006D01*
X63717142Y-21110959D01*
X63824284Y-20872863D01*
X63824284Y-20634768D01*
X63717142Y-20396673D01*
X63609999Y-20277625D01*
X63395713Y-20158578D01*
X62967142Y-20039530D01*
X62752856Y-19920482D01*
X62645713Y-19801435D01*
X62538570Y-19563340D01*
X62538570Y-19325244D01*
X62645713Y-19087149D01*
X62752856Y-18968102D01*
X62967142Y-18849054D01*
X63502856Y-18849054D01*
X63824284Y-18968102D01*
X66074284Y-21349054D02*
X65324284Y-20158578D01*
X64788570Y-21349054D02*
X64788570Y-18849054D01*
X65645713Y-18849054D01*
X65859999Y-18968102D01*
X65967142Y-19087149D01*
X66074284Y-19325244D01*
X66074284Y-19682387D01*
X65967142Y-19920482D01*
X65859999Y-20039530D01*
X65645713Y-20158578D01*
X64788570Y-20158578D01*
X23933407Y-60634768D02*
X25004836Y-60634768D01*
X23719121Y-61349054D02*
X24469121Y-58849054D01*
X25219121Y-61349054D01*
X25647693Y-58849054D02*
X26933407Y-58849054D01*
X26290550Y-61349054D02*
X26290550Y-58849054D01*
X27361978Y-58849054D02*
X28647693Y-58849054D01*
X28004836Y-61349054D02*
X28004836Y-58849054D01*
X29290550Y-60634768D02*
X30361978Y-60634768D01*
X29076264Y-61349054D02*
X29826264Y-58849054D01*
X30576264Y-61349054D01*
X32611978Y-61110959D02*
X32504836Y-61230006D01*
X32183407Y-61349054D01*
X31969121Y-61349054D01*
X31647693Y-61230006D01*
X31433407Y-60991911D01*
X31326264Y-60753816D01*
X31219121Y-60277625D01*
X31219121Y-59920482D01*
X31326264Y-59444292D01*
X31433407Y-59206197D01*
X31647693Y-58968102D01*
X31969121Y-58849054D01*
X32183407Y-58849054D01*
X32504836Y-58968102D01*
X32611978Y-59087149D01*
X33576264Y-61349054D02*
X33576264Y-58849054D01*
X34861978Y-61349054D02*
X33897693Y-59920482D01*
X34861978Y-58849054D02*
X33576264Y-60277625D01*
X54749114Y-101110959D02*
X54641971Y-101230006D01*
X54320543Y-101349054D01*
X54106257Y-101349054D01*
X53784828Y-101230006D01*
X53570543Y-100991911D01*
X53463400Y-100753816D01*
X53356257Y-100277625D01*
X53356257Y-99920482D01*
X53463400Y-99444292D01*
X53570543Y-99206197D01*
X53784828Y-98968102D01*
X54106257Y-98849054D01*
X54320543Y-98849054D01*
X54641971Y-98968102D01*
X54749114Y-99087149D01*
X55391971Y-98849054D02*
X56141971Y-101349054D01*
X56891971Y-98849054D01*
X72783475Y-144582186D02*
X73104904Y-144701234D01*
X73640618Y-144701234D01*
X73854904Y-144582186D01*
X73962046Y-144463139D01*
X74069189Y-144225043D01*
X74069189Y-143986948D01*
X73962046Y-143748853D01*
X73854904Y-143629805D01*
X73640618Y-143510758D01*
X73212046Y-143391710D01*
X72997761Y-143272662D01*
X72890618Y-143153615D01*
X72783475Y-142915520D01*
X72783475Y-142677424D01*
X72890618Y-142439329D01*
X72997761Y-142320282D01*
X73212046Y-142201234D01*
X73747761Y-142201234D01*
X74069189Y-142320282D01*
X75033475Y-142201234D02*
X75033475Y-144225043D01*
X75140618Y-144463139D01*
X75247761Y-144582186D01*
X75462046Y-144701234D01*
X75890618Y-144701234D01*
X76104904Y-144582186D01*
X76212046Y-144463139D01*
X76319189Y-144225043D01*
X76319189Y-142201234D01*
X77283475Y-144582186D02*
X77604904Y-144701234D01*
X78140618Y-144701234D01*
X78354904Y-144582186D01*
X78462046Y-144463139D01*
X78569189Y-144225043D01*
X78569189Y-143986948D01*
X78462046Y-143748853D01*
X78354904Y-143629805D01*
X78140618Y-143510758D01*
X77712046Y-143391710D01*
X77497761Y-143272662D01*
X77390618Y-143153615D01*
X77283475Y-142915520D01*
X77283475Y-142677424D01*
X77390618Y-142439329D01*
X77497761Y-142320282D01*
X77712046Y-142201234D01*
X78247761Y-142201234D01*
X78569189Y-142320282D01*
X79212046Y-142201234D02*
X80497761Y-142201234D01*
X79854904Y-144701234D02*
X79854904Y-142201234D01*
X81140618Y-143986948D02*
X82212046Y-143986948D01*
X80926332Y-144701234D02*
X81676332Y-142201234D01*
X82426332Y-144701234D01*
X83176332Y-144701234D02*
X83176332Y-142201234D01*
X84247761Y-144701234D02*
X84247761Y-142201234D01*
X85533475Y-144701234D01*
X85533475Y-142201234D01*
X98645585Y-144701234D02*
X97895585Y-143510758D01*
X97359871Y-144701234D02*
X97359871Y-142201234D01*
X98217014Y-142201234D01*
X98431299Y-142320282D01*
X98538442Y-142439329D01*
X98645585Y-142677424D01*
X98645585Y-143034567D01*
X98538442Y-143272662D01*
X98431299Y-143391710D01*
X98217014Y-143510758D01*
X97359871Y-143510758D01*
X99609871Y-143391710D02*
X100359871Y-143391710D01*
X100681299Y-144701234D02*
X99609871Y-144701234D01*
X99609871Y-142201234D01*
X100681299Y-142201234D01*
X102717014Y-144701234D02*
X101645585Y-144701234D01*
X101645585Y-142201234D01*
X103467014Y-143391710D02*
X104217014Y-143391710D01*
X104538442Y-144701234D02*
X103467014Y-144701234D01*
X103467014Y-142201234D01*
X104538442Y-142201234D01*
X105395585Y-143986948D02*
X106467014Y-143986948D01*
X105181299Y-144701234D02*
X105931299Y-142201234D01*
X106681299Y-144701234D01*
X107324157Y-144582186D02*
X107645585Y-144701234D01*
X108181299Y-144701234D01*
X108395585Y-144582186D01*
X108502728Y-144463139D01*
X108609871Y-144225043D01*
X108609871Y-143986948D01*
X108502728Y-143748853D01*
X108395585Y-143629805D01*
X108181299Y-143510758D01*
X107752728Y-143391710D01*
X107538442Y-143272662D01*
X107431299Y-143153615D01*
X107324157Y-142915520D01*
X107324157Y-142677424D01*
X107431299Y-142439329D01*
X107538442Y-142320282D01*
X107752728Y-142201234D01*
X108288442Y-142201234D01*
X108609871Y-142320282D01*
X109574157Y-143391710D02*
X110324157Y-143391710D01*
X110645585Y-144701234D02*
X109574157Y-144701234D01*
X109574157Y-142201234D01*
X110645585Y-142201234D01*
X72783475Y-61230006D02*
X73104904Y-61349054D01*
X73640618Y-61349054D01*
X73854904Y-61230006D01*
X73962046Y-61110959D01*
X74069189Y-60872863D01*
X74069189Y-60634768D01*
X73962046Y-60396673D01*
X73854904Y-60277625D01*
X73640618Y-60158578D01*
X73212046Y-60039530D01*
X72997761Y-59920482D01*
X72890618Y-59801435D01*
X72783475Y-59563340D01*
X72783475Y-59325244D01*
X72890618Y-59087149D01*
X72997761Y-58968102D01*
X73212046Y-58849054D01*
X73747761Y-58849054D01*
X74069189Y-58968102D01*
X75033475Y-58849054D02*
X75033475Y-60872863D01*
X75140618Y-61110959D01*
X75247761Y-61230006D01*
X75462046Y-61349054D01*
X75890618Y-61349054D01*
X76104904Y-61230006D01*
X76212046Y-61110959D01*
X76319189Y-60872863D01*
X76319189Y-58849054D01*
X77283475Y-61230006D02*
X77604904Y-61349054D01*
X78140618Y-61349054D01*
X78354904Y-61230006D01*
X78462046Y-61110959D01*
X78569189Y-60872863D01*
X78569189Y-60634768D01*
X78462046Y-60396673D01*
X78354904Y-60277625D01*
X78140618Y-60158578D01*
X77712046Y-60039530D01*
X77497761Y-59920482D01*
X77390618Y-59801435D01*
X77283475Y-59563340D01*
X77283475Y-59325244D01*
X77390618Y-59087149D01*
X77497761Y-58968102D01*
X77712046Y-58849054D01*
X78247761Y-58849054D01*
X78569189Y-58968102D01*
X79212046Y-58849054D02*
X80497761Y-58849054D01*
X79854904Y-61349054D02*
X79854904Y-58849054D01*
X81140618Y-60634768D02*
X82212046Y-60634768D01*
X80926332Y-61349054D02*
X81676332Y-58849054D01*
X82426332Y-61349054D01*
X83176332Y-61349054D02*
X83176332Y-58849054D01*
X84247761Y-61349054D02*
X84247761Y-58849054D01*
X85533475Y-61349054D01*
X85533475Y-58849054D01*
X26458397Y-167320282D02*
X26244112Y-167201234D01*
X25922683Y-167201234D01*
X25601254Y-167320282D01*
X25386969Y-167558377D01*
X25279826Y-167796472D01*
X25172683Y-168272662D01*
X25172683Y-168629805D01*
X25279826Y-169105996D01*
X25386969Y-169344091D01*
X25601254Y-169582186D01*
X25922683Y-169701234D01*
X26136969Y-169701234D01*
X26458397Y-169582186D01*
X26565540Y-169463139D01*
X26565540Y-168629805D01*
X26136969Y-168629805D01*
X27422683Y-168986948D02*
X28494112Y-168986948D01*
X27208397Y-169701234D02*
X27958397Y-167201234D01*
X28708397Y-169701234D01*
X29136969Y-167201234D02*
X30422683Y-167201234D01*
X29779826Y-169701234D02*
X29779826Y-167201234D01*
X31172683Y-168391710D02*
X31922683Y-168391710D01*
X32244112Y-169701234D02*
X31172683Y-169701234D01*
X31172683Y-167201234D01*
X32244112Y-167201234D01*
X79749114Y-101110959D02*
X79641971Y-101230006D01*
X79320543Y-101349054D01*
X79106257Y-101349054D01*
X78784828Y-101230006D01*
X78570543Y-100991911D01*
X78463400Y-100753816D01*
X78356257Y-100277625D01*
X78356257Y-99920482D01*
X78463400Y-99444292D01*
X78570543Y-99206197D01*
X78784828Y-98968102D01*
X79106257Y-98849054D01*
X79320543Y-98849054D01*
X79641971Y-98968102D01*
X79749114Y-99087149D01*
X80391971Y-98849054D02*
X81141971Y-101349054D01*
X81891971Y-98849054D01*
X26304457Y-21110959D02*
X26197314Y-21230006D01*
X25875886Y-21349054D01*
X25661600Y-21349054D01*
X25340171Y-21230006D01*
X25125886Y-20991911D01*
X25018743Y-20753816D01*
X24911600Y-20277625D01*
X24911600Y-19920482D01*
X25018743Y-19444292D01*
X25125886Y-19206197D01*
X25340171Y-18968102D01*
X25661600Y-18849054D01*
X25875886Y-18849054D01*
X26197314Y-18968102D01*
X26304457Y-19087149D01*
X27697314Y-20158578D02*
X27697314Y-21349054D01*
X26947314Y-18849054D02*
X27697314Y-20158578D01*
X28447314Y-18849054D01*
X30483029Y-21110959D02*
X30375886Y-21230006D01*
X30054457Y-21349054D01*
X29840171Y-21349054D01*
X29518743Y-21230006D01*
X29304457Y-20991911D01*
X29197314Y-20753816D01*
X29090171Y-20277625D01*
X29090171Y-19920482D01*
X29197314Y-19444292D01*
X29304457Y-19206197D01*
X29518743Y-18968102D01*
X29840171Y-18849054D01*
X30054457Y-18849054D01*
X30375886Y-18968102D01*
X30483029Y-19087149D01*
X32518743Y-21349054D02*
X31447314Y-21349054D01*
X31447314Y-18849054D01*
X33268743Y-20039530D02*
X34018743Y-20039530D01*
X34340171Y-21349054D02*
X33268743Y-21349054D01*
X33268743Y-18849054D01*
X34340171Y-18849054D01*
X23933407Y-60634768D02*
X25004836Y-60634768D01*
X23719121Y-61349054D02*
X24469121Y-58849054D01*
X25219121Y-61349054D01*
X25647693Y-58849054D02*
X26933407Y-58849054D01*
X26290550Y-61349054D02*
X26290550Y-58849054D01*
X27361978Y-58849054D02*
X28647693Y-58849054D01*
X28004836Y-61349054D02*
X28004836Y-58849054D01*
X29290550Y-60634768D02*
X30361978Y-60634768D01*
X29076264Y-61349054D02*
X29826264Y-58849054D01*
X30576264Y-61349054D01*
X32611978Y-61110959D02*
X32504836Y-61230006D01*
X32183407Y-61349054D01*
X31969121Y-61349054D01*
X31647693Y-61230006D01*
X31433407Y-60991911D01*
X31326264Y-60753816D01*
X31219121Y-60277625D01*
X31219121Y-59920482D01*
X31326264Y-59444292D01*
X31433407Y-59206197D01*
X31647693Y-58968102D01*
X31969121Y-58849054D01*
X32183407Y-58849054D01*
X32504836Y-58968102D01*
X32611978Y-59087149D01*
X33576264Y-61349054D02*
X33576264Y-58849054D01*
X34861978Y-61349054D02*
X33897693Y-59920482D01*
X34861978Y-58849054D02*
X33576264Y-60277625D01*
X102125915Y-167201234D02*
X102554487Y-167201234D01*
X102768772Y-167320282D01*
X102983058Y-167558377D01*
X103090201Y-168034567D01*
X103090201Y-168867901D01*
X102983058Y-169344091D01*
X102768772Y-169582186D01*
X102554487Y-169701234D01*
X102125915Y-169701234D01*
X101911630Y-169582186D01*
X101697344Y-169344091D01*
X101590201Y-168867901D01*
X101590201Y-168034567D01*
X101697344Y-167558377D01*
X101911630Y-167320282D01*
X102125915Y-167201234D01*
X104054487Y-167201234D02*
X104054487Y-169225043D01*
X104161630Y-169463139D01*
X104268772Y-169582186D01*
X104483058Y-169701234D01*
X104911630Y-169701234D01*
X105125915Y-169582186D01*
X105233058Y-169463139D01*
X105340201Y-169225043D01*
X105340201Y-167201234D01*
X106090201Y-167201234D02*
X107375915Y-167201234D01*
X106733058Y-169701234D02*
X106733058Y-167201234D01*
X76879835Y-20039530D02*
X77629835Y-20039530D01*
X77951263Y-21349054D02*
X76879835Y-21349054D01*
X76879835Y-18849054D01*
X77951263Y-18849054D01*
X79344121Y-18849054D02*
X79772692Y-18849054D01*
X79986978Y-18968102D01*
X80201263Y-19206197D01*
X80308406Y-19682387D01*
X80308406Y-20515721D01*
X80201263Y-20991911D01*
X79986978Y-21230006D01*
X79772692Y-21349054D01*
X79344121Y-21349054D01*
X79129835Y-21230006D01*
X78915549Y-20991911D01*
X78808406Y-20515721D01*
X78808406Y-19682387D01*
X78915549Y-19206197D01*
X79129835Y-18968102D01*
X79344121Y-18849054D01*
X82558406Y-21110959D02*
X82451263Y-21230006D01*
X82129835Y-21349054D01*
X81915549Y-21349054D01*
X81594121Y-21230006D01*
X81379835Y-20991911D01*
X81272692Y-20753816D01*
X81165549Y-20277625D01*
X81165549Y-19920482D01*
X81272692Y-19444292D01*
X81379835Y-19206197D01*
X81594121Y-18968102D01*
X81915549Y-18849054D01*
X82129835Y-18849054D01*
X82451263Y-18968102D01*
X82558406Y-19087149D01*
X98645585Y-61349054D02*
X97895585Y-60158578D01*
X97359871Y-61349054D02*
X97359871Y-58849054D01*
X98217014Y-58849054D01*
X98431299Y-58968102D01*
X98538442Y-59087149D01*
X98645585Y-59325244D01*
X98645585Y-59682387D01*
X98538442Y-59920482D01*
X98431299Y-60039530D01*
X98217014Y-60158578D01*
X97359871Y-60158578D01*
X99609871Y-60039530D02*
X100359871Y-60039530D01*
X100681299Y-61349054D02*
X99609871Y-61349054D01*
X99609871Y-58849054D01*
X100681299Y-58849054D01*
X102717014Y-61349054D02*
X101645585Y-61349054D01*
X101645585Y-58849054D01*
X103467014Y-60039530D02*
X104217014Y-60039530D01*
X104538442Y-61349054D02*
X103467014Y-61349054D01*
X103467014Y-58849054D01*
X104538442Y-58849054D01*
X105395585Y-60634768D02*
X106467014Y-60634768D01*
X105181299Y-61349054D02*
X105931299Y-58849054D01*
X106681299Y-61349054D01*
X107324157Y-61230006D02*
X107645585Y-61349054D01*
X108181299Y-61349054D01*
X108395585Y-61230006D01*
X108502728Y-61110959D01*
X108609871Y-60872863D01*
X108609871Y-60634768D01*
X108502728Y-60396673D01*
X108395585Y-60277625D01*
X108181299Y-60158578D01*
X107752728Y-60039530D01*
X107538442Y-59920482D01*
X107431299Y-59801435D01*
X107324157Y-59563340D01*
X107324157Y-59325244D01*
X107431299Y-59087149D01*
X107538442Y-58968102D01*
X107752728Y-58849054D01*
X108288442Y-58849054D01*
X108609871Y-58968102D01*
X109574157Y-60039530D02*
X110324157Y-60039530D01*
X110645585Y-61349054D02*
X109574157Y-61349054D01*
X109574157Y-58849054D01*
X110645585Y-58849054D01*
X102125915Y-167201234D02*
X102554487Y-167201234D01*
X102768772Y-167320282D01*
X102983058Y-167558377D01*
X103090201Y-168034567D01*
X103090201Y-168867901D01*
X102983058Y-169344091D01*
X102768772Y-169582186D01*
X102554487Y-169701234D01*
X102125915Y-169701234D01*
X101911630Y-169582186D01*
X101697344Y-169344091D01*
X101590201Y-168867901D01*
X101590201Y-168034567D01*
X101697344Y-167558377D01*
X101911630Y-167320282D01*
X102125915Y-167201234D01*
X104054487Y-167201234D02*
X104054487Y-169225043D01*
X104161630Y-169463139D01*
X104268772Y-169582186D01*
X104483058Y-169701234D01*
X104911630Y-169701234D01*
X105125915Y-169582186D01*
X105233058Y-169463139D01*
X105340201Y-169225043D01*
X105340201Y-167201234D01*
X106090201Y-167201234D02*
X107375915Y-167201234D01*
X106733058Y-169701234D02*
X106733058Y-167201234D01*
X76856309Y-168391710D02*
X77606309Y-168391710D01*
X77927737Y-169701234D02*
X76856309Y-169701234D01*
X76856309Y-167201234D01*
X77927737Y-167201234D01*
X79320595Y-167201234D02*
X79749166Y-167201234D01*
X79963452Y-167320282D01*
X80177737Y-167558377D01*
X80284880Y-168034567D01*
X80284880Y-168867901D01*
X80177737Y-169344091D01*
X79963452Y-169582186D01*
X79749166Y-169701234D01*
X79320595Y-169701234D01*
X79106309Y-169582186D01*
X78892023Y-169344091D01*
X78784880Y-168867901D01*
X78784880Y-168034567D01*
X78892023Y-167558377D01*
X79106309Y-167320282D01*
X79320595Y-167201234D01*
X82534880Y-169463139D02*
X82427737Y-169582186D01*
X82106309Y-169701234D01*
X81892023Y-169701234D01*
X81570595Y-169582186D01*
X81356309Y-169344091D01*
X81249166Y-169105996D01*
X81142023Y-168629805D01*
X81142023Y-168272662D01*
X81249166Y-167796472D01*
X81356309Y-167558377D01*
X81570595Y-167320282D01*
X81892023Y-167201234D01*
X82106309Y-167201234D01*
X82427737Y-167320282D01*
X82534880Y-167439329D01*
X26458397Y-167320282D02*
X26244112Y-167201234D01*
X25922683Y-167201234D01*
X25601254Y-167320282D01*
X25386969Y-167558377D01*
X25279826Y-167796472D01*
X25172683Y-168272662D01*
X25172683Y-168629805D01*
X25279826Y-169105996D01*
X25386969Y-169344091D01*
X25601254Y-169582186D01*
X25922683Y-169701234D01*
X26136969Y-169701234D01*
X26458397Y-169582186D01*
X26565540Y-169463139D01*
X26565540Y-168629805D01*
X26136969Y-168629805D01*
X27422683Y-168986948D02*
X28494112Y-168986948D01*
X27208397Y-169701234D02*
X27958397Y-167201234D01*
X28708397Y-169701234D01*
X29136969Y-167201234D02*
X30422683Y-167201234D01*
X29779826Y-169701234D02*
X29779826Y-167201234D01*
X31172683Y-168391710D02*
X31922683Y-168391710D01*
X32244112Y-169701234D02*
X31172683Y-169701234D01*
X31172683Y-167201234D01*
X32244112Y-167201234D01*
X98645585Y-61349054D02*
X97895585Y-60158578D01*
X97359871Y-61349054D02*
X97359871Y-58849054D01*
X98217014Y-58849054D01*
X98431299Y-58968102D01*
X98538442Y-59087149D01*
X98645585Y-59325244D01*
X98645585Y-59682387D01*
X98538442Y-59920482D01*
X98431299Y-60039530D01*
X98217014Y-60158578D01*
X97359871Y-60158578D01*
X99609871Y-60039530D02*
X100359871Y-60039530D01*
X100681299Y-61349054D02*
X99609871Y-61349054D01*
X99609871Y-58849054D01*
X100681299Y-58849054D01*
X102717014Y-61349054D02*
X101645585Y-61349054D01*
X101645585Y-58849054D01*
X103467014Y-60039530D02*
X104217014Y-60039530D01*
X104538442Y-61349054D02*
X103467014Y-61349054D01*
X103467014Y-58849054D01*
X104538442Y-58849054D01*
X105395585Y-60634768D02*
X106467014Y-60634768D01*
X105181299Y-61349054D02*
X105931299Y-58849054D01*
X106681299Y-61349054D01*
X107324157Y-61230006D02*
X107645585Y-61349054D01*
X108181299Y-61349054D01*
X108395585Y-61230006D01*
X108502728Y-61110959D01*
X108609871Y-60872863D01*
X108609871Y-60634768D01*
X108502728Y-60396673D01*
X108395585Y-60277625D01*
X108181299Y-60158578D01*
X107752728Y-60039530D01*
X107538442Y-59920482D01*
X107431299Y-59801435D01*
X107324157Y-59563340D01*
X107324157Y-59325244D01*
X107431299Y-59087149D01*
X107538442Y-58968102D01*
X107752728Y-58849054D01*
X108288442Y-58849054D01*
X108609871Y-58968102D01*
X109574157Y-60039530D02*
X110324157Y-60039530D01*
X110645585Y-61349054D02*
X109574157Y-61349054D01*
X109574157Y-58849054D01*
X110645585Y-58849054D01*
X29749114Y-101110959D02*
X29641971Y-101230006D01*
X29320543Y-101349054D01*
X29106257Y-101349054D01*
X28784828Y-101230006D01*
X28570543Y-100991911D01*
X28463400Y-100753816D01*
X28356257Y-100277625D01*
X28356257Y-99920482D01*
X28463400Y-99444292D01*
X28570543Y-99206197D01*
X28784828Y-98968102D01*
X29106257Y-98849054D01*
X29320543Y-98849054D01*
X29641971Y-98968102D01*
X29749114Y-99087149D01*
X30391971Y-98849054D02*
X31141971Y-101349054D01*
X31891971Y-98849054D01*
X76879835Y-20039530D02*
X77629835Y-20039530D01*
X77951263Y-21349054D02*
X76879835Y-21349054D01*
X76879835Y-18849054D01*
X77951263Y-18849054D01*
X79344121Y-18849054D02*
X79772692Y-18849054D01*
X79986978Y-18968102D01*
X80201263Y-19206197D01*
X80308406Y-19682387D01*
X80308406Y-20515721D01*
X80201263Y-20991911D01*
X79986978Y-21230006D01*
X79772692Y-21349054D01*
X79344121Y-21349054D01*
X79129835Y-21230006D01*
X78915549Y-20991911D01*
X78808406Y-20515721D01*
X78808406Y-19682387D01*
X78915549Y-19206197D01*
X79129835Y-18968102D01*
X79344121Y-18849054D01*
X82558406Y-21110959D02*
X82451263Y-21230006D01*
X82129835Y-21349054D01*
X81915549Y-21349054D01*
X81594121Y-21230006D01*
X81379835Y-20991911D01*
X81272692Y-20753816D01*
X81165549Y-20277625D01*
X81165549Y-19920482D01*
X81272692Y-19444292D01*
X81379835Y-19206197D01*
X81594121Y-18968102D01*
X81915549Y-18849054D01*
X82129835Y-18849054D01*
X82451263Y-18968102D01*
X82558406Y-19087149D01*
X49394376Y-144701234D02*
X49394376Y-142201234D01*
X49930090Y-142201234D01*
X50251519Y-142320282D01*
X50465804Y-142558377D01*
X50572947Y-142796472D01*
X50680090Y-143272662D01*
X50680090Y-143629805D01*
X50572947Y-144105996D01*
X50465804Y-144344091D01*
X50251519Y-144582186D01*
X49930090Y-144701234D01*
X49394376Y-144701234D01*
X51644376Y-143391710D02*
X52394376Y-143391710D01*
X52715804Y-144701234D02*
X51644376Y-144701234D01*
X51644376Y-142201234D01*
X52715804Y-142201234D01*
X54965804Y-144463139D02*
X54858662Y-144582186D01*
X54537233Y-144701234D01*
X54322947Y-144701234D01*
X54001519Y-144582186D01*
X53787233Y-144344091D01*
X53680090Y-144105996D01*
X53572947Y-143629805D01*
X53572947Y-143272662D01*
X53680090Y-142796472D01*
X53787233Y-142558377D01*
X54001519Y-142320282D01*
X54322947Y-142201234D01*
X54537233Y-142201234D01*
X54858662Y-142320282D01*
X54965804Y-142439329D01*
X55822947Y-143986948D02*
X56894376Y-143986948D01*
X55608662Y-144701234D02*
X56358662Y-142201234D01*
X57108662Y-144701234D01*
X58287233Y-143510758D02*
X58287233Y-144701234D01*
X57537233Y-142201234D02*
X58287233Y-143510758D01*
X59037233Y-142201234D01*
X23933407Y-143986948D02*
X25004836Y-143986948D01*
X23719121Y-144701234D02*
X24469121Y-142201234D01*
X25219121Y-144701234D01*
X25647693Y-142201234D02*
X26933407Y-142201234D01*
X26290550Y-144701234D02*
X26290550Y-142201234D01*
X27361978Y-142201234D02*
X28647693Y-142201234D01*
X28004836Y-144701234D02*
X28004836Y-142201234D01*
X29290550Y-143986948D02*
X30361978Y-143986948D01*
X29076264Y-144701234D02*
X29826264Y-142201234D01*
X30576264Y-144701234D01*
X32611978Y-144463139D02*
X32504836Y-144582186D01*
X32183407Y-144701234D01*
X31969121Y-144701234D01*
X31647693Y-144582186D01*
X31433407Y-144344091D01*
X31326264Y-144105996D01*
X31219121Y-143629805D01*
X31219121Y-143272662D01*
X31326264Y-142796472D01*
X31433407Y-142558377D01*
X31647693Y-142320282D01*
X31969121Y-142201234D01*
X32183407Y-142201234D01*
X32504836Y-142320282D01*
X32611978Y-142439329D01*
X33576264Y-144701234D02*
X33576264Y-142201234D01*
X34861978Y-144701234D02*
X33897693Y-143272662D01*
X34861978Y-142201234D02*
X33576264Y-143629805D01*
X72783475Y-61230006D02*
X73104904Y-61349054D01*
X73640618Y-61349054D01*
X73854904Y-61230006D01*
X73962046Y-61110959D01*
X74069189Y-60872863D01*
X74069189Y-60634768D01*
X73962046Y-60396673D01*
X73854904Y-60277625D01*
X73640618Y-60158578D01*
X73212046Y-60039530D01*
X72997761Y-59920482D01*
X72890618Y-59801435D01*
X72783475Y-59563340D01*
X72783475Y-59325244D01*
X72890618Y-59087149D01*
X72997761Y-58968102D01*
X73212046Y-58849054D01*
X73747761Y-58849054D01*
X74069189Y-58968102D01*
X75033475Y-58849054D02*
X75033475Y-60872863D01*
X75140618Y-61110959D01*
X75247761Y-61230006D01*
X75462046Y-61349054D01*
X75890618Y-61349054D01*
X76104904Y-61230006D01*
X76212046Y-61110959D01*
X76319189Y-60872863D01*
X76319189Y-58849054D01*
X77283475Y-61230006D02*
X77604904Y-61349054D01*
X78140618Y-61349054D01*
X78354904Y-61230006D01*
X78462046Y-61110959D01*
X78569189Y-60872863D01*
X78569189Y-60634768D01*
X78462046Y-60396673D01*
X78354904Y-60277625D01*
X78140618Y-60158578D01*
X77712046Y-60039530D01*
X77497761Y-59920482D01*
X77390618Y-59801435D01*
X77283475Y-59563340D01*
X77283475Y-59325244D01*
X77390618Y-59087149D01*
X77497761Y-58968102D01*
X77712046Y-58849054D01*
X78247761Y-58849054D01*
X78569189Y-58968102D01*
X79212046Y-58849054D02*
X80497761Y-58849054D01*
X79854904Y-61349054D02*
X79854904Y-58849054D01*
X81140618Y-60634768D02*
X82212046Y-60634768D01*
X80926332Y-61349054D02*
X81676332Y-58849054D01*
X82426332Y-61349054D01*
X83176332Y-61349054D02*
X83176332Y-58849054D01*
X84247761Y-61349054D02*
X84247761Y-58849054D01*
X85533475Y-61349054D01*
X85533475Y-58849054D01*
X49394376Y-61349054D02*
X49394376Y-58849054D01*
X49930090Y-58849054D01*
X50251519Y-58968102D01*
X50465804Y-59206197D01*
X50572947Y-59444292D01*
X50680090Y-59920482D01*
X50680090Y-60277625D01*
X50572947Y-60753816D01*
X50465804Y-60991911D01*
X50251519Y-61230006D01*
X49930090Y-61349054D01*
X49394376Y-61349054D01*
X51644376Y-60039530D02*
X52394376Y-60039530D01*
X52715804Y-61349054D02*
X51644376Y-61349054D01*
X51644376Y-58849054D01*
X52715804Y-58849054D01*
X54965804Y-61110959D02*
X54858662Y-61230006D01*
X54537233Y-61349054D01*
X54322947Y-61349054D01*
X54001519Y-61230006D01*
X53787233Y-60991911D01*
X53680090Y-60753816D01*
X53572947Y-60277625D01*
X53572947Y-59920482D01*
X53680090Y-59444292D01*
X53787233Y-59206197D01*
X54001519Y-58968102D01*
X54322947Y-58849054D01*
X54537233Y-58849054D01*
X54858662Y-58968102D01*
X54965804Y-59087149D01*
X55822947Y-60634768D02*
X56894376Y-60634768D01*
X55608662Y-61349054D02*
X56358662Y-58849054D01*
X57108662Y-61349054D01*
X58287233Y-60158578D02*
X58287233Y-61349054D01*
X57537233Y-58849054D02*
X58287233Y-60158578D01*
X59037233Y-58849054D01*
X47090109Y-167201234D02*
X48375824Y-167201234D01*
X47732966Y-169701234D02*
X47732966Y-167201234D01*
X50411538Y-169701234D02*
X49661538Y-168510758D01*
X49125824Y-169701234D02*
X49125824Y-167201234D01*
X49982966Y-167201234D01*
X50197252Y-167320282D01*
X50304395Y-167439329D01*
X50411538Y-167677424D01*
X50411538Y-168034567D01*
X50304395Y-168272662D01*
X50197252Y-168391710D01*
X49982966Y-168510758D01*
X49125824Y-168510758D01*
X51375824Y-169701234D02*
X51375824Y-167201234D01*
X53625824Y-167320282D02*
X53411538Y-167201234D01*
X53090109Y-167201234D01*
X52768681Y-167320282D01*
X52554395Y-167558377D01*
X52447252Y-167796472D01*
X52340109Y-168272662D01*
X52340109Y-168629805D01*
X52447252Y-169105996D01*
X52554395Y-169344091D01*
X52768681Y-169582186D01*
X53090109Y-169701234D01*
X53304395Y-169701234D01*
X53625824Y-169582186D01*
X53732966Y-169463139D01*
X53732966Y-168629805D01*
X53304395Y-168629805D01*
X55875824Y-167320282D02*
X55661538Y-167201234D01*
X55340109Y-167201234D01*
X55018681Y-167320282D01*
X54804395Y-167558377D01*
X54697252Y-167796472D01*
X54590109Y-168272662D01*
X54590109Y-168629805D01*
X54697252Y-169105996D01*
X54804395Y-169344091D01*
X55018681Y-169582186D01*
X55340109Y-169701234D01*
X55554395Y-169701234D01*
X55875824Y-169582186D01*
X55982966Y-169463139D01*
X55982966Y-168629805D01*
X55554395Y-168629805D01*
X56947252Y-168391710D02*
X57697252Y-168391710D01*
X58018681Y-169701234D02*
X56947252Y-169701234D01*
X56947252Y-167201234D01*
X58018681Y-167201234D01*
X60268681Y-169701234D02*
X59518681Y-168510758D01*
X58982966Y-169701234D02*
X58982966Y-167201234D01*
X59840109Y-167201234D01*
X60054395Y-167320282D01*
X60161538Y-167439329D01*
X60268681Y-167677424D01*
X60268681Y-168034567D01*
X60161538Y-168272662D01*
X60054395Y-168391710D01*
X59840109Y-168510758D01*
X58982966Y-168510758D01*
X23933407Y-143986948D02*
X25004836Y-143986948D01*
X23719121Y-144701234D02*
X24469121Y-142201234D01*
X25219121Y-144701234D01*
X25647693Y-142201234D02*
X26933407Y-142201234D01*
X26290550Y-144701234D02*
X26290550Y-142201234D01*
X27361978Y-142201234D02*
X28647693Y-142201234D01*
X28004836Y-144701234D02*
X28004836Y-142201234D01*
X29290550Y-143986948D02*
X30361978Y-143986948D01*
X29076264Y-144701234D02*
X29826264Y-142201234D01*
X30576264Y-144701234D01*
X32611978Y-144463139D02*
X32504836Y-144582186D01*
X32183407Y-144701234D01*
X31969121Y-144701234D01*
X31647693Y-144582186D01*
X31433407Y-144344091D01*
X31326264Y-144105996D01*
X31219121Y-143629805D01*
X31219121Y-143272662D01*
X31326264Y-142796472D01*
X31433407Y-142558377D01*
X31647693Y-142320282D01*
X31969121Y-142201234D01*
X32183407Y-142201234D01*
X32504836Y-142320282D01*
X32611978Y-142439329D01*
X33576264Y-144701234D02*
X33576264Y-142201234D01*
X34861978Y-144701234D02*
X33897693Y-143272662D01*
X34861978Y-142201234D02*
X33576264Y-143629805D01*
D12*
X59188629Y-10683898D02*
X57688629Y-10683898D01*
X57688629Y-13302945D02*
X57688629Y-8302945D01*
X59831486Y-8302945D01*
X61331486Y-11874374D02*
X63474343Y-11874374D01*
X60902915Y-13302945D02*
X62402915Y-8302945D01*
X63902915Y-13302945D01*
X67974343Y-13302945D02*
X66474343Y-10921993D01*
X65402915Y-13302945D02*
X65402915Y-8302945D01*
X67117201Y-8302945D01*
X67545772Y-8541041D01*
X67760058Y-8779136D01*
X67974343Y-9255326D01*
X67974343Y-9969612D01*
X67760058Y-10445802D01*
X67545772Y-10683898D01*
X67117201Y-10921993D01*
X65402915Y-10921993D01*
X69902915Y-13302945D02*
X69902915Y-8302945D01*
X72045772Y-13302945D02*
X72045772Y-8302945D01*
X74617201Y-13302945D01*
X74617201Y-8302945D01*
X76760058Y-13302945D02*
X76760058Y-8302945D01*
D13*
X101311339Y-21349054D02*
X100239911Y-21349054D01*
X100239911Y-18849054D01*
X102061339Y-20039530D02*
X102811339Y-20039530D01*
X103132768Y-21349054D02*
X102061339Y-21349054D01*
X102061339Y-18849054D01*
X103132768Y-18849054D01*
X103775625Y-18849054D02*
X104525625Y-21349054D01*
X105275625Y-18849054D01*
X106025625Y-20039530D02*
X106775625Y-20039530D01*
X107097054Y-21349054D02*
X106025625Y-21349054D01*
X106025625Y-18849054D01*
X107097054Y-18849054D01*
X109132768Y-21349054D02*
X108061339Y-21349054D01*
X108061339Y-18849054D01*
X79749114Y-101110959D02*
X79641971Y-101230006D01*
X79320543Y-101349054D01*
X79106257Y-101349054D01*
X78784828Y-101230006D01*
X78570543Y-100991911D01*
X78463400Y-100753816D01*
X78356257Y-100277625D01*
X78356257Y-99920482D01*
X78463400Y-99444292D01*
X78570543Y-99206197D01*
X78784828Y-98968102D01*
X79106257Y-98849054D01*
X79320543Y-98849054D01*
X79641971Y-98968102D01*
X79749114Y-99087149D01*
X80391971Y-98849054D02*
X81141971Y-101349054D01*
X81891971Y-98849054D01*
X29749114Y-101110959D02*
X29641971Y-101230006D01*
X29320543Y-101349054D01*
X29106257Y-101349054D01*
X28784828Y-101230006D01*
X28570543Y-100991911D01*
X28463400Y-100753816D01*
X28356257Y-100277625D01*
X28356257Y-99920482D01*
X28463400Y-99444292D01*
X28570543Y-99206197D01*
X28784828Y-98968102D01*
X29106257Y-98849054D01*
X29320543Y-98849054D01*
X29641971Y-98968102D01*
X29749114Y-99087149D01*
X30391971Y-98849054D02*
X31141971Y-101349054D01*
X31891971Y-98849054D01*
X47090109Y-167201234D02*
X48375824Y-167201234D01*
X47732966Y-169701234D02*
X47732966Y-167201234D01*
X50411538Y-169701234D02*
X49661538Y-168510758D01*
X49125824Y-169701234D02*
X49125824Y-167201234D01*
X49982966Y-167201234D01*
X50197252Y-167320282D01*
X50304395Y-167439329D01*
X50411538Y-167677424D01*
X50411538Y-168034567D01*
X50304395Y-168272662D01*
X50197252Y-168391710D01*
X49982966Y-168510758D01*
X49125824Y-168510758D01*
X51375824Y-169701234D02*
X51375824Y-167201234D01*
X53625824Y-167320282D02*
X53411538Y-167201234D01*
X53090109Y-167201234D01*
X52768681Y-167320282D01*
X52554395Y-167558377D01*
X52447252Y-167796472D01*
X52340109Y-168272662D01*
X52340109Y-168629805D01*
X52447252Y-169105996D01*
X52554395Y-169344091D01*
X52768681Y-169582186D01*
X53090109Y-169701234D01*
X53304395Y-169701234D01*
X53625824Y-169582186D01*
X53732966Y-169463139D01*
X53732966Y-168629805D01*
X53304395Y-168629805D01*
X55875824Y-167320282D02*
X55661538Y-167201234D01*
X55340109Y-167201234D01*
X55018681Y-167320282D01*
X54804395Y-167558377D01*
X54697252Y-167796472D01*
X54590109Y-168272662D01*
X54590109Y-168629805D01*
X54697252Y-169105996D01*
X54804395Y-169344091D01*
X55018681Y-169582186D01*
X55340109Y-169701234D01*
X55554395Y-169701234D01*
X55875824Y-169582186D01*
X55982966Y-169463139D01*
X55982966Y-168629805D01*
X55554395Y-168629805D01*
X56947252Y-168391710D02*
X57697252Y-168391710D01*
X58018681Y-169701234D02*
X56947252Y-169701234D01*
X56947252Y-167201234D01*
X58018681Y-167201234D01*
X60268681Y-169701234D02*
X59518681Y-168510758D01*
X58982966Y-169701234D02*
X58982966Y-167201234D01*
X59840109Y-167201234D01*
X60054395Y-167320282D01*
X60161538Y-167439329D01*
X60268681Y-167677424D01*
X60268681Y-168034567D01*
X60161538Y-168272662D01*
X60054395Y-168391710D01*
X59840109Y-168510758D01*
X58982966Y-168510758D01*
D12*
X64058075Y-196110051D02*
X63200932Y-196110051D01*
X62772360Y-196348147D01*
X62558075Y-196586242D01*
X62129503Y-197300527D01*
X61915217Y-198252908D01*
X61915217Y-200157670D01*
X62129503Y-200633861D01*
X62343789Y-200871956D01*
X62772360Y-201110051D01*
X63629503Y-201110051D01*
X64058075Y-200871956D01*
X64272360Y-200633861D01*
X64486646Y-200157670D01*
X64486646Y-198967194D01*
X64272360Y-198491004D01*
X64058075Y-198252908D01*
X63629503Y-198014813D01*
X62772360Y-198014813D01*
X62343789Y-198252908D01*
X62129503Y-198491004D01*
X61915217Y-198967194D01*
X69843789Y-199205289D02*
X73272360Y-199205289D01*
X71558075Y-201110051D02*
X71558075Y-197300527D01*
X81200932Y-201110051D02*
X78629503Y-201110051D01*
X79915217Y-201110051D02*
X79915217Y-196110051D01*
X79486646Y-196824337D01*
X79058075Y-197300527D01*
X78629503Y-197538623D01*
D13*
X26304457Y-21110959D02*
X26197314Y-21230006D01*
X25875886Y-21349054D01*
X25661600Y-21349054D01*
X25340171Y-21230006D01*
X25125886Y-20991911D01*
X25018743Y-20753816D01*
X24911600Y-20277625D01*
X24911600Y-19920482D01*
X25018743Y-19444292D01*
X25125886Y-19206197D01*
X25340171Y-18968102D01*
X25661600Y-18849054D01*
X25875886Y-18849054D01*
X26197314Y-18968102D01*
X26304457Y-19087149D01*
X27697314Y-20158578D02*
X27697314Y-21349054D01*
X26947314Y-18849054D02*
X27697314Y-20158578D01*
X28447314Y-18849054D01*
X30483029Y-21110959D02*
X30375886Y-21230006D01*
X30054457Y-21349054D01*
X29840171Y-21349054D01*
X29518743Y-21230006D01*
X29304457Y-20991911D01*
X29197314Y-20753816D01*
X29090171Y-20277625D01*
X29090171Y-19920482D01*
X29197314Y-19444292D01*
X29304457Y-19206197D01*
X29518743Y-18968102D01*
X29840171Y-18849054D01*
X30054457Y-18849054D01*
X30375886Y-18968102D01*
X30483029Y-19087149D01*
X32518743Y-21349054D02*
X31447314Y-21349054D01*
X31447314Y-18849054D01*
X33268743Y-20039530D02*
X34018743Y-20039530D01*
X34340171Y-21349054D02*
X33268743Y-21349054D01*
X33268743Y-18849054D01*
X34340171Y-18849054D01*
X49394376Y-144701234D02*
X49394376Y-142201234D01*
X49930090Y-142201234D01*
X50251519Y-142320282D01*
X50465804Y-142558377D01*
X50572947Y-142796472D01*
X50680090Y-143272662D01*
X50680090Y-143629805D01*
X50572947Y-144105996D01*
X50465804Y-144344091D01*
X50251519Y-144582186D01*
X49930090Y-144701234D01*
X49394376Y-144701234D01*
X51644376Y-143391710D02*
X52394376Y-143391710D01*
X52715804Y-144701234D02*
X51644376Y-144701234D01*
X51644376Y-142201234D01*
X52715804Y-142201234D01*
X54965804Y-144463139D02*
X54858662Y-144582186D01*
X54537233Y-144701234D01*
X54322947Y-144701234D01*
X54001519Y-144582186D01*
X53787233Y-144344091D01*
X53680090Y-144105996D01*
X53572947Y-143629805D01*
X53572947Y-143272662D01*
X53680090Y-142796472D01*
X53787233Y-142558377D01*
X54001519Y-142320282D01*
X54322947Y-142201234D01*
X54537233Y-142201234D01*
X54858662Y-142320282D01*
X54965804Y-142439329D01*
X55822947Y-143986948D02*
X56894376Y-143986948D01*
X55608662Y-144701234D02*
X56358662Y-142201234D01*
X57108662Y-144701234D01*
X58287233Y-143510758D02*
X58287233Y-144701234D01*
X57537233Y-142201234D02*
X58287233Y-143510758D01*
X59037233Y-142201234D01*
D11*
X58421723Y-29681620D02*
G75*
G03*
X58421723Y-29681620I-3500000J0D01*
G01*
X79583523Y-26248220D02*
X80259922Y-33115020D01*
X104583523Y-66248220D02*
X105259922Y-73115020D01*
X58355122Y-29343419D02*
X51488322Y-30019819D01*
X83421723Y-29681620D02*
G75*
G03*
X83421723Y-29681620I-3500000J0D01*
G01*
X104583523Y-106248220D02*
X105259922Y-113115020D01*
X58421723Y-69681620D02*
G75*
G03*
X58421723Y-69681620I-3500000J0D01*
G01*
X108421723Y-109681620D02*
G75*
G03*
X108421723Y-109681620I-3500000J0D01*
G01*
X58421723Y-109681620D02*
G75*
G03*
X58421723Y-109681620I-3500000J0D01*
G01*
X29583523Y-106248220D02*
X30259922Y-113115020D01*
X54583523Y-26248219D02*
X55259922Y-33115019D01*
X83355122Y-109343420D02*
X76488322Y-110019819D01*
X110251000Y-20218400D02*
X115117500Y-19752124D01*
X90189833Y-19984727D02*
G75*
G03*
X90189833Y-19984727I-2500000J0D01*
G01*
X54583523Y-66248220D02*
X55259922Y-73115020D01*
X104583523Y-26248220D02*
X105259922Y-33115020D01*
X96921723Y-171681620D02*
X112921723Y-171681620D01*
X46921723Y-187681620D02*
X62921722Y-187681620D01*
X108355122Y-109343420D02*
X101488322Y-110019819D01*
X87921723Y-171681620D02*
X87921723Y-187681620D01*
X115189833Y-19984727D02*
G75*
G03*
X115189833Y-19984727I-2500000J0D01*
G01*
X112450000Y-17550000D02*
X112928400Y-22406600D01*
X58355122Y-109343420D02*
X51488322Y-110019819D01*
X54583523Y-106248220D02*
X55259922Y-113115020D01*
X85251000Y-20218400D02*
X90117500Y-19752124D01*
X87450000Y-17550000D02*
X87928400Y-22406600D01*
X108421723Y-29681620D02*
G75*
G03*
X108421723Y-29681620I-3500000J0D01*
G01*
X96921723Y-171681620D02*
X96921723Y-187681620D01*
X108355122Y-29343420D02*
X101488322Y-30019819D01*
X33421723Y-69681620D02*
G75*
G03*
X33421723Y-69681620I-3500000J0D01*
G01*
X33355122Y-69343420D02*
X26488322Y-70019819D01*
X71921723Y-171681620D02*
X87921723Y-171681620D01*
X112921723Y-171681620D02*
X112921723Y-187681620D01*
X29583523Y-66248220D02*
X30259922Y-73115020D01*
X83421723Y-109681620D02*
G75*
G03*
X83421723Y-109681620I-3500000J0D01*
G01*
X79583523Y-106248220D02*
X80259922Y-113115020D01*
X33421723Y-109681620D02*
G75*
G03*
X33421723Y-109681620I-3500000J0D01*
G01*
X33355122Y-109343420D02*
X26488322Y-110019819D01*
X71921723Y-187681620D02*
X87921723Y-187681620D01*
X71921723Y-171681620D02*
X71921723Y-187681620D01*
X46921723Y-171681620D02*
X62921722Y-171681620D01*
X96921723Y-187681620D02*
X112921723Y-187681620D01*
X83355122Y-29343420D02*
X76488322Y-30019819D01*
X108421723Y-69681620D02*
G75*
G03*
X108421723Y-69681620I-3500000J0D01*
G01*
X108355122Y-69343420D02*
X101488322Y-70019819D01*
X83421723Y-69681620D02*
G75*
G03*
X83421723Y-69681620I-3500000J0D01*
G01*
X83355122Y-69343420D02*
X76488322Y-70019819D01*
X79583523Y-66248220D02*
X80259922Y-73115020D01*
X58355122Y-69343420D02*
X51488322Y-70019819D01*
X18821723Y-7681620D02*
X22021723Y-7681620D01*
X46921723Y-162681620D02*
X62921722Y-162681620D01*
X22021723Y-201681620D02*
G75*
G03*
X22021723Y-201681620I-1600000J0D01*
G01*
X20421723Y-6081619D02*
X20421723Y-9281619D01*
X29921723Y-149681620D02*
X29921723Y-159681620D01*
X20421723Y-200081619D02*
X20421723Y-203281619D01*
X18821723Y-201681620D02*
X22021723Y-201681620D01*
X116021723Y-201681620D02*
G75*
G03*
X116021723Y-201681620I-1600000J0D01*
G01*
X116021723Y-7681620D02*
G75*
G03*
X116021723Y-7681620I-1600000J0D01*
G01*
X112821723Y-7681620D02*
X116021723Y-7681620D01*
X37921723Y-171681620D02*
X37921723Y-187681620D01*
X71921723Y-162681620D02*
X87921723Y-162681620D01*
X96921723Y-146681620D02*
X96921723Y-162681620D01*
X46921723Y-146681620D02*
X46921723Y-162681620D01*
X114421723Y-6081619D02*
X114421723Y-9281619D01*
X21921723Y-162681620D02*
X37921723Y-162681620D01*
X21921723Y-171681620D02*
X37921723Y-171681620D01*
X21921723Y-171681620D02*
X21921723Y-187681620D01*
X96921723Y-162681620D02*
X112921723Y-162681620D01*
X21921723Y-146681620D02*
X37921723Y-146681620D01*
X87921723Y-146681620D02*
X87921723Y-162681620D01*
X46921723Y-146681620D02*
X62921722Y-146681620D01*
X112921723Y-146681620D02*
X112921723Y-162681620D01*
X112821723Y-201681620D02*
X116021723Y-201681620D01*
X114421723Y-200081619D02*
X114421723Y-203281619D01*
X71921723Y-146681620D02*
X87921723Y-146681620D01*
X62921722Y-146681620D02*
X62921722Y-162681620D01*
X21921723Y-146681620D02*
X21921723Y-162681620D01*
X62921722Y-171681620D02*
X62921722Y-187681620D01*
X22021723Y-7681620D02*
G75*
G03*
X22021723Y-7681620I-1600000J0D01*
G01*
X46921723Y-171681620D02*
X46921723Y-187681620D01*
X21921723Y-187681620D02*
X37921723Y-187681620D01*
X96921723Y-146681620D02*
X112921723Y-146681620D01*
X37921723Y-146681620D02*
X37921723Y-162681620D01*
X71921723Y-146681620D02*
X71921723Y-162681620D01*
X57788023Y-132517030D02*
X57955422Y-134217030D01*
X56181722Y-133283030D02*
X54481722Y-133451030D01*
X117421723Y-204681620D02*
X117421723Y-4681620D01*
X55248022Y-132517030D02*
X55415422Y-134217030D01*
X29583523Y-26248219D02*
X30259922Y-33115019D01*
X17421723Y-204681620D02*
X117421723Y-204681620D01*
X115421723Y-16681620D02*
X19421723Y-16681620D01*
X19421723Y-187681620D02*
X115421723Y-187681620D01*
X19421723Y-128889220D02*
X115421723Y-128889220D01*
X117421723Y-4681620D02*
X17421723Y-4681620D01*
X33355122Y-29343419D02*
X26488322Y-30019819D01*
X62868023Y-132517030D02*
X63035423Y-134217030D01*
X61261722Y-133283030D02*
X59561723Y-133451030D01*
X17421723Y-4681620D02*
X17421723Y-204681620D01*
X66341723Y-133283030D02*
X64641723Y-133451030D01*
X65408023Y-132517030D02*
X65575423Y-134217030D01*
X19421723Y-16681620D02*
X19421723Y-187681620D01*
X115421723Y-187681620D02*
X115421723Y-16681620D01*
X33421723Y-29681620D02*
G75*
G03*
X33421723Y-29681620I-3500000J0D01*
G01*
X58721723Y-133283030D02*
X57021723Y-133451030D01*
X19421723Y-137844840D02*
X115421723Y-137844840D01*
X68881723Y-133283030D02*
X67181722Y-133451030D01*
X60328023Y-132517030D02*
X60495422Y-134217030D01*
X67948022Y-132517030D02*
X68115423Y-134217030D01*
X63801723Y-133283030D02*
X62101723Y-133451030D01*
X108355122Y-29343420D02*
X101488322Y-30019819D01*
X58421723Y-29681620D02*
G75*
G03*
X58421723Y-29681620I-3500000J0D01*
G01*
X54583523Y-26248219D02*
X55259922Y-33115019D01*
X83355122Y-29343420D02*
X76488322Y-30019819D01*
X79583523Y-26248220D02*
X80259922Y-33115020D01*
X104583523Y-26248220D02*
X105259922Y-33115020D01*
X83421723Y-69681620D02*
G75*
G03*
X83421723Y-69681620I-3500000J0D01*
G01*
X90189833Y-19984727D02*
G75*
G03*
X90189833Y-19984727I-2500000J0D01*
G01*
X85251000Y-20218400D02*
X90117500Y-19752124D01*
X110251000Y-20218400D02*
X115117500Y-19752124D01*
X115189833Y-19984727D02*
G75*
G03*
X115189833Y-19984727I-2500000J0D01*
G01*
X79583523Y-66248220D02*
X80259922Y-73115020D01*
X33355122Y-69343420D02*
X26488322Y-70019819D01*
X33421723Y-29681620D02*
G75*
G03*
X33421723Y-29681620I-3500000J0D01*
G01*
X33355122Y-29343419D02*
X26488322Y-30019819D01*
X108421723Y-69681620D02*
G75*
G03*
X108421723Y-69681620I-3500000J0D01*
G01*
X58421723Y-69681620D02*
G75*
G03*
X58421723Y-69681620I-3500000J0D01*
G01*
X108355122Y-69343420D02*
X101488322Y-70019819D01*
X54583523Y-66248220D02*
X55259922Y-73115020D01*
X19421723Y-128889220D02*
X115421723Y-128889220D01*
X29583523Y-26248219D02*
X30259922Y-33115019D01*
X112450000Y-17550000D02*
X112928400Y-22406600D01*
X83421723Y-29681620D02*
G75*
G03*
X83421723Y-29681620I-3500000J0D01*
G01*
X108421723Y-29681620D02*
G75*
G03*
X108421723Y-29681620I-3500000J0D01*
G01*
X104583523Y-66248220D02*
X105259922Y-73115020D01*
X58355122Y-69343420D02*
X51488322Y-70019819D01*
X33421723Y-69681620D02*
G75*
G03*
X33421723Y-69681620I-3500000J0D01*
G01*
X83355122Y-69343420D02*
X76488322Y-70019819D01*
X29583523Y-66248220D02*
X30259922Y-73115020D01*
X19421723Y-137844840D02*
X115421723Y-137844840D01*
X58355122Y-29343419D02*
X51488322Y-30019819D01*
X87450000Y-17550000D02*
X87928400Y-22406600D01*
M02*
