%TF.GenerationSoftware,KiCad,Pcbnew,(5.1.9)-1*%
%TF.CreationDate,2021-11-13T23:25:43+00:00*%
%TF.ProjectId,KOSMOS Function Generator,4b4f534d-4f53-4204-9675-6e6374696f6e,rev?*%
%TF.SameCoordinates,Original*%
%TF.FileFunction,Legend,Top*%
%TF.FilePolarity,Positive*%
%FSLAX46Y46*%
G04 Gerber Fmt 4.6, Leading zero omitted, Abs format (unit mm)*
G04 Created by KiCad (PCBNEW (5.1.9)-1) date 2021-11-13 23:25:43*
%MOMM*%
%LPD*%
G01*
G04 APERTURE LIST*
%ADD10C,0.150000*%
%TA.AperFunction,Profile*%
%ADD11C,0.050000*%
%TD*%
%ADD12C,0.120000*%
G04 APERTURE END LIST*
D10*
X22211428Y-18978571D02*
X21878095Y-18978571D01*
X21878095Y-19502380D02*
X21878095Y-18502380D01*
X22354285Y-18502380D01*
X23163809Y-18835714D02*
X23163809Y-19502380D01*
X22735238Y-18835714D02*
X22735238Y-19359523D01*
X22782857Y-19454761D01*
X22878095Y-19502380D01*
X23020952Y-19502380D01*
X23116190Y-19454761D01*
X23163809Y-19407142D01*
X23640000Y-18835714D02*
X23640000Y-19502380D01*
X23640000Y-18930952D02*
X23687619Y-18883333D01*
X23782857Y-18835714D01*
X23925714Y-18835714D01*
X24020952Y-18883333D01*
X24068571Y-18978571D01*
X24068571Y-19502380D01*
X24973333Y-19454761D02*
X24878095Y-19502380D01*
X24687619Y-19502380D01*
X24592380Y-19454761D01*
X24544761Y-19407142D01*
X24497142Y-19311904D01*
X24497142Y-19026190D01*
X24544761Y-18930952D01*
X24592380Y-18883333D01*
X24687619Y-18835714D01*
X24878095Y-18835714D01*
X24973333Y-18883333D01*
X25259047Y-18835714D02*
X25640000Y-18835714D01*
X25401904Y-18502380D02*
X25401904Y-19359523D01*
X25449523Y-19454761D01*
X25544761Y-19502380D01*
X25640000Y-19502380D01*
X25973333Y-19502380D02*
X25973333Y-18835714D01*
X25973333Y-18502380D02*
X25925714Y-18550000D01*
X25973333Y-18597619D01*
X26020952Y-18550000D01*
X25973333Y-18502380D01*
X25973333Y-18597619D01*
X26592380Y-19502380D02*
X26497142Y-19454761D01*
X26449523Y-19407142D01*
X26401904Y-19311904D01*
X26401904Y-19026190D01*
X26449523Y-18930952D01*
X26497142Y-18883333D01*
X26592380Y-18835714D01*
X26735238Y-18835714D01*
X26830476Y-18883333D01*
X26878095Y-18930952D01*
X26925714Y-19026190D01*
X26925714Y-19311904D01*
X26878095Y-19407142D01*
X26830476Y-19454761D01*
X26735238Y-19502380D01*
X26592380Y-19502380D01*
X27354285Y-18835714D02*
X27354285Y-19502380D01*
X27354285Y-18930952D02*
X27401904Y-18883333D01*
X27497142Y-18835714D01*
X27640000Y-18835714D01*
X27735238Y-18883333D01*
X27782857Y-18978571D01*
X27782857Y-19502380D01*
X29544761Y-18550000D02*
X29449523Y-18502380D01*
X29306666Y-18502380D01*
X29163809Y-18550000D01*
X29068571Y-18645238D01*
X29020952Y-18740476D01*
X28973333Y-18930952D01*
X28973333Y-19073809D01*
X29020952Y-19264285D01*
X29068571Y-19359523D01*
X29163809Y-19454761D01*
X29306666Y-19502380D01*
X29401904Y-19502380D01*
X29544761Y-19454761D01*
X29592380Y-19407142D01*
X29592380Y-19073809D01*
X29401904Y-19073809D01*
X30401904Y-19454761D02*
X30306666Y-19502380D01*
X30116190Y-19502380D01*
X30020952Y-19454761D01*
X29973333Y-19359523D01*
X29973333Y-18978571D01*
X30020952Y-18883333D01*
X30116190Y-18835714D01*
X30306666Y-18835714D01*
X30401904Y-18883333D01*
X30449523Y-18978571D01*
X30449523Y-19073809D01*
X29973333Y-19169047D01*
X30878095Y-18835714D02*
X30878095Y-19502380D01*
X30878095Y-18930952D02*
X30925714Y-18883333D01*
X31020952Y-18835714D01*
X31163809Y-18835714D01*
X31259047Y-18883333D01*
X31306666Y-18978571D01*
X31306666Y-19502380D01*
X32163809Y-19454761D02*
X32068571Y-19502380D01*
X31878095Y-19502380D01*
X31782857Y-19454761D01*
X31735238Y-19359523D01*
X31735238Y-18978571D01*
X31782857Y-18883333D01*
X31878095Y-18835714D01*
X32068571Y-18835714D01*
X32163809Y-18883333D01*
X32211428Y-18978571D01*
X32211428Y-19073809D01*
X31735238Y-19169047D01*
X32640000Y-19502380D02*
X32640000Y-18835714D01*
X32640000Y-19026190D02*
X32687619Y-18930952D01*
X32735238Y-18883333D01*
X32830476Y-18835714D01*
X32925714Y-18835714D01*
X33687619Y-19502380D02*
X33687619Y-18978571D01*
X33640000Y-18883333D01*
X33544761Y-18835714D01*
X33354285Y-18835714D01*
X33259047Y-18883333D01*
X33687619Y-19454761D02*
X33592380Y-19502380D01*
X33354285Y-19502380D01*
X33259047Y-19454761D01*
X33211428Y-19359523D01*
X33211428Y-19264285D01*
X33259047Y-19169047D01*
X33354285Y-19121428D01*
X33592380Y-19121428D01*
X33687619Y-19073809D01*
X34020952Y-18835714D02*
X34401904Y-18835714D01*
X34163809Y-18502380D02*
X34163809Y-19359523D01*
X34211428Y-19454761D01*
X34306666Y-19502380D01*
X34401904Y-19502380D01*
X34878095Y-19502380D02*
X34782857Y-19454761D01*
X34735238Y-19407142D01*
X34687619Y-19311904D01*
X34687619Y-19026190D01*
X34735238Y-18930952D01*
X34782857Y-18883333D01*
X34878095Y-18835714D01*
X35020952Y-18835714D01*
X35116190Y-18883333D01*
X35163809Y-18930952D01*
X35211428Y-19026190D01*
X35211428Y-19311904D01*
X35163809Y-19407142D01*
X35116190Y-19454761D01*
X35020952Y-19502380D01*
X34878095Y-19502380D01*
X35640000Y-19502380D02*
X35640000Y-18835714D01*
X35640000Y-19026190D02*
X35687619Y-18930952D01*
X35735238Y-18883333D01*
X35830476Y-18835714D01*
X35925714Y-18835714D01*
X36925714Y-18835714D02*
X37163809Y-19502380D01*
X37401904Y-18835714D01*
X38735238Y-18502380D02*
X38830476Y-18502380D01*
X38925714Y-18550000D01*
X38973333Y-18597619D01*
X39020952Y-18692857D01*
X39068571Y-18883333D01*
X39068571Y-19121428D01*
X39020952Y-19311904D01*
X38973333Y-19407142D01*
X38925714Y-19454761D01*
X38830476Y-19502380D01*
X38735238Y-19502380D01*
X38640000Y-19454761D01*
X38592380Y-19407142D01*
X38544761Y-19311904D01*
X38497142Y-19121428D01*
X38497142Y-18883333D01*
X38544761Y-18692857D01*
X38592380Y-18597619D01*
X38640000Y-18550000D01*
X38735238Y-18502380D01*
X39497142Y-19407142D02*
X39544761Y-19454761D01*
X39497142Y-19502380D01*
X39449523Y-19454761D01*
X39497142Y-19407142D01*
X39497142Y-19502380D01*
X39878095Y-18502380D02*
X40497142Y-18502380D01*
X40163809Y-18883333D01*
X40306666Y-18883333D01*
X40401904Y-18930952D01*
X40449523Y-18978571D01*
X40497142Y-19073809D01*
X40497142Y-19311904D01*
X40449523Y-19407142D01*
X40401904Y-19454761D01*
X40306666Y-19502380D01*
X40020952Y-19502380D01*
X39925714Y-19454761D01*
X39878095Y-19407142D01*
X41687619Y-19502380D02*
X41687619Y-18502380D01*
X42259047Y-19502380D01*
X42259047Y-18502380D01*
X42878095Y-19502380D02*
X42782857Y-19454761D01*
X42735238Y-19407142D01*
X42687619Y-19311904D01*
X42687619Y-19026190D01*
X42735238Y-18930952D01*
X42782857Y-18883333D01*
X42878095Y-18835714D01*
X43020952Y-18835714D01*
X43116190Y-18883333D01*
X43163809Y-18930952D01*
X43211428Y-19026190D01*
X43211428Y-19311904D01*
X43163809Y-19407142D01*
X43116190Y-19454761D01*
X43020952Y-19502380D01*
X42878095Y-19502380D01*
X43544761Y-18835714D02*
X43782857Y-19502380D01*
X44020952Y-18835714D01*
X45116190Y-18597619D02*
X45163809Y-18550000D01*
X45259047Y-18502380D01*
X45497142Y-18502380D01*
X45592380Y-18550000D01*
X45640000Y-18597619D01*
X45687619Y-18692857D01*
X45687619Y-18788095D01*
X45640000Y-18930952D01*
X45068571Y-19502380D01*
X45687619Y-19502380D01*
X46306666Y-18502380D02*
X46401904Y-18502380D01*
X46497142Y-18550000D01*
X46544761Y-18597619D01*
X46592380Y-18692857D01*
X46640000Y-18883333D01*
X46640000Y-19121428D01*
X46592380Y-19311904D01*
X46544761Y-19407142D01*
X46497142Y-19454761D01*
X46401904Y-19502380D01*
X46306666Y-19502380D01*
X46211428Y-19454761D01*
X46163809Y-19407142D01*
X46116190Y-19311904D01*
X46068571Y-19121428D01*
X46068571Y-18883333D01*
X46116190Y-18692857D01*
X46163809Y-18597619D01*
X46211428Y-18550000D01*
X46306666Y-18502380D01*
X47020952Y-18597619D02*
X47068571Y-18550000D01*
X47163809Y-18502380D01*
X47401904Y-18502380D01*
X47497142Y-18550000D01*
X47544761Y-18597619D01*
X47592380Y-18692857D01*
X47592380Y-18788095D01*
X47544761Y-18930952D01*
X46973333Y-19502380D01*
X47592380Y-19502380D01*
X48544761Y-19502380D02*
X47973333Y-19502380D01*
X48259047Y-19502380D02*
X48259047Y-18502380D01*
X48163809Y-18645238D01*
X48068571Y-18740476D01*
X47973333Y-18788095D01*
X49687619Y-19454761D02*
X49830476Y-19502380D01*
X50068571Y-19502380D01*
X50163809Y-19454761D01*
X50211428Y-19407142D01*
X50259047Y-19311904D01*
X50259047Y-19216666D01*
X50211428Y-19121428D01*
X50163809Y-19073809D01*
X50068571Y-19026190D01*
X49878095Y-18978571D01*
X49782857Y-18930952D01*
X49735238Y-18883333D01*
X49687619Y-18788095D01*
X49687619Y-18692857D01*
X49735238Y-18597619D01*
X49782857Y-18550000D01*
X49878095Y-18502380D01*
X50116190Y-18502380D01*
X50259047Y-18550000D01*
X50544761Y-18835714D02*
X50925714Y-18835714D01*
X50687619Y-18502380D02*
X50687619Y-19359523D01*
X50735238Y-19454761D01*
X50830476Y-19502380D01*
X50925714Y-19502380D01*
X51687619Y-18835714D02*
X51687619Y-19502380D01*
X51259047Y-18835714D02*
X51259047Y-19359523D01*
X51306666Y-19454761D01*
X51401904Y-19502380D01*
X51544761Y-19502380D01*
X51639999Y-19454761D01*
X51687619Y-19407142D01*
X52592380Y-19502380D02*
X52592380Y-18502380D01*
X52592380Y-19454761D02*
X52497142Y-19502380D01*
X52306666Y-19502380D01*
X52211428Y-19454761D01*
X52163809Y-19407142D01*
X52116190Y-19311904D01*
X52116190Y-19026190D01*
X52163809Y-18930952D01*
X52211428Y-18883333D01*
X52306666Y-18835714D01*
X52497142Y-18835714D01*
X52592380Y-18883333D01*
X53068571Y-19502380D02*
X53068571Y-18835714D01*
X53068571Y-18502380D02*
X53020952Y-18550000D01*
X53068571Y-18597619D01*
X53116190Y-18550000D01*
X53068571Y-18502380D01*
X53068571Y-18597619D01*
X53687619Y-19502380D02*
X53592380Y-19454761D01*
X53544761Y-19407142D01*
X53497142Y-19311904D01*
X53497142Y-19026190D01*
X53544761Y-18930952D01*
X53592380Y-18883333D01*
X53687619Y-18835714D01*
X53830476Y-18835714D01*
X53925714Y-18883333D01*
X53973333Y-18930952D01*
X54020952Y-19026190D01*
X54020952Y-19311904D01*
X53973333Y-19407142D01*
X53925714Y-19454761D01*
X53830476Y-19502380D01*
X53687619Y-19502380D01*
X55639999Y-18502380D02*
X55449523Y-18502380D01*
X55354285Y-18550000D01*
X55306666Y-18597619D01*
X55211428Y-18740476D01*
X55163809Y-18930952D01*
X55163809Y-19311904D01*
X55211428Y-19407142D01*
X55259047Y-19454761D01*
X55354285Y-19502380D01*
X55544761Y-19502380D01*
X55639999Y-19454761D01*
X55687619Y-19407142D01*
X55735238Y-19311904D01*
X55735238Y-19073809D01*
X55687619Y-18978571D01*
X55639999Y-18930952D01*
X55544761Y-18883333D01*
X55354285Y-18883333D01*
X55259047Y-18930952D01*
X55211428Y-18978571D01*
X55163809Y-19073809D01*
X56925714Y-19121428D02*
X57687619Y-19121428D01*
X57306666Y-19502380D02*
X57306666Y-18740476D01*
X59449523Y-19502380D02*
X58878095Y-19502380D01*
X59163809Y-19502380D02*
X59163809Y-18502380D01*
X59068571Y-18645238D01*
X58973333Y-18740476D01*
X58878095Y-18788095D01*
D11*
X19430000Y-142240000D02*
X19430000Y-16680000D01*
X115400000Y-142240000D02*
X19430000Y-142240000D01*
X115400000Y-16680000D02*
X115400000Y-142240000D01*
X19430000Y-16680000D02*
X115400000Y-16680000D01*
D12*
%TO.C,RV2*%
X109810000Y-64680000D02*
X100070000Y-64680000D01*
X109810000Y-76270000D02*
X108320000Y-76270000D01*
X109810000Y-67740000D02*
X109810000Y-64680000D01*
X100060000Y-76270000D02*
X100060000Y-71550000D01*
X100070000Y-67740000D02*
X100070000Y-64680000D01*
X109810000Y-76270000D02*
X109810000Y-71550000D01*
X101250000Y-76270000D02*
X100070000Y-76270000D01*
X104150000Y-76270000D02*
X103620000Y-76270000D01*
X106600000Y-76270000D02*
X105770000Y-76270000D01*
%TO.C,D8*%
X85140000Y-18445000D02*
X85140000Y-21535000D01*
X90200000Y-19990000D02*
G75*
G03*
X90200000Y-19990000I-2500000J0D01*
G01*
X90690000Y-19989538D02*
G75*
G02*
X85140000Y-21534830I-2990000J-462D01*
G01*
X90690000Y-19990462D02*
G75*
G03*
X85140000Y-18445170I-2990000J462D01*
G01*
%TO.C,D9*%
X115220000Y-19980000D02*
G75*
G03*
X115220000Y-19980000I-2500000J0D01*
G01*
X110160000Y-18435000D02*
X110160000Y-21525000D01*
X115710000Y-19980462D02*
G75*
G03*
X110160000Y-18435170I-2990000J462D01*
G01*
X115710000Y-19979538D02*
G75*
G02*
X110160000Y-21524830I-2990000J-462D01*
G01*
%TO.C,J2*%
X54000000Y-134690000D02*
X54000000Y-133360000D01*
X55330000Y-134690000D02*
X54000000Y-134690000D01*
X56600000Y-134690000D02*
X56600000Y-132030000D01*
X56600000Y-132030000D02*
X79520000Y-132030000D01*
X56600000Y-134690000D02*
X79520000Y-134690000D01*
X79520000Y-134690000D02*
X79520000Y-132030000D01*
%TO.C,RV1*%
X34800000Y-64710000D02*
X25060000Y-64710000D01*
X34800000Y-76300000D02*
X33310000Y-76300000D01*
X34800000Y-67770000D02*
X34800000Y-64710000D01*
X25050000Y-76300000D02*
X25050000Y-71580000D01*
X25060000Y-67770000D02*
X25060000Y-64710000D01*
X34800000Y-76300000D02*
X34800000Y-71580000D01*
X26240000Y-76300000D02*
X25060000Y-76300000D01*
X29140000Y-76300000D02*
X28610000Y-76300000D01*
X31590000Y-76300000D02*
X30760000Y-76300000D01*
%TO.C,RV3*%
X56590000Y-76300000D02*
X55760000Y-76300000D01*
X54140000Y-76300000D02*
X53610000Y-76300000D01*
X51240000Y-76300000D02*
X50060000Y-76300000D01*
X59800000Y-76300000D02*
X59800000Y-71580000D01*
X50060000Y-67770000D02*
X50060000Y-64710000D01*
X50050000Y-76300000D02*
X50050000Y-71580000D01*
X59800000Y-67770000D02*
X59800000Y-64710000D01*
X59800000Y-76300000D02*
X58310000Y-76300000D01*
X59800000Y-64710000D02*
X50060000Y-64710000D01*
%TO.C,RV4*%
X81590000Y-76300000D02*
X80760000Y-76300000D01*
X79140000Y-76300000D02*
X78610000Y-76300000D01*
X76240000Y-76300000D02*
X75060000Y-76300000D01*
X84800000Y-76300000D02*
X84800000Y-71580000D01*
X75060000Y-67770000D02*
X75060000Y-64710000D01*
X75050000Y-76300000D02*
X75050000Y-71580000D01*
X84800000Y-67770000D02*
X84800000Y-64710000D01*
X84800000Y-76300000D02*
X83310000Y-76300000D01*
X84800000Y-64710000D02*
X75060000Y-64710000D01*
%TO.C,RV5*%
X106580000Y-36300000D02*
X105750000Y-36300000D01*
X104130000Y-36300000D02*
X103600000Y-36300000D01*
X101230000Y-36300000D02*
X100050000Y-36300000D01*
X109790000Y-36300000D02*
X109790000Y-31580000D01*
X100050000Y-27770000D02*
X100050000Y-24710000D01*
X100040000Y-36300000D02*
X100040000Y-31580000D01*
X109790000Y-27770000D02*
X109790000Y-24710000D01*
X109790000Y-36300000D02*
X108300000Y-36300000D01*
X109790000Y-24710000D02*
X100050000Y-24710000D01*
%TO.C,RV6*%
X84790000Y-24700000D02*
X75050000Y-24700000D01*
X84790000Y-36290000D02*
X83300000Y-36290000D01*
X84790000Y-27760000D02*
X84790000Y-24700000D01*
X75040000Y-36290000D02*
X75040000Y-31570000D01*
X75050000Y-27760000D02*
X75050000Y-24700000D01*
X84790000Y-36290000D02*
X84790000Y-31570000D01*
X76230000Y-36290000D02*
X75050000Y-36290000D01*
X79130000Y-36290000D02*
X78600000Y-36290000D01*
X81580000Y-36290000D02*
X80750000Y-36290000D01*
%TO.C,RV7*%
X31580000Y-116310000D02*
X30750000Y-116310000D01*
X29130000Y-116310000D02*
X28600000Y-116310000D01*
X26230000Y-116310000D02*
X25050000Y-116310000D01*
X34790000Y-116310000D02*
X34790000Y-111590000D01*
X25050000Y-107780000D02*
X25050000Y-104720000D01*
X25040000Y-116310000D02*
X25040000Y-111590000D01*
X34790000Y-107780000D02*
X34790000Y-104720000D01*
X34790000Y-116310000D02*
X33300000Y-116310000D01*
X34790000Y-104720000D02*
X25050000Y-104720000D01*
%TO.C,RV8*%
X84780000Y-104680000D02*
X75040000Y-104680000D01*
X84780000Y-116270000D02*
X83290000Y-116270000D01*
X84780000Y-107740000D02*
X84780000Y-104680000D01*
X75030000Y-116270000D02*
X75030000Y-111550000D01*
X75040000Y-107740000D02*
X75040000Y-104680000D01*
X84780000Y-116270000D02*
X84780000Y-111550000D01*
X76220000Y-116270000D02*
X75040000Y-116270000D01*
X79120000Y-116270000D02*
X78590000Y-116270000D01*
X81570000Y-116270000D02*
X80740000Y-116270000D01*
%TO.C,RV9*%
X109800000Y-104710000D02*
X100060000Y-104710000D01*
X109800000Y-116300000D02*
X108310000Y-116300000D01*
X109800000Y-107770000D02*
X109800000Y-104710000D01*
X100050000Y-116300000D02*
X100050000Y-111580000D01*
X100060000Y-107770000D02*
X100060000Y-104710000D01*
X109800000Y-116300000D02*
X109800000Y-111580000D01*
X101240000Y-116300000D02*
X100060000Y-116300000D01*
X104140000Y-116300000D02*
X103610000Y-116300000D01*
X106590000Y-116300000D02*
X105760000Y-116300000D01*
%TO.C,RV10*%
X56580000Y-116290000D02*
X55750000Y-116290000D01*
X54130000Y-116290000D02*
X53600000Y-116290000D01*
X51230000Y-116290000D02*
X50050000Y-116290000D01*
X59790000Y-116290000D02*
X59790000Y-111570000D01*
X50050000Y-107760000D02*
X50050000Y-104700000D01*
X50040000Y-116290000D02*
X50040000Y-111570000D01*
X59790000Y-107760000D02*
X59790000Y-104700000D01*
X59790000Y-116290000D02*
X58300000Y-116290000D01*
X59790000Y-104700000D02*
X50050000Y-104700000D01*
%TO.C,SW1*%
X33330000Y-23320000D02*
X33330000Y-23330000D01*
X26480000Y-23320000D02*
X33330000Y-23320000D01*
X26480000Y-36010000D02*
X26480000Y-23320000D01*
X33340000Y-36020000D02*
X26480000Y-36020000D01*
X33340000Y-23320000D02*
X33340000Y-36020000D01*
%TO.C,SW2*%
X61270000Y-33090000D02*
X61260000Y-33090000D01*
X61270000Y-23955000D02*
X61270000Y-35385000D01*
X48580000Y-23955000D02*
X61270000Y-23955000D01*
X48570000Y-35385000D02*
X48570000Y-23955000D01*
X61270000Y-35385000D02*
X48570000Y-35385000D01*
%TO.C,SW3*%
X72060000Y-120650000D02*
G75*
G03*
X72060000Y-120650000I-4750000J0D01*
G01*
%TD*%
%TO.C,RV2*%
D10*
X97979285Y-71146428D02*
X97622142Y-71396428D01*
X97979285Y-71575000D02*
X97229285Y-71575000D01*
X97229285Y-71289285D01*
X97265000Y-71217857D01*
X97300714Y-71182142D01*
X97372142Y-71146428D01*
X97479285Y-71146428D01*
X97550714Y-71182142D01*
X97586428Y-71217857D01*
X97622142Y-71289285D01*
X97622142Y-71575000D01*
X97229285Y-70932142D02*
X97979285Y-70682142D01*
X97229285Y-70432142D01*
X97300714Y-70217857D02*
X97265000Y-70182142D01*
X97229285Y-70110714D01*
X97229285Y-69932142D01*
X97265000Y-69860714D01*
X97300714Y-69825000D01*
X97372142Y-69789285D01*
X97443571Y-69789285D01*
X97550714Y-69825000D01*
X97979285Y-70253571D01*
X97979285Y-69789285D01*
%TO.C,D8*%
X87146428Y-16369285D02*
X87146428Y-15619285D01*
X87325000Y-15619285D01*
X87432142Y-15655000D01*
X87503571Y-15726428D01*
X87539285Y-15797857D01*
X87575000Y-15940714D01*
X87575000Y-16047857D01*
X87539285Y-16190714D01*
X87503571Y-16262142D01*
X87432142Y-16333571D01*
X87325000Y-16369285D01*
X87146428Y-16369285D01*
X88003571Y-15940714D02*
X87932142Y-15905000D01*
X87896428Y-15869285D01*
X87860714Y-15797857D01*
X87860714Y-15762142D01*
X87896428Y-15690714D01*
X87932142Y-15655000D01*
X88003571Y-15619285D01*
X88146428Y-15619285D01*
X88217857Y-15655000D01*
X88253571Y-15690714D01*
X88289285Y-15762142D01*
X88289285Y-15797857D01*
X88253571Y-15869285D01*
X88217857Y-15905000D01*
X88146428Y-15940714D01*
X88003571Y-15940714D01*
X87932142Y-15976428D01*
X87896428Y-16012142D01*
X87860714Y-16083571D01*
X87860714Y-16226428D01*
X87896428Y-16297857D01*
X87932142Y-16333571D01*
X88003571Y-16369285D01*
X88146428Y-16369285D01*
X88217857Y-16333571D01*
X88253571Y-16297857D01*
X88289285Y-16226428D01*
X88289285Y-16083571D01*
X88253571Y-16012142D01*
X88217857Y-15976428D01*
X88146428Y-15940714D01*
X83533571Y-20329285D02*
X83533571Y-19579285D01*
X83962142Y-20329285D02*
X83640714Y-19900714D01*
X83962142Y-19579285D02*
X83533571Y-20007857D01*
%TO.C,D9*%
X112166428Y-16359285D02*
X112166428Y-15609285D01*
X112345000Y-15609285D01*
X112452142Y-15645000D01*
X112523571Y-15716428D01*
X112559285Y-15787857D01*
X112595000Y-15930714D01*
X112595000Y-16037857D01*
X112559285Y-16180714D01*
X112523571Y-16252142D01*
X112452142Y-16323571D01*
X112345000Y-16359285D01*
X112166428Y-16359285D01*
X112952142Y-16359285D02*
X113095000Y-16359285D01*
X113166428Y-16323571D01*
X113202142Y-16287857D01*
X113273571Y-16180714D01*
X113309285Y-16037857D01*
X113309285Y-15752142D01*
X113273571Y-15680714D01*
X113237857Y-15645000D01*
X113166428Y-15609285D01*
X113023571Y-15609285D01*
X112952142Y-15645000D01*
X112916428Y-15680714D01*
X112880714Y-15752142D01*
X112880714Y-15930714D01*
X112916428Y-16002142D01*
X112952142Y-16037857D01*
X113023571Y-16073571D01*
X113166428Y-16073571D01*
X113237857Y-16037857D01*
X113273571Y-16002142D01*
X113309285Y-15930714D01*
X108553571Y-20319285D02*
X108553571Y-19569285D01*
X108982142Y-20319285D02*
X108660714Y-19890714D01*
X108982142Y-19569285D02*
X108553571Y-19997857D01*
%TO.C,J2*%
X52452380Y-133693333D02*
X53166666Y-133693333D01*
X53309523Y-133740952D01*
X53404761Y-133836190D01*
X53452380Y-133979047D01*
X53452380Y-134074285D01*
X52547619Y-133264761D02*
X52500000Y-133217142D01*
X52452380Y-133121904D01*
X52452380Y-132883809D01*
X52500000Y-132788571D01*
X52547619Y-132740952D01*
X52642857Y-132693333D01*
X52738095Y-132693333D01*
X52880952Y-132740952D01*
X53452380Y-133312380D01*
X53452380Y-132693333D01*
%TO.C,RV1*%
X22969285Y-71176428D02*
X22612142Y-71426428D01*
X22969285Y-71605000D02*
X22219285Y-71605000D01*
X22219285Y-71319285D01*
X22255000Y-71247857D01*
X22290714Y-71212142D01*
X22362142Y-71176428D01*
X22469285Y-71176428D01*
X22540714Y-71212142D01*
X22576428Y-71247857D01*
X22612142Y-71319285D01*
X22612142Y-71605000D01*
X22219285Y-70962142D02*
X22969285Y-70712142D01*
X22219285Y-70462142D01*
X22969285Y-69819285D02*
X22969285Y-70247857D01*
X22969285Y-70033571D02*
X22219285Y-70033571D01*
X22326428Y-70105000D01*
X22397857Y-70176428D01*
X22433571Y-70247857D01*
%TO.C,RV3*%
X47969285Y-71176428D02*
X47612142Y-71426428D01*
X47969285Y-71605000D02*
X47219285Y-71605000D01*
X47219285Y-71319285D01*
X47255000Y-71247857D01*
X47290714Y-71212142D01*
X47362142Y-71176428D01*
X47469285Y-71176428D01*
X47540714Y-71212142D01*
X47576428Y-71247857D01*
X47612142Y-71319285D01*
X47612142Y-71605000D01*
X47219285Y-70962142D02*
X47969285Y-70712142D01*
X47219285Y-70462142D01*
X47219285Y-70283571D02*
X47219285Y-69819285D01*
X47505000Y-70069285D01*
X47505000Y-69962142D01*
X47540714Y-69890714D01*
X47576428Y-69855000D01*
X47647857Y-69819285D01*
X47826428Y-69819285D01*
X47897857Y-69855000D01*
X47933571Y-69890714D01*
X47969285Y-69962142D01*
X47969285Y-70176428D01*
X47933571Y-70247857D01*
X47897857Y-70283571D01*
%TO.C,RV4*%
X72969285Y-71176428D02*
X72612142Y-71426428D01*
X72969285Y-71605000D02*
X72219285Y-71605000D01*
X72219285Y-71319285D01*
X72255000Y-71247857D01*
X72290714Y-71212142D01*
X72362142Y-71176428D01*
X72469285Y-71176428D01*
X72540714Y-71212142D01*
X72576428Y-71247857D01*
X72612142Y-71319285D01*
X72612142Y-71605000D01*
X72219285Y-70962142D02*
X72969285Y-70712142D01*
X72219285Y-70462142D01*
X72469285Y-69890714D02*
X72969285Y-69890714D01*
X72183571Y-70069285D02*
X72719285Y-70247857D01*
X72719285Y-69783571D01*
%TO.C,RV5*%
X97959285Y-31176428D02*
X97602142Y-31426428D01*
X97959285Y-31605000D02*
X97209285Y-31605000D01*
X97209285Y-31319285D01*
X97245000Y-31247857D01*
X97280714Y-31212142D01*
X97352142Y-31176428D01*
X97459285Y-31176428D01*
X97530714Y-31212142D01*
X97566428Y-31247857D01*
X97602142Y-31319285D01*
X97602142Y-31605000D01*
X97209285Y-30962142D02*
X97959285Y-30712142D01*
X97209285Y-30462142D01*
X97209285Y-29855000D02*
X97209285Y-30212142D01*
X97566428Y-30247857D01*
X97530714Y-30212142D01*
X97495000Y-30140714D01*
X97495000Y-29962142D01*
X97530714Y-29890714D01*
X97566428Y-29855000D01*
X97637857Y-29819285D01*
X97816428Y-29819285D01*
X97887857Y-29855000D01*
X97923571Y-29890714D01*
X97959285Y-29962142D01*
X97959285Y-30140714D01*
X97923571Y-30212142D01*
X97887857Y-30247857D01*
%TO.C,RV6*%
X72959285Y-31166428D02*
X72602142Y-31416428D01*
X72959285Y-31595000D02*
X72209285Y-31595000D01*
X72209285Y-31309285D01*
X72245000Y-31237857D01*
X72280714Y-31202142D01*
X72352142Y-31166428D01*
X72459285Y-31166428D01*
X72530714Y-31202142D01*
X72566428Y-31237857D01*
X72602142Y-31309285D01*
X72602142Y-31595000D01*
X72209285Y-30952142D02*
X72959285Y-30702142D01*
X72209285Y-30452142D01*
X72209285Y-29880714D02*
X72209285Y-30023571D01*
X72245000Y-30095000D01*
X72280714Y-30130714D01*
X72387857Y-30202142D01*
X72530714Y-30237857D01*
X72816428Y-30237857D01*
X72887857Y-30202142D01*
X72923571Y-30166428D01*
X72959285Y-30095000D01*
X72959285Y-29952142D01*
X72923571Y-29880714D01*
X72887857Y-29845000D01*
X72816428Y-29809285D01*
X72637857Y-29809285D01*
X72566428Y-29845000D01*
X72530714Y-29880714D01*
X72495000Y-29952142D01*
X72495000Y-30095000D01*
X72530714Y-30166428D01*
X72566428Y-30202142D01*
X72637857Y-30237857D01*
%TO.C,RV7*%
X22959285Y-111186428D02*
X22602142Y-111436428D01*
X22959285Y-111615000D02*
X22209285Y-111615000D01*
X22209285Y-111329285D01*
X22245000Y-111257857D01*
X22280714Y-111222142D01*
X22352142Y-111186428D01*
X22459285Y-111186428D01*
X22530714Y-111222142D01*
X22566428Y-111257857D01*
X22602142Y-111329285D01*
X22602142Y-111615000D01*
X22209285Y-110972142D02*
X22959285Y-110722142D01*
X22209285Y-110472142D01*
X22209285Y-110293571D02*
X22209285Y-109793571D01*
X22959285Y-110115000D01*
%TO.C,RV8*%
X72949285Y-111146428D02*
X72592142Y-111396428D01*
X72949285Y-111575000D02*
X72199285Y-111575000D01*
X72199285Y-111289285D01*
X72235000Y-111217857D01*
X72270714Y-111182142D01*
X72342142Y-111146428D01*
X72449285Y-111146428D01*
X72520714Y-111182142D01*
X72556428Y-111217857D01*
X72592142Y-111289285D01*
X72592142Y-111575000D01*
X72199285Y-110932142D02*
X72949285Y-110682142D01*
X72199285Y-110432142D01*
X72520714Y-110075000D02*
X72485000Y-110146428D01*
X72449285Y-110182142D01*
X72377857Y-110217857D01*
X72342142Y-110217857D01*
X72270714Y-110182142D01*
X72235000Y-110146428D01*
X72199285Y-110075000D01*
X72199285Y-109932142D01*
X72235000Y-109860714D01*
X72270714Y-109825000D01*
X72342142Y-109789285D01*
X72377857Y-109789285D01*
X72449285Y-109825000D01*
X72485000Y-109860714D01*
X72520714Y-109932142D01*
X72520714Y-110075000D01*
X72556428Y-110146428D01*
X72592142Y-110182142D01*
X72663571Y-110217857D01*
X72806428Y-110217857D01*
X72877857Y-110182142D01*
X72913571Y-110146428D01*
X72949285Y-110075000D01*
X72949285Y-109932142D01*
X72913571Y-109860714D01*
X72877857Y-109825000D01*
X72806428Y-109789285D01*
X72663571Y-109789285D01*
X72592142Y-109825000D01*
X72556428Y-109860714D01*
X72520714Y-109932142D01*
%TO.C,RV9*%
X97969285Y-111176428D02*
X97612142Y-111426428D01*
X97969285Y-111605000D02*
X97219285Y-111605000D01*
X97219285Y-111319285D01*
X97255000Y-111247857D01*
X97290714Y-111212142D01*
X97362142Y-111176428D01*
X97469285Y-111176428D01*
X97540714Y-111212142D01*
X97576428Y-111247857D01*
X97612142Y-111319285D01*
X97612142Y-111605000D01*
X97219285Y-110962142D02*
X97969285Y-110712142D01*
X97219285Y-110462142D01*
X97969285Y-110176428D02*
X97969285Y-110033571D01*
X97933571Y-109962142D01*
X97897857Y-109926428D01*
X97790714Y-109855000D01*
X97647857Y-109819285D01*
X97362142Y-109819285D01*
X97290714Y-109855000D01*
X97255000Y-109890714D01*
X97219285Y-109962142D01*
X97219285Y-110105000D01*
X97255000Y-110176428D01*
X97290714Y-110212142D01*
X97362142Y-110247857D01*
X97540714Y-110247857D01*
X97612142Y-110212142D01*
X97647857Y-110176428D01*
X97683571Y-110105000D01*
X97683571Y-109962142D01*
X97647857Y-109890714D01*
X97612142Y-109855000D01*
X97540714Y-109819285D01*
%TO.C,RV10*%
X47959285Y-111523571D02*
X47602142Y-111773571D01*
X47959285Y-111952142D02*
X47209285Y-111952142D01*
X47209285Y-111666428D01*
X47245000Y-111595000D01*
X47280714Y-111559285D01*
X47352142Y-111523571D01*
X47459285Y-111523571D01*
X47530714Y-111559285D01*
X47566428Y-111595000D01*
X47602142Y-111666428D01*
X47602142Y-111952142D01*
X47209285Y-111309285D02*
X47959285Y-111059285D01*
X47209285Y-110809285D01*
X47959285Y-110166428D02*
X47959285Y-110595000D01*
X47959285Y-110380714D02*
X47209285Y-110380714D01*
X47316428Y-110452142D01*
X47387857Y-110523571D01*
X47423571Y-110595000D01*
X47209285Y-109702142D02*
X47209285Y-109630714D01*
X47245000Y-109559285D01*
X47280714Y-109523571D01*
X47352142Y-109487857D01*
X47495000Y-109452142D01*
X47673571Y-109452142D01*
X47816428Y-109487857D01*
X47887857Y-109523571D01*
X47923571Y-109559285D01*
X47959285Y-109630714D01*
X47959285Y-109702142D01*
X47923571Y-109773571D01*
X47887857Y-109809285D01*
X47816428Y-109845000D01*
X47673571Y-109880714D01*
X47495000Y-109880714D01*
X47352142Y-109845000D01*
X47280714Y-109809285D01*
X47245000Y-109773571D01*
X47209285Y-109702142D01*
%TO.C,SW1*%
X28910000Y-22573571D02*
X29017142Y-22609285D01*
X29195714Y-22609285D01*
X29267142Y-22573571D01*
X29302857Y-22537857D01*
X29338571Y-22466428D01*
X29338571Y-22395000D01*
X29302857Y-22323571D01*
X29267142Y-22287857D01*
X29195714Y-22252142D01*
X29052857Y-22216428D01*
X28981428Y-22180714D01*
X28945714Y-22145000D01*
X28910000Y-22073571D01*
X28910000Y-22002142D01*
X28945714Y-21930714D01*
X28981428Y-21895000D01*
X29052857Y-21859285D01*
X29231428Y-21859285D01*
X29338571Y-21895000D01*
X29588571Y-21859285D02*
X29767142Y-22609285D01*
X29910000Y-22073571D01*
X30052857Y-22609285D01*
X30231428Y-21859285D01*
X30910000Y-22609285D02*
X30481428Y-22609285D01*
X30695714Y-22609285D02*
X30695714Y-21859285D01*
X30624285Y-21966428D01*
X30552857Y-22037857D01*
X30481428Y-22073571D01*
%TO.C,SW2*%
X62823571Y-30670000D02*
X62859285Y-30562857D01*
X62859285Y-30384285D01*
X62823571Y-30312857D01*
X62787857Y-30277142D01*
X62716428Y-30241428D01*
X62645000Y-30241428D01*
X62573571Y-30277142D01*
X62537857Y-30312857D01*
X62502142Y-30384285D01*
X62466428Y-30527142D01*
X62430714Y-30598571D01*
X62395000Y-30634285D01*
X62323571Y-30670000D01*
X62252142Y-30670000D01*
X62180714Y-30634285D01*
X62145000Y-30598571D01*
X62109285Y-30527142D01*
X62109285Y-30348571D01*
X62145000Y-30241428D01*
X62109285Y-29991428D02*
X62859285Y-29812857D01*
X62323571Y-29670000D01*
X62859285Y-29527142D01*
X62109285Y-29348571D01*
X62180714Y-29098571D02*
X62145000Y-29062857D01*
X62109285Y-28991428D01*
X62109285Y-28812857D01*
X62145000Y-28741428D01*
X62180714Y-28705714D01*
X62252142Y-28670000D01*
X62323571Y-28670000D01*
X62430714Y-28705714D01*
X62859285Y-29134285D01*
X62859285Y-28670000D01*
%TO.C,SW3*%
X66310000Y-114095571D02*
X66417142Y-114131285D01*
X66595714Y-114131285D01*
X66667142Y-114095571D01*
X66702857Y-114059857D01*
X66738571Y-113988428D01*
X66738571Y-113917000D01*
X66702857Y-113845571D01*
X66667142Y-113809857D01*
X66595714Y-113774142D01*
X66452857Y-113738428D01*
X66381428Y-113702714D01*
X66345714Y-113667000D01*
X66310000Y-113595571D01*
X66310000Y-113524142D01*
X66345714Y-113452714D01*
X66381428Y-113417000D01*
X66452857Y-113381285D01*
X66631428Y-113381285D01*
X66738571Y-113417000D01*
X66988571Y-113381285D02*
X67167142Y-114131285D01*
X67310000Y-113595571D01*
X67452857Y-114131285D01*
X67631428Y-113381285D01*
X67845714Y-113381285D02*
X68310000Y-113381285D01*
X68060000Y-113667000D01*
X68167142Y-113667000D01*
X68238571Y-113702714D01*
X68274285Y-113738428D01*
X68310000Y-113809857D01*
X68310000Y-113988428D01*
X68274285Y-114059857D01*
X68238571Y-114095571D01*
X68167142Y-114131285D01*
X67952857Y-114131285D01*
X67881428Y-114095571D01*
X67845714Y-114059857D01*
%TD*%
M02*
