%TF.GenerationSoftware,KiCad,Pcbnew,(5.1.9)-1*%
%TF.CreationDate,2021-09-12T18:45:55+01:00*%
%TF.ProjectId,Function Generator Jacks,46756e63-7469-46f6-9e20-47656e657261,rev?*%
%TF.SameCoordinates,Original*%
%TF.FileFunction,Other,Fab,Top*%
%FSLAX46Y46*%
G04 Gerber Fmt 4.6, Leading zero omitted, Abs format (unit mm)*
G04 Created by KiCad (PCBNEW (5.1.9)-1) date 2021-09-12 18:45:55*
%MOMM*%
%LPD*%
G01*
G04 APERTURE LIST*
%ADD10C,0.100000*%
%ADD11C,0.150000*%
G04 APERTURE END LIST*
D10*
%TO.C,J3*%
X79126000Y-58293000D02*
X53726000Y-58293000D01*
X79126000Y-55753000D02*
X79126000Y-58293000D01*
X54361000Y-55753000D02*
X79126000Y-55753000D01*
X53726000Y-56388000D02*
X54361000Y-55753000D01*
X53726000Y-58293000D02*
X53726000Y-56388000D01*
%TD*%
%TO.C,J1*%
D11*
X22448142Y-88525666D02*
X22924333Y-88525666D01*
X22352904Y-88811380D02*
X22686238Y-87811380D01*
X23019571Y-88811380D01*
X23781476Y-88144714D02*
X23781476Y-88811380D01*
X23352904Y-88144714D02*
X23352904Y-88668523D01*
X23400523Y-88763761D01*
X23495761Y-88811380D01*
X23638619Y-88811380D01*
X23733857Y-88763761D01*
X23781476Y-88716142D01*
X24686238Y-88811380D02*
X24686238Y-87811380D01*
X24686238Y-88763761D02*
X24590999Y-88811380D01*
X24400523Y-88811380D01*
X24305285Y-88763761D01*
X24257666Y-88716142D01*
X24210047Y-88620904D01*
X24210047Y-88335190D01*
X24257666Y-88239952D01*
X24305285Y-88192333D01*
X24400523Y-88144714D01*
X24590999Y-88144714D01*
X24686238Y-88192333D01*
X25162428Y-88811380D02*
X25162428Y-88144714D01*
X25162428Y-87811380D02*
X25114809Y-87859000D01*
X25162428Y-87906619D01*
X25210047Y-87859000D01*
X25162428Y-87811380D01*
X25162428Y-87906619D01*
X25781476Y-88811380D02*
X25686238Y-88763761D01*
X25638619Y-88716142D01*
X25590999Y-88620904D01*
X25590999Y-88335190D01*
X25638619Y-88239952D01*
X25686238Y-88192333D01*
X25781476Y-88144714D01*
X25924333Y-88144714D01*
X26019571Y-88192333D01*
X26067190Y-88239952D01*
X26114809Y-88335190D01*
X26114809Y-88620904D01*
X26067190Y-88716142D01*
X26019571Y-88763761D01*
X25924333Y-88811380D01*
X25781476Y-88811380D01*
X26829095Y-87811380D02*
X26829095Y-88525666D01*
X26781476Y-88668523D01*
X26686238Y-88763761D01*
X26543380Y-88811380D01*
X26448142Y-88811380D01*
X27733857Y-88811380D02*
X27733857Y-88287571D01*
X27686238Y-88192333D01*
X27590999Y-88144714D01*
X27400523Y-88144714D01*
X27305285Y-88192333D01*
X27733857Y-88763761D02*
X27638619Y-88811380D01*
X27400523Y-88811380D01*
X27305285Y-88763761D01*
X27257666Y-88668523D01*
X27257666Y-88573285D01*
X27305285Y-88478047D01*
X27400523Y-88430428D01*
X27638619Y-88430428D01*
X27733857Y-88382809D01*
X28638619Y-88763761D02*
X28543380Y-88811380D01*
X28352904Y-88811380D01*
X28257666Y-88763761D01*
X28210047Y-88716142D01*
X28162428Y-88620904D01*
X28162428Y-88335190D01*
X28210047Y-88239952D01*
X28257666Y-88192333D01*
X28352904Y-88144714D01*
X28543380Y-88144714D01*
X28638619Y-88192333D01*
X29067190Y-88811380D02*
X29067190Y-87811380D01*
X29162428Y-88430428D02*
X29448142Y-88811380D01*
X29448142Y-88144714D02*
X29067190Y-88525666D01*
X29829095Y-87906619D02*
X29876714Y-87859000D01*
X29971952Y-87811380D01*
X30210047Y-87811380D01*
X30305285Y-87859000D01*
X30352904Y-87906619D01*
X30400523Y-88001857D01*
X30400523Y-88097095D01*
X30352904Y-88239952D01*
X29781476Y-88811380D01*
X30400523Y-88811380D01*
X30590999Y-88906619D02*
X31352904Y-88906619D01*
X31543380Y-88763761D02*
X31686238Y-88811380D01*
X31924333Y-88811380D01*
X32019571Y-88763761D01*
X32067190Y-88716142D01*
X32114809Y-88620904D01*
X32114809Y-88525666D01*
X32067190Y-88430428D01*
X32019571Y-88382809D01*
X31924333Y-88335190D01*
X31733857Y-88287571D01*
X31638619Y-88239952D01*
X31591000Y-88192333D01*
X31543380Y-88097095D01*
X31543380Y-88001857D01*
X31591000Y-87906619D01*
X31638619Y-87859000D01*
X31733857Y-87811380D01*
X31971952Y-87811380D01*
X32114809Y-87859000D01*
X32448142Y-88144714D02*
X32638619Y-88811380D01*
X32829095Y-88335190D01*
X33019571Y-88811380D01*
X33210047Y-88144714D01*
X33591000Y-88811380D02*
X33591000Y-88144714D01*
X33591000Y-87811380D02*
X33543380Y-87859000D01*
X33591000Y-87906619D01*
X33638619Y-87859000D01*
X33591000Y-87811380D01*
X33591000Y-87906619D01*
X33924333Y-88144714D02*
X34305285Y-88144714D01*
X34067190Y-87811380D02*
X34067190Y-88668523D01*
X34114809Y-88763761D01*
X34210047Y-88811380D01*
X34305285Y-88811380D01*
X35067190Y-88763761D02*
X34971952Y-88811380D01*
X34781476Y-88811380D01*
X34686238Y-88763761D01*
X34638619Y-88716142D01*
X34590999Y-88620904D01*
X34590999Y-88335190D01*
X34638619Y-88239952D01*
X34686238Y-88192333D01*
X34781476Y-88144714D01*
X34971952Y-88144714D01*
X35067190Y-88192333D01*
X35495761Y-88811380D02*
X35495761Y-87811380D01*
X35924333Y-88811380D02*
X35924333Y-88287571D01*
X35876714Y-88192333D01*
X35781476Y-88144714D01*
X35638619Y-88144714D01*
X35543380Y-88192333D01*
X35495761Y-88239952D01*
X36257666Y-87811380D02*
X36829095Y-87811380D01*
X36543380Y-88811380D02*
X36543380Y-87811380D01*
%TO.C,J2*%
X22448142Y-113544666D02*
X22924333Y-113544666D01*
X22352904Y-113830380D02*
X22686238Y-112830380D01*
X23019571Y-113830380D01*
X23781476Y-113163714D02*
X23781476Y-113830380D01*
X23352904Y-113163714D02*
X23352904Y-113687523D01*
X23400523Y-113782761D01*
X23495761Y-113830380D01*
X23638619Y-113830380D01*
X23733857Y-113782761D01*
X23781476Y-113735142D01*
X24686238Y-113830380D02*
X24686238Y-112830380D01*
X24686238Y-113782761D02*
X24590999Y-113830380D01*
X24400523Y-113830380D01*
X24305285Y-113782761D01*
X24257666Y-113735142D01*
X24210047Y-113639904D01*
X24210047Y-113354190D01*
X24257666Y-113258952D01*
X24305285Y-113211333D01*
X24400523Y-113163714D01*
X24590999Y-113163714D01*
X24686238Y-113211333D01*
X25162428Y-113830380D02*
X25162428Y-113163714D01*
X25162428Y-112830380D02*
X25114809Y-112878000D01*
X25162428Y-112925619D01*
X25210047Y-112878000D01*
X25162428Y-112830380D01*
X25162428Y-112925619D01*
X25781476Y-113830380D02*
X25686238Y-113782761D01*
X25638619Y-113735142D01*
X25590999Y-113639904D01*
X25590999Y-113354190D01*
X25638619Y-113258952D01*
X25686238Y-113211333D01*
X25781476Y-113163714D01*
X25924333Y-113163714D01*
X26019571Y-113211333D01*
X26067190Y-113258952D01*
X26114809Y-113354190D01*
X26114809Y-113639904D01*
X26067190Y-113735142D01*
X26019571Y-113782761D01*
X25924333Y-113830380D01*
X25781476Y-113830380D01*
X26829095Y-112830380D02*
X26829095Y-113544666D01*
X26781476Y-113687523D01*
X26686238Y-113782761D01*
X26543380Y-113830380D01*
X26448142Y-113830380D01*
X27733857Y-113830380D02*
X27733857Y-113306571D01*
X27686238Y-113211333D01*
X27590999Y-113163714D01*
X27400523Y-113163714D01*
X27305285Y-113211333D01*
X27733857Y-113782761D02*
X27638619Y-113830380D01*
X27400523Y-113830380D01*
X27305285Y-113782761D01*
X27257666Y-113687523D01*
X27257666Y-113592285D01*
X27305285Y-113497047D01*
X27400523Y-113449428D01*
X27638619Y-113449428D01*
X27733857Y-113401809D01*
X28638619Y-113782761D02*
X28543380Y-113830380D01*
X28352904Y-113830380D01*
X28257666Y-113782761D01*
X28210047Y-113735142D01*
X28162428Y-113639904D01*
X28162428Y-113354190D01*
X28210047Y-113258952D01*
X28257666Y-113211333D01*
X28352904Y-113163714D01*
X28543380Y-113163714D01*
X28638619Y-113211333D01*
X29067190Y-113830380D02*
X29067190Y-112830380D01*
X29162428Y-113449428D02*
X29448142Y-113830380D01*
X29448142Y-113163714D02*
X29067190Y-113544666D01*
X29829095Y-112925619D02*
X29876714Y-112878000D01*
X29971952Y-112830380D01*
X30210047Y-112830380D01*
X30305285Y-112878000D01*
X30352904Y-112925619D01*
X30400523Y-113020857D01*
X30400523Y-113116095D01*
X30352904Y-113258952D01*
X29781476Y-113830380D01*
X30400523Y-113830380D01*
X30590999Y-113925619D02*
X31352904Y-113925619D01*
X31543380Y-113782761D02*
X31686238Y-113830380D01*
X31924333Y-113830380D01*
X32019571Y-113782761D01*
X32067190Y-113735142D01*
X32114809Y-113639904D01*
X32114809Y-113544666D01*
X32067190Y-113449428D01*
X32019571Y-113401809D01*
X31924333Y-113354190D01*
X31733857Y-113306571D01*
X31638619Y-113258952D01*
X31591000Y-113211333D01*
X31543380Y-113116095D01*
X31543380Y-113020857D01*
X31591000Y-112925619D01*
X31638619Y-112878000D01*
X31733857Y-112830380D01*
X31971952Y-112830380D01*
X32114809Y-112878000D01*
X32448142Y-113163714D02*
X32638619Y-113830380D01*
X32829095Y-113354190D01*
X33019571Y-113830380D01*
X33210047Y-113163714D01*
X33591000Y-113830380D02*
X33591000Y-113163714D01*
X33591000Y-112830380D02*
X33543380Y-112878000D01*
X33591000Y-112925619D01*
X33638619Y-112878000D01*
X33591000Y-112830380D01*
X33591000Y-112925619D01*
X33924333Y-113163714D02*
X34305285Y-113163714D01*
X34067190Y-112830380D02*
X34067190Y-113687523D01*
X34114809Y-113782761D01*
X34210047Y-113830380D01*
X34305285Y-113830380D01*
X35067190Y-113782761D02*
X34971952Y-113830380D01*
X34781476Y-113830380D01*
X34686238Y-113782761D01*
X34638619Y-113735142D01*
X34590999Y-113639904D01*
X34590999Y-113354190D01*
X34638619Y-113258952D01*
X34686238Y-113211333D01*
X34781476Y-113163714D01*
X34971952Y-113163714D01*
X35067190Y-113211333D01*
X35495761Y-113830380D02*
X35495761Y-112830380D01*
X35924333Y-113830380D02*
X35924333Y-113306571D01*
X35876714Y-113211333D01*
X35781476Y-113163714D01*
X35638619Y-113163714D01*
X35543380Y-113211333D01*
X35495761Y-113258952D01*
X36257666Y-112830380D02*
X36829095Y-112830380D01*
X36543380Y-113830380D02*
X36543380Y-112830380D01*
%TO.C,J4*%
X47467142Y-88525666D02*
X47943333Y-88525666D01*
X47371904Y-88811380D02*
X47705238Y-87811380D01*
X48038571Y-88811380D01*
X48800476Y-88144714D02*
X48800476Y-88811380D01*
X48371904Y-88144714D02*
X48371904Y-88668523D01*
X48419523Y-88763761D01*
X48514761Y-88811380D01*
X48657619Y-88811380D01*
X48752857Y-88763761D01*
X48800476Y-88716142D01*
X49705238Y-88811380D02*
X49705238Y-87811380D01*
X49705238Y-88763761D02*
X49610000Y-88811380D01*
X49419523Y-88811380D01*
X49324285Y-88763761D01*
X49276666Y-88716142D01*
X49229047Y-88620904D01*
X49229047Y-88335190D01*
X49276666Y-88239952D01*
X49324285Y-88192333D01*
X49419523Y-88144714D01*
X49610000Y-88144714D01*
X49705238Y-88192333D01*
X50181428Y-88811380D02*
X50181428Y-88144714D01*
X50181428Y-87811380D02*
X50133809Y-87859000D01*
X50181428Y-87906619D01*
X50229047Y-87859000D01*
X50181428Y-87811380D01*
X50181428Y-87906619D01*
X50800476Y-88811380D02*
X50705238Y-88763761D01*
X50657619Y-88716142D01*
X50610000Y-88620904D01*
X50610000Y-88335190D01*
X50657619Y-88239952D01*
X50705238Y-88192333D01*
X50800476Y-88144714D01*
X50943333Y-88144714D01*
X51038571Y-88192333D01*
X51086190Y-88239952D01*
X51133809Y-88335190D01*
X51133809Y-88620904D01*
X51086190Y-88716142D01*
X51038571Y-88763761D01*
X50943333Y-88811380D01*
X50800476Y-88811380D01*
X51848095Y-87811380D02*
X51848095Y-88525666D01*
X51800476Y-88668523D01*
X51705238Y-88763761D01*
X51562380Y-88811380D01*
X51467142Y-88811380D01*
X52752857Y-88811380D02*
X52752857Y-88287571D01*
X52705238Y-88192333D01*
X52610000Y-88144714D01*
X52419523Y-88144714D01*
X52324285Y-88192333D01*
X52752857Y-88763761D02*
X52657619Y-88811380D01*
X52419523Y-88811380D01*
X52324285Y-88763761D01*
X52276666Y-88668523D01*
X52276666Y-88573285D01*
X52324285Y-88478047D01*
X52419523Y-88430428D01*
X52657619Y-88430428D01*
X52752857Y-88382809D01*
X53657619Y-88763761D02*
X53562380Y-88811380D01*
X53371904Y-88811380D01*
X53276666Y-88763761D01*
X53229047Y-88716142D01*
X53181428Y-88620904D01*
X53181428Y-88335190D01*
X53229047Y-88239952D01*
X53276666Y-88192333D01*
X53371904Y-88144714D01*
X53562380Y-88144714D01*
X53657619Y-88192333D01*
X54086190Y-88811380D02*
X54086190Y-87811380D01*
X54181428Y-88430428D02*
X54467142Y-88811380D01*
X54467142Y-88144714D02*
X54086190Y-88525666D01*
X54848095Y-87906619D02*
X54895714Y-87859000D01*
X54990952Y-87811380D01*
X55229047Y-87811380D01*
X55324285Y-87859000D01*
X55371904Y-87906619D01*
X55419523Y-88001857D01*
X55419523Y-88097095D01*
X55371904Y-88239952D01*
X54800476Y-88811380D01*
X55419523Y-88811380D01*
X55610000Y-88906619D02*
X56371904Y-88906619D01*
X56562380Y-88763761D02*
X56705238Y-88811380D01*
X56943333Y-88811380D01*
X57038571Y-88763761D01*
X57086190Y-88716142D01*
X57133809Y-88620904D01*
X57133809Y-88525666D01*
X57086190Y-88430428D01*
X57038571Y-88382809D01*
X56943333Y-88335190D01*
X56752857Y-88287571D01*
X56657619Y-88239952D01*
X56610000Y-88192333D01*
X56562380Y-88097095D01*
X56562380Y-88001857D01*
X56610000Y-87906619D01*
X56657619Y-87859000D01*
X56752857Y-87811380D01*
X56990952Y-87811380D01*
X57133809Y-87859000D01*
X57467142Y-88144714D02*
X57657619Y-88811380D01*
X57848095Y-88335190D01*
X58038571Y-88811380D01*
X58229047Y-88144714D01*
X58610000Y-88811380D02*
X58610000Y-88144714D01*
X58610000Y-87811380D02*
X58562380Y-87859000D01*
X58610000Y-87906619D01*
X58657619Y-87859000D01*
X58610000Y-87811380D01*
X58610000Y-87906619D01*
X58943333Y-88144714D02*
X59324285Y-88144714D01*
X59086190Y-87811380D02*
X59086190Y-88668523D01*
X59133809Y-88763761D01*
X59229047Y-88811380D01*
X59324285Y-88811380D01*
X60086190Y-88763761D02*
X59990952Y-88811380D01*
X59800476Y-88811380D01*
X59705238Y-88763761D01*
X59657619Y-88716142D01*
X59609999Y-88620904D01*
X59609999Y-88335190D01*
X59657619Y-88239952D01*
X59705238Y-88192333D01*
X59800476Y-88144714D01*
X59990952Y-88144714D01*
X60086190Y-88192333D01*
X60514761Y-88811380D02*
X60514761Y-87811380D01*
X60943333Y-88811380D02*
X60943333Y-88287571D01*
X60895714Y-88192333D01*
X60800476Y-88144714D01*
X60657619Y-88144714D01*
X60562380Y-88192333D01*
X60514761Y-88239952D01*
X61276666Y-87811380D02*
X61848095Y-87811380D01*
X61562380Y-88811380D02*
X61562380Y-87811380D01*
%TO.C,J5*%
X47467142Y-113544666D02*
X47943333Y-113544666D01*
X47371904Y-113830380D02*
X47705238Y-112830380D01*
X48038571Y-113830380D01*
X48800476Y-113163714D02*
X48800476Y-113830380D01*
X48371904Y-113163714D02*
X48371904Y-113687523D01*
X48419523Y-113782761D01*
X48514761Y-113830380D01*
X48657619Y-113830380D01*
X48752857Y-113782761D01*
X48800476Y-113735142D01*
X49705238Y-113830380D02*
X49705238Y-112830380D01*
X49705238Y-113782761D02*
X49610000Y-113830380D01*
X49419523Y-113830380D01*
X49324285Y-113782761D01*
X49276666Y-113735142D01*
X49229047Y-113639904D01*
X49229047Y-113354190D01*
X49276666Y-113258952D01*
X49324285Y-113211333D01*
X49419523Y-113163714D01*
X49610000Y-113163714D01*
X49705238Y-113211333D01*
X50181428Y-113830380D02*
X50181428Y-113163714D01*
X50181428Y-112830380D02*
X50133809Y-112878000D01*
X50181428Y-112925619D01*
X50229047Y-112878000D01*
X50181428Y-112830380D01*
X50181428Y-112925619D01*
X50800476Y-113830380D02*
X50705238Y-113782761D01*
X50657619Y-113735142D01*
X50610000Y-113639904D01*
X50610000Y-113354190D01*
X50657619Y-113258952D01*
X50705238Y-113211333D01*
X50800476Y-113163714D01*
X50943333Y-113163714D01*
X51038571Y-113211333D01*
X51086190Y-113258952D01*
X51133809Y-113354190D01*
X51133809Y-113639904D01*
X51086190Y-113735142D01*
X51038571Y-113782761D01*
X50943333Y-113830380D01*
X50800476Y-113830380D01*
X51848095Y-112830380D02*
X51848095Y-113544666D01*
X51800476Y-113687523D01*
X51705238Y-113782761D01*
X51562380Y-113830380D01*
X51467142Y-113830380D01*
X52752857Y-113830380D02*
X52752857Y-113306571D01*
X52705238Y-113211333D01*
X52610000Y-113163714D01*
X52419523Y-113163714D01*
X52324285Y-113211333D01*
X52752857Y-113782761D02*
X52657619Y-113830380D01*
X52419523Y-113830380D01*
X52324285Y-113782761D01*
X52276666Y-113687523D01*
X52276666Y-113592285D01*
X52324285Y-113497047D01*
X52419523Y-113449428D01*
X52657619Y-113449428D01*
X52752857Y-113401809D01*
X53657619Y-113782761D02*
X53562380Y-113830380D01*
X53371904Y-113830380D01*
X53276666Y-113782761D01*
X53229047Y-113735142D01*
X53181428Y-113639904D01*
X53181428Y-113354190D01*
X53229047Y-113258952D01*
X53276666Y-113211333D01*
X53371904Y-113163714D01*
X53562380Y-113163714D01*
X53657619Y-113211333D01*
X54086190Y-113830380D02*
X54086190Y-112830380D01*
X54181428Y-113449428D02*
X54467142Y-113830380D01*
X54467142Y-113163714D02*
X54086190Y-113544666D01*
X54848095Y-112925619D02*
X54895714Y-112878000D01*
X54990952Y-112830380D01*
X55229047Y-112830380D01*
X55324285Y-112878000D01*
X55371904Y-112925619D01*
X55419523Y-113020857D01*
X55419523Y-113116095D01*
X55371904Y-113258952D01*
X54800476Y-113830380D01*
X55419523Y-113830380D01*
X55610000Y-113925619D02*
X56371904Y-113925619D01*
X56562380Y-113782761D02*
X56705238Y-113830380D01*
X56943333Y-113830380D01*
X57038571Y-113782761D01*
X57086190Y-113735142D01*
X57133809Y-113639904D01*
X57133809Y-113544666D01*
X57086190Y-113449428D01*
X57038571Y-113401809D01*
X56943333Y-113354190D01*
X56752857Y-113306571D01*
X56657619Y-113258952D01*
X56610000Y-113211333D01*
X56562380Y-113116095D01*
X56562380Y-113020857D01*
X56610000Y-112925619D01*
X56657619Y-112878000D01*
X56752857Y-112830380D01*
X56990952Y-112830380D01*
X57133809Y-112878000D01*
X57467142Y-113163714D02*
X57657619Y-113830380D01*
X57848095Y-113354190D01*
X58038571Y-113830380D01*
X58229047Y-113163714D01*
X58610000Y-113830380D02*
X58610000Y-113163714D01*
X58610000Y-112830380D02*
X58562380Y-112878000D01*
X58610000Y-112925619D01*
X58657619Y-112878000D01*
X58610000Y-112830380D01*
X58610000Y-112925619D01*
X58943333Y-113163714D02*
X59324285Y-113163714D01*
X59086190Y-112830380D02*
X59086190Y-113687523D01*
X59133809Y-113782761D01*
X59229047Y-113830380D01*
X59324285Y-113830380D01*
X60086190Y-113782761D02*
X59990952Y-113830380D01*
X59800476Y-113830380D01*
X59705238Y-113782761D01*
X59657619Y-113735142D01*
X59609999Y-113639904D01*
X59609999Y-113354190D01*
X59657619Y-113258952D01*
X59705238Y-113211333D01*
X59800476Y-113163714D01*
X59990952Y-113163714D01*
X60086190Y-113211333D01*
X60514761Y-113830380D02*
X60514761Y-112830380D01*
X60943333Y-113830380D02*
X60943333Y-113306571D01*
X60895714Y-113211333D01*
X60800476Y-113163714D01*
X60657619Y-113163714D01*
X60562380Y-113211333D01*
X60514761Y-113258952D01*
X61276666Y-112830380D02*
X61848095Y-112830380D01*
X61562380Y-113830380D02*
X61562380Y-112830380D01*
%TO.C,J6*%
X72486142Y-88525666D02*
X72962333Y-88525666D01*
X72390904Y-88811380D02*
X72724238Y-87811380D01*
X73057571Y-88811380D01*
X73819476Y-88144714D02*
X73819476Y-88811380D01*
X73390904Y-88144714D02*
X73390904Y-88668523D01*
X73438523Y-88763761D01*
X73533761Y-88811380D01*
X73676619Y-88811380D01*
X73771857Y-88763761D01*
X73819476Y-88716142D01*
X74724238Y-88811380D02*
X74724238Y-87811380D01*
X74724238Y-88763761D02*
X74629000Y-88811380D01*
X74438523Y-88811380D01*
X74343285Y-88763761D01*
X74295666Y-88716142D01*
X74248047Y-88620904D01*
X74248047Y-88335190D01*
X74295666Y-88239952D01*
X74343285Y-88192333D01*
X74438523Y-88144714D01*
X74629000Y-88144714D01*
X74724238Y-88192333D01*
X75200428Y-88811380D02*
X75200428Y-88144714D01*
X75200428Y-87811380D02*
X75152809Y-87859000D01*
X75200428Y-87906619D01*
X75248047Y-87859000D01*
X75200428Y-87811380D01*
X75200428Y-87906619D01*
X75819476Y-88811380D02*
X75724238Y-88763761D01*
X75676619Y-88716142D01*
X75629000Y-88620904D01*
X75629000Y-88335190D01*
X75676619Y-88239952D01*
X75724238Y-88192333D01*
X75819476Y-88144714D01*
X75962333Y-88144714D01*
X76057571Y-88192333D01*
X76105190Y-88239952D01*
X76152809Y-88335190D01*
X76152809Y-88620904D01*
X76105190Y-88716142D01*
X76057571Y-88763761D01*
X75962333Y-88811380D01*
X75819476Y-88811380D01*
X76867095Y-87811380D02*
X76867095Y-88525666D01*
X76819476Y-88668523D01*
X76724238Y-88763761D01*
X76581380Y-88811380D01*
X76486142Y-88811380D01*
X77771857Y-88811380D02*
X77771857Y-88287571D01*
X77724238Y-88192333D01*
X77629000Y-88144714D01*
X77438523Y-88144714D01*
X77343285Y-88192333D01*
X77771857Y-88763761D02*
X77676619Y-88811380D01*
X77438523Y-88811380D01*
X77343285Y-88763761D01*
X77295666Y-88668523D01*
X77295666Y-88573285D01*
X77343285Y-88478047D01*
X77438523Y-88430428D01*
X77676619Y-88430428D01*
X77771857Y-88382809D01*
X78676619Y-88763761D02*
X78581380Y-88811380D01*
X78390904Y-88811380D01*
X78295666Y-88763761D01*
X78248047Y-88716142D01*
X78200428Y-88620904D01*
X78200428Y-88335190D01*
X78248047Y-88239952D01*
X78295666Y-88192333D01*
X78390904Y-88144714D01*
X78581380Y-88144714D01*
X78676619Y-88192333D01*
X79105190Y-88811380D02*
X79105190Y-87811380D01*
X79200428Y-88430428D02*
X79486142Y-88811380D01*
X79486142Y-88144714D02*
X79105190Y-88525666D01*
X79867095Y-87906619D02*
X79914714Y-87859000D01*
X80009952Y-87811380D01*
X80248047Y-87811380D01*
X80343285Y-87859000D01*
X80390904Y-87906619D01*
X80438523Y-88001857D01*
X80438523Y-88097095D01*
X80390904Y-88239952D01*
X79819476Y-88811380D01*
X80438523Y-88811380D01*
X80629000Y-88906619D02*
X81390904Y-88906619D01*
X81581380Y-88763761D02*
X81724238Y-88811380D01*
X81962333Y-88811380D01*
X82057571Y-88763761D01*
X82105190Y-88716142D01*
X82152809Y-88620904D01*
X82152809Y-88525666D01*
X82105190Y-88430428D01*
X82057571Y-88382809D01*
X81962333Y-88335190D01*
X81771857Y-88287571D01*
X81676619Y-88239952D01*
X81629000Y-88192333D01*
X81581380Y-88097095D01*
X81581380Y-88001857D01*
X81629000Y-87906619D01*
X81676619Y-87859000D01*
X81771857Y-87811380D01*
X82009952Y-87811380D01*
X82152809Y-87859000D01*
X82486142Y-88144714D02*
X82676619Y-88811380D01*
X82867095Y-88335190D01*
X83057571Y-88811380D01*
X83248047Y-88144714D01*
X83629000Y-88811380D02*
X83629000Y-88144714D01*
X83629000Y-87811380D02*
X83581380Y-87859000D01*
X83629000Y-87906619D01*
X83676619Y-87859000D01*
X83629000Y-87811380D01*
X83629000Y-87906619D01*
X83962333Y-88144714D02*
X84343285Y-88144714D01*
X84105190Y-87811380D02*
X84105190Y-88668523D01*
X84152809Y-88763761D01*
X84248047Y-88811380D01*
X84343285Y-88811380D01*
X85105190Y-88763761D02*
X85009952Y-88811380D01*
X84819476Y-88811380D01*
X84724238Y-88763761D01*
X84676619Y-88716142D01*
X84629000Y-88620904D01*
X84629000Y-88335190D01*
X84676619Y-88239952D01*
X84724238Y-88192333D01*
X84819476Y-88144714D01*
X85009952Y-88144714D01*
X85105190Y-88192333D01*
X85533761Y-88811380D02*
X85533761Y-87811380D01*
X85962333Y-88811380D02*
X85962333Y-88287571D01*
X85914714Y-88192333D01*
X85819476Y-88144714D01*
X85676619Y-88144714D01*
X85581380Y-88192333D01*
X85533761Y-88239952D01*
X86295666Y-87811380D02*
X86867095Y-87811380D01*
X86581380Y-88811380D02*
X86581380Y-87811380D01*
%TO.C,J7*%
X72486142Y-113544666D02*
X72962333Y-113544666D01*
X72390904Y-113830380D02*
X72724238Y-112830380D01*
X73057571Y-113830380D01*
X73819476Y-113163714D02*
X73819476Y-113830380D01*
X73390904Y-113163714D02*
X73390904Y-113687523D01*
X73438523Y-113782761D01*
X73533761Y-113830380D01*
X73676619Y-113830380D01*
X73771857Y-113782761D01*
X73819476Y-113735142D01*
X74724238Y-113830380D02*
X74724238Y-112830380D01*
X74724238Y-113782761D02*
X74629000Y-113830380D01*
X74438523Y-113830380D01*
X74343285Y-113782761D01*
X74295666Y-113735142D01*
X74248047Y-113639904D01*
X74248047Y-113354190D01*
X74295666Y-113258952D01*
X74343285Y-113211333D01*
X74438523Y-113163714D01*
X74629000Y-113163714D01*
X74724238Y-113211333D01*
X75200428Y-113830380D02*
X75200428Y-113163714D01*
X75200428Y-112830380D02*
X75152809Y-112878000D01*
X75200428Y-112925619D01*
X75248047Y-112878000D01*
X75200428Y-112830380D01*
X75200428Y-112925619D01*
X75819476Y-113830380D02*
X75724238Y-113782761D01*
X75676619Y-113735142D01*
X75629000Y-113639904D01*
X75629000Y-113354190D01*
X75676619Y-113258952D01*
X75724238Y-113211333D01*
X75819476Y-113163714D01*
X75962333Y-113163714D01*
X76057571Y-113211333D01*
X76105190Y-113258952D01*
X76152809Y-113354190D01*
X76152809Y-113639904D01*
X76105190Y-113735142D01*
X76057571Y-113782761D01*
X75962333Y-113830380D01*
X75819476Y-113830380D01*
X76867095Y-112830380D02*
X76867095Y-113544666D01*
X76819476Y-113687523D01*
X76724238Y-113782761D01*
X76581380Y-113830380D01*
X76486142Y-113830380D01*
X77771857Y-113830380D02*
X77771857Y-113306571D01*
X77724238Y-113211333D01*
X77629000Y-113163714D01*
X77438523Y-113163714D01*
X77343285Y-113211333D01*
X77771857Y-113782761D02*
X77676619Y-113830380D01*
X77438523Y-113830380D01*
X77343285Y-113782761D01*
X77295666Y-113687523D01*
X77295666Y-113592285D01*
X77343285Y-113497047D01*
X77438523Y-113449428D01*
X77676619Y-113449428D01*
X77771857Y-113401809D01*
X78676619Y-113782761D02*
X78581380Y-113830380D01*
X78390904Y-113830380D01*
X78295666Y-113782761D01*
X78248047Y-113735142D01*
X78200428Y-113639904D01*
X78200428Y-113354190D01*
X78248047Y-113258952D01*
X78295666Y-113211333D01*
X78390904Y-113163714D01*
X78581380Y-113163714D01*
X78676619Y-113211333D01*
X79105190Y-113830380D02*
X79105190Y-112830380D01*
X79200428Y-113449428D02*
X79486142Y-113830380D01*
X79486142Y-113163714D02*
X79105190Y-113544666D01*
X79867095Y-112925619D02*
X79914714Y-112878000D01*
X80009952Y-112830380D01*
X80248047Y-112830380D01*
X80343285Y-112878000D01*
X80390904Y-112925619D01*
X80438523Y-113020857D01*
X80438523Y-113116095D01*
X80390904Y-113258952D01*
X79819476Y-113830380D01*
X80438523Y-113830380D01*
X80629000Y-113925619D02*
X81390904Y-113925619D01*
X81581380Y-113782761D02*
X81724238Y-113830380D01*
X81962333Y-113830380D01*
X82057571Y-113782761D01*
X82105190Y-113735142D01*
X82152809Y-113639904D01*
X82152809Y-113544666D01*
X82105190Y-113449428D01*
X82057571Y-113401809D01*
X81962333Y-113354190D01*
X81771857Y-113306571D01*
X81676619Y-113258952D01*
X81629000Y-113211333D01*
X81581380Y-113116095D01*
X81581380Y-113020857D01*
X81629000Y-112925619D01*
X81676619Y-112878000D01*
X81771857Y-112830380D01*
X82009952Y-112830380D01*
X82152809Y-112878000D01*
X82486142Y-113163714D02*
X82676619Y-113830380D01*
X82867095Y-113354190D01*
X83057571Y-113830380D01*
X83248047Y-113163714D01*
X83629000Y-113830380D02*
X83629000Y-113163714D01*
X83629000Y-112830380D02*
X83581380Y-112878000D01*
X83629000Y-112925619D01*
X83676619Y-112878000D01*
X83629000Y-112830380D01*
X83629000Y-112925619D01*
X83962333Y-113163714D02*
X84343285Y-113163714D01*
X84105190Y-112830380D02*
X84105190Y-113687523D01*
X84152809Y-113782761D01*
X84248047Y-113830380D01*
X84343285Y-113830380D01*
X85105190Y-113782761D02*
X85009952Y-113830380D01*
X84819476Y-113830380D01*
X84724238Y-113782761D01*
X84676619Y-113735142D01*
X84629000Y-113639904D01*
X84629000Y-113354190D01*
X84676619Y-113258952D01*
X84724238Y-113211333D01*
X84819476Y-113163714D01*
X85009952Y-113163714D01*
X85105190Y-113211333D01*
X85533761Y-113830380D02*
X85533761Y-112830380D01*
X85962333Y-113830380D02*
X85962333Y-113306571D01*
X85914714Y-113211333D01*
X85819476Y-113163714D01*
X85676619Y-113163714D01*
X85581380Y-113211333D01*
X85533761Y-113258952D01*
X86295666Y-112830380D02*
X86867095Y-112830380D01*
X86581380Y-113830380D02*
X86581380Y-112830380D01*
%TO.C,J8*%
X97505142Y-88525666D02*
X97981333Y-88525666D01*
X97409904Y-88811380D02*
X97743238Y-87811380D01*
X98076571Y-88811380D01*
X98838476Y-88144714D02*
X98838476Y-88811380D01*
X98409904Y-88144714D02*
X98409904Y-88668523D01*
X98457523Y-88763761D01*
X98552761Y-88811380D01*
X98695619Y-88811380D01*
X98790857Y-88763761D01*
X98838476Y-88716142D01*
X99743238Y-88811380D02*
X99743238Y-87811380D01*
X99743238Y-88763761D02*
X99648000Y-88811380D01*
X99457523Y-88811380D01*
X99362285Y-88763761D01*
X99314666Y-88716142D01*
X99267047Y-88620904D01*
X99267047Y-88335190D01*
X99314666Y-88239952D01*
X99362285Y-88192333D01*
X99457523Y-88144714D01*
X99648000Y-88144714D01*
X99743238Y-88192333D01*
X100219428Y-88811380D02*
X100219428Y-88144714D01*
X100219428Y-87811380D02*
X100171809Y-87859000D01*
X100219428Y-87906619D01*
X100267047Y-87859000D01*
X100219428Y-87811380D01*
X100219428Y-87906619D01*
X100838476Y-88811380D02*
X100743238Y-88763761D01*
X100695619Y-88716142D01*
X100648000Y-88620904D01*
X100648000Y-88335190D01*
X100695619Y-88239952D01*
X100743238Y-88192333D01*
X100838476Y-88144714D01*
X100981333Y-88144714D01*
X101076571Y-88192333D01*
X101124190Y-88239952D01*
X101171809Y-88335190D01*
X101171809Y-88620904D01*
X101124190Y-88716142D01*
X101076571Y-88763761D01*
X100981333Y-88811380D01*
X100838476Y-88811380D01*
X101886095Y-87811380D02*
X101886095Y-88525666D01*
X101838476Y-88668523D01*
X101743238Y-88763761D01*
X101600380Y-88811380D01*
X101505142Y-88811380D01*
X102790857Y-88811380D02*
X102790857Y-88287571D01*
X102743238Y-88192333D01*
X102648000Y-88144714D01*
X102457523Y-88144714D01*
X102362285Y-88192333D01*
X102790857Y-88763761D02*
X102695619Y-88811380D01*
X102457523Y-88811380D01*
X102362285Y-88763761D01*
X102314666Y-88668523D01*
X102314666Y-88573285D01*
X102362285Y-88478047D01*
X102457523Y-88430428D01*
X102695619Y-88430428D01*
X102790857Y-88382809D01*
X103695619Y-88763761D02*
X103600380Y-88811380D01*
X103409904Y-88811380D01*
X103314666Y-88763761D01*
X103267047Y-88716142D01*
X103219428Y-88620904D01*
X103219428Y-88335190D01*
X103267047Y-88239952D01*
X103314666Y-88192333D01*
X103409904Y-88144714D01*
X103600380Y-88144714D01*
X103695619Y-88192333D01*
X104124190Y-88811380D02*
X104124190Y-87811380D01*
X104219428Y-88430428D02*
X104505142Y-88811380D01*
X104505142Y-88144714D02*
X104124190Y-88525666D01*
X104886095Y-87906619D02*
X104933714Y-87859000D01*
X105028952Y-87811380D01*
X105267047Y-87811380D01*
X105362285Y-87859000D01*
X105409904Y-87906619D01*
X105457523Y-88001857D01*
X105457523Y-88097095D01*
X105409904Y-88239952D01*
X104838476Y-88811380D01*
X105457523Y-88811380D01*
X105648000Y-88906619D02*
X106409904Y-88906619D01*
X106600380Y-88763761D02*
X106743238Y-88811380D01*
X106981333Y-88811380D01*
X107076571Y-88763761D01*
X107124190Y-88716142D01*
X107171809Y-88620904D01*
X107171809Y-88525666D01*
X107124190Y-88430428D01*
X107076571Y-88382809D01*
X106981333Y-88335190D01*
X106790857Y-88287571D01*
X106695619Y-88239952D01*
X106648000Y-88192333D01*
X106600380Y-88097095D01*
X106600380Y-88001857D01*
X106648000Y-87906619D01*
X106695619Y-87859000D01*
X106790857Y-87811380D01*
X107028952Y-87811380D01*
X107171809Y-87859000D01*
X107505142Y-88144714D02*
X107695619Y-88811380D01*
X107886095Y-88335190D01*
X108076571Y-88811380D01*
X108267047Y-88144714D01*
X108648000Y-88811380D02*
X108648000Y-88144714D01*
X108648000Y-87811380D02*
X108600380Y-87859000D01*
X108648000Y-87906619D01*
X108695619Y-87859000D01*
X108648000Y-87811380D01*
X108648000Y-87906619D01*
X108981333Y-88144714D02*
X109362285Y-88144714D01*
X109124190Y-87811380D02*
X109124190Y-88668523D01*
X109171809Y-88763761D01*
X109267047Y-88811380D01*
X109362285Y-88811380D01*
X110124190Y-88763761D02*
X110028952Y-88811380D01*
X109838476Y-88811380D01*
X109743238Y-88763761D01*
X109695619Y-88716142D01*
X109648000Y-88620904D01*
X109648000Y-88335190D01*
X109695619Y-88239952D01*
X109743238Y-88192333D01*
X109838476Y-88144714D01*
X110028952Y-88144714D01*
X110124190Y-88192333D01*
X110552761Y-88811380D02*
X110552761Y-87811380D01*
X110981333Y-88811380D02*
X110981333Y-88287571D01*
X110933714Y-88192333D01*
X110838476Y-88144714D01*
X110695619Y-88144714D01*
X110600380Y-88192333D01*
X110552761Y-88239952D01*
X111314666Y-87811380D02*
X111886095Y-87811380D01*
X111600380Y-88811380D02*
X111600380Y-87811380D01*
%TO.C,J9*%
X97505142Y-113544666D02*
X97981333Y-113544666D01*
X97409904Y-113830380D02*
X97743238Y-112830380D01*
X98076571Y-113830380D01*
X98838476Y-113163714D02*
X98838476Y-113830380D01*
X98409904Y-113163714D02*
X98409904Y-113687523D01*
X98457523Y-113782761D01*
X98552761Y-113830380D01*
X98695619Y-113830380D01*
X98790857Y-113782761D01*
X98838476Y-113735142D01*
X99743238Y-113830380D02*
X99743238Y-112830380D01*
X99743238Y-113782761D02*
X99648000Y-113830380D01*
X99457523Y-113830380D01*
X99362285Y-113782761D01*
X99314666Y-113735142D01*
X99267047Y-113639904D01*
X99267047Y-113354190D01*
X99314666Y-113258952D01*
X99362285Y-113211333D01*
X99457523Y-113163714D01*
X99648000Y-113163714D01*
X99743238Y-113211333D01*
X100219428Y-113830380D02*
X100219428Y-113163714D01*
X100219428Y-112830380D02*
X100171809Y-112878000D01*
X100219428Y-112925619D01*
X100267047Y-112878000D01*
X100219428Y-112830380D01*
X100219428Y-112925619D01*
X100838476Y-113830380D02*
X100743238Y-113782761D01*
X100695619Y-113735142D01*
X100648000Y-113639904D01*
X100648000Y-113354190D01*
X100695619Y-113258952D01*
X100743238Y-113211333D01*
X100838476Y-113163714D01*
X100981333Y-113163714D01*
X101076571Y-113211333D01*
X101124190Y-113258952D01*
X101171809Y-113354190D01*
X101171809Y-113639904D01*
X101124190Y-113735142D01*
X101076571Y-113782761D01*
X100981333Y-113830380D01*
X100838476Y-113830380D01*
X101886095Y-112830380D02*
X101886095Y-113544666D01*
X101838476Y-113687523D01*
X101743238Y-113782761D01*
X101600380Y-113830380D01*
X101505142Y-113830380D01*
X102790857Y-113830380D02*
X102790857Y-113306571D01*
X102743238Y-113211333D01*
X102648000Y-113163714D01*
X102457523Y-113163714D01*
X102362285Y-113211333D01*
X102790857Y-113782761D02*
X102695619Y-113830380D01*
X102457523Y-113830380D01*
X102362285Y-113782761D01*
X102314666Y-113687523D01*
X102314666Y-113592285D01*
X102362285Y-113497047D01*
X102457523Y-113449428D01*
X102695619Y-113449428D01*
X102790857Y-113401809D01*
X103695619Y-113782761D02*
X103600380Y-113830380D01*
X103409904Y-113830380D01*
X103314666Y-113782761D01*
X103267047Y-113735142D01*
X103219428Y-113639904D01*
X103219428Y-113354190D01*
X103267047Y-113258952D01*
X103314666Y-113211333D01*
X103409904Y-113163714D01*
X103600380Y-113163714D01*
X103695619Y-113211333D01*
X104124190Y-113830380D02*
X104124190Y-112830380D01*
X104219428Y-113449428D02*
X104505142Y-113830380D01*
X104505142Y-113163714D02*
X104124190Y-113544666D01*
X104886095Y-112925619D02*
X104933714Y-112878000D01*
X105028952Y-112830380D01*
X105267047Y-112830380D01*
X105362285Y-112878000D01*
X105409904Y-112925619D01*
X105457523Y-113020857D01*
X105457523Y-113116095D01*
X105409904Y-113258952D01*
X104838476Y-113830380D01*
X105457523Y-113830380D01*
X105648000Y-113925619D02*
X106409904Y-113925619D01*
X106600380Y-113782761D02*
X106743238Y-113830380D01*
X106981333Y-113830380D01*
X107076571Y-113782761D01*
X107124190Y-113735142D01*
X107171809Y-113639904D01*
X107171809Y-113544666D01*
X107124190Y-113449428D01*
X107076571Y-113401809D01*
X106981333Y-113354190D01*
X106790857Y-113306571D01*
X106695619Y-113258952D01*
X106648000Y-113211333D01*
X106600380Y-113116095D01*
X106600380Y-113020857D01*
X106648000Y-112925619D01*
X106695619Y-112878000D01*
X106790857Y-112830380D01*
X107028952Y-112830380D01*
X107171809Y-112878000D01*
X107505142Y-113163714D02*
X107695619Y-113830380D01*
X107886095Y-113354190D01*
X108076571Y-113830380D01*
X108267047Y-113163714D01*
X108648000Y-113830380D02*
X108648000Y-113163714D01*
X108648000Y-112830380D02*
X108600380Y-112878000D01*
X108648000Y-112925619D01*
X108695619Y-112878000D01*
X108648000Y-112830380D01*
X108648000Y-112925619D01*
X108981333Y-113163714D02*
X109362285Y-113163714D01*
X109124190Y-112830380D02*
X109124190Y-113687523D01*
X109171809Y-113782761D01*
X109267047Y-113830380D01*
X109362285Y-113830380D01*
X110124190Y-113782761D02*
X110028952Y-113830380D01*
X109838476Y-113830380D01*
X109743238Y-113782761D01*
X109695619Y-113735142D01*
X109648000Y-113639904D01*
X109648000Y-113354190D01*
X109695619Y-113258952D01*
X109743238Y-113211333D01*
X109838476Y-113163714D01*
X110028952Y-113163714D01*
X110124190Y-113211333D01*
X110552761Y-113830380D02*
X110552761Y-112830380D01*
X110981333Y-113830380D02*
X110981333Y-113306571D01*
X110933714Y-113211333D01*
X110838476Y-113163714D01*
X110695619Y-113163714D01*
X110600380Y-113211333D01*
X110552761Y-113258952D01*
X111314666Y-112830380D02*
X111886095Y-112830380D01*
X111600380Y-113830380D02*
X111600380Y-112830380D01*
%TO.C,J3*%
X59610285Y-60180142D02*
X59562666Y-60227761D01*
X59419809Y-60275380D01*
X59324571Y-60275380D01*
X59181714Y-60227761D01*
X59086476Y-60132523D01*
X59038857Y-60037285D01*
X58991238Y-59846809D01*
X58991238Y-59703952D01*
X59038857Y-59513476D01*
X59086476Y-59418238D01*
X59181714Y-59323000D01*
X59324571Y-59275380D01*
X59419809Y-59275380D01*
X59562666Y-59323000D01*
X59610285Y-59370619D01*
X60181714Y-60275380D02*
X60086476Y-60227761D01*
X60038857Y-60180142D01*
X59991238Y-60084904D01*
X59991238Y-59799190D01*
X60038857Y-59703952D01*
X60086476Y-59656333D01*
X60181714Y-59608714D01*
X60324571Y-59608714D01*
X60419809Y-59656333D01*
X60467428Y-59703952D01*
X60515047Y-59799190D01*
X60515047Y-60084904D01*
X60467428Y-60180142D01*
X60419809Y-60227761D01*
X60324571Y-60275380D01*
X60181714Y-60275380D01*
X60943619Y-59608714D02*
X60943619Y-60275380D01*
X60943619Y-59703952D02*
X60991238Y-59656333D01*
X61086476Y-59608714D01*
X61229333Y-59608714D01*
X61324571Y-59656333D01*
X61372190Y-59751571D01*
X61372190Y-60275380D01*
X61848380Y-59608714D02*
X61848380Y-60275380D01*
X61848380Y-59703952D02*
X61896000Y-59656333D01*
X61991238Y-59608714D01*
X62134095Y-59608714D01*
X62229333Y-59656333D01*
X62276952Y-59751571D01*
X62276952Y-60275380D01*
X62515047Y-60370619D02*
X63276952Y-60370619D01*
X63705523Y-59275380D02*
X63800761Y-59275380D01*
X63896000Y-59323000D01*
X63943619Y-59370619D01*
X63991238Y-59465857D01*
X64038857Y-59656333D01*
X64038857Y-59894428D01*
X63991238Y-60084904D01*
X63943619Y-60180142D01*
X63896000Y-60227761D01*
X63800761Y-60275380D01*
X63705523Y-60275380D01*
X63610285Y-60227761D01*
X63562666Y-60180142D01*
X63515047Y-60084904D01*
X63467428Y-59894428D01*
X63467428Y-59656333D01*
X63515047Y-59465857D01*
X63562666Y-59370619D01*
X63610285Y-59323000D01*
X63705523Y-59275380D01*
X64991238Y-60275380D02*
X64419809Y-60275380D01*
X64705523Y-60275380D02*
X64705523Y-59275380D01*
X64610285Y-59418238D01*
X64515047Y-59513476D01*
X64419809Y-59561095D01*
X65324571Y-60275380D02*
X65848380Y-59608714D01*
X65324571Y-59608714D02*
X65848380Y-60275380D01*
X66753142Y-60275380D02*
X66181714Y-60275380D01*
X66467428Y-60275380D02*
X66467428Y-59275380D01*
X66372190Y-59418238D01*
X66276952Y-59513476D01*
X66181714Y-59561095D01*
X67372190Y-59275380D02*
X67467428Y-59275380D01*
X67562666Y-59323000D01*
X67610285Y-59370619D01*
X67657904Y-59465857D01*
X67705523Y-59656333D01*
X67705523Y-59894428D01*
X67657904Y-60084904D01*
X67610285Y-60180142D01*
X67562666Y-60227761D01*
X67467428Y-60275380D01*
X67372190Y-60275380D01*
X67276952Y-60227761D01*
X67229333Y-60180142D01*
X67181714Y-60084904D01*
X67134095Y-59894428D01*
X67134095Y-59656333D01*
X67181714Y-59465857D01*
X67229333Y-59370619D01*
X67276952Y-59323000D01*
X67372190Y-59275380D01*
X67896000Y-60370619D02*
X68657904Y-60370619D01*
X69229333Y-59751571D02*
X68896000Y-59751571D01*
X68896000Y-60275380D02*
X68896000Y-59275380D01*
X69372190Y-59275380D01*
X70134095Y-60227761D02*
X70038857Y-60275380D01*
X69848380Y-60275380D01*
X69753142Y-60227761D01*
X69705523Y-60132523D01*
X69705523Y-59751571D01*
X69753142Y-59656333D01*
X69848380Y-59608714D01*
X70038857Y-59608714D01*
X70134095Y-59656333D01*
X70181714Y-59751571D01*
X70181714Y-59846809D01*
X69705523Y-59942047D01*
X70610285Y-60275380D02*
X70610285Y-59608714D01*
X70610285Y-59703952D02*
X70657904Y-59656333D01*
X70753142Y-59608714D01*
X70896000Y-59608714D01*
X70991238Y-59656333D01*
X71038857Y-59751571D01*
X71038857Y-60275380D01*
X71038857Y-59751571D02*
X71086476Y-59656333D01*
X71181714Y-59608714D01*
X71324571Y-59608714D01*
X71419809Y-59656333D01*
X71467428Y-59751571D01*
X71467428Y-60275380D01*
X72372190Y-60275380D02*
X72372190Y-59751571D01*
X72324571Y-59656333D01*
X72229333Y-59608714D01*
X72038857Y-59608714D01*
X71943619Y-59656333D01*
X72372190Y-60227761D02*
X72276952Y-60275380D01*
X72038857Y-60275380D01*
X71943619Y-60227761D01*
X71896000Y-60132523D01*
X71896000Y-60037285D01*
X71943619Y-59942047D01*
X72038857Y-59894428D01*
X72276952Y-59894428D01*
X72372190Y-59846809D01*
X72991238Y-60275380D02*
X72896000Y-60227761D01*
X72848380Y-60132523D01*
X72848380Y-59275380D01*
X73753142Y-60227761D02*
X73657904Y-60275380D01*
X73467428Y-60275380D01*
X73372190Y-60227761D01*
X73324571Y-60132523D01*
X73324571Y-59751571D01*
X73372190Y-59656333D01*
X73467428Y-59608714D01*
X73657904Y-59608714D01*
X73753142Y-59656333D01*
X73800761Y-59751571D01*
X73800761Y-59846809D01*
X73324571Y-59942047D01*
X66092666Y-56475380D02*
X66092666Y-57189666D01*
X66045047Y-57332523D01*
X65949809Y-57427761D01*
X65806952Y-57475380D01*
X65711714Y-57475380D01*
X66473619Y-56475380D02*
X67092666Y-56475380D01*
X66759333Y-56856333D01*
X66902190Y-56856333D01*
X66997428Y-56903952D01*
X67045047Y-56951571D01*
X67092666Y-57046809D01*
X67092666Y-57284904D01*
X67045047Y-57380142D01*
X66997428Y-57427761D01*
X66902190Y-57475380D01*
X66616476Y-57475380D01*
X66521238Y-57427761D01*
X66473619Y-57380142D01*
%TD*%
M02*
