%TF.GenerationSoftware,KiCad,Pcbnew,(5.1.9)-1*%
%TF.CreationDate,2021-09-12T18:45:55+01:00*%
%TF.ProjectId,Function Generator Jacks,46756e63-7469-46f6-9e20-47656e657261,rev?*%
%TF.SameCoordinates,Original*%
%TF.FileFunction,OtherDrawing,Comment*%
%FSLAX46Y46*%
G04 Gerber Fmt 4.6, Leading zero omitted, Abs format (unit mm)*
G04 Created by KiCad (PCBNEW (5.1.9)-1) date 2021-09-12 18:45:55*
%MOMM*%
%LPD*%
G01*
G04 APERTURE LIST*
%ADD10C,0.200000*%
%ADD11C,0.312500*%
%ADD12C,0.625000*%
%ADD13C,0.120000*%
G04 APERTURE END LIST*
D10*
X58067122Y-32991020D02*
X51200322Y-33667419D01*
X33133723Y-33329220D02*
G75*
G03*
X33133723Y-33329220I-3500000J0D01*
G01*
X96633723Y-70329220D02*
X96633723Y-86329220D01*
X46633723Y-111329220D02*
X62633722Y-111329220D01*
X115733723Y-125329220D02*
G75*
G03*
X115733723Y-125329220I-1600000J0D01*
G01*
X21633723Y-95329220D02*
X37633723Y-95329220D01*
X20133723Y-123729219D02*
X20133723Y-126929219D01*
X87633723Y-95329220D02*
X87633723Y-111329220D01*
X18533723Y-125329220D02*
X21733723Y-125329220D01*
X29295523Y-29895820D02*
X29971922Y-36762620D01*
X46633723Y-95329220D02*
X62633722Y-95329220D01*
X96633723Y-86329220D02*
X112633723Y-86329220D01*
X46633723Y-70329220D02*
X62633722Y-70329220D01*
X58133723Y6670780D02*
G75*
G03*
X58133723Y6670780I-3500000J0D01*
G01*
X21633723Y-86329220D02*
X37633723Y-86329220D01*
X96633723Y-95329220D02*
X96633723Y-111329220D01*
X71633723Y-70329220D02*
X71633723Y-86329220D01*
X58067122Y7008980D02*
X51200322Y6332581D01*
X54295523Y10104180D02*
X54971922Y3237380D01*
X33133723Y6670780D02*
G75*
G03*
X33133723Y6670780I-3500000J0D01*
G01*
X33067122Y7008980D02*
X26200322Y6332581D01*
X37633723Y-95329220D02*
X37633723Y-111329220D01*
X108133723Y-33329220D02*
G75*
G03*
X108133723Y-33329220I-3500000J0D01*
G01*
X79295523Y-29895820D02*
X79971922Y-36762620D01*
X21633723Y-111329220D02*
X37633723Y-111329220D01*
X54295523Y-29895820D02*
X54971922Y-36762620D01*
X58133723Y-33329220D02*
G75*
G03*
X58133723Y-33329220I-3500000J0D01*
G01*
X46633723Y-95329220D02*
X46633723Y-111329220D01*
X62633722Y-70329220D02*
X62633722Y-86329220D01*
X21633723Y-70329220D02*
X37633723Y-70329220D01*
X112533723Y-125329220D02*
X115733723Y-125329220D01*
X71633723Y-111329220D02*
X87633723Y-111329220D01*
X71633723Y-86329220D02*
X87633723Y-86329220D01*
X71633723Y-95329220D02*
X71633723Y-111329220D01*
X96633723Y-70329220D02*
X112633723Y-70329220D01*
X33067122Y-32991020D02*
X26200322Y-33667419D01*
X112633723Y-95329220D02*
X112633723Y-111329220D01*
X71633723Y-95329220D02*
X87633723Y-95329220D01*
X62633722Y-95329220D02*
X62633722Y-111329220D01*
X21633723Y-95329220D02*
X21633723Y-111329220D01*
X46633723Y-70329220D02*
X46633723Y-86329220D01*
X21733723Y-125329220D02*
G75*
G03*
X21733723Y-125329220I-1600000J0D01*
G01*
X114133723Y-123729219D02*
X114133723Y-126929219D01*
X83133723Y-33329220D02*
G75*
G03*
X83133723Y-33329220I-3500000J0D01*
G01*
X87633723Y-70329220D02*
X87633723Y-86329220D01*
X37633723Y-70329220D02*
X37633723Y-86329220D01*
X21633723Y-70329220D02*
X21633723Y-86329220D01*
X83067122Y-32991020D02*
X76200322Y-33667419D01*
X96633723Y-95329220D02*
X112633723Y-95329220D01*
X71633723Y-70329220D02*
X87633723Y-70329220D01*
X96633723Y-111329220D02*
X112633723Y-111329220D01*
X112633723Y-70329220D02*
X112633723Y-86329220D01*
X112533723Y68670780D02*
X115733723Y68670780D01*
X46633723Y-86329220D02*
X62633722Y-86329220D01*
X29295523Y10104180D02*
X29971922Y3237380D01*
X108067122Y-32991020D02*
X101200322Y-33667419D01*
X104295523Y-29895820D02*
X104971922Y-36762620D01*
X74633723Y-103329220D02*
X84633723Y-103329220D01*
X84633723Y-103329220D02*
G75*
G03*
X84633723Y-103329220I-5000000J0D01*
G01*
X19133723Y59670780D02*
X19133723Y-111329220D01*
X104633723Y-73329220D02*
X104633723Y-83329220D01*
X73673722Y-56930630D02*
X71973722Y-57098630D01*
X67660022Y-56164630D02*
X67827423Y-57864630D01*
X99633723Y-103329220D02*
X109633723Y-103329220D01*
X109633723Y-103329220D02*
G75*
G03*
X109633723Y-103329220I-5000000J0D01*
G01*
X19133723Y-45343259D02*
X19133723Y-111329220D01*
X29633723Y-98329220D02*
X29633723Y-108329220D01*
X115133723Y-111329220D02*
X115133723Y59670780D01*
X117133723Y71670780D02*
X17133723Y71670780D01*
X76213722Y-56930630D02*
X74513723Y-57098630D01*
X60040023Y-56164630D02*
X60207422Y-57864630D01*
X68593723Y-56930630D02*
X66893722Y-57098630D01*
X29633723Y-73329220D02*
X29633723Y-83329220D01*
X19133723Y-111329220D02*
X114461722Y-111329220D01*
X59633723Y-78329220D02*
G75*
G03*
X59633723Y-78329220I-5000000J0D01*
G01*
X49633723Y-103329220D02*
X59633723Y-103329220D01*
X115133723Y59670780D02*
X19133723Y59670780D01*
X57500023Y-56164630D02*
X57667422Y-57864630D01*
X84633723Y-78329220D02*
G75*
G03*
X84633723Y-78329220I-5000000J0D01*
G01*
X99633723Y-78329220D02*
X109633723Y-78329220D01*
X19133723Y-111329220D02*
X115133723Y-111329220D01*
X55893722Y-56930630D02*
X54193722Y-57098630D01*
X58433723Y-56930630D02*
X56733723Y-57098630D01*
X104633723Y-98329220D02*
X104633723Y-108329220D01*
X24633723Y-103329220D02*
X34633723Y-103329220D01*
X34633723Y-103329220D02*
G75*
G03*
X34633723Y-103329220I-5000000J0D01*
G01*
X78753723Y-56930630D02*
X77053723Y-57098630D01*
X77820023Y-56164630D02*
X77987423Y-57864630D01*
X54960022Y-56164630D02*
X55127422Y-57864630D01*
X70200022Y-56164630D02*
X70367423Y-57864630D01*
X17133723Y71670780D02*
X17133723Y-128329220D01*
X21733723Y68670780D02*
G75*
G03*
X21733723Y68670780I-1600000J0D01*
G01*
X54633723Y-98329220D02*
X54633723Y-108329220D01*
X79633723Y-73329220D02*
X79633723Y-83329220D01*
X59633723Y-103329220D02*
G75*
G03*
X59633723Y-103329220I-5000000J0D01*
G01*
X72740022Y-56164630D02*
X72907422Y-57864630D01*
X18533723Y68670780D02*
X21733723Y68670780D01*
X20133723Y70270781D02*
X20133723Y67070781D01*
X34633723Y-78329220D02*
G75*
G03*
X34633723Y-78329220I-5000000J0D01*
G01*
X81293723Y-56930630D02*
X79593723Y-57098630D01*
X75280023Y-56164630D02*
X75447422Y-57864630D01*
X71133723Y-56930630D02*
X69433722Y-57098630D01*
X63513723Y-56930630D02*
X61813723Y-57098630D01*
X114133723Y70270781D02*
X114133723Y67070781D01*
X17133723Y-128329220D02*
X117133723Y-128329220D01*
X115733723Y68670780D02*
G75*
G03*
X115733723Y68670780I-1600000J0D01*
G01*
X24633723Y-78329220D02*
X34633723Y-78329220D01*
X54633723Y-73329220D02*
X54633723Y-83329220D01*
X49633723Y-78329220D02*
X59633723Y-78329220D01*
X74633723Y-78329220D02*
X84633723Y-78329220D01*
X79633723Y-98329220D02*
X79633723Y-108329220D01*
X60973722Y-56930630D02*
X59273723Y-57098630D01*
X80360023Y-56164630D02*
X80527423Y-57864630D01*
X117133723Y-128329220D02*
X117133723Y71670780D01*
X109633723Y-78329220D02*
G75*
G03*
X109633723Y-78329220I-5000000J0D01*
G01*
X66053723Y-56930630D02*
X64353723Y-57098630D01*
X65120023Y-56164630D02*
X65287423Y-57864630D01*
X62580023Y-56164630D02*
X62747423Y-57864630D01*
X34633723Y-103329220D02*
G75*
G03*
X34633723Y-103329220I-5000000J0D01*
G01*
X19133723Y-45343259D02*
X19133723Y-111329220D01*
X73673722Y-56930630D02*
X71973722Y-57098630D01*
X108067122Y47008980D02*
X101200322Y46332581D01*
X71133723Y-56930630D02*
X69433722Y-57098630D01*
X89901833Y56367673D02*
G75*
G03*
X89901833Y56367673I-2500000J0D01*
G01*
X112162000Y58802400D02*
X112640400Y53945800D01*
X49633723Y-103329220D02*
X59633723Y-103329220D01*
X29633723Y-98329220D02*
X29633723Y-108329220D01*
X19133723Y-111329220D02*
X114461722Y-111329220D01*
X60040023Y-56164630D02*
X60207422Y-57864630D01*
X104295523Y50104180D02*
X104971922Y43237380D01*
X104295523Y10104180D02*
X104971922Y3237380D01*
X76213722Y-56930630D02*
X74513723Y-57098630D01*
X58067122Y47008981D02*
X51200322Y46332581D01*
X109963000Y56134000D02*
X114829500Y56600276D01*
X81293723Y-56930630D02*
X79593723Y-57098630D01*
X80360023Y-56164630D02*
X80527423Y-57864630D01*
X70200022Y-56164630D02*
X70367423Y-57864630D01*
X58433723Y-56930630D02*
X56733723Y-57098630D01*
X78753723Y-56930630D02*
X77053723Y-57098630D01*
X77820023Y-56164630D02*
X77987423Y-57864630D01*
X72740022Y-56164630D02*
X72907422Y-57864630D01*
X66053723Y-56930630D02*
X64353723Y-57098630D01*
X65120023Y-56164630D02*
X65287423Y-57864630D01*
X108133723Y6670780D02*
G75*
G03*
X108133723Y6670780I-3500000J0D01*
G01*
X19133723Y-111329220D02*
X115133723Y-111329220D01*
X62580023Y-56164630D02*
X62747423Y-57864630D01*
X19133723Y-52536820D02*
X115133723Y-52536820D01*
X115133723Y-111329220D02*
X115133723Y59670780D01*
X19133723Y-61492440D02*
X115133723Y-61492440D01*
X83067122Y7008980D02*
X76200322Y6332581D01*
X17133723Y71670780D02*
X17133723Y-128329220D01*
X58133723Y46670780D02*
G75*
G03*
X58133723Y46670780I-3500000J0D01*
G01*
X108133723Y46670780D02*
G75*
G03*
X108133723Y46670780I-3500000J0D01*
G01*
X114901833Y56367673D02*
G75*
G03*
X114901833Y56367673I-2500000J0D01*
G01*
X108067122Y7008980D02*
X101200322Y6332581D01*
X60973722Y-56930630D02*
X59273723Y-57098630D01*
X57500023Y-56164630D02*
X57667422Y-57864630D01*
X17133723Y-128329220D02*
X117133723Y-128329220D01*
X33067122Y47008981D02*
X26200322Y46332581D01*
X84963000Y56134000D02*
X89829500Y56600276D01*
X55893722Y-56930630D02*
X54193722Y-57098630D01*
X33133723Y46670780D02*
G75*
G03*
X33133723Y46670780I-3500000J0D01*
G01*
X117133723Y71670780D02*
X17133723Y71670780D01*
X19133723Y59670780D02*
X19133723Y-111329220D01*
X54295523Y50104181D02*
X54971922Y43237381D01*
X87162000Y58802400D02*
X87640400Y53945800D01*
X83067122Y47008980D02*
X76200322Y46332581D01*
X115133723Y59670780D02*
X19133723Y59670780D01*
X83133723Y6670780D02*
G75*
G03*
X83133723Y6670780I-3500000J0D01*
G01*
X54633723Y-98329220D02*
X54633723Y-108329220D01*
X24633723Y-103329220D02*
X34633723Y-103329220D01*
X59633723Y-103329220D02*
G75*
G03*
X59633723Y-103329220I-5000000J0D01*
G01*
X54960022Y-56164630D02*
X55127422Y-57864630D01*
X63513723Y-56930630D02*
X61813723Y-57098630D01*
X79295523Y10104180D02*
X79971922Y3237380D01*
X68593723Y-56930630D02*
X66893722Y-57098630D01*
X75280023Y-56164630D02*
X75447422Y-57864630D01*
X67660022Y-56164630D02*
X67827423Y-57864630D01*
X117133723Y-128329220D02*
X117133723Y71670780D01*
X29295523Y50104181D02*
X29971922Y43237381D01*
X83133723Y46670780D02*
G75*
G03*
X83133723Y46670780I-3500000J0D01*
G01*
X79295523Y50104180D02*
X79971922Y43237380D01*
X46633723Y-86329220D02*
X62633722Y-86329220D01*
X71633723Y-95329220D02*
X87633723Y-95329220D01*
X46633723Y-111329220D02*
X62633722Y-111329220D01*
X21633723Y-111329220D02*
X37633723Y-111329220D01*
X21733723Y-125329220D02*
G75*
G03*
X21733723Y-125329220I-1600000J0D01*
G01*
X112533723Y68670780D02*
X115733723Y68670780D01*
X96633723Y-70329220D02*
X112633723Y-70329220D01*
X96633723Y-70329220D02*
X96633723Y-86329220D01*
X115733723Y-125329220D02*
G75*
G03*
X115733723Y-125329220I-1600000J0D01*
G01*
X87633723Y-70329220D02*
X87633723Y-86329220D01*
X46633723Y-70329220D02*
X46633723Y-86329220D01*
X21633723Y-86329220D02*
X37633723Y-86329220D01*
X37633723Y-95329220D02*
X37633723Y-111329220D01*
X96633723Y-111329220D02*
X112633723Y-111329220D01*
X96633723Y-95329220D02*
X96633723Y-111329220D01*
X62633722Y-70329220D02*
X62633722Y-86329220D01*
X46633723Y-95329220D02*
X62633722Y-95329220D01*
X21633723Y-95329220D02*
X21633723Y-111329220D01*
X46633723Y-70329220D02*
X62633722Y-70329220D01*
X112533723Y-125329220D02*
X115733723Y-125329220D01*
X37633723Y-70329220D02*
X37633723Y-86329220D01*
X96633723Y-86329220D02*
X112633723Y-86329220D01*
X62633722Y-95329220D02*
X62633722Y-111329220D01*
X71633723Y-86329220D02*
X87633723Y-86329220D01*
X18533723Y-125329220D02*
X21733723Y-125329220D01*
X21633723Y-95329220D02*
X37633723Y-95329220D01*
X79295523Y-29895820D02*
X79971922Y-36762620D01*
X33133723Y-33329220D02*
G75*
G03*
X33133723Y-33329220I-3500000J0D01*
G01*
X71633723Y-70329220D02*
X87633723Y-70329220D01*
X33067122Y-32991020D02*
X26200322Y-33667419D01*
X71633723Y-70329220D02*
X71633723Y-86329220D01*
X58133723Y-33329220D02*
G75*
G03*
X58133723Y-33329220I-3500000J0D01*
G01*
X58067122Y-32991020D02*
X51200322Y-33667419D01*
X54295523Y-29895820D02*
X54971922Y-36762620D01*
X114133723Y-123729219D02*
X114133723Y-126929219D01*
X112633723Y-95329220D02*
X112633723Y-111329220D01*
X46633723Y-95329220D02*
X46633723Y-111329220D01*
X71633723Y-111329220D02*
X87633723Y-111329220D01*
X87633723Y-95329220D02*
X87633723Y-111329220D01*
X21633723Y-70329220D02*
X37633723Y-70329220D01*
X20133723Y-123729219D02*
X20133723Y-126929219D01*
X29295523Y-29895820D02*
X29971922Y-36762620D01*
X96633723Y-95329220D02*
X112633723Y-95329220D01*
X112633723Y-70329220D02*
X112633723Y-86329220D01*
X21633723Y-70329220D02*
X21633723Y-86329220D01*
X71633723Y-95329220D02*
X71633723Y-111329220D01*
X84633723Y-103329220D02*
G75*
G03*
X84633723Y-103329220I-5000000J0D01*
G01*
X109633723Y-78329220D02*
G75*
G03*
X109633723Y-78329220I-5000000J0D01*
G01*
X59633723Y-78329220D02*
G75*
G03*
X59633723Y-78329220I-5000000J0D01*
G01*
X24633723Y-78329220D02*
X34633723Y-78329220D01*
X84633723Y-78329220D02*
G75*
G03*
X84633723Y-78329220I-5000000J0D01*
G01*
X20133723Y70270781D02*
X20133723Y67070781D01*
X79633723Y-98329220D02*
X79633723Y-108329220D01*
X21733723Y68670780D02*
G75*
G03*
X21733723Y68670780I-1600000J0D01*
G01*
X79633723Y-73329220D02*
X79633723Y-83329220D01*
X49633723Y-78329220D02*
X59633723Y-78329220D01*
X54633723Y-73329220D02*
X54633723Y-83329220D01*
X104633723Y-98329220D02*
X104633723Y-108329220D01*
X74633723Y-103329220D02*
X84633723Y-103329220D01*
X104633723Y-73329220D02*
X104633723Y-83329220D01*
X114133723Y70270781D02*
X114133723Y67070781D01*
X34633723Y-78329220D02*
G75*
G03*
X34633723Y-78329220I-5000000J0D01*
G01*
X74633723Y-78329220D02*
X84633723Y-78329220D01*
X115733723Y68670780D02*
G75*
G03*
X115733723Y68670780I-1600000J0D01*
G01*
X109633723Y-103329220D02*
G75*
G03*
X109633723Y-103329220I-5000000J0D01*
G01*
X99633723Y-103329220D02*
X109633723Y-103329220D01*
X18533723Y68670780D02*
X21733723Y68670780D01*
X99633723Y-78329220D02*
X109633723Y-78329220D01*
X29633723Y-73329220D02*
X29633723Y-83329220D01*
D11*
X29461114Y-24758559D02*
X29353971Y-24877606D01*
X29032543Y-24996654D01*
X28818257Y-24996654D01*
X28496828Y-24877606D01*
X28282543Y-24639511D01*
X28175400Y-24401416D01*
X28068257Y-23925225D01*
X28068257Y-23568082D01*
X28175400Y-23091892D01*
X28282543Y-22853797D01*
X28496828Y-22615702D01*
X28818257Y-22496654D01*
X29032543Y-22496654D01*
X29353971Y-22615702D01*
X29461114Y-22734749D01*
X30103971Y-22496654D02*
X30853971Y-24996654D01*
X31603971Y-22496654D01*
X76568309Y-92039310D02*
X77318309Y-92039310D01*
X77639737Y-93348834D02*
X76568309Y-93348834D01*
X76568309Y-90848834D01*
X77639737Y-90848834D01*
X79032595Y-90848834D02*
X79461166Y-90848834D01*
X79675452Y-90967882D01*
X79889737Y-91205977D01*
X79996880Y-91682167D01*
X79996880Y-92515501D01*
X79889737Y-92991691D01*
X79675452Y-93229786D01*
X79461166Y-93348834D01*
X79032595Y-93348834D01*
X78818309Y-93229786D01*
X78604023Y-92991691D01*
X78496880Y-92515501D01*
X78496880Y-91682167D01*
X78604023Y-91205977D01*
X78818309Y-90967882D01*
X79032595Y-90848834D01*
X82246880Y-93110739D02*
X82139737Y-93229786D01*
X81818309Y-93348834D01*
X81604023Y-93348834D01*
X81282595Y-93229786D01*
X81068309Y-92991691D01*
X80961166Y-92753596D01*
X80854023Y-92277405D01*
X80854023Y-91920262D01*
X80961166Y-91444072D01*
X81068309Y-91205977D01*
X81282595Y-90967882D01*
X81604023Y-90848834D01*
X81818309Y-90848834D01*
X82139737Y-90967882D01*
X82246880Y-91086929D01*
X48107713Y55717631D02*
X49179142Y55717631D01*
X47893427Y55003345D02*
X48643427Y57503345D01*
X49393427Y55003345D01*
X50143427Y55003345D02*
X50143427Y57503345D01*
X50679142Y57503345D01*
X51000570Y57384298D01*
X51214856Y57146202D01*
X51321999Y56908107D01*
X51429142Y56431917D01*
X51429142Y56074774D01*
X51321999Y55598583D01*
X51214856Y55360488D01*
X51000570Y55122393D01*
X50679142Y55003345D01*
X50143427Y55003345D01*
X55714856Y57622393D02*
X53786284Y54408107D01*
X58071999Y55717631D02*
X59143427Y55717631D01*
X57857713Y55003345D02*
X58607713Y57503345D01*
X59357713Y55003345D01*
X60107713Y55003345D02*
X60107713Y57503345D01*
X60643427Y57503345D01*
X60964856Y57384298D01*
X61179142Y57146202D01*
X61286284Y56908107D01*
X61393427Y56431917D01*
X61393427Y56074774D01*
X61286284Y55598583D01*
X61179142Y55360488D01*
X60964856Y55122393D01*
X60643427Y55003345D01*
X60107713Y55003345D01*
X62250570Y55122393D02*
X62571999Y55003345D01*
X63107713Y55003345D01*
X63321999Y55122393D01*
X63429142Y55241440D01*
X63536284Y55479536D01*
X63536284Y55717631D01*
X63429142Y55955726D01*
X63321999Y56074774D01*
X63107713Y56193821D01*
X62679142Y56312869D01*
X62464856Y56431917D01*
X62357713Y56550964D01*
X62250570Y56789059D01*
X62250570Y57027155D01*
X62357713Y57265250D01*
X62464856Y57384298D01*
X62679142Y57503345D01*
X63214856Y57503345D01*
X63536284Y57384298D01*
X65786284Y55003345D02*
X65036284Y56193821D01*
X64500570Y55003345D02*
X64500570Y57503345D01*
X65357713Y57503345D01*
X65571999Y57384298D01*
X65679142Y57265250D01*
X65786284Y57027155D01*
X65786284Y56670012D01*
X65679142Y56431917D01*
X65571999Y56312869D01*
X65357713Y56193821D01*
X64500570Y56193821D01*
X79461114Y-24758559D02*
X79353971Y-24877606D01*
X79032543Y-24996654D01*
X78818257Y-24996654D01*
X78496828Y-24877606D01*
X78282543Y-24639511D01*
X78175400Y-24401416D01*
X78068257Y-23925225D01*
X78068257Y-23568082D01*
X78175400Y-23091892D01*
X78282543Y-22853797D01*
X78496828Y-22615702D01*
X78818257Y-22496654D01*
X79032543Y-22496654D01*
X79353971Y-22615702D01*
X79461114Y-22734749D01*
X80103971Y-22496654D02*
X80853971Y-24996654D01*
X81603971Y-22496654D01*
D12*
X63770075Y-119757651D02*
X62912932Y-119757651D01*
X62484360Y-119995747D01*
X62270075Y-120233842D01*
X61841503Y-120948127D01*
X61627217Y-121900508D01*
X61627217Y-123805270D01*
X61841503Y-124281461D01*
X62055789Y-124519556D01*
X62484360Y-124757651D01*
X63341503Y-124757651D01*
X63770075Y-124519556D01*
X63984360Y-124281461D01*
X64198646Y-123805270D01*
X64198646Y-122614794D01*
X63984360Y-122138604D01*
X63770075Y-121900508D01*
X63341503Y-121662413D01*
X62484360Y-121662413D01*
X62055789Y-121900508D01*
X61841503Y-122138604D01*
X61627217Y-122614794D01*
X69555789Y-122852889D02*
X72984360Y-122852889D01*
X71270075Y-124757651D02*
X71270075Y-120948127D01*
X80912932Y-124757651D02*
X78341503Y-124757651D01*
X79627217Y-124757651D02*
X79627217Y-119757651D01*
X79198646Y-120471937D01*
X78770075Y-120948127D01*
X78341503Y-121186223D01*
D11*
X101837915Y-90848834D02*
X102266487Y-90848834D01*
X102480772Y-90967882D01*
X102695058Y-91205977D01*
X102802201Y-91682167D01*
X102802201Y-92515501D01*
X102695058Y-92991691D01*
X102480772Y-93229786D01*
X102266487Y-93348834D01*
X101837915Y-93348834D01*
X101623630Y-93229786D01*
X101409344Y-92991691D01*
X101302201Y-92515501D01*
X101302201Y-91682167D01*
X101409344Y-91205977D01*
X101623630Y-90967882D01*
X101837915Y-90848834D01*
X103766487Y-90848834D02*
X103766487Y-92872643D01*
X103873630Y-93110739D01*
X103980772Y-93229786D01*
X104195058Y-93348834D01*
X104623630Y-93348834D01*
X104837915Y-93229786D01*
X104945058Y-93110739D01*
X105052201Y-92872643D01*
X105052201Y-90848834D01*
X105802201Y-90848834D02*
X107087915Y-90848834D01*
X106445058Y-93348834D02*
X106445058Y-90848834D01*
X65660690Y-45096591D02*
X65874976Y-45215639D01*
X66303547Y-45215639D01*
X66517833Y-45096591D01*
X66624976Y-44858496D01*
X66624976Y-44739448D01*
X66517833Y-44501353D01*
X66303547Y-44382306D01*
X65982119Y-44382306D01*
X65767833Y-44263258D01*
X65660690Y-44025163D01*
X65660690Y-43906115D01*
X65767833Y-43668020D01*
X65982119Y-43548972D01*
X66303547Y-43548972D01*
X66517833Y-43668020D01*
X67374976Y-43548972D02*
X67803547Y-45215639D01*
X68232119Y-44025163D01*
X68660690Y-45215639D01*
X69089261Y-43548972D01*
X69946404Y-45215639D02*
X69946404Y-43548972D01*
X69946404Y-42715639D02*
X69839261Y-42834687D01*
X69946404Y-42953734D01*
X70053547Y-42834687D01*
X69946404Y-42715639D01*
X69946404Y-42953734D01*
X70696404Y-43548972D02*
X71553547Y-43548972D01*
X71017833Y-42715639D02*
X71017833Y-44858496D01*
X71124976Y-45096591D01*
X71339261Y-45215639D01*
X71553547Y-45215639D01*
X73267833Y-45096591D02*
X73053547Y-45215639D01*
X72624976Y-45215639D01*
X72410690Y-45096591D01*
X72303547Y-44977544D01*
X72196404Y-44739448D01*
X72196404Y-44025163D01*
X72303547Y-43787067D01*
X72410690Y-43668020D01*
X72624976Y-43548972D01*
X73053547Y-43548972D01*
X73267833Y-43668020D01*
X74232119Y-45215639D02*
X74232119Y-42715639D01*
X75196404Y-45215639D02*
X75196404Y-43906115D01*
X75089261Y-43668020D01*
X74874976Y-43548972D01*
X74553547Y-43548972D01*
X74339261Y-43668020D01*
X74232119Y-43787067D01*
X76591835Y56312869D02*
X77341835Y56312869D01*
X77663263Y55003345D02*
X76591835Y55003345D01*
X76591835Y57503345D01*
X77663263Y57503345D01*
X79056121Y57503345D02*
X79484692Y57503345D01*
X79698978Y57384298D01*
X79913263Y57146202D01*
X80020406Y56670012D01*
X80020406Y55836678D01*
X79913263Y55360488D01*
X79698978Y55122393D01*
X79484692Y55003345D01*
X79056121Y55003345D01*
X78841835Y55122393D01*
X78627549Y55360488D01*
X78520406Y55836678D01*
X78520406Y56670012D01*
X78627549Y57146202D01*
X78841835Y57384298D01*
X79056121Y57503345D01*
X82270406Y55241440D02*
X82163263Y55122393D01*
X81841835Y55003345D01*
X81627549Y55003345D01*
X81306121Y55122393D01*
X81091835Y55360488D01*
X80984692Y55598583D01*
X80877549Y56074774D01*
X80877549Y56431917D01*
X80984692Y56908107D01*
X81091835Y57146202D01*
X81306121Y57384298D01*
X81627549Y57503345D01*
X81841835Y57503345D01*
X82163263Y57384298D01*
X82270406Y57265250D01*
X67053547Y-44977544D02*
X66946404Y-45096591D01*
X66624976Y-45215639D01*
X66410690Y-45215639D01*
X66089261Y-45096591D01*
X65874976Y-44858496D01*
X65767833Y-44620401D01*
X65660690Y-44144210D01*
X65660690Y-43787067D01*
X65767833Y-43310877D01*
X65874976Y-43072782D01*
X66089261Y-42834687D01*
X66410690Y-42715639D01*
X66624976Y-42715639D01*
X66946404Y-42834687D01*
X67053547Y-42953734D01*
X67696404Y-42715639D02*
X68446404Y-45215639D01*
X69196404Y-42715639D01*
X76568309Y-92039310D02*
X77318309Y-92039310D01*
X77639737Y-93348834D02*
X76568309Y-93348834D01*
X76568309Y-90848834D01*
X77639737Y-90848834D01*
X79032595Y-90848834D02*
X79461166Y-90848834D01*
X79675452Y-90967882D01*
X79889737Y-91205977D01*
X79996880Y-91682167D01*
X79996880Y-92515501D01*
X79889737Y-92991691D01*
X79675452Y-93229786D01*
X79461166Y-93348834D01*
X79032595Y-93348834D01*
X78818309Y-93229786D01*
X78604023Y-92991691D01*
X78496880Y-92515501D01*
X78496880Y-91682167D01*
X78604023Y-91205977D01*
X78818309Y-90967882D01*
X79032595Y-90848834D01*
X82246880Y-93110739D02*
X82139737Y-93229786D01*
X81818309Y-93348834D01*
X81604023Y-93348834D01*
X81282595Y-93229786D01*
X81068309Y-92991691D01*
X80961166Y-92753596D01*
X80854023Y-92277405D01*
X80854023Y-91920262D01*
X80961166Y-91444072D01*
X81068309Y-91205977D01*
X81282595Y-90967882D01*
X81604023Y-90848834D01*
X81818309Y-90848834D01*
X82139737Y-90967882D01*
X82246880Y-91086929D01*
X72495475Y-68229786D02*
X72816904Y-68348834D01*
X73352618Y-68348834D01*
X73566904Y-68229786D01*
X73674046Y-68110739D01*
X73781189Y-67872643D01*
X73781189Y-67634548D01*
X73674046Y-67396453D01*
X73566904Y-67277405D01*
X73352618Y-67158358D01*
X72924046Y-67039310D01*
X72709761Y-66920262D01*
X72602618Y-66801215D01*
X72495475Y-66563120D01*
X72495475Y-66325024D01*
X72602618Y-66086929D01*
X72709761Y-65967882D01*
X72924046Y-65848834D01*
X73459761Y-65848834D01*
X73781189Y-65967882D01*
X74745475Y-65848834D02*
X74745475Y-67872643D01*
X74852618Y-68110739D01*
X74959761Y-68229786D01*
X75174046Y-68348834D01*
X75602618Y-68348834D01*
X75816904Y-68229786D01*
X75924046Y-68110739D01*
X76031189Y-67872643D01*
X76031189Y-65848834D01*
X76995475Y-68229786D02*
X77316904Y-68348834D01*
X77852618Y-68348834D01*
X78066904Y-68229786D01*
X78174046Y-68110739D01*
X78281189Y-67872643D01*
X78281189Y-67634548D01*
X78174046Y-67396453D01*
X78066904Y-67277405D01*
X77852618Y-67158358D01*
X77424046Y-67039310D01*
X77209761Y-66920262D01*
X77102618Y-66801215D01*
X76995475Y-66563120D01*
X76995475Y-66325024D01*
X77102618Y-66086929D01*
X77209761Y-65967882D01*
X77424046Y-65848834D01*
X77959761Y-65848834D01*
X78281189Y-65967882D01*
X78924046Y-65848834D02*
X80209761Y-65848834D01*
X79566904Y-68348834D02*
X79566904Y-65848834D01*
X80852618Y-67634548D02*
X81924046Y-67634548D01*
X80638332Y-68348834D02*
X81388332Y-65848834D01*
X82138332Y-68348834D01*
X82888332Y-68348834D02*
X82888332Y-65848834D01*
X83959761Y-68348834D02*
X83959761Y-65848834D01*
X85245475Y-68348834D01*
X85245475Y-65848834D01*
X101023339Y55003345D02*
X99951911Y55003345D01*
X99951911Y57503345D01*
X101773339Y56312869D02*
X102523339Y56312869D01*
X102844768Y55003345D02*
X101773339Y55003345D01*
X101773339Y57503345D01*
X102844768Y57503345D01*
X103487625Y57503345D02*
X104237625Y55003345D01*
X104987625Y57503345D01*
X105737625Y56312869D02*
X106487625Y56312869D01*
X106809054Y55003345D02*
X105737625Y55003345D01*
X105737625Y57503345D01*
X106809054Y57503345D01*
X108844768Y55003345D02*
X107773339Y55003345D01*
X107773339Y57503345D01*
X46802109Y-90848834D02*
X48087824Y-90848834D01*
X47444966Y-93348834D02*
X47444966Y-90848834D01*
X50123538Y-93348834D02*
X49373538Y-92158358D01*
X48837824Y-93348834D02*
X48837824Y-90848834D01*
X49694966Y-90848834D01*
X49909252Y-90967882D01*
X50016395Y-91086929D01*
X50123538Y-91325024D01*
X50123538Y-91682167D01*
X50016395Y-91920262D01*
X49909252Y-92039310D01*
X49694966Y-92158358D01*
X48837824Y-92158358D01*
X51087824Y-93348834D02*
X51087824Y-90848834D01*
X53337824Y-90967882D02*
X53123538Y-90848834D01*
X52802109Y-90848834D01*
X52480681Y-90967882D01*
X52266395Y-91205977D01*
X52159252Y-91444072D01*
X52052109Y-91920262D01*
X52052109Y-92277405D01*
X52159252Y-92753596D01*
X52266395Y-92991691D01*
X52480681Y-93229786D01*
X52802109Y-93348834D01*
X53016395Y-93348834D01*
X53337824Y-93229786D01*
X53444966Y-93110739D01*
X53444966Y-92277405D01*
X53016395Y-92277405D01*
X55587824Y-90967882D02*
X55373538Y-90848834D01*
X55052109Y-90848834D01*
X54730681Y-90967882D01*
X54516395Y-91205977D01*
X54409252Y-91444072D01*
X54302109Y-91920262D01*
X54302109Y-92277405D01*
X54409252Y-92753596D01*
X54516395Y-92991691D01*
X54730681Y-93229786D01*
X55052109Y-93348834D01*
X55266395Y-93348834D01*
X55587824Y-93229786D01*
X55694966Y-93110739D01*
X55694966Y-92277405D01*
X55266395Y-92277405D01*
X56659252Y-92039310D02*
X57409252Y-92039310D01*
X57730681Y-93348834D02*
X56659252Y-93348834D01*
X56659252Y-90848834D01*
X57730681Y-90848834D01*
X59980681Y-93348834D02*
X59230681Y-92158358D01*
X58694966Y-93348834D02*
X58694966Y-90848834D01*
X59552109Y-90848834D01*
X59766395Y-90967882D01*
X59873538Y-91086929D01*
X59980681Y-91325024D01*
X59980681Y-91682167D01*
X59873538Y-91920262D01*
X59766395Y-92039310D01*
X59552109Y-92158358D01*
X58694966Y-92158358D01*
X26016457Y55241440D02*
X25909314Y55122393D01*
X25587886Y55003345D01*
X25373600Y55003345D01*
X25052171Y55122393D01*
X24837886Y55360488D01*
X24730743Y55598583D01*
X24623600Y56074774D01*
X24623600Y56431917D01*
X24730743Y56908107D01*
X24837886Y57146202D01*
X25052171Y57384298D01*
X25373600Y57503345D01*
X25587886Y57503345D01*
X25909314Y57384298D01*
X26016457Y57265250D01*
X27409314Y56193821D02*
X27409314Y55003345D01*
X26659314Y57503345D02*
X27409314Y56193821D01*
X28159314Y57503345D01*
X30195029Y55241440D02*
X30087886Y55122393D01*
X29766457Y55003345D01*
X29552171Y55003345D01*
X29230743Y55122393D01*
X29016457Y55360488D01*
X28909314Y55598583D01*
X28802171Y56074774D01*
X28802171Y56431917D01*
X28909314Y56908107D01*
X29016457Y57146202D01*
X29230743Y57384298D01*
X29552171Y57503345D01*
X29766457Y57503345D01*
X30087886Y57384298D01*
X30195029Y57265250D01*
X32230743Y55003345D02*
X31159314Y55003345D01*
X31159314Y57503345D01*
X32980743Y56312869D02*
X33730743Y56312869D01*
X34052171Y55003345D02*
X32980743Y55003345D01*
X32980743Y57503345D01*
X34052171Y57503345D01*
X104461114Y-24758559D02*
X104353971Y-24877606D01*
X104032543Y-24996654D01*
X103818257Y-24996654D01*
X103496828Y-24877606D01*
X103282543Y-24639511D01*
X103175400Y-24401416D01*
X103068257Y-23925225D01*
X103068257Y-23568082D01*
X103175400Y-23091892D01*
X103282543Y-22853797D01*
X103496828Y-22615702D01*
X103818257Y-22496654D01*
X104032543Y-22496654D01*
X104353971Y-22615702D01*
X104461114Y-22734749D01*
X105103971Y-22496654D02*
X105853971Y-24996654D01*
X106603971Y-22496654D01*
X49106376Y15003345D02*
X49106376Y17503345D01*
X49642090Y17503345D01*
X49963519Y17384298D01*
X50177804Y17146202D01*
X50284947Y16908107D01*
X50392090Y16431917D01*
X50392090Y16074774D01*
X50284947Y15598583D01*
X50177804Y15360488D01*
X49963519Y15122393D01*
X49642090Y15003345D01*
X49106376Y15003345D01*
X51356376Y16312869D02*
X52106376Y16312869D01*
X52427804Y15003345D02*
X51356376Y15003345D01*
X51356376Y17503345D01*
X52427804Y17503345D01*
X54677804Y15241440D02*
X54570662Y15122393D01*
X54249233Y15003345D01*
X54034947Y15003345D01*
X53713519Y15122393D01*
X53499233Y15360488D01*
X53392090Y15598583D01*
X53284947Y16074774D01*
X53284947Y16431917D01*
X53392090Y16908107D01*
X53499233Y17146202D01*
X53713519Y17384298D01*
X54034947Y17503345D01*
X54249233Y17503345D01*
X54570662Y17384298D01*
X54677804Y17265250D01*
X55534947Y15717631D02*
X56606376Y15717631D01*
X55320662Y15003345D02*
X56070662Y17503345D01*
X56820662Y15003345D01*
X57999233Y16193821D02*
X57999233Y15003345D01*
X57249233Y17503345D02*
X57999233Y16193821D01*
X58749233Y17503345D01*
X23645407Y-67634548D02*
X24716836Y-67634548D01*
X23431121Y-68348834D02*
X24181121Y-65848834D01*
X24931121Y-68348834D01*
X25359693Y-65848834D02*
X26645407Y-65848834D01*
X26002550Y-68348834D02*
X26002550Y-65848834D01*
X27073978Y-65848834D02*
X28359693Y-65848834D01*
X27716836Y-68348834D02*
X27716836Y-65848834D01*
X29002550Y-67634548D02*
X30073978Y-67634548D01*
X28788264Y-68348834D02*
X29538264Y-65848834D01*
X30288264Y-68348834D01*
X32323978Y-68110739D02*
X32216836Y-68229786D01*
X31895407Y-68348834D01*
X31681121Y-68348834D01*
X31359693Y-68229786D01*
X31145407Y-67991691D01*
X31038264Y-67753596D01*
X30931121Y-67277405D01*
X30931121Y-66920262D01*
X31038264Y-66444072D01*
X31145407Y-66205977D01*
X31359693Y-65967882D01*
X31681121Y-65848834D01*
X31895407Y-65848834D01*
X32216836Y-65967882D01*
X32323978Y-66086929D01*
X33288264Y-68348834D02*
X33288264Y-65848834D01*
X34573978Y-68348834D02*
X33609693Y-66920262D01*
X34573978Y-65848834D02*
X33288264Y-67277405D01*
X98357585Y15003345D02*
X97607585Y16193821D01*
X97071871Y15003345D02*
X97071871Y17503345D01*
X97929014Y17503345D01*
X98143299Y17384298D01*
X98250442Y17265250D01*
X98357585Y17027155D01*
X98357585Y16670012D01*
X98250442Y16431917D01*
X98143299Y16312869D01*
X97929014Y16193821D01*
X97071871Y16193821D01*
X99321871Y16312869D02*
X100071871Y16312869D01*
X100393299Y15003345D02*
X99321871Y15003345D01*
X99321871Y17503345D01*
X100393299Y17503345D01*
X102429014Y15003345D02*
X101357585Y15003345D01*
X101357585Y17503345D01*
X103179014Y16312869D02*
X103929014Y16312869D01*
X104250442Y15003345D02*
X103179014Y15003345D01*
X103179014Y17503345D01*
X104250442Y17503345D01*
X105107585Y15717631D02*
X106179014Y15717631D01*
X104893299Y15003345D02*
X105643299Y17503345D01*
X106393299Y15003345D01*
X107036157Y15122393D02*
X107357585Y15003345D01*
X107893299Y15003345D01*
X108107585Y15122393D01*
X108214728Y15241440D01*
X108321871Y15479536D01*
X108321871Y15717631D01*
X108214728Y15955726D01*
X108107585Y16074774D01*
X107893299Y16193821D01*
X107464728Y16312869D01*
X107250442Y16431917D01*
X107143299Y16550964D01*
X107036157Y16789059D01*
X107036157Y17027155D01*
X107143299Y17265250D01*
X107250442Y17384298D01*
X107464728Y17503345D01*
X108000442Y17503345D01*
X108321871Y17384298D01*
X109286157Y16312869D02*
X110036157Y16312869D01*
X110357585Y15003345D02*
X109286157Y15003345D01*
X109286157Y17503345D01*
X110357585Y17503345D01*
X54461114Y-24758559D02*
X54353971Y-24877606D01*
X54032543Y-24996654D01*
X53818257Y-24996654D01*
X53496828Y-24877606D01*
X53282543Y-24639511D01*
X53175400Y-24401416D01*
X53068257Y-23925225D01*
X53068257Y-23568082D01*
X53175400Y-23091892D01*
X53282543Y-22853797D01*
X53496828Y-22615702D01*
X53818257Y-22496654D01*
X54032543Y-22496654D01*
X54353971Y-22615702D01*
X54461114Y-22734749D01*
X55103971Y-22496654D02*
X55853971Y-24996654D01*
X56603971Y-22496654D01*
X26170397Y-90967882D02*
X25956112Y-90848834D01*
X25634683Y-90848834D01*
X25313254Y-90967882D01*
X25098969Y-91205977D01*
X24991826Y-91444072D01*
X24884683Y-91920262D01*
X24884683Y-92277405D01*
X24991826Y-92753596D01*
X25098969Y-92991691D01*
X25313254Y-93229786D01*
X25634683Y-93348834D01*
X25848969Y-93348834D01*
X26170397Y-93229786D01*
X26277540Y-93110739D01*
X26277540Y-92277405D01*
X25848969Y-92277405D01*
X27134683Y-92634548D02*
X28206112Y-92634548D01*
X26920397Y-93348834D02*
X27670397Y-90848834D01*
X28420397Y-93348834D01*
X28848969Y-90848834D02*
X30134683Y-90848834D01*
X29491826Y-93348834D02*
X29491826Y-90848834D01*
X30884683Y-92039310D02*
X31634683Y-92039310D01*
X31956112Y-93348834D02*
X30884683Y-93348834D01*
X30884683Y-90848834D01*
X31956112Y-90848834D01*
X49106376Y-68348834D02*
X49106376Y-65848834D01*
X49642090Y-65848834D01*
X49963519Y-65967882D01*
X50177804Y-66205977D01*
X50284947Y-66444072D01*
X50392090Y-66920262D01*
X50392090Y-67277405D01*
X50284947Y-67753596D01*
X50177804Y-67991691D01*
X49963519Y-68229786D01*
X49642090Y-68348834D01*
X49106376Y-68348834D01*
X51356376Y-67039310D02*
X52106376Y-67039310D01*
X52427804Y-68348834D02*
X51356376Y-68348834D01*
X51356376Y-65848834D01*
X52427804Y-65848834D01*
X54677804Y-68110739D02*
X54570662Y-68229786D01*
X54249233Y-68348834D01*
X54034947Y-68348834D01*
X53713519Y-68229786D01*
X53499233Y-67991691D01*
X53392090Y-67753596D01*
X53284947Y-67277405D01*
X53284947Y-66920262D01*
X53392090Y-66444072D01*
X53499233Y-66205977D01*
X53713519Y-65967882D01*
X54034947Y-65848834D01*
X54249233Y-65848834D01*
X54570662Y-65967882D01*
X54677804Y-66086929D01*
X55534947Y-67634548D02*
X56606376Y-67634548D01*
X55320662Y-68348834D02*
X56070662Y-65848834D01*
X56820662Y-68348834D01*
X57999233Y-67158358D02*
X57999233Y-68348834D01*
X57249233Y-65848834D02*
X57999233Y-67158358D01*
X58749233Y-65848834D01*
X29461114Y-24758559D02*
X29353971Y-24877606D01*
X29032543Y-24996654D01*
X28818257Y-24996654D01*
X28496828Y-24877606D01*
X28282543Y-24639511D01*
X28175400Y-24401416D01*
X28068257Y-23925225D01*
X28068257Y-23568082D01*
X28175400Y-23091892D01*
X28282543Y-22853797D01*
X28496828Y-22615702D01*
X28818257Y-22496654D01*
X29032543Y-22496654D01*
X29353971Y-22615702D01*
X29461114Y-22734749D01*
X30103971Y-22496654D02*
X30853971Y-24996654D01*
X31603971Y-22496654D01*
X101023339Y55003345D02*
X99951911Y55003345D01*
X99951911Y57503345D01*
X101773339Y56312869D02*
X102523339Y56312869D01*
X102844768Y55003345D02*
X101773339Y55003345D01*
X101773339Y57503345D01*
X102844768Y57503345D01*
X103487625Y57503345D02*
X104237625Y55003345D01*
X104987625Y57503345D01*
X105737625Y56312869D02*
X106487625Y56312869D01*
X106809054Y55003345D02*
X105737625Y55003345D01*
X105737625Y57503345D01*
X106809054Y57503345D01*
X108844768Y55003345D02*
X107773339Y55003345D01*
X107773339Y57503345D01*
X49106376Y-68348834D02*
X49106376Y-65848834D01*
X49642090Y-65848834D01*
X49963519Y-65967882D01*
X50177804Y-66205977D01*
X50284947Y-66444072D01*
X50392090Y-66920262D01*
X50392090Y-67277405D01*
X50284947Y-67753596D01*
X50177804Y-67991691D01*
X49963519Y-68229786D01*
X49642090Y-68348834D01*
X49106376Y-68348834D01*
X51356376Y-67039310D02*
X52106376Y-67039310D01*
X52427804Y-68348834D02*
X51356376Y-68348834D01*
X51356376Y-65848834D01*
X52427804Y-65848834D01*
X54677804Y-68110739D02*
X54570662Y-68229786D01*
X54249233Y-68348834D01*
X54034947Y-68348834D01*
X53713519Y-68229786D01*
X53499233Y-67991691D01*
X53392090Y-67753596D01*
X53284947Y-67277405D01*
X53284947Y-66920262D01*
X53392090Y-66444072D01*
X53499233Y-66205977D01*
X53713519Y-65967882D01*
X54034947Y-65848834D01*
X54249233Y-65848834D01*
X54570662Y-65967882D01*
X54677804Y-66086929D01*
X55534947Y-67634548D02*
X56606376Y-67634548D01*
X55320662Y-68348834D02*
X56070662Y-65848834D01*
X56820662Y-68348834D01*
X57999233Y-67158358D02*
X57999233Y-68348834D01*
X57249233Y-65848834D02*
X57999233Y-67158358D01*
X58749233Y-65848834D01*
X23645407Y15717631D02*
X24716836Y15717631D01*
X23431121Y15003345D02*
X24181121Y17503345D01*
X24931121Y15003345D01*
X25359693Y17503345D02*
X26645407Y17503345D01*
X26002550Y15003345D02*
X26002550Y17503345D01*
X27073978Y17503345D02*
X28359693Y17503345D01*
X27716836Y15003345D02*
X27716836Y17503345D01*
X29002550Y15717631D02*
X30073978Y15717631D01*
X28788264Y15003345D02*
X29538264Y17503345D01*
X30288264Y15003345D01*
X32323978Y15241440D02*
X32216836Y15122393D01*
X31895407Y15003345D01*
X31681121Y15003345D01*
X31359693Y15122393D01*
X31145407Y15360488D01*
X31038264Y15598583D01*
X30931121Y16074774D01*
X30931121Y16431917D01*
X31038264Y16908107D01*
X31145407Y17146202D01*
X31359693Y17384298D01*
X31681121Y17503345D01*
X31895407Y17503345D01*
X32216836Y17384298D01*
X32323978Y17265250D01*
X33288264Y15003345D02*
X33288264Y17503345D01*
X34573978Y15003345D02*
X33609693Y16431917D01*
X34573978Y17503345D02*
X33288264Y16074774D01*
X49106376Y15003345D02*
X49106376Y17503345D01*
X49642090Y17503345D01*
X49963519Y17384298D01*
X50177804Y17146202D01*
X50284947Y16908107D01*
X50392090Y16431917D01*
X50392090Y16074774D01*
X50284947Y15598583D01*
X50177804Y15360488D01*
X49963519Y15122393D01*
X49642090Y15003345D01*
X49106376Y15003345D01*
X51356376Y16312869D02*
X52106376Y16312869D01*
X52427804Y15003345D02*
X51356376Y15003345D01*
X51356376Y17503345D01*
X52427804Y17503345D01*
X54677804Y15241440D02*
X54570662Y15122393D01*
X54249233Y15003345D01*
X54034947Y15003345D01*
X53713519Y15122393D01*
X53499233Y15360488D01*
X53392090Y15598583D01*
X53284947Y16074774D01*
X53284947Y16431917D01*
X53392090Y16908107D01*
X53499233Y17146202D01*
X53713519Y17384298D01*
X54034947Y17503345D01*
X54249233Y17503345D01*
X54570662Y17384298D01*
X54677804Y17265250D01*
X55534947Y15717631D02*
X56606376Y15717631D01*
X55320662Y15003345D02*
X56070662Y17503345D01*
X56820662Y15003345D01*
X57999233Y16193821D02*
X57999233Y15003345D01*
X57249233Y17503345D02*
X57999233Y16193821D01*
X58749233Y17503345D01*
X23645407Y15717631D02*
X24716836Y15717631D01*
X23431121Y15003345D02*
X24181121Y17503345D01*
X24931121Y15003345D01*
X25359693Y17503345D02*
X26645407Y17503345D01*
X26002550Y15003345D02*
X26002550Y17503345D01*
X27073978Y17503345D02*
X28359693Y17503345D01*
X27716836Y15003345D02*
X27716836Y17503345D01*
X29002550Y15717631D02*
X30073978Y15717631D01*
X28788264Y15003345D02*
X29538264Y17503345D01*
X30288264Y15003345D01*
X32323978Y15241440D02*
X32216836Y15122393D01*
X31895407Y15003345D01*
X31681121Y15003345D01*
X31359693Y15122393D01*
X31145407Y15360488D01*
X31038264Y15598583D01*
X30931121Y16074774D01*
X30931121Y16431917D01*
X31038264Y16908107D01*
X31145407Y17146202D01*
X31359693Y17384298D01*
X31681121Y17503345D01*
X31895407Y17503345D01*
X32216836Y17384298D01*
X32323978Y17265250D01*
X33288264Y15003345D02*
X33288264Y17503345D01*
X34573978Y15003345D02*
X33609693Y16431917D01*
X34573978Y17503345D02*
X33288264Y16074774D01*
D12*
X63770075Y-119757651D02*
X62912932Y-119757651D01*
X62484360Y-119995747D01*
X62270075Y-120233842D01*
X61841503Y-120948127D01*
X61627217Y-121900508D01*
X61627217Y-123805270D01*
X61841503Y-124281461D01*
X62055789Y-124519556D01*
X62484360Y-124757651D01*
X63341503Y-124757651D01*
X63770075Y-124519556D01*
X63984360Y-124281461D01*
X64198646Y-123805270D01*
X64198646Y-122614794D01*
X63984360Y-122138604D01*
X63770075Y-121900508D01*
X63341503Y-121662413D01*
X62484360Y-121662413D01*
X62055789Y-121900508D01*
X61841503Y-122138604D01*
X61627217Y-122614794D01*
X69555789Y-122852889D02*
X72984360Y-122852889D01*
X71270075Y-124757651D02*
X71270075Y-120948127D01*
X80912932Y-124757651D02*
X78341503Y-124757651D01*
X79627217Y-124757651D02*
X79627217Y-119757651D01*
X79198646Y-120471937D01*
X78770075Y-120948127D01*
X78341503Y-121186223D01*
D11*
X26170397Y-90967882D02*
X25956112Y-90848834D01*
X25634683Y-90848834D01*
X25313254Y-90967882D01*
X25098969Y-91205977D01*
X24991826Y-91444072D01*
X24884683Y-91920262D01*
X24884683Y-92277405D01*
X24991826Y-92753596D01*
X25098969Y-92991691D01*
X25313254Y-93229786D01*
X25634683Y-93348834D01*
X25848969Y-93348834D01*
X26170397Y-93229786D01*
X26277540Y-93110739D01*
X26277540Y-92277405D01*
X25848969Y-92277405D01*
X27134683Y-92634548D02*
X28206112Y-92634548D01*
X26920397Y-93348834D02*
X27670397Y-90848834D01*
X28420397Y-93348834D01*
X28848969Y-90848834D02*
X30134683Y-90848834D01*
X29491826Y-93348834D02*
X29491826Y-90848834D01*
X30884683Y-92039310D02*
X31634683Y-92039310D01*
X31956112Y-93348834D02*
X30884683Y-93348834D01*
X30884683Y-90848834D01*
X31956112Y-90848834D01*
X48107713Y55717631D02*
X49179142Y55717631D01*
X47893427Y55003345D02*
X48643427Y57503345D01*
X49393427Y55003345D01*
X50143427Y55003345D02*
X50143427Y57503345D01*
X50679142Y57503345D01*
X51000570Y57384298D01*
X51214856Y57146202D01*
X51321999Y56908107D01*
X51429142Y56431917D01*
X51429142Y56074774D01*
X51321999Y55598583D01*
X51214856Y55360488D01*
X51000570Y55122393D01*
X50679142Y55003345D01*
X50143427Y55003345D01*
X55714856Y57622393D02*
X53786284Y54408107D01*
X58071999Y55717631D02*
X59143427Y55717631D01*
X57857713Y55003345D02*
X58607713Y57503345D01*
X59357713Y55003345D01*
X60107713Y55003345D02*
X60107713Y57503345D01*
X60643427Y57503345D01*
X60964856Y57384298D01*
X61179142Y57146202D01*
X61286284Y56908107D01*
X61393427Y56431917D01*
X61393427Y56074774D01*
X61286284Y55598583D01*
X61179142Y55360488D01*
X60964856Y55122393D01*
X60643427Y55003345D01*
X60107713Y55003345D01*
X62250570Y55122393D02*
X62571999Y55003345D01*
X63107713Y55003345D01*
X63321999Y55122393D01*
X63429142Y55241440D01*
X63536284Y55479536D01*
X63536284Y55717631D01*
X63429142Y55955726D01*
X63321999Y56074774D01*
X63107713Y56193821D01*
X62679142Y56312869D01*
X62464856Y56431917D01*
X62357713Y56550964D01*
X62250570Y56789059D01*
X62250570Y57027155D01*
X62357713Y57265250D01*
X62464856Y57384298D01*
X62679142Y57503345D01*
X63214856Y57503345D01*
X63536284Y57384298D01*
X65786284Y55003345D02*
X65036284Y56193821D01*
X64500570Y55003345D02*
X64500570Y57503345D01*
X65357713Y57503345D01*
X65571999Y57384298D01*
X65679142Y57265250D01*
X65786284Y57027155D01*
X65786284Y56670012D01*
X65679142Y56431917D01*
X65571999Y56312869D01*
X65357713Y56193821D01*
X64500570Y56193821D01*
D12*
X58900629Y65668501D02*
X57400629Y65668501D01*
X57400629Y63049454D02*
X57400629Y68049454D01*
X59543486Y68049454D01*
X61043486Y64478025D02*
X63186343Y64478025D01*
X60614915Y63049454D02*
X62114915Y68049454D01*
X63614915Y63049454D01*
X67686343Y63049454D02*
X66186343Y65430406D01*
X65114915Y63049454D02*
X65114915Y68049454D01*
X66829201Y68049454D01*
X67257772Y67811359D01*
X67472058Y67573263D01*
X67686343Y67097073D01*
X67686343Y66382787D01*
X67472058Y65906597D01*
X67257772Y65668501D01*
X66829201Y65430406D01*
X65114915Y65430406D01*
X69614915Y63049454D02*
X69614915Y68049454D01*
X71757772Y63049454D02*
X71757772Y68049454D01*
X74329201Y63049454D01*
X74329201Y68049454D01*
X76472058Y63049454D02*
X76472058Y68049454D01*
D11*
X101837915Y-90848834D02*
X102266487Y-90848834D01*
X102480772Y-90967882D01*
X102695058Y-91205977D01*
X102802201Y-91682167D01*
X102802201Y-92515501D01*
X102695058Y-92991691D01*
X102480772Y-93229786D01*
X102266487Y-93348834D01*
X101837915Y-93348834D01*
X101623630Y-93229786D01*
X101409344Y-92991691D01*
X101302201Y-92515501D01*
X101302201Y-91682167D01*
X101409344Y-91205977D01*
X101623630Y-90967882D01*
X101837915Y-90848834D01*
X103766487Y-90848834D02*
X103766487Y-92872643D01*
X103873630Y-93110739D01*
X103980772Y-93229786D01*
X104195058Y-93348834D01*
X104623630Y-93348834D01*
X104837915Y-93229786D01*
X104945058Y-93110739D01*
X105052201Y-92872643D01*
X105052201Y-90848834D01*
X105802201Y-90848834D02*
X107087915Y-90848834D01*
X106445058Y-93348834D02*
X106445058Y-90848834D01*
X79461114Y-24758559D02*
X79353971Y-24877606D01*
X79032543Y-24996654D01*
X78818257Y-24996654D01*
X78496828Y-24877606D01*
X78282543Y-24639511D01*
X78175400Y-24401416D01*
X78068257Y-23925225D01*
X78068257Y-23568082D01*
X78175400Y-23091892D01*
X78282543Y-22853797D01*
X78496828Y-22615702D01*
X78818257Y-22496654D01*
X79032543Y-22496654D01*
X79353971Y-22615702D01*
X79461114Y-22734749D01*
X80103971Y-22496654D02*
X80853971Y-24996654D01*
X81603971Y-22496654D01*
D12*
X58900629Y65668501D02*
X57400629Y65668501D01*
X57400629Y63049454D02*
X57400629Y68049454D01*
X59543486Y68049454D01*
X61043486Y64478025D02*
X63186343Y64478025D01*
X60614915Y63049454D02*
X62114915Y68049454D01*
X63614915Y63049454D01*
X67686343Y63049454D02*
X66186343Y65430406D01*
X65114915Y63049454D02*
X65114915Y68049454D01*
X66829201Y68049454D01*
X67257772Y67811359D01*
X67472058Y67573263D01*
X67686343Y67097073D01*
X67686343Y66382787D01*
X67472058Y65906597D01*
X67257772Y65668501D01*
X66829201Y65430406D01*
X65114915Y65430406D01*
X69614915Y63049454D02*
X69614915Y68049454D01*
X71757772Y63049454D02*
X71757772Y68049454D01*
X74329201Y63049454D01*
X74329201Y68049454D01*
X76472058Y63049454D02*
X76472058Y68049454D01*
D11*
X23645407Y-67634548D02*
X24716836Y-67634548D01*
X23431121Y-68348834D02*
X24181121Y-65848834D01*
X24931121Y-68348834D01*
X25359693Y-65848834D02*
X26645407Y-65848834D01*
X26002550Y-68348834D02*
X26002550Y-65848834D01*
X27073978Y-65848834D02*
X28359693Y-65848834D01*
X27716836Y-68348834D02*
X27716836Y-65848834D01*
X29002550Y-67634548D02*
X30073978Y-67634548D01*
X28788264Y-68348834D02*
X29538264Y-65848834D01*
X30288264Y-68348834D01*
X32323978Y-68110739D02*
X32216836Y-68229786D01*
X31895407Y-68348834D01*
X31681121Y-68348834D01*
X31359693Y-68229786D01*
X31145407Y-67991691D01*
X31038264Y-67753596D01*
X30931121Y-67277405D01*
X30931121Y-66920262D01*
X31038264Y-66444072D01*
X31145407Y-66205977D01*
X31359693Y-65967882D01*
X31681121Y-65848834D01*
X31895407Y-65848834D01*
X32216836Y-65967882D01*
X32323978Y-66086929D01*
X33288264Y-68348834D02*
X33288264Y-65848834D01*
X34573978Y-68348834D02*
X33609693Y-66920262D01*
X34573978Y-65848834D02*
X33288264Y-67277405D01*
X46802109Y-90848834D02*
X48087824Y-90848834D01*
X47444966Y-93348834D02*
X47444966Y-90848834D01*
X50123538Y-93348834D02*
X49373538Y-92158358D01*
X48837824Y-93348834D02*
X48837824Y-90848834D01*
X49694966Y-90848834D01*
X49909252Y-90967882D01*
X50016395Y-91086929D01*
X50123538Y-91325024D01*
X50123538Y-91682167D01*
X50016395Y-91920262D01*
X49909252Y-92039310D01*
X49694966Y-92158358D01*
X48837824Y-92158358D01*
X51087824Y-93348834D02*
X51087824Y-90848834D01*
X53337824Y-90967882D02*
X53123538Y-90848834D01*
X52802109Y-90848834D01*
X52480681Y-90967882D01*
X52266395Y-91205977D01*
X52159252Y-91444072D01*
X52052109Y-91920262D01*
X52052109Y-92277405D01*
X52159252Y-92753596D01*
X52266395Y-92991691D01*
X52480681Y-93229786D01*
X52802109Y-93348834D01*
X53016395Y-93348834D01*
X53337824Y-93229786D01*
X53444966Y-93110739D01*
X53444966Y-92277405D01*
X53016395Y-92277405D01*
X55587824Y-90967882D02*
X55373538Y-90848834D01*
X55052109Y-90848834D01*
X54730681Y-90967882D01*
X54516395Y-91205977D01*
X54409252Y-91444072D01*
X54302109Y-91920262D01*
X54302109Y-92277405D01*
X54409252Y-92753596D01*
X54516395Y-92991691D01*
X54730681Y-93229786D01*
X55052109Y-93348834D01*
X55266395Y-93348834D01*
X55587824Y-93229786D01*
X55694966Y-93110739D01*
X55694966Y-92277405D01*
X55266395Y-92277405D01*
X56659252Y-92039310D02*
X57409252Y-92039310D01*
X57730681Y-93348834D02*
X56659252Y-93348834D01*
X56659252Y-90848834D01*
X57730681Y-90848834D01*
X59980681Y-93348834D02*
X59230681Y-92158358D01*
X58694966Y-93348834D02*
X58694966Y-90848834D01*
X59552109Y-90848834D01*
X59766395Y-90967882D01*
X59873538Y-91086929D01*
X59980681Y-91325024D01*
X59980681Y-91682167D01*
X59873538Y-91920262D01*
X59766395Y-92039310D01*
X59552109Y-92158358D01*
X58694966Y-92158358D01*
X72495475Y-68229786D02*
X72816904Y-68348834D01*
X73352618Y-68348834D01*
X73566904Y-68229786D01*
X73674046Y-68110739D01*
X73781189Y-67872643D01*
X73781189Y-67634548D01*
X73674046Y-67396453D01*
X73566904Y-67277405D01*
X73352618Y-67158358D01*
X72924046Y-67039310D01*
X72709761Y-66920262D01*
X72602618Y-66801215D01*
X72495475Y-66563120D01*
X72495475Y-66325024D01*
X72602618Y-66086929D01*
X72709761Y-65967882D01*
X72924046Y-65848834D01*
X73459761Y-65848834D01*
X73781189Y-65967882D01*
X74745475Y-65848834D02*
X74745475Y-67872643D01*
X74852618Y-68110739D01*
X74959761Y-68229786D01*
X75174046Y-68348834D01*
X75602618Y-68348834D01*
X75816904Y-68229786D01*
X75924046Y-68110739D01*
X76031189Y-67872643D01*
X76031189Y-65848834D01*
X76995475Y-68229786D02*
X77316904Y-68348834D01*
X77852618Y-68348834D01*
X78066904Y-68229786D01*
X78174046Y-68110739D01*
X78281189Y-67872643D01*
X78281189Y-67634548D01*
X78174046Y-67396453D01*
X78066904Y-67277405D01*
X77852618Y-67158358D01*
X77424046Y-67039310D01*
X77209761Y-66920262D01*
X77102618Y-66801215D01*
X76995475Y-66563120D01*
X76995475Y-66325024D01*
X77102618Y-66086929D01*
X77209761Y-65967882D01*
X77424046Y-65848834D01*
X77959761Y-65848834D01*
X78281189Y-65967882D01*
X78924046Y-65848834D02*
X80209761Y-65848834D01*
X79566904Y-68348834D02*
X79566904Y-65848834D01*
X80852618Y-67634548D02*
X81924046Y-67634548D01*
X80638332Y-68348834D02*
X81388332Y-65848834D01*
X82138332Y-68348834D01*
X82888332Y-68348834D02*
X82888332Y-65848834D01*
X83959761Y-68348834D02*
X83959761Y-65848834D01*
X85245475Y-68348834D01*
X85245475Y-65848834D01*
X26016457Y55241440D02*
X25909314Y55122393D01*
X25587886Y55003345D01*
X25373600Y55003345D01*
X25052171Y55122393D01*
X24837886Y55360488D01*
X24730743Y55598583D01*
X24623600Y56074774D01*
X24623600Y56431917D01*
X24730743Y56908107D01*
X24837886Y57146202D01*
X25052171Y57384298D01*
X25373600Y57503345D01*
X25587886Y57503345D01*
X25909314Y57384298D01*
X26016457Y57265250D01*
X27409314Y56193821D02*
X27409314Y55003345D01*
X26659314Y57503345D02*
X27409314Y56193821D01*
X28159314Y57503345D01*
X30195029Y55241440D02*
X30087886Y55122393D01*
X29766457Y55003345D01*
X29552171Y55003345D01*
X29230743Y55122393D01*
X29016457Y55360488D01*
X28909314Y55598583D01*
X28802171Y56074774D01*
X28802171Y56431917D01*
X28909314Y56908107D01*
X29016457Y57146202D01*
X29230743Y57384298D01*
X29552171Y57503345D01*
X29766457Y57503345D01*
X30087886Y57384298D01*
X30195029Y57265250D01*
X32230743Y55003345D02*
X31159314Y55003345D01*
X31159314Y57503345D01*
X32980743Y56312869D02*
X33730743Y56312869D01*
X34052171Y55003345D02*
X32980743Y55003345D01*
X32980743Y57503345D01*
X34052171Y57503345D01*
X54461114Y-24758559D02*
X54353971Y-24877606D01*
X54032543Y-24996654D01*
X53818257Y-24996654D01*
X53496828Y-24877606D01*
X53282543Y-24639511D01*
X53175400Y-24401416D01*
X53068257Y-23925225D01*
X53068257Y-23568082D01*
X53175400Y-23091892D01*
X53282543Y-22853797D01*
X53496828Y-22615702D01*
X53818257Y-22496654D01*
X54032543Y-22496654D01*
X54353971Y-22615702D01*
X54461114Y-22734749D01*
X55103971Y-22496654D02*
X55853971Y-24996654D01*
X56603971Y-22496654D01*
X98357585Y-68348834D02*
X97607585Y-67158358D01*
X97071871Y-68348834D02*
X97071871Y-65848834D01*
X97929014Y-65848834D01*
X98143299Y-65967882D01*
X98250442Y-66086929D01*
X98357585Y-66325024D01*
X98357585Y-66682167D01*
X98250442Y-66920262D01*
X98143299Y-67039310D01*
X97929014Y-67158358D01*
X97071871Y-67158358D01*
X99321871Y-67039310D02*
X100071871Y-67039310D01*
X100393299Y-68348834D02*
X99321871Y-68348834D01*
X99321871Y-65848834D01*
X100393299Y-65848834D01*
X102429014Y-68348834D02*
X101357585Y-68348834D01*
X101357585Y-65848834D01*
X103179014Y-67039310D02*
X103929014Y-67039310D01*
X104250442Y-68348834D02*
X103179014Y-68348834D01*
X103179014Y-65848834D01*
X104250442Y-65848834D01*
X105107585Y-67634548D02*
X106179014Y-67634548D01*
X104893299Y-68348834D02*
X105643299Y-65848834D01*
X106393299Y-68348834D01*
X107036157Y-68229786D02*
X107357585Y-68348834D01*
X107893299Y-68348834D01*
X108107585Y-68229786D01*
X108214728Y-68110739D01*
X108321871Y-67872643D01*
X108321871Y-67634548D01*
X108214728Y-67396453D01*
X108107585Y-67277405D01*
X107893299Y-67158358D01*
X107464728Y-67039310D01*
X107250442Y-66920262D01*
X107143299Y-66801215D01*
X107036157Y-66563120D01*
X107036157Y-66325024D01*
X107143299Y-66086929D01*
X107250442Y-65967882D01*
X107464728Y-65848834D01*
X108000442Y-65848834D01*
X108321871Y-65967882D01*
X109286157Y-67039310D02*
X110036157Y-67039310D01*
X110357585Y-68348834D02*
X109286157Y-68348834D01*
X109286157Y-65848834D01*
X110357585Y-65848834D01*
X72495475Y15122393D02*
X72816904Y15003345D01*
X73352618Y15003345D01*
X73566904Y15122393D01*
X73674046Y15241440D01*
X73781189Y15479536D01*
X73781189Y15717631D01*
X73674046Y15955726D01*
X73566904Y16074774D01*
X73352618Y16193821D01*
X72924046Y16312869D01*
X72709761Y16431917D01*
X72602618Y16550964D01*
X72495475Y16789059D01*
X72495475Y17027155D01*
X72602618Y17265250D01*
X72709761Y17384298D01*
X72924046Y17503345D01*
X73459761Y17503345D01*
X73781189Y17384298D01*
X74745475Y17503345D02*
X74745475Y15479536D01*
X74852618Y15241440D01*
X74959761Y15122393D01*
X75174046Y15003345D01*
X75602618Y15003345D01*
X75816904Y15122393D01*
X75924046Y15241440D01*
X76031189Y15479536D01*
X76031189Y17503345D01*
X76995475Y15122393D02*
X77316904Y15003345D01*
X77852618Y15003345D01*
X78066904Y15122393D01*
X78174046Y15241440D01*
X78281189Y15479536D01*
X78281189Y15717631D01*
X78174046Y15955726D01*
X78066904Y16074774D01*
X77852618Y16193821D01*
X77424046Y16312869D01*
X77209761Y16431917D01*
X77102618Y16550964D01*
X76995475Y16789059D01*
X76995475Y17027155D01*
X77102618Y17265250D01*
X77209761Y17384298D01*
X77424046Y17503345D01*
X77959761Y17503345D01*
X78281189Y17384298D01*
X78924046Y17503345D02*
X80209761Y17503345D01*
X79566904Y15003345D02*
X79566904Y17503345D01*
X80852618Y15717631D02*
X81924046Y15717631D01*
X80638332Y15003345D02*
X81388332Y17503345D01*
X82138332Y15003345D01*
X82888332Y15003345D02*
X82888332Y17503345D01*
X83959761Y15003345D02*
X83959761Y17503345D01*
X85245475Y15003345D01*
X85245475Y17503345D01*
X98357585Y-68348834D02*
X97607585Y-67158358D01*
X97071871Y-68348834D02*
X97071871Y-65848834D01*
X97929014Y-65848834D01*
X98143299Y-65967882D01*
X98250442Y-66086929D01*
X98357585Y-66325024D01*
X98357585Y-66682167D01*
X98250442Y-66920262D01*
X98143299Y-67039310D01*
X97929014Y-67158358D01*
X97071871Y-67158358D01*
X99321871Y-67039310D02*
X100071871Y-67039310D01*
X100393299Y-68348834D02*
X99321871Y-68348834D01*
X99321871Y-65848834D01*
X100393299Y-65848834D01*
X102429014Y-68348834D02*
X101357585Y-68348834D01*
X101357585Y-65848834D01*
X103179014Y-67039310D02*
X103929014Y-67039310D01*
X104250442Y-68348834D02*
X103179014Y-68348834D01*
X103179014Y-65848834D01*
X104250442Y-65848834D01*
X105107585Y-67634548D02*
X106179014Y-67634548D01*
X104893299Y-68348834D02*
X105643299Y-65848834D01*
X106393299Y-68348834D01*
X107036157Y-68229786D02*
X107357585Y-68348834D01*
X107893299Y-68348834D01*
X108107585Y-68229786D01*
X108214728Y-68110739D01*
X108321871Y-67872643D01*
X108321871Y-67634548D01*
X108214728Y-67396453D01*
X108107585Y-67277405D01*
X107893299Y-67158358D01*
X107464728Y-67039310D01*
X107250442Y-66920262D01*
X107143299Y-66801215D01*
X107036157Y-66563120D01*
X107036157Y-66325024D01*
X107143299Y-66086929D01*
X107250442Y-65967882D01*
X107464728Y-65848834D01*
X108000442Y-65848834D01*
X108321871Y-65967882D01*
X109286157Y-67039310D02*
X110036157Y-67039310D01*
X110357585Y-68348834D02*
X109286157Y-68348834D01*
X109286157Y-65848834D01*
X110357585Y-65848834D01*
X104461114Y-24758559D02*
X104353971Y-24877606D01*
X104032543Y-24996654D01*
X103818257Y-24996654D01*
X103496828Y-24877606D01*
X103282543Y-24639511D01*
X103175400Y-24401416D01*
X103068257Y-23925225D01*
X103068257Y-23568082D01*
X103175400Y-23091892D01*
X103282543Y-22853797D01*
X103496828Y-22615702D01*
X103818257Y-22496654D01*
X104032543Y-22496654D01*
X104353971Y-22615702D01*
X104461114Y-22734749D01*
X105103971Y-22496654D02*
X105853971Y-24996654D01*
X106603971Y-22496654D01*
X72495475Y15122393D02*
X72816904Y15003345D01*
X73352618Y15003345D01*
X73566904Y15122393D01*
X73674046Y15241440D01*
X73781189Y15479536D01*
X73781189Y15717631D01*
X73674046Y15955726D01*
X73566904Y16074774D01*
X73352618Y16193821D01*
X72924046Y16312869D01*
X72709761Y16431917D01*
X72602618Y16550964D01*
X72495475Y16789059D01*
X72495475Y17027155D01*
X72602618Y17265250D01*
X72709761Y17384298D01*
X72924046Y17503345D01*
X73459761Y17503345D01*
X73781189Y17384298D01*
X74745475Y17503345D02*
X74745475Y15479536D01*
X74852618Y15241440D01*
X74959761Y15122393D01*
X75174046Y15003345D01*
X75602618Y15003345D01*
X75816904Y15122393D01*
X75924046Y15241440D01*
X76031189Y15479536D01*
X76031189Y17503345D01*
X76995475Y15122393D02*
X77316904Y15003345D01*
X77852618Y15003345D01*
X78066904Y15122393D01*
X78174046Y15241440D01*
X78281189Y15479536D01*
X78281189Y15717631D01*
X78174046Y15955726D01*
X78066904Y16074774D01*
X77852618Y16193821D01*
X77424046Y16312869D01*
X77209761Y16431917D01*
X77102618Y16550964D01*
X76995475Y16789059D01*
X76995475Y17027155D01*
X77102618Y17265250D01*
X77209761Y17384298D01*
X77424046Y17503345D01*
X77959761Y17503345D01*
X78281189Y17384298D01*
X78924046Y17503345D02*
X80209761Y17503345D01*
X79566904Y15003345D02*
X79566904Y17503345D01*
X80852618Y15717631D02*
X81924046Y15717631D01*
X80638332Y15003345D02*
X81388332Y17503345D01*
X82138332Y15003345D01*
X82888332Y15003345D02*
X82888332Y17503345D01*
X83959761Y15003345D02*
X83959761Y17503345D01*
X85245475Y15003345D01*
X85245475Y17503345D01*
X76591835Y56312869D02*
X77341835Y56312869D01*
X77663263Y55003345D02*
X76591835Y55003345D01*
X76591835Y57503345D01*
X77663263Y57503345D01*
X79056121Y57503345D02*
X79484692Y57503345D01*
X79698978Y57384298D01*
X79913263Y57146202D01*
X80020406Y56670012D01*
X80020406Y55836678D01*
X79913263Y55360488D01*
X79698978Y55122393D01*
X79484692Y55003345D01*
X79056121Y55003345D01*
X78841835Y55122393D01*
X78627549Y55360488D01*
X78520406Y55836678D01*
X78520406Y56670012D01*
X78627549Y57146202D01*
X78841835Y57384298D01*
X79056121Y57503345D01*
X82270406Y55241440D02*
X82163263Y55122393D01*
X81841835Y55003345D01*
X81627549Y55003345D01*
X81306121Y55122393D01*
X81091835Y55360488D01*
X80984692Y55598583D01*
X80877549Y56074774D01*
X80877549Y56431917D01*
X80984692Y56908107D01*
X81091835Y57146202D01*
X81306121Y57384298D01*
X81627549Y57503345D01*
X81841835Y57503345D01*
X82163263Y57384298D01*
X82270406Y57265250D01*
X98357585Y15003345D02*
X97607585Y16193821D01*
X97071871Y15003345D02*
X97071871Y17503345D01*
X97929014Y17503345D01*
X98143299Y17384298D01*
X98250442Y17265250D01*
X98357585Y17027155D01*
X98357585Y16670012D01*
X98250442Y16431917D01*
X98143299Y16312869D01*
X97929014Y16193821D01*
X97071871Y16193821D01*
X99321871Y16312869D02*
X100071871Y16312869D01*
X100393299Y15003345D02*
X99321871Y15003345D01*
X99321871Y17503345D01*
X100393299Y17503345D01*
X102429014Y15003345D02*
X101357585Y15003345D01*
X101357585Y17503345D01*
X103179014Y16312869D02*
X103929014Y16312869D01*
X104250442Y15003345D02*
X103179014Y15003345D01*
X103179014Y17503345D01*
X104250442Y17503345D01*
X105107585Y15717631D02*
X106179014Y15717631D01*
X104893299Y15003345D02*
X105643299Y17503345D01*
X106393299Y15003345D01*
X107036157Y15122393D02*
X107357585Y15003345D01*
X107893299Y15003345D01*
X108107585Y15122393D01*
X108214728Y15241440D01*
X108321871Y15479536D01*
X108321871Y15717631D01*
X108214728Y15955726D01*
X108107585Y16074774D01*
X107893299Y16193821D01*
X107464728Y16312869D01*
X107250442Y16431917D01*
X107143299Y16550964D01*
X107036157Y16789059D01*
X107036157Y17027155D01*
X107143299Y17265250D01*
X107250442Y17384298D01*
X107464728Y17503345D01*
X108000442Y17503345D01*
X108321871Y17384298D01*
X109286157Y16312869D02*
X110036157Y16312869D01*
X110357585Y15003345D02*
X109286157Y15003345D01*
X109286157Y17503345D01*
X110357585Y17503345D01*
D10*
X83133723Y6670780D02*
G75*
G03*
X83133723Y6670780I-3500000J0D01*
G01*
X83067122Y7008980D02*
X76200322Y6332581D01*
X58067122Y47008981D02*
X51200322Y46332581D01*
X54295523Y50104181D02*
X54971922Y43237381D01*
X108067122Y47008980D02*
X101200322Y46332581D01*
X83067122Y-32991020D02*
X76200322Y-33667419D01*
X33133723Y6670780D02*
G75*
G03*
X33133723Y6670780I-3500000J0D01*
G01*
X83133723Y46670780D02*
G75*
G03*
X83133723Y46670780I-3500000J0D01*
G01*
X108067122Y7008980D02*
X101200322Y6332581D01*
X104295523Y10104180D02*
X104971922Y3237380D01*
X58067122Y7008980D02*
X51200322Y6332581D01*
X33067122Y7008980D02*
X26200322Y6332581D01*
X104295523Y-29895820D02*
X104971922Y-36762620D01*
X83133723Y-33329220D02*
G75*
G03*
X83133723Y-33329220I-3500000J0D01*
G01*
X29295523Y50104181D02*
X29971922Y43237381D01*
X58133723Y46670780D02*
G75*
G03*
X58133723Y46670780I-3500000J0D01*
G01*
X108133723Y46670780D02*
G75*
G03*
X108133723Y46670780I-3500000J0D01*
G01*
X87162000Y58802400D02*
X87640400Y53945800D01*
X54295523Y10104180D02*
X54971922Y3237380D01*
X104295523Y50104180D02*
X104971922Y43237380D01*
X108133723Y6670780D02*
G75*
G03*
X108133723Y6670780I-3500000J0D01*
G01*
X108133723Y-33329220D02*
G75*
G03*
X108133723Y-33329220I-3500000J0D01*
G01*
X114901833Y56367673D02*
G75*
G03*
X114901833Y56367673I-2500000J0D01*
G01*
X108067122Y-32991020D02*
X101200322Y-33667419D01*
X112162000Y58802400D02*
X112640400Y53945800D01*
X79295523Y10104180D02*
X79971922Y3237380D01*
X58133723Y6670780D02*
G75*
G03*
X58133723Y6670780I-3500000J0D01*
G01*
X79295523Y50104180D02*
X79971922Y43237380D01*
X29295523Y10104180D02*
X29971922Y3237380D01*
X19133723Y-61492440D02*
X115133723Y-61492440D01*
X19133723Y-52536820D02*
X115133723Y-52536820D01*
X83067122Y47008980D02*
X76200322Y46332581D01*
X89901833Y56367673D02*
G75*
G03*
X89901833Y56367673I-2500000J0D01*
G01*
X109963000Y56134000D02*
X114829500Y56600276D01*
X33067122Y47008981D02*
X26200322Y46332581D01*
X33133723Y46670780D02*
G75*
G03*
X33133723Y46670780I-3500000J0D01*
G01*
X84963000Y56134000D02*
X89829500Y56600276D01*
D13*
%TO.C,J1*%
X34905000Y-86217000D02*
X21697000Y-86217000D01*
X37445000Y-84185000D02*
X34905000Y-86217000D01*
X21697000Y-86217000D02*
X21697000Y-70469000D01*
X37445000Y-83169000D02*
X37445000Y-84185000D01*
X37445000Y-70469000D02*
X37445000Y-83169000D01*
X21697000Y-70469000D02*
X37445000Y-70469000D01*
%TO.C,J2*%
X21697000Y-95488000D02*
X37445000Y-95488000D01*
X37445000Y-95488000D02*
X37445000Y-108188000D01*
X37445000Y-108188000D02*
X37445000Y-109204000D01*
X21697000Y-111236000D02*
X21697000Y-95488000D01*
X37445000Y-109204000D02*
X34905000Y-111236000D01*
X34905000Y-111236000D02*
X21697000Y-111236000D01*
%TO.C,J4*%
X59924000Y-86217000D02*
X46716000Y-86217000D01*
X62464000Y-84185000D02*
X59924000Y-86217000D01*
X46716000Y-86217000D02*
X46716000Y-70469000D01*
X62464000Y-83169000D02*
X62464000Y-84185000D01*
X62464000Y-70469000D02*
X62464000Y-83169000D01*
X46716000Y-70469000D02*
X62464000Y-70469000D01*
%TO.C,J5*%
X46716000Y-95488000D02*
X62464000Y-95488000D01*
X62464000Y-95488000D02*
X62464000Y-108188000D01*
X62464000Y-108188000D02*
X62464000Y-109204000D01*
X46716000Y-111236000D02*
X46716000Y-95488000D01*
X62464000Y-109204000D02*
X59924000Y-111236000D01*
X59924000Y-111236000D02*
X46716000Y-111236000D01*
%TO.C,J6*%
X84943000Y-86217000D02*
X71735000Y-86217000D01*
X87483000Y-84185000D02*
X84943000Y-86217000D01*
X71735000Y-86217000D02*
X71735000Y-70469000D01*
X87483000Y-83169000D02*
X87483000Y-84185000D01*
X87483000Y-70469000D02*
X87483000Y-83169000D01*
X71735000Y-70469000D02*
X87483000Y-70469000D01*
%TO.C,J7*%
X71735000Y-95488000D02*
X87483000Y-95488000D01*
X87483000Y-95488000D02*
X87483000Y-108188000D01*
X87483000Y-108188000D02*
X87483000Y-109204000D01*
X71735000Y-111236000D02*
X71735000Y-95488000D01*
X87483000Y-109204000D02*
X84943000Y-111236000D01*
X84943000Y-111236000D02*
X71735000Y-111236000D01*
%TO.C,J8*%
X109962000Y-86217000D02*
X96754000Y-86217000D01*
X112502000Y-84185000D02*
X109962000Y-86217000D01*
X96754000Y-86217000D02*
X96754000Y-70469000D01*
X112502000Y-83169000D02*
X112502000Y-84185000D01*
X112502000Y-70469000D02*
X112502000Y-83169000D01*
X96754000Y-70469000D02*
X112502000Y-70469000D01*
%TO.C,J9*%
X96754000Y-95488000D02*
X112502000Y-95488000D01*
X112502000Y-95488000D02*
X112502000Y-108188000D01*
X112502000Y-108188000D02*
X112502000Y-109204000D01*
X96754000Y-111236000D02*
X96754000Y-95488000D01*
X112502000Y-109204000D02*
X109962000Y-111236000D01*
X109962000Y-111236000D02*
X96754000Y-111236000D01*
%TD*%
M02*
