%TF.GenerationSoftware,KiCad,Pcbnew,(5.1.9)-1*%
%TF.CreationDate,2021-09-12T18:45:55+01:00*%
%TF.ProjectId,Function Generator Jacks,46756e63-7469-46f6-9e20-47656e657261,rev?*%
%TF.SameCoordinates,Original*%
%TF.FileFunction,Legend,Top*%
%TF.FilePolarity,Positive*%
%FSLAX46Y46*%
G04 Gerber Fmt 4.6, Leading zero omitted, Abs format (unit mm)*
G04 Created by KiCad (PCBNEW (5.1.9)-1) date 2021-09-12 18:45:55*
%MOMM*%
%LPD*%
G01*
G04 APERTURE LIST*
%ADD10C,0.150000*%
%ADD11C,0.120000*%
G04 APERTURE END LIST*
D10*
X49310047Y-64317571D02*
X48976714Y-64317571D01*
X48976714Y-64841380D02*
X48976714Y-63841380D01*
X49452904Y-63841380D01*
X50262428Y-64174714D02*
X50262428Y-64841380D01*
X49833857Y-64174714D02*
X49833857Y-64698523D01*
X49881476Y-64793761D01*
X49976714Y-64841380D01*
X50119571Y-64841380D01*
X50214809Y-64793761D01*
X50262428Y-64746142D01*
X50738619Y-64174714D02*
X50738619Y-64841380D01*
X50738619Y-64269952D02*
X50786238Y-64222333D01*
X50881476Y-64174714D01*
X51024333Y-64174714D01*
X51119571Y-64222333D01*
X51167190Y-64317571D01*
X51167190Y-64841380D01*
X52071952Y-64793761D02*
X51976714Y-64841380D01*
X51786238Y-64841380D01*
X51691000Y-64793761D01*
X51643380Y-64746142D01*
X51595761Y-64650904D01*
X51595761Y-64365190D01*
X51643380Y-64269952D01*
X51691000Y-64222333D01*
X51786238Y-64174714D01*
X51976714Y-64174714D01*
X52071952Y-64222333D01*
X52357666Y-64174714D02*
X52738619Y-64174714D01*
X52500523Y-63841380D02*
X52500523Y-64698523D01*
X52548142Y-64793761D01*
X52643380Y-64841380D01*
X52738619Y-64841380D01*
X53071952Y-64841380D02*
X53071952Y-64174714D01*
X53071952Y-63841380D02*
X53024333Y-63889000D01*
X53071952Y-63936619D01*
X53119571Y-63889000D01*
X53071952Y-63841380D01*
X53071952Y-63936619D01*
X53691000Y-64841380D02*
X53595761Y-64793761D01*
X53548142Y-64746142D01*
X53500523Y-64650904D01*
X53500523Y-64365190D01*
X53548142Y-64269952D01*
X53595761Y-64222333D01*
X53691000Y-64174714D01*
X53833857Y-64174714D01*
X53929095Y-64222333D01*
X53976714Y-64269952D01*
X54024333Y-64365190D01*
X54024333Y-64650904D01*
X53976714Y-64746142D01*
X53929095Y-64793761D01*
X53833857Y-64841380D01*
X53691000Y-64841380D01*
X54452904Y-64174714D02*
X54452904Y-64841380D01*
X54452904Y-64269952D02*
X54500523Y-64222333D01*
X54595761Y-64174714D01*
X54738619Y-64174714D01*
X54833857Y-64222333D01*
X54881476Y-64317571D01*
X54881476Y-64841380D01*
X56643380Y-63889000D02*
X56548142Y-63841380D01*
X56405285Y-63841380D01*
X56262428Y-63889000D01*
X56167190Y-63984238D01*
X56119571Y-64079476D01*
X56071952Y-64269952D01*
X56071952Y-64412809D01*
X56119571Y-64603285D01*
X56167190Y-64698523D01*
X56262428Y-64793761D01*
X56405285Y-64841380D01*
X56500523Y-64841380D01*
X56643380Y-64793761D01*
X56691000Y-64746142D01*
X56691000Y-64412809D01*
X56500523Y-64412809D01*
X57500523Y-64793761D02*
X57405285Y-64841380D01*
X57214809Y-64841380D01*
X57119571Y-64793761D01*
X57071952Y-64698523D01*
X57071952Y-64317571D01*
X57119571Y-64222333D01*
X57214809Y-64174714D01*
X57405285Y-64174714D01*
X57500523Y-64222333D01*
X57548142Y-64317571D01*
X57548142Y-64412809D01*
X57071952Y-64508047D01*
X57976714Y-64174714D02*
X57976714Y-64841380D01*
X57976714Y-64269952D02*
X58024333Y-64222333D01*
X58119571Y-64174714D01*
X58262428Y-64174714D01*
X58357666Y-64222333D01*
X58405285Y-64317571D01*
X58405285Y-64841380D01*
X59262428Y-64793761D02*
X59167190Y-64841380D01*
X58976714Y-64841380D01*
X58881476Y-64793761D01*
X58833857Y-64698523D01*
X58833857Y-64317571D01*
X58881476Y-64222333D01*
X58976714Y-64174714D01*
X59167190Y-64174714D01*
X59262428Y-64222333D01*
X59310047Y-64317571D01*
X59310047Y-64412809D01*
X58833857Y-64508047D01*
X59738619Y-64841380D02*
X59738619Y-64174714D01*
X59738619Y-64365190D02*
X59786238Y-64269952D01*
X59833857Y-64222333D01*
X59929095Y-64174714D01*
X60024333Y-64174714D01*
X60786238Y-64841380D02*
X60786238Y-64317571D01*
X60738619Y-64222333D01*
X60643380Y-64174714D01*
X60452904Y-64174714D01*
X60357666Y-64222333D01*
X60786238Y-64793761D02*
X60691000Y-64841380D01*
X60452904Y-64841380D01*
X60357666Y-64793761D01*
X60310047Y-64698523D01*
X60310047Y-64603285D01*
X60357666Y-64508047D01*
X60452904Y-64460428D01*
X60691000Y-64460428D01*
X60786238Y-64412809D01*
X61119571Y-64174714D02*
X61500523Y-64174714D01*
X61262428Y-63841380D02*
X61262428Y-64698523D01*
X61310047Y-64793761D01*
X61405285Y-64841380D01*
X61500523Y-64841380D01*
X61976714Y-64841380D02*
X61881476Y-64793761D01*
X61833857Y-64746142D01*
X61786238Y-64650904D01*
X61786238Y-64365190D01*
X61833857Y-64269952D01*
X61881476Y-64222333D01*
X61976714Y-64174714D01*
X62119571Y-64174714D01*
X62214809Y-64222333D01*
X62262428Y-64269952D01*
X62310047Y-64365190D01*
X62310047Y-64650904D01*
X62262428Y-64746142D01*
X62214809Y-64793761D01*
X62119571Y-64841380D01*
X61976714Y-64841380D01*
X62738619Y-64841380D02*
X62738619Y-64174714D01*
X62738619Y-64365190D02*
X62786238Y-64269952D01*
X62833857Y-64222333D01*
X62929095Y-64174714D01*
X63024333Y-64174714D01*
X63976714Y-63841380D02*
X64310047Y-64841380D01*
X64643380Y-63841380D01*
X65167190Y-63841380D02*
X65262428Y-63841380D01*
X65357666Y-63889000D01*
X65405285Y-63936619D01*
X65452904Y-64031857D01*
X65500523Y-64222333D01*
X65500523Y-64460428D01*
X65452904Y-64650904D01*
X65405285Y-64746142D01*
X65357666Y-64793761D01*
X65262428Y-64841380D01*
X65167190Y-64841380D01*
X65071952Y-64793761D01*
X65024333Y-64746142D01*
X64976714Y-64650904D01*
X64929095Y-64460428D01*
X64929095Y-64222333D01*
X64976714Y-64031857D01*
X65024333Y-63936619D01*
X65071952Y-63889000D01*
X65167190Y-63841380D01*
X65929095Y-64746142D02*
X65976714Y-64793761D01*
X65929095Y-64841380D01*
X65881476Y-64793761D01*
X65929095Y-64746142D01*
X65929095Y-64841380D01*
X66929095Y-64841380D02*
X66357666Y-64841380D01*
X66643380Y-64841380D02*
X66643380Y-63841380D01*
X66548142Y-63984238D01*
X66452904Y-64079476D01*
X66357666Y-64127095D01*
X68071952Y-64793761D02*
X68214809Y-64841380D01*
X68452904Y-64841380D01*
X68548142Y-64793761D01*
X68595761Y-64746142D01*
X68643380Y-64650904D01*
X68643380Y-64555666D01*
X68595761Y-64460428D01*
X68548142Y-64412809D01*
X68452904Y-64365190D01*
X68262428Y-64317571D01*
X68167190Y-64269952D01*
X68119571Y-64222333D01*
X68071952Y-64127095D01*
X68071952Y-64031857D01*
X68119571Y-63936619D01*
X68167190Y-63889000D01*
X68262428Y-63841380D01*
X68500523Y-63841380D01*
X68643380Y-63889000D01*
X69452904Y-64793761D02*
X69357666Y-64841380D01*
X69167190Y-64841380D01*
X69071952Y-64793761D01*
X69024333Y-64698523D01*
X69024333Y-64317571D01*
X69071952Y-64222333D01*
X69167190Y-64174714D01*
X69357666Y-64174714D01*
X69452904Y-64222333D01*
X69500523Y-64317571D01*
X69500523Y-64412809D01*
X69024333Y-64508047D01*
X69929095Y-64174714D02*
X69929095Y-65174714D01*
X69929095Y-64222333D02*
X70024333Y-64174714D01*
X70214809Y-64174714D01*
X70310047Y-64222333D01*
X70357666Y-64269952D01*
X70405285Y-64365190D01*
X70405285Y-64650904D01*
X70357666Y-64746142D01*
X70310047Y-64793761D01*
X70214809Y-64841380D01*
X70024333Y-64841380D01*
X69929095Y-64793761D01*
X70691000Y-64174714D02*
X71071952Y-64174714D01*
X70833857Y-63841380D02*
X70833857Y-64698523D01*
X70881476Y-64793761D01*
X70976714Y-64841380D01*
X71071952Y-64841380D01*
X72119571Y-63936619D02*
X72167190Y-63889000D01*
X72262428Y-63841380D01*
X72500523Y-63841380D01*
X72595761Y-63889000D01*
X72643380Y-63936619D01*
X72691000Y-64031857D01*
X72691000Y-64127095D01*
X72643380Y-64269952D01*
X72071952Y-64841380D01*
X72691000Y-64841380D01*
X73310047Y-63841380D02*
X73405285Y-63841380D01*
X73500523Y-63889000D01*
X73548142Y-63936619D01*
X73595761Y-64031857D01*
X73643380Y-64222333D01*
X73643380Y-64460428D01*
X73595761Y-64650904D01*
X73548142Y-64746142D01*
X73500523Y-64793761D01*
X73405285Y-64841380D01*
X73310047Y-64841380D01*
X73214809Y-64793761D01*
X73167190Y-64746142D01*
X73119571Y-64650904D01*
X73071952Y-64460428D01*
X73071952Y-64222333D01*
X73119571Y-64031857D01*
X73167190Y-63936619D01*
X73214809Y-63889000D01*
X73310047Y-63841380D01*
X74024333Y-63936619D02*
X74071952Y-63889000D01*
X74167190Y-63841380D01*
X74405285Y-63841380D01*
X74500523Y-63889000D01*
X74548142Y-63936619D01*
X74595761Y-64031857D01*
X74595761Y-64127095D01*
X74548142Y-64269952D01*
X73976714Y-64841380D01*
X74595761Y-64841380D01*
X75548142Y-64841380D02*
X74976714Y-64841380D01*
X75262428Y-64841380D02*
X75262428Y-63841380D01*
X75167190Y-63984238D01*
X75071952Y-64079476D01*
X74976714Y-64127095D01*
X76691000Y-64793761D02*
X76833857Y-64841380D01*
X77071952Y-64841380D01*
X77167190Y-64793761D01*
X77214809Y-64746142D01*
X77262428Y-64650904D01*
X77262428Y-64555666D01*
X77214809Y-64460428D01*
X77167190Y-64412809D01*
X77071952Y-64365190D01*
X76881476Y-64317571D01*
X76786238Y-64269952D01*
X76738619Y-64222333D01*
X76691000Y-64127095D01*
X76691000Y-64031857D01*
X76738619Y-63936619D01*
X76786238Y-63889000D01*
X76881476Y-63841380D01*
X77119571Y-63841380D01*
X77262428Y-63889000D01*
X77548142Y-64174714D02*
X77929095Y-64174714D01*
X77691000Y-63841380D02*
X77691000Y-64698523D01*
X77738619Y-64793761D01*
X77833857Y-64841380D01*
X77929095Y-64841380D01*
X78691000Y-64174714D02*
X78691000Y-64841380D01*
X78262428Y-64174714D02*
X78262428Y-64698523D01*
X78310047Y-64793761D01*
X78405285Y-64841380D01*
X78548142Y-64841380D01*
X78643380Y-64793761D01*
X78691000Y-64746142D01*
X79595761Y-64841380D02*
X79595761Y-63841380D01*
X79595761Y-64793761D02*
X79500523Y-64841380D01*
X79310047Y-64841380D01*
X79214809Y-64793761D01*
X79167190Y-64746142D01*
X79119571Y-64650904D01*
X79119571Y-64365190D01*
X79167190Y-64269952D01*
X79214809Y-64222333D01*
X79310047Y-64174714D01*
X79500523Y-64174714D01*
X79595761Y-64222333D01*
X80071952Y-64841380D02*
X80071952Y-64174714D01*
X80071952Y-63841380D02*
X80024333Y-63889000D01*
X80071952Y-63936619D01*
X80119571Y-63889000D01*
X80071952Y-63841380D01*
X80071952Y-63936619D01*
X80691000Y-64841380D02*
X80595761Y-64793761D01*
X80548142Y-64746142D01*
X80500523Y-64650904D01*
X80500523Y-64365190D01*
X80548142Y-64269952D01*
X80595761Y-64222333D01*
X80691000Y-64174714D01*
X80833857Y-64174714D01*
X80929095Y-64222333D01*
X80976714Y-64269952D01*
X81024333Y-64365190D01*
X81024333Y-64650904D01*
X80976714Y-64746142D01*
X80929095Y-64793761D01*
X80833857Y-64841380D01*
X80691000Y-64841380D01*
X82643380Y-63841380D02*
X82452904Y-63841380D01*
X82357666Y-63889000D01*
X82310047Y-63936619D01*
X82214809Y-64079476D01*
X82167190Y-64269952D01*
X82167190Y-64650904D01*
X82214809Y-64746142D01*
X82262428Y-64793761D01*
X82357666Y-64841380D01*
X82548142Y-64841380D01*
X82643380Y-64793761D01*
X82691000Y-64746142D01*
X82738619Y-64650904D01*
X82738619Y-64412809D01*
X82691000Y-64317571D01*
X82643380Y-64269952D01*
X82548142Y-64222333D01*
X82357666Y-64222333D01*
X82262428Y-64269952D01*
X82214809Y-64317571D01*
X82167190Y-64412809D01*
X83929095Y-64460428D02*
X84691000Y-64460428D01*
X84310047Y-64841380D02*
X84310047Y-64079476D01*
X86452904Y-64841380D02*
X85881476Y-64841380D01*
X86167190Y-64841380D02*
X86167190Y-63841380D01*
X86071952Y-63984238D01*
X85976714Y-64079476D01*
X85881476Y-64127095D01*
D11*
%TO.C,J1*%
X34941000Y-86209000D02*
X21691000Y-86209000D01*
X37441000Y-70459000D02*
X37441000Y-84159000D01*
X37441000Y-84159000D02*
X37441000Y-84209000D01*
X21691000Y-70459000D02*
X37441000Y-70459000D01*
X21691000Y-86209000D02*
X21691000Y-70459000D01*
X37441000Y-84209000D02*
X34941000Y-86209000D01*
%TO.C,J2*%
X37441000Y-109228000D02*
X34941000Y-111228000D01*
X21691000Y-111228000D02*
X21691000Y-95478000D01*
X21691000Y-95478000D02*
X37441000Y-95478000D01*
X37441000Y-109178000D02*
X37441000Y-109228000D01*
X37441000Y-95478000D02*
X37441000Y-109178000D01*
X34941000Y-111228000D02*
X21691000Y-111228000D01*
%TO.C,J4*%
X59960000Y-86209000D02*
X46710000Y-86209000D01*
X62460000Y-70459000D02*
X62460000Y-84159000D01*
X62460000Y-84159000D02*
X62460000Y-84209000D01*
X46710000Y-70459000D02*
X62460000Y-70459000D01*
X46710000Y-86209000D02*
X46710000Y-70459000D01*
X62460000Y-84209000D02*
X59960000Y-86209000D01*
%TO.C,J5*%
X62460000Y-109228000D02*
X59960000Y-111228000D01*
X46710000Y-111228000D02*
X46710000Y-95478000D01*
X46710000Y-95478000D02*
X62460000Y-95478000D01*
X62460000Y-109178000D02*
X62460000Y-109228000D01*
X62460000Y-95478000D02*
X62460000Y-109178000D01*
X59960000Y-111228000D02*
X46710000Y-111228000D01*
%TO.C,J6*%
X84979000Y-86209000D02*
X71729000Y-86209000D01*
X87479000Y-70459000D02*
X87479000Y-84159000D01*
X87479000Y-84159000D02*
X87479000Y-84209000D01*
X71729000Y-70459000D02*
X87479000Y-70459000D01*
X71729000Y-86209000D02*
X71729000Y-70459000D01*
X87479000Y-84209000D02*
X84979000Y-86209000D01*
%TO.C,J7*%
X87479000Y-109228000D02*
X84979000Y-111228000D01*
X71729000Y-111228000D02*
X71729000Y-95478000D01*
X71729000Y-95478000D02*
X87479000Y-95478000D01*
X87479000Y-109178000D02*
X87479000Y-109228000D01*
X87479000Y-95478000D02*
X87479000Y-109178000D01*
X84979000Y-111228000D02*
X71729000Y-111228000D01*
%TO.C,J8*%
X109998000Y-86209000D02*
X96748000Y-86209000D01*
X112498000Y-70459000D02*
X112498000Y-84159000D01*
X112498000Y-84159000D02*
X112498000Y-84209000D01*
X96748000Y-70459000D02*
X112498000Y-70459000D01*
X96748000Y-86209000D02*
X96748000Y-70459000D01*
X112498000Y-84209000D02*
X109998000Y-86209000D01*
%TO.C,J9*%
X112498000Y-109228000D02*
X109998000Y-111228000D01*
X96748000Y-111228000D02*
X96748000Y-95478000D01*
X96748000Y-95478000D02*
X112498000Y-95478000D01*
X112498000Y-109178000D02*
X112498000Y-109228000D01*
X112498000Y-95478000D02*
X112498000Y-109178000D01*
X109998000Y-111228000D02*
X96748000Y-111228000D01*
%TO.C,J3*%
X53666000Y-57023000D02*
X53666000Y-55693000D01*
X53666000Y-55693000D02*
X54996000Y-55693000D01*
X56266000Y-55693000D02*
X79186000Y-55693000D01*
X79186000Y-58353000D02*
X79186000Y-55693000D01*
X56266000Y-58353000D02*
X79186000Y-58353000D01*
X56266000Y-58353000D02*
X56266000Y-55693000D01*
%TO.C,J1*%
D10*
X29341000Y-68448285D02*
X29341000Y-68984000D01*
X29305285Y-69091142D01*
X29233857Y-69162571D01*
X29126714Y-69198285D01*
X29055285Y-69198285D01*
X30091000Y-69198285D02*
X29662428Y-69198285D01*
X29876714Y-69198285D02*
X29876714Y-68448285D01*
X29805285Y-68555428D01*
X29733857Y-68626857D01*
X29662428Y-68662571D01*
%TO.C,J2*%
X29341000Y-93467285D02*
X29341000Y-94003000D01*
X29305285Y-94110142D01*
X29233857Y-94181571D01*
X29126714Y-94217285D01*
X29055285Y-94217285D01*
X29662428Y-93538714D02*
X29698142Y-93503000D01*
X29769571Y-93467285D01*
X29948142Y-93467285D01*
X30019571Y-93503000D01*
X30055285Y-93538714D01*
X30091000Y-93610142D01*
X30091000Y-93681571D01*
X30055285Y-93788714D01*
X29626714Y-94217285D01*
X30091000Y-94217285D01*
%TO.C,J4*%
X54360000Y-68448285D02*
X54360000Y-68984000D01*
X54324285Y-69091142D01*
X54252857Y-69162571D01*
X54145714Y-69198285D01*
X54074285Y-69198285D01*
X55038571Y-68698285D02*
X55038571Y-69198285D01*
X54860000Y-68412571D02*
X54681428Y-68948285D01*
X55145714Y-68948285D01*
%TO.C,J5*%
X54360000Y-93467285D02*
X54360000Y-94003000D01*
X54324285Y-94110142D01*
X54252857Y-94181571D01*
X54145714Y-94217285D01*
X54074285Y-94217285D01*
X55074285Y-93467285D02*
X54717142Y-93467285D01*
X54681428Y-93824428D01*
X54717142Y-93788714D01*
X54788571Y-93753000D01*
X54967142Y-93753000D01*
X55038571Y-93788714D01*
X55074285Y-93824428D01*
X55110000Y-93895857D01*
X55110000Y-94074428D01*
X55074285Y-94145857D01*
X55038571Y-94181571D01*
X54967142Y-94217285D01*
X54788571Y-94217285D01*
X54717142Y-94181571D01*
X54681428Y-94145857D01*
%TO.C,J6*%
X79379000Y-68448285D02*
X79379000Y-68984000D01*
X79343285Y-69091142D01*
X79271857Y-69162571D01*
X79164714Y-69198285D01*
X79093285Y-69198285D01*
X80057571Y-68448285D02*
X79914714Y-68448285D01*
X79843285Y-68484000D01*
X79807571Y-68519714D01*
X79736142Y-68626857D01*
X79700428Y-68769714D01*
X79700428Y-69055428D01*
X79736142Y-69126857D01*
X79771857Y-69162571D01*
X79843285Y-69198285D01*
X79986142Y-69198285D01*
X80057571Y-69162571D01*
X80093285Y-69126857D01*
X80129000Y-69055428D01*
X80129000Y-68876857D01*
X80093285Y-68805428D01*
X80057571Y-68769714D01*
X79986142Y-68734000D01*
X79843285Y-68734000D01*
X79771857Y-68769714D01*
X79736142Y-68805428D01*
X79700428Y-68876857D01*
%TO.C,J7*%
X79379000Y-93467285D02*
X79379000Y-94003000D01*
X79343285Y-94110142D01*
X79271857Y-94181571D01*
X79164714Y-94217285D01*
X79093285Y-94217285D01*
X79664714Y-93467285D02*
X80164714Y-93467285D01*
X79843285Y-94217285D01*
%TO.C,J8*%
X104398000Y-68448285D02*
X104398000Y-68984000D01*
X104362285Y-69091142D01*
X104290857Y-69162571D01*
X104183714Y-69198285D01*
X104112285Y-69198285D01*
X104862285Y-68769714D02*
X104790857Y-68734000D01*
X104755142Y-68698285D01*
X104719428Y-68626857D01*
X104719428Y-68591142D01*
X104755142Y-68519714D01*
X104790857Y-68484000D01*
X104862285Y-68448285D01*
X105005142Y-68448285D01*
X105076571Y-68484000D01*
X105112285Y-68519714D01*
X105148000Y-68591142D01*
X105148000Y-68626857D01*
X105112285Y-68698285D01*
X105076571Y-68734000D01*
X105005142Y-68769714D01*
X104862285Y-68769714D01*
X104790857Y-68805428D01*
X104755142Y-68841142D01*
X104719428Y-68912571D01*
X104719428Y-69055428D01*
X104755142Y-69126857D01*
X104790857Y-69162571D01*
X104862285Y-69198285D01*
X105005142Y-69198285D01*
X105076571Y-69162571D01*
X105112285Y-69126857D01*
X105148000Y-69055428D01*
X105148000Y-68912571D01*
X105112285Y-68841142D01*
X105076571Y-68805428D01*
X105005142Y-68769714D01*
%TO.C,J9*%
X104398000Y-93467285D02*
X104398000Y-94003000D01*
X104362285Y-94110142D01*
X104290857Y-94181571D01*
X104183714Y-94217285D01*
X104112285Y-94217285D01*
X104790857Y-94217285D02*
X104933714Y-94217285D01*
X105005142Y-94181571D01*
X105040857Y-94145857D01*
X105112285Y-94038714D01*
X105148000Y-93895857D01*
X105148000Y-93610142D01*
X105112285Y-93538714D01*
X105076571Y-93503000D01*
X105005142Y-93467285D01*
X104862285Y-93467285D01*
X104790857Y-93503000D01*
X104755142Y-93538714D01*
X104719428Y-93610142D01*
X104719428Y-93788714D01*
X104755142Y-93860142D01*
X104790857Y-93895857D01*
X104862285Y-93931571D01*
X105005142Y-93931571D01*
X105076571Y-93895857D01*
X105112285Y-93860142D01*
X105148000Y-93788714D01*
%TO.C,J3*%
X66171000Y-54012285D02*
X66171000Y-54548000D01*
X66135285Y-54655142D01*
X66063857Y-54726571D01*
X65956714Y-54762285D01*
X65885285Y-54762285D01*
X66456714Y-54012285D02*
X66921000Y-54012285D01*
X66671000Y-54298000D01*
X66778142Y-54298000D01*
X66849571Y-54333714D01*
X66885285Y-54369428D01*
X66921000Y-54440857D01*
X66921000Y-54619428D01*
X66885285Y-54690857D01*
X66849571Y-54726571D01*
X66778142Y-54762285D01*
X66563857Y-54762285D01*
X66492428Y-54726571D01*
X66456714Y-54690857D01*
%TD*%
M02*
