M48
; DRILL file {KiCad (5.1.9)-1} date 09/12/21 18:45:59
; FORMAT={-:-/ absolute / inch / decimal}
; #@! TF.CreationDate,2021-09-12T18:45:59+01:00
; #@! TF.GenerationSoftware,Kicad,Pcbnew,(5.1.9)-1
; #@! TF.FileFunction,Plated,1,2,PTH
FMAT,2
INCH
T1C0.0394
T2C0.1063
%
G90
G05
T1
X2.1652Y-2.245
X2.2652Y-2.245
X2.3652Y-2.245
X2.4652Y-2.245
X2.5652Y-2.245
X2.6652Y-2.245
X2.7652Y-2.245
X2.8652Y-2.245
X2.9652Y-2.245
X3.0652Y-2.245
T2
X0.913Y-3.1047
X0.913Y-4.0897
X1.0666Y-3.337
X1.0666Y-4.322
X1.1847Y-2.833
X1.1847Y-3.818
X1.3516Y-3.2716
X1.3516Y-4.2566
X1.417Y-2.9866
X1.417Y-3.9716
X1.898Y-3.1047
X1.898Y-4.0897
X2.0516Y-3.337
X2.0516Y-4.322
X2.1697Y-2.833
X2.1697Y-3.818
X2.3366Y-3.2716
X2.3366Y-4.2566
X2.402Y-2.9866
X2.402Y-3.9716
X2.883Y-3.1047
X2.883Y-4.0897
X3.0366Y-3.337
X3.0366Y-4.322
X3.1547Y-2.833
X3.1547Y-3.818
X3.3216Y-3.2716
X3.3216Y-4.2566
X3.387Y-2.9866
X3.387Y-3.9716
X3.868Y-3.1047
X3.868Y-4.0897
X4.0216Y-3.337
X4.0216Y-4.322
X4.1397Y-2.833
X4.1397Y-3.818
X4.3066Y-3.2716
X4.3066Y-4.2566
X4.372Y-2.9866
X4.372Y-3.9716
T0
M30
