%TF.GenerationSoftware,KiCad,Pcbnew,(5.1.9)-1*%
%TF.CreationDate,2021-09-12T18:45:55+01:00*%
%TF.ProjectId,Function Generator Jacks,46756e63-7469-46f6-9e20-47656e657261,rev?*%
%TF.SameCoordinates,Original*%
%TF.FileFunction,Soldermask,Top*%
%TF.FilePolarity,Negative*%
%FSLAX46Y46*%
G04 Gerber Fmt 4.6, Leading zero omitted, Abs format (unit mm)*
G04 Created by KiCad (PCBNEW (5.1.9)-1) date 2021-09-12 18:45:55*
%MOMM*%
%LPD*%
G01*
G04 APERTURE LIST*
%ADD10C,4.500001*%
%ADD11C,4.500000*%
%ADD12R,4.500001X4.500001*%
%ADD13R,1.700000X1.700000*%
%ADD14O,1.700000X1.700000*%
G04 APERTURE END LIST*
D10*
%TO.C,J1*%
X35991000Y-75859000D03*
D11*
X27091000Y-84759000D03*
D10*
X30091000Y-71959000D03*
D12*
X34331000Y-83099000D03*
D11*
X23191000Y-78859000D03*
%TD*%
%TO.C,J2*%
X23191000Y-103878000D03*
D12*
X34331000Y-108118000D03*
D10*
X30091000Y-96978000D03*
D11*
X27091000Y-109778000D03*
D10*
X35991000Y-100878000D03*
%TD*%
%TO.C,J4*%
X61010000Y-75859000D03*
D11*
X52110000Y-84759000D03*
D10*
X55110000Y-71959000D03*
D12*
X59350000Y-83099000D03*
D11*
X48210000Y-78859000D03*
%TD*%
%TO.C,J5*%
X48210000Y-103878000D03*
D12*
X59350000Y-108118000D03*
D10*
X55110000Y-96978000D03*
D11*
X52110000Y-109778000D03*
D10*
X61010000Y-100878000D03*
%TD*%
%TO.C,J6*%
X86029000Y-75859000D03*
D11*
X77129000Y-84759000D03*
D10*
X80129000Y-71959000D03*
D12*
X84369000Y-83099000D03*
D11*
X73229000Y-78859000D03*
%TD*%
%TO.C,J7*%
X73229000Y-103878000D03*
D12*
X84369000Y-108118000D03*
D10*
X80129000Y-96978000D03*
D11*
X77129000Y-109778000D03*
D10*
X86029000Y-100878000D03*
%TD*%
%TO.C,J8*%
X111048000Y-75859000D03*
D11*
X102148000Y-84759000D03*
D10*
X105148000Y-71959000D03*
D12*
X109388000Y-83099000D03*
D11*
X98248000Y-78859000D03*
%TD*%
%TO.C,J9*%
X98248000Y-103878000D03*
D12*
X109388000Y-108118000D03*
D10*
X105148000Y-96978000D03*
D11*
X102148000Y-109778000D03*
D10*
X111048000Y-100878000D03*
%TD*%
D13*
%TO.C,J3*%
X54996000Y-57023000D03*
D14*
X57536000Y-57023000D03*
X60076000Y-57023000D03*
X62616000Y-57023000D03*
X65156000Y-57023000D03*
X67696000Y-57023000D03*
X70236000Y-57023000D03*
X72776000Y-57023000D03*
X75316000Y-57023000D03*
X77856000Y-57023000D03*
%TD*%
M02*
