%TF.GenerationSoftware,KiCad,Pcbnew,(5.1.9)-1*%
%TF.CreationDate,2021-09-12T18:44:49+01:00*%
%TF.ProjectId,Function Generator Front Panel,46756e63-7469-46f6-9e20-47656e657261,rev?*%
%TF.SameCoordinates,Original*%
%TF.FileFunction,Copper,L2,Bot*%
%TF.FilePolarity,Positive*%
%FSLAX46Y46*%
G04 Gerber Fmt 4.6, Leading zero omitted, Abs format (unit mm)*
G04 Created by KiCad (PCBNEW (5.1.9)-1) date 2021-09-12 18:44:49*
%MOMM*%
%LPD*%
G01*
G04 APERTURE LIST*
%TA.AperFunction,ComponentPad*%
%ADD10O,6.800000X4.000000*%
%TD*%
%TA.AperFunction,ComponentPad*%
%ADD11C,14.000000*%
%TD*%
%TA.AperFunction,ComponentPad*%
%ADD12C,9.000000*%
%TD*%
%TA.AperFunction,ComponentPad*%
%ADD13C,5.500000*%
%TD*%
%TA.AperFunction,Conductor*%
%ADD14C,0.254000*%
%TD*%
%TA.AperFunction,Conductor*%
%ADD15C,0.100000*%
%TD*%
G04 APERTURE END LIST*
D10*
%TO.P,H1,1*%
%TO.N,GND*%
X122304000Y-10541000D03*
%TD*%
%TO.P,H2,1*%
%TO.N,GND*%
X31372000Y-204470000D03*
%TD*%
%TO.P,H3,1*%
%TO.N,GND*%
X122431000Y-204470000D03*
%TD*%
%TO.P,H4,1*%
%TO.N,GND*%
X31499000Y-10668000D03*
%TD*%
D11*
%TO.P,H5,1*%
%TO.N,GND*%
X39497000Y-157480000D03*
%TD*%
%TO.P,H6,1*%
%TO.N,GND*%
X64516000Y-182499000D03*
%TD*%
%TO.P,H7,1*%
%TO.N,GND*%
X64516000Y-157480000D03*
%TD*%
%TO.P,H8,1*%
%TO.N,GND*%
X39497000Y-182499000D03*
%TD*%
%TO.P,H9,1*%
%TO.N,GND*%
X114554000Y-182499000D03*
%TD*%
%TO.P,H10,1*%
%TO.N,GND*%
X114554000Y-157480000D03*
%TD*%
%TO.P,H11,1*%
%TO.N,GND*%
X89535000Y-182499000D03*
%TD*%
%TO.P,H12,1*%
%TO.N,GND*%
X89535000Y-157480000D03*
%TD*%
D12*
%TO.P,H13,1*%
%TO.N,GND*%
X89535000Y-112522000D03*
%TD*%
%TO.P,H14,1*%
%TO.N,GND*%
X64516000Y-72517000D03*
%TD*%
%TO.P,H15,1*%
%TO.N,GND*%
X89535000Y-72517000D03*
%TD*%
%TO.P,H16,1*%
%TO.N,GND*%
X39497000Y-32512000D03*
%TD*%
%TO.P,H17,1*%
%TO.N,GND*%
X39497000Y-112522000D03*
%TD*%
%TO.P,H18,1*%
%TO.N,GND*%
X114427000Y-112522000D03*
%TD*%
%TO.P,H19,1*%
%TO.N,GND*%
X114427000Y-32512000D03*
%TD*%
%TO.P,H20,1*%
%TO.N,GND*%
X64516000Y-32512000D03*
%TD*%
%TO.P,H21,1*%
%TO.N,GND*%
X39497000Y-72517000D03*
%TD*%
%TO.P,H22,1*%
%TO.N,GND*%
X114554000Y-72517000D03*
%TD*%
D13*
%TO.P,H23,1*%
%TO.N,N/C*%
X122301000Y-22860000D03*
%TD*%
%TO.P,H24,1*%
%TO.N,N/C*%
X97282000Y-22860000D03*
%TD*%
D12*
%TO.P,H25,1*%
%TO.N,GND*%
X76962000Y-123444000D03*
%TD*%
%TO.P,H26,1*%
%TO.N,GND*%
X89535000Y-32512000D03*
%TD*%
%TO.P,H27,1*%
%TO.N,GND*%
X64516000Y-112522000D03*
%TD*%
D14*
%TO.N,GND*%
X119778296Y-8155178D02*
X119334475Y-8420635D01*
X118950970Y-8767576D01*
X118642519Y-9182669D01*
X118420975Y-9649962D01*
X118324333Y-10003838D01*
X118431009Y-10414000D01*
X122177000Y-10414000D01*
X122177000Y-10394000D01*
X122431000Y-10394000D01*
X122431000Y-10414000D01*
X126176991Y-10414000D01*
X126283667Y-10003838D01*
X126187025Y-9649962D01*
X125965481Y-9182669D01*
X125657030Y-8767576D01*
X125273525Y-8420635D01*
X124829704Y-8155178D01*
X124823599Y-8153000D01*
X126340000Y-8153000D01*
X126340001Y-203674079D01*
X126314025Y-203578962D01*
X126092481Y-203111669D01*
X125784030Y-202696576D01*
X125400525Y-202349635D01*
X124956704Y-202084178D01*
X124469623Y-201910407D01*
X123958000Y-201835000D01*
X122558000Y-201835000D01*
X122558000Y-204343000D01*
X122578000Y-204343000D01*
X122578000Y-204597000D01*
X122558000Y-204597000D01*
X122558000Y-204617000D01*
X122304000Y-204617000D01*
X122304000Y-204597000D01*
X118558009Y-204597000D01*
X118451333Y-205007162D01*
X118547975Y-205361038D01*
X118769519Y-205828331D01*
X119077970Y-206243424D01*
X119461475Y-206590365D01*
X119905296Y-206855822D01*
X119911401Y-206858000D01*
X33891599Y-206858000D01*
X33897704Y-206855822D01*
X34341525Y-206590365D01*
X34725030Y-206243424D01*
X35033481Y-205828331D01*
X35255025Y-205361038D01*
X35351667Y-205007162D01*
X35244991Y-204597000D01*
X31499000Y-204597000D01*
X31499000Y-204617000D01*
X31245000Y-204617000D01*
X31245000Y-204597000D01*
X31225000Y-204597000D01*
X31225000Y-204343000D01*
X31245000Y-204343000D01*
X31245000Y-201835000D01*
X31499000Y-201835000D01*
X31499000Y-204343000D01*
X35244991Y-204343000D01*
X35351667Y-203932838D01*
X118451333Y-203932838D01*
X118558009Y-204343000D01*
X122304000Y-204343000D01*
X122304000Y-201835000D01*
X120904000Y-201835000D01*
X120392377Y-201910407D01*
X119905296Y-202084178D01*
X119461475Y-202349635D01*
X119077970Y-202696576D01*
X118769519Y-203111669D01*
X118547975Y-203578962D01*
X118451333Y-203932838D01*
X35351667Y-203932838D01*
X35255025Y-203578962D01*
X35033481Y-203111669D01*
X34725030Y-202696576D01*
X34341525Y-202349635D01*
X33897704Y-202084178D01*
X33410623Y-201910407D01*
X32899000Y-201835000D01*
X31499000Y-201835000D01*
X31245000Y-201835000D01*
X29845000Y-201835000D01*
X29333377Y-201910407D01*
X28846296Y-202084178D01*
X28402475Y-202349635D01*
X28018970Y-202696576D01*
X27711000Y-203111022D01*
X27711000Y-187900674D01*
X34274932Y-187900674D01*
X35090908Y-188779530D01*
X36400840Y-189518437D01*
X37829756Y-189987591D01*
X39322743Y-190168963D01*
X40822428Y-190055583D01*
X42271176Y-189651807D01*
X43613314Y-188973153D01*
X43903092Y-188779530D01*
X44719068Y-187900674D01*
X59293932Y-187900674D01*
X60109908Y-188779530D01*
X61419840Y-189518437D01*
X62848756Y-189987591D01*
X64341743Y-190168963D01*
X65841428Y-190055583D01*
X67290176Y-189651807D01*
X68632314Y-188973153D01*
X68922092Y-188779530D01*
X69738068Y-187900674D01*
X84312932Y-187900674D01*
X85128908Y-188779530D01*
X86438840Y-189518437D01*
X87867756Y-189987591D01*
X89360743Y-190168963D01*
X90860428Y-190055583D01*
X92309176Y-189651807D01*
X93651314Y-188973153D01*
X93941092Y-188779530D01*
X94757068Y-187900674D01*
X109331932Y-187900674D01*
X110147908Y-188779530D01*
X111457840Y-189518437D01*
X112886756Y-189987591D01*
X114379743Y-190168963D01*
X115879428Y-190055583D01*
X117328176Y-189651807D01*
X118670314Y-188973153D01*
X118960092Y-188779530D01*
X119776068Y-187900674D01*
X114554000Y-182678605D01*
X109331932Y-187900674D01*
X94757068Y-187900674D01*
X89535000Y-182678605D01*
X84312932Y-187900674D01*
X69738068Y-187900674D01*
X64516000Y-182678605D01*
X59293932Y-187900674D01*
X44719068Y-187900674D01*
X39497000Y-182678605D01*
X34274932Y-187900674D01*
X27711000Y-187900674D01*
X27711000Y-182324743D01*
X31827037Y-182324743D01*
X31940417Y-183824428D01*
X32344193Y-185273176D01*
X33022847Y-186615314D01*
X33216470Y-186905092D01*
X34095326Y-187721068D01*
X39317395Y-182499000D01*
X39676605Y-182499000D01*
X44898674Y-187721068D01*
X45777530Y-186905092D01*
X46516437Y-185595160D01*
X46985591Y-184166244D01*
X47166963Y-182673257D01*
X47140615Y-182324743D01*
X56846037Y-182324743D01*
X56959417Y-183824428D01*
X57363193Y-185273176D01*
X58041847Y-186615314D01*
X58235470Y-186905092D01*
X59114326Y-187721068D01*
X64336395Y-182499000D01*
X64695605Y-182499000D01*
X69917674Y-187721068D01*
X70796530Y-186905092D01*
X71535437Y-185595160D01*
X72004591Y-184166244D01*
X72185963Y-182673257D01*
X72159615Y-182324743D01*
X81865037Y-182324743D01*
X81978417Y-183824428D01*
X82382193Y-185273176D01*
X83060847Y-186615314D01*
X83254470Y-186905092D01*
X84133326Y-187721068D01*
X89355395Y-182499000D01*
X89714605Y-182499000D01*
X94936674Y-187721068D01*
X95815530Y-186905092D01*
X96554437Y-185595160D01*
X97023591Y-184166244D01*
X97204963Y-182673257D01*
X97178615Y-182324743D01*
X106884037Y-182324743D01*
X106997417Y-183824428D01*
X107401193Y-185273176D01*
X108079847Y-186615314D01*
X108273470Y-186905092D01*
X109152326Y-187721068D01*
X114374395Y-182499000D01*
X114733605Y-182499000D01*
X119955674Y-187721068D01*
X120834530Y-186905092D01*
X121573437Y-185595160D01*
X122042591Y-184166244D01*
X122223963Y-182673257D01*
X122110583Y-181173572D01*
X121706807Y-179724824D01*
X121028153Y-178382686D01*
X120834530Y-178092908D01*
X119955674Y-177276932D01*
X114733605Y-182499000D01*
X114374395Y-182499000D01*
X109152326Y-177276932D01*
X108273470Y-178092908D01*
X107534563Y-179402840D01*
X107065409Y-180831756D01*
X106884037Y-182324743D01*
X97178615Y-182324743D01*
X97091583Y-181173572D01*
X96687807Y-179724824D01*
X96009153Y-178382686D01*
X95815530Y-178092908D01*
X94936674Y-177276932D01*
X89714605Y-182499000D01*
X89355395Y-182499000D01*
X84133326Y-177276932D01*
X83254470Y-178092908D01*
X82515563Y-179402840D01*
X82046409Y-180831756D01*
X81865037Y-182324743D01*
X72159615Y-182324743D01*
X72072583Y-181173572D01*
X71668807Y-179724824D01*
X70990153Y-178382686D01*
X70796530Y-178092908D01*
X69917674Y-177276932D01*
X64695605Y-182499000D01*
X64336395Y-182499000D01*
X59114326Y-177276932D01*
X58235470Y-178092908D01*
X57496563Y-179402840D01*
X57027409Y-180831756D01*
X56846037Y-182324743D01*
X47140615Y-182324743D01*
X47053583Y-181173572D01*
X46649807Y-179724824D01*
X45971153Y-178382686D01*
X45777530Y-178092908D01*
X44898674Y-177276932D01*
X39676605Y-182499000D01*
X39317395Y-182499000D01*
X34095326Y-177276932D01*
X33216470Y-178092908D01*
X32477563Y-179402840D01*
X32008409Y-180831756D01*
X31827037Y-182324743D01*
X27711000Y-182324743D01*
X27711000Y-177097326D01*
X34274932Y-177097326D01*
X39497000Y-182319395D01*
X44719068Y-177097326D01*
X59293932Y-177097326D01*
X64516000Y-182319395D01*
X69738068Y-177097326D01*
X84312932Y-177097326D01*
X89535000Y-182319395D01*
X94757068Y-177097326D01*
X109331932Y-177097326D01*
X114554000Y-182319395D01*
X119776068Y-177097326D01*
X118960092Y-176218470D01*
X117650160Y-175479563D01*
X116221244Y-175010409D01*
X114728257Y-174829037D01*
X113228572Y-174942417D01*
X111779824Y-175346193D01*
X110437686Y-176024847D01*
X110147908Y-176218470D01*
X109331932Y-177097326D01*
X94757068Y-177097326D01*
X93941092Y-176218470D01*
X92631160Y-175479563D01*
X91202244Y-175010409D01*
X89709257Y-174829037D01*
X88209572Y-174942417D01*
X86760824Y-175346193D01*
X85418686Y-176024847D01*
X85128908Y-176218470D01*
X84312932Y-177097326D01*
X69738068Y-177097326D01*
X68922092Y-176218470D01*
X67612160Y-175479563D01*
X66183244Y-175010409D01*
X64690257Y-174829037D01*
X63190572Y-174942417D01*
X61741824Y-175346193D01*
X60399686Y-176024847D01*
X60109908Y-176218470D01*
X59293932Y-177097326D01*
X44719068Y-177097326D01*
X43903092Y-176218470D01*
X42593160Y-175479563D01*
X41164244Y-175010409D01*
X39671257Y-174829037D01*
X38171572Y-174942417D01*
X36722824Y-175346193D01*
X35380686Y-176024847D01*
X35090908Y-176218470D01*
X34274932Y-177097326D01*
X27711000Y-177097326D01*
X27711000Y-162881674D01*
X34274932Y-162881674D01*
X35090908Y-163760530D01*
X36400840Y-164499437D01*
X37829756Y-164968591D01*
X39322743Y-165149963D01*
X40822428Y-165036583D01*
X42271176Y-164632807D01*
X43613314Y-163954153D01*
X43903092Y-163760530D01*
X44719068Y-162881674D01*
X59293932Y-162881674D01*
X60109908Y-163760530D01*
X61419840Y-164499437D01*
X62848756Y-164968591D01*
X64341743Y-165149963D01*
X65841428Y-165036583D01*
X67290176Y-164632807D01*
X68632314Y-163954153D01*
X68922092Y-163760530D01*
X69738068Y-162881674D01*
X84312932Y-162881674D01*
X85128908Y-163760530D01*
X86438840Y-164499437D01*
X87867756Y-164968591D01*
X89360743Y-165149963D01*
X90860428Y-165036583D01*
X92309176Y-164632807D01*
X93651314Y-163954153D01*
X93941092Y-163760530D01*
X94757068Y-162881674D01*
X109331932Y-162881674D01*
X110147908Y-163760530D01*
X111457840Y-164499437D01*
X112886756Y-164968591D01*
X114379743Y-165149963D01*
X115879428Y-165036583D01*
X117328176Y-164632807D01*
X118670314Y-163954153D01*
X118960092Y-163760530D01*
X119776068Y-162881674D01*
X114554000Y-157659605D01*
X109331932Y-162881674D01*
X94757068Y-162881674D01*
X89535000Y-157659605D01*
X84312932Y-162881674D01*
X69738068Y-162881674D01*
X64516000Y-157659605D01*
X59293932Y-162881674D01*
X44719068Y-162881674D01*
X39497000Y-157659605D01*
X34274932Y-162881674D01*
X27711000Y-162881674D01*
X27711000Y-157305743D01*
X31827037Y-157305743D01*
X31940417Y-158805428D01*
X32344193Y-160254176D01*
X33022847Y-161596314D01*
X33216470Y-161886092D01*
X34095326Y-162702068D01*
X39317395Y-157480000D01*
X39676605Y-157480000D01*
X44898674Y-162702068D01*
X45777530Y-161886092D01*
X46516437Y-160576160D01*
X46985591Y-159147244D01*
X47166963Y-157654257D01*
X47140615Y-157305743D01*
X56846037Y-157305743D01*
X56959417Y-158805428D01*
X57363193Y-160254176D01*
X58041847Y-161596314D01*
X58235470Y-161886092D01*
X59114326Y-162702068D01*
X64336395Y-157480000D01*
X64695605Y-157480000D01*
X69917674Y-162702068D01*
X70796530Y-161886092D01*
X71535437Y-160576160D01*
X72004591Y-159147244D01*
X72185963Y-157654257D01*
X72159615Y-157305743D01*
X81865037Y-157305743D01*
X81978417Y-158805428D01*
X82382193Y-160254176D01*
X83060847Y-161596314D01*
X83254470Y-161886092D01*
X84133326Y-162702068D01*
X89355395Y-157480000D01*
X89714605Y-157480000D01*
X94936674Y-162702068D01*
X95815530Y-161886092D01*
X96554437Y-160576160D01*
X97023591Y-159147244D01*
X97204963Y-157654257D01*
X97178615Y-157305743D01*
X106884037Y-157305743D01*
X106997417Y-158805428D01*
X107401193Y-160254176D01*
X108079847Y-161596314D01*
X108273470Y-161886092D01*
X109152326Y-162702068D01*
X114374395Y-157480000D01*
X114733605Y-157480000D01*
X119955674Y-162702068D01*
X120834530Y-161886092D01*
X121573437Y-160576160D01*
X122042591Y-159147244D01*
X122223963Y-157654257D01*
X122110583Y-156154572D01*
X121706807Y-154705824D01*
X121028153Y-153363686D01*
X120834530Y-153073908D01*
X119955674Y-152257932D01*
X114733605Y-157480000D01*
X114374395Y-157480000D01*
X109152326Y-152257932D01*
X108273470Y-153073908D01*
X107534563Y-154383840D01*
X107065409Y-155812756D01*
X106884037Y-157305743D01*
X97178615Y-157305743D01*
X97091583Y-156154572D01*
X96687807Y-154705824D01*
X96009153Y-153363686D01*
X95815530Y-153073908D01*
X94936674Y-152257932D01*
X89714605Y-157480000D01*
X89355395Y-157480000D01*
X84133326Y-152257932D01*
X83254470Y-153073908D01*
X82515563Y-154383840D01*
X82046409Y-155812756D01*
X81865037Y-157305743D01*
X72159615Y-157305743D01*
X72072583Y-156154572D01*
X71668807Y-154705824D01*
X70990153Y-153363686D01*
X70796530Y-153073908D01*
X69917674Y-152257932D01*
X64695605Y-157480000D01*
X64336395Y-157480000D01*
X59114326Y-152257932D01*
X58235470Y-153073908D01*
X57496563Y-154383840D01*
X57027409Y-155812756D01*
X56846037Y-157305743D01*
X47140615Y-157305743D01*
X47053583Y-156154572D01*
X46649807Y-154705824D01*
X45971153Y-153363686D01*
X45777530Y-153073908D01*
X44898674Y-152257932D01*
X39676605Y-157480000D01*
X39317395Y-157480000D01*
X34095326Y-152257932D01*
X33216470Y-153073908D01*
X32477563Y-154383840D01*
X32008409Y-155812756D01*
X31827037Y-157305743D01*
X27711000Y-157305743D01*
X27711000Y-152078326D01*
X34274932Y-152078326D01*
X39497000Y-157300395D01*
X44719068Y-152078326D01*
X59293932Y-152078326D01*
X64516000Y-157300395D01*
X69738068Y-152078326D01*
X84312932Y-152078326D01*
X89535000Y-157300395D01*
X94757068Y-152078326D01*
X109331932Y-152078326D01*
X114554000Y-157300395D01*
X119776068Y-152078326D01*
X118960092Y-151199470D01*
X117650160Y-150460563D01*
X116221244Y-149991409D01*
X114728257Y-149810037D01*
X113228572Y-149923417D01*
X111779824Y-150327193D01*
X110437686Y-151005847D01*
X110147908Y-151199470D01*
X109331932Y-152078326D01*
X94757068Y-152078326D01*
X93941092Y-151199470D01*
X92631160Y-150460563D01*
X91202244Y-149991409D01*
X89709257Y-149810037D01*
X88209572Y-149923417D01*
X86760824Y-150327193D01*
X85418686Y-151005847D01*
X85128908Y-151199470D01*
X84312932Y-152078326D01*
X69738068Y-152078326D01*
X68922092Y-151199470D01*
X67612160Y-150460563D01*
X66183244Y-149991409D01*
X64690257Y-149810037D01*
X63190572Y-149923417D01*
X61741824Y-150327193D01*
X60399686Y-151005847D01*
X60109908Y-151199470D01*
X59293932Y-152078326D01*
X44719068Y-152078326D01*
X43903092Y-151199470D01*
X42593160Y-150460563D01*
X41164244Y-149991409D01*
X39671257Y-149810037D01*
X38171572Y-149923417D01*
X36722824Y-150327193D01*
X35380686Y-151005847D01*
X35090908Y-151199470D01*
X34274932Y-152078326D01*
X27711000Y-152078326D01*
X27711000Y-127068971D01*
X73516634Y-127068971D01*
X74032783Y-127691788D01*
X74917768Y-128181630D01*
X75881314Y-128489407D01*
X76886389Y-128603293D01*
X77894370Y-128518910D01*
X78866520Y-128239501D01*
X79765481Y-127775803D01*
X79891217Y-127691788D01*
X80407366Y-127068971D01*
X76962000Y-123623605D01*
X73516634Y-127068971D01*
X27711000Y-127068971D01*
X27711000Y-123368389D01*
X71802707Y-123368389D01*
X71887090Y-124376370D01*
X72166499Y-125348520D01*
X72630197Y-126247481D01*
X72714212Y-126373217D01*
X73337029Y-126889366D01*
X76782395Y-123444000D01*
X77141605Y-123444000D01*
X80586971Y-126889366D01*
X81209788Y-126373217D01*
X81699630Y-125488232D01*
X82007407Y-124524686D01*
X82121293Y-123519611D01*
X82036910Y-122511630D01*
X81757501Y-121539480D01*
X81293803Y-120640519D01*
X81209788Y-120514783D01*
X80586971Y-119998634D01*
X77141605Y-123444000D01*
X76782395Y-123444000D01*
X73337029Y-119998634D01*
X72714212Y-120514783D01*
X72224370Y-121399768D01*
X71916593Y-122363314D01*
X71802707Y-123368389D01*
X27711000Y-123368389D01*
X27711000Y-119819029D01*
X73516634Y-119819029D01*
X76962000Y-123264395D01*
X80407366Y-119819029D01*
X79891217Y-119196212D01*
X79006232Y-118706370D01*
X78042686Y-118398593D01*
X77037611Y-118284707D01*
X76029630Y-118369090D01*
X75057480Y-118648499D01*
X74158519Y-119112197D01*
X74032783Y-119196212D01*
X73516634Y-119819029D01*
X27711000Y-119819029D01*
X27711000Y-116146971D01*
X36051634Y-116146971D01*
X36567783Y-116769788D01*
X37452768Y-117259630D01*
X38416314Y-117567407D01*
X39421389Y-117681293D01*
X40429370Y-117596910D01*
X41401520Y-117317501D01*
X42300481Y-116853803D01*
X42426217Y-116769788D01*
X42942366Y-116146971D01*
X61070634Y-116146971D01*
X61586783Y-116769788D01*
X62471768Y-117259630D01*
X63435314Y-117567407D01*
X64440389Y-117681293D01*
X65448370Y-117596910D01*
X66420520Y-117317501D01*
X67319481Y-116853803D01*
X67445217Y-116769788D01*
X67961366Y-116146971D01*
X86089634Y-116146971D01*
X86605783Y-116769788D01*
X87490768Y-117259630D01*
X88454314Y-117567407D01*
X89459389Y-117681293D01*
X90467370Y-117596910D01*
X91439520Y-117317501D01*
X92338481Y-116853803D01*
X92464217Y-116769788D01*
X92980366Y-116146971D01*
X110981634Y-116146971D01*
X111497783Y-116769788D01*
X112382768Y-117259630D01*
X113346314Y-117567407D01*
X114351389Y-117681293D01*
X115359370Y-117596910D01*
X116331520Y-117317501D01*
X117230481Y-116853803D01*
X117356217Y-116769788D01*
X117872366Y-116146971D01*
X114427000Y-112701605D01*
X110981634Y-116146971D01*
X92980366Y-116146971D01*
X89535000Y-112701605D01*
X86089634Y-116146971D01*
X67961366Y-116146971D01*
X64516000Y-112701605D01*
X61070634Y-116146971D01*
X42942366Y-116146971D01*
X39497000Y-112701605D01*
X36051634Y-116146971D01*
X27711000Y-116146971D01*
X27711000Y-112446389D01*
X34337707Y-112446389D01*
X34422090Y-113454370D01*
X34701499Y-114426520D01*
X35165197Y-115325481D01*
X35249212Y-115451217D01*
X35872029Y-115967366D01*
X39317395Y-112522000D01*
X39676605Y-112522000D01*
X43121971Y-115967366D01*
X43744788Y-115451217D01*
X44234630Y-114566232D01*
X44542407Y-113602686D01*
X44656293Y-112597611D01*
X44643634Y-112446389D01*
X59356707Y-112446389D01*
X59441090Y-113454370D01*
X59720499Y-114426520D01*
X60184197Y-115325481D01*
X60268212Y-115451217D01*
X60891029Y-115967366D01*
X64336395Y-112522000D01*
X64695605Y-112522000D01*
X68140971Y-115967366D01*
X68763788Y-115451217D01*
X69253630Y-114566232D01*
X69561407Y-113602686D01*
X69675293Y-112597611D01*
X69662634Y-112446389D01*
X84375707Y-112446389D01*
X84460090Y-113454370D01*
X84739499Y-114426520D01*
X85203197Y-115325481D01*
X85287212Y-115451217D01*
X85910029Y-115967366D01*
X89355395Y-112522000D01*
X89714605Y-112522000D01*
X93159971Y-115967366D01*
X93782788Y-115451217D01*
X94272630Y-114566232D01*
X94580407Y-113602686D01*
X94694293Y-112597611D01*
X94681634Y-112446389D01*
X109267707Y-112446389D01*
X109352090Y-113454370D01*
X109631499Y-114426520D01*
X110095197Y-115325481D01*
X110179212Y-115451217D01*
X110802029Y-115967366D01*
X114247395Y-112522000D01*
X114606605Y-112522000D01*
X118051971Y-115967366D01*
X118674788Y-115451217D01*
X119164630Y-114566232D01*
X119472407Y-113602686D01*
X119586293Y-112597611D01*
X119501910Y-111589630D01*
X119222501Y-110617480D01*
X118758803Y-109718519D01*
X118674788Y-109592783D01*
X118051971Y-109076634D01*
X114606605Y-112522000D01*
X114247395Y-112522000D01*
X110802029Y-109076634D01*
X110179212Y-109592783D01*
X109689370Y-110477768D01*
X109381593Y-111441314D01*
X109267707Y-112446389D01*
X94681634Y-112446389D01*
X94609910Y-111589630D01*
X94330501Y-110617480D01*
X93866803Y-109718519D01*
X93782788Y-109592783D01*
X93159971Y-109076634D01*
X89714605Y-112522000D01*
X89355395Y-112522000D01*
X85910029Y-109076634D01*
X85287212Y-109592783D01*
X84797370Y-110477768D01*
X84489593Y-111441314D01*
X84375707Y-112446389D01*
X69662634Y-112446389D01*
X69590910Y-111589630D01*
X69311501Y-110617480D01*
X68847803Y-109718519D01*
X68763788Y-109592783D01*
X68140971Y-109076634D01*
X64695605Y-112522000D01*
X64336395Y-112522000D01*
X60891029Y-109076634D01*
X60268212Y-109592783D01*
X59778370Y-110477768D01*
X59470593Y-111441314D01*
X59356707Y-112446389D01*
X44643634Y-112446389D01*
X44571910Y-111589630D01*
X44292501Y-110617480D01*
X43828803Y-109718519D01*
X43744788Y-109592783D01*
X43121971Y-109076634D01*
X39676605Y-112522000D01*
X39317395Y-112522000D01*
X35872029Y-109076634D01*
X35249212Y-109592783D01*
X34759370Y-110477768D01*
X34451593Y-111441314D01*
X34337707Y-112446389D01*
X27711000Y-112446389D01*
X27711000Y-108897029D01*
X36051634Y-108897029D01*
X39497000Y-112342395D01*
X42942366Y-108897029D01*
X61070634Y-108897029D01*
X64516000Y-112342395D01*
X67961366Y-108897029D01*
X86089634Y-108897029D01*
X89535000Y-112342395D01*
X92980366Y-108897029D01*
X110981634Y-108897029D01*
X114427000Y-112342395D01*
X117872366Y-108897029D01*
X117356217Y-108274212D01*
X116471232Y-107784370D01*
X115507686Y-107476593D01*
X114502611Y-107362707D01*
X113494630Y-107447090D01*
X112522480Y-107726499D01*
X111623519Y-108190197D01*
X111497783Y-108274212D01*
X110981634Y-108897029D01*
X92980366Y-108897029D01*
X92464217Y-108274212D01*
X91579232Y-107784370D01*
X90615686Y-107476593D01*
X89610611Y-107362707D01*
X88602630Y-107447090D01*
X87630480Y-107726499D01*
X86731519Y-108190197D01*
X86605783Y-108274212D01*
X86089634Y-108897029D01*
X67961366Y-108897029D01*
X67445217Y-108274212D01*
X66560232Y-107784370D01*
X65596686Y-107476593D01*
X64591611Y-107362707D01*
X63583630Y-107447090D01*
X62611480Y-107726499D01*
X61712519Y-108190197D01*
X61586783Y-108274212D01*
X61070634Y-108897029D01*
X42942366Y-108897029D01*
X42426217Y-108274212D01*
X41541232Y-107784370D01*
X40577686Y-107476593D01*
X39572611Y-107362707D01*
X38564630Y-107447090D01*
X37592480Y-107726499D01*
X36693519Y-108190197D01*
X36567783Y-108274212D01*
X36051634Y-108897029D01*
X27711000Y-108897029D01*
X27711000Y-76141971D01*
X36051634Y-76141971D01*
X36567783Y-76764788D01*
X37452768Y-77254630D01*
X38416314Y-77562407D01*
X39421389Y-77676293D01*
X40429370Y-77591910D01*
X41401520Y-77312501D01*
X42300481Y-76848803D01*
X42426217Y-76764788D01*
X42942366Y-76141971D01*
X61070634Y-76141971D01*
X61586783Y-76764788D01*
X62471768Y-77254630D01*
X63435314Y-77562407D01*
X64440389Y-77676293D01*
X65448370Y-77591910D01*
X66420520Y-77312501D01*
X67319481Y-76848803D01*
X67445217Y-76764788D01*
X67961366Y-76141971D01*
X86089634Y-76141971D01*
X86605783Y-76764788D01*
X87490768Y-77254630D01*
X88454314Y-77562407D01*
X89459389Y-77676293D01*
X90467370Y-77591910D01*
X91439520Y-77312501D01*
X92338481Y-76848803D01*
X92464217Y-76764788D01*
X92980366Y-76141971D01*
X111108634Y-76141971D01*
X111624783Y-76764788D01*
X112509768Y-77254630D01*
X113473314Y-77562407D01*
X114478389Y-77676293D01*
X115486370Y-77591910D01*
X116458520Y-77312501D01*
X117357481Y-76848803D01*
X117483217Y-76764788D01*
X117999366Y-76141971D01*
X114554000Y-72696605D01*
X111108634Y-76141971D01*
X92980366Y-76141971D01*
X89535000Y-72696605D01*
X86089634Y-76141971D01*
X67961366Y-76141971D01*
X64516000Y-72696605D01*
X61070634Y-76141971D01*
X42942366Y-76141971D01*
X39497000Y-72696605D01*
X36051634Y-76141971D01*
X27711000Y-76141971D01*
X27711000Y-72441389D01*
X34337707Y-72441389D01*
X34422090Y-73449370D01*
X34701499Y-74421520D01*
X35165197Y-75320481D01*
X35249212Y-75446217D01*
X35872029Y-75962366D01*
X39317395Y-72517000D01*
X39676605Y-72517000D01*
X43121971Y-75962366D01*
X43744788Y-75446217D01*
X44234630Y-74561232D01*
X44542407Y-73597686D01*
X44656293Y-72592611D01*
X44643634Y-72441389D01*
X59356707Y-72441389D01*
X59441090Y-73449370D01*
X59720499Y-74421520D01*
X60184197Y-75320481D01*
X60268212Y-75446217D01*
X60891029Y-75962366D01*
X64336395Y-72517000D01*
X64695605Y-72517000D01*
X68140971Y-75962366D01*
X68763788Y-75446217D01*
X69253630Y-74561232D01*
X69561407Y-73597686D01*
X69675293Y-72592611D01*
X69662634Y-72441389D01*
X84375707Y-72441389D01*
X84460090Y-73449370D01*
X84739499Y-74421520D01*
X85203197Y-75320481D01*
X85287212Y-75446217D01*
X85910029Y-75962366D01*
X89355395Y-72517000D01*
X89714605Y-72517000D01*
X93159971Y-75962366D01*
X93782788Y-75446217D01*
X94272630Y-74561232D01*
X94580407Y-73597686D01*
X94694293Y-72592611D01*
X94681634Y-72441389D01*
X109394707Y-72441389D01*
X109479090Y-73449370D01*
X109758499Y-74421520D01*
X110222197Y-75320481D01*
X110306212Y-75446217D01*
X110929029Y-75962366D01*
X114374395Y-72517000D01*
X114733605Y-72517000D01*
X118178971Y-75962366D01*
X118801788Y-75446217D01*
X119291630Y-74561232D01*
X119599407Y-73597686D01*
X119713293Y-72592611D01*
X119628910Y-71584630D01*
X119349501Y-70612480D01*
X118885803Y-69713519D01*
X118801788Y-69587783D01*
X118178971Y-69071634D01*
X114733605Y-72517000D01*
X114374395Y-72517000D01*
X110929029Y-69071634D01*
X110306212Y-69587783D01*
X109816370Y-70472768D01*
X109508593Y-71436314D01*
X109394707Y-72441389D01*
X94681634Y-72441389D01*
X94609910Y-71584630D01*
X94330501Y-70612480D01*
X93866803Y-69713519D01*
X93782788Y-69587783D01*
X93159971Y-69071634D01*
X89714605Y-72517000D01*
X89355395Y-72517000D01*
X85910029Y-69071634D01*
X85287212Y-69587783D01*
X84797370Y-70472768D01*
X84489593Y-71436314D01*
X84375707Y-72441389D01*
X69662634Y-72441389D01*
X69590910Y-71584630D01*
X69311501Y-70612480D01*
X68847803Y-69713519D01*
X68763788Y-69587783D01*
X68140971Y-69071634D01*
X64695605Y-72517000D01*
X64336395Y-72517000D01*
X60891029Y-69071634D01*
X60268212Y-69587783D01*
X59778370Y-70472768D01*
X59470593Y-71436314D01*
X59356707Y-72441389D01*
X44643634Y-72441389D01*
X44571910Y-71584630D01*
X44292501Y-70612480D01*
X43828803Y-69713519D01*
X43744788Y-69587783D01*
X43121971Y-69071634D01*
X39676605Y-72517000D01*
X39317395Y-72517000D01*
X35872029Y-69071634D01*
X35249212Y-69587783D01*
X34759370Y-70472768D01*
X34451593Y-71436314D01*
X34337707Y-72441389D01*
X27711000Y-72441389D01*
X27711000Y-68892029D01*
X36051634Y-68892029D01*
X39497000Y-72337395D01*
X42942366Y-68892029D01*
X61070634Y-68892029D01*
X64516000Y-72337395D01*
X67961366Y-68892029D01*
X86089634Y-68892029D01*
X89535000Y-72337395D01*
X92980366Y-68892029D01*
X111108634Y-68892029D01*
X114554000Y-72337395D01*
X117999366Y-68892029D01*
X117483217Y-68269212D01*
X116598232Y-67779370D01*
X115634686Y-67471593D01*
X114629611Y-67357707D01*
X113621630Y-67442090D01*
X112649480Y-67721499D01*
X111750519Y-68185197D01*
X111624783Y-68269212D01*
X111108634Y-68892029D01*
X92980366Y-68892029D01*
X92464217Y-68269212D01*
X91579232Y-67779370D01*
X90615686Y-67471593D01*
X89610611Y-67357707D01*
X88602630Y-67442090D01*
X87630480Y-67721499D01*
X86731519Y-68185197D01*
X86605783Y-68269212D01*
X86089634Y-68892029D01*
X67961366Y-68892029D01*
X67445217Y-68269212D01*
X66560232Y-67779370D01*
X65596686Y-67471593D01*
X64591611Y-67357707D01*
X63583630Y-67442090D01*
X62611480Y-67721499D01*
X61712519Y-68185197D01*
X61586783Y-68269212D01*
X61070634Y-68892029D01*
X42942366Y-68892029D01*
X42426217Y-68269212D01*
X41541232Y-67779370D01*
X40577686Y-67471593D01*
X39572611Y-67357707D01*
X38564630Y-67442090D01*
X37592480Y-67721499D01*
X36693519Y-68185197D01*
X36567783Y-68269212D01*
X36051634Y-68892029D01*
X27711000Y-68892029D01*
X27711000Y-36136971D01*
X36051634Y-36136971D01*
X36567783Y-36759788D01*
X37452768Y-37249630D01*
X38416314Y-37557407D01*
X39421389Y-37671293D01*
X40429370Y-37586910D01*
X41401520Y-37307501D01*
X42300481Y-36843803D01*
X42426217Y-36759788D01*
X42942366Y-36136971D01*
X61070634Y-36136971D01*
X61586783Y-36759788D01*
X62471768Y-37249630D01*
X63435314Y-37557407D01*
X64440389Y-37671293D01*
X65448370Y-37586910D01*
X66420520Y-37307501D01*
X67319481Y-36843803D01*
X67445217Y-36759788D01*
X67961366Y-36136971D01*
X86089634Y-36136971D01*
X86605783Y-36759788D01*
X87490768Y-37249630D01*
X88454314Y-37557407D01*
X89459389Y-37671293D01*
X90467370Y-37586910D01*
X91439520Y-37307501D01*
X92338481Y-36843803D01*
X92464217Y-36759788D01*
X92980366Y-36136971D01*
X110981634Y-36136971D01*
X111497783Y-36759788D01*
X112382768Y-37249630D01*
X113346314Y-37557407D01*
X114351389Y-37671293D01*
X115359370Y-37586910D01*
X116331520Y-37307501D01*
X117230481Y-36843803D01*
X117356217Y-36759788D01*
X117872366Y-36136971D01*
X114427000Y-32691605D01*
X110981634Y-36136971D01*
X92980366Y-36136971D01*
X89535000Y-32691605D01*
X86089634Y-36136971D01*
X67961366Y-36136971D01*
X64516000Y-32691605D01*
X61070634Y-36136971D01*
X42942366Y-36136971D01*
X39497000Y-32691605D01*
X36051634Y-36136971D01*
X27711000Y-36136971D01*
X27711000Y-32436389D01*
X34337707Y-32436389D01*
X34422090Y-33444370D01*
X34701499Y-34416520D01*
X35165197Y-35315481D01*
X35249212Y-35441217D01*
X35872029Y-35957366D01*
X39317395Y-32512000D01*
X39676605Y-32512000D01*
X43121971Y-35957366D01*
X43744788Y-35441217D01*
X44234630Y-34556232D01*
X44542407Y-33592686D01*
X44656293Y-32587611D01*
X44643634Y-32436389D01*
X59356707Y-32436389D01*
X59441090Y-33444370D01*
X59720499Y-34416520D01*
X60184197Y-35315481D01*
X60268212Y-35441217D01*
X60891029Y-35957366D01*
X64336395Y-32512000D01*
X64695605Y-32512000D01*
X68140971Y-35957366D01*
X68763788Y-35441217D01*
X69253630Y-34556232D01*
X69561407Y-33592686D01*
X69675293Y-32587611D01*
X69662634Y-32436389D01*
X84375707Y-32436389D01*
X84460090Y-33444370D01*
X84739499Y-34416520D01*
X85203197Y-35315481D01*
X85287212Y-35441217D01*
X85910029Y-35957366D01*
X89355395Y-32512000D01*
X89714605Y-32512000D01*
X93159971Y-35957366D01*
X93782788Y-35441217D01*
X94272630Y-34556232D01*
X94580407Y-33592686D01*
X94694293Y-32587611D01*
X94681634Y-32436389D01*
X109267707Y-32436389D01*
X109352090Y-33444370D01*
X109631499Y-34416520D01*
X110095197Y-35315481D01*
X110179212Y-35441217D01*
X110802029Y-35957366D01*
X114247395Y-32512000D01*
X114606605Y-32512000D01*
X118051971Y-35957366D01*
X118674788Y-35441217D01*
X119164630Y-34556232D01*
X119472407Y-33592686D01*
X119586293Y-32587611D01*
X119501910Y-31579630D01*
X119222501Y-30607480D01*
X118758803Y-29708519D01*
X118674788Y-29582783D01*
X118051971Y-29066634D01*
X114606605Y-32512000D01*
X114247395Y-32512000D01*
X110802029Y-29066634D01*
X110179212Y-29582783D01*
X109689370Y-30467768D01*
X109381593Y-31431314D01*
X109267707Y-32436389D01*
X94681634Y-32436389D01*
X94609910Y-31579630D01*
X94330501Y-30607480D01*
X93866803Y-29708519D01*
X93782788Y-29582783D01*
X93159971Y-29066634D01*
X89714605Y-32512000D01*
X89355395Y-32512000D01*
X85910029Y-29066634D01*
X85287212Y-29582783D01*
X84797370Y-30467768D01*
X84489593Y-31431314D01*
X84375707Y-32436389D01*
X69662634Y-32436389D01*
X69590910Y-31579630D01*
X69311501Y-30607480D01*
X68847803Y-29708519D01*
X68763788Y-29582783D01*
X68140971Y-29066634D01*
X64695605Y-32512000D01*
X64336395Y-32512000D01*
X60891029Y-29066634D01*
X60268212Y-29582783D01*
X59778370Y-30467768D01*
X59470593Y-31431314D01*
X59356707Y-32436389D01*
X44643634Y-32436389D01*
X44571910Y-31579630D01*
X44292501Y-30607480D01*
X43828803Y-29708519D01*
X43744788Y-29582783D01*
X43121971Y-29066634D01*
X39676605Y-32512000D01*
X39317395Y-32512000D01*
X35872029Y-29066634D01*
X35249212Y-29582783D01*
X34759370Y-30467768D01*
X34451593Y-31431314D01*
X34337707Y-32436389D01*
X27711000Y-32436389D01*
X27711000Y-28887029D01*
X36051634Y-28887029D01*
X39497000Y-32332395D01*
X42942366Y-28887029D01*
X61070634Y-28887029D01*
X64516000Y-32332395D01*
X67961366Y-28887029D01*
X86089634Y-28887029D01*
X89535000Y-32332395D01*
X92980366Y-28887029D01*
X110981634Y-28887029D01*
X114427000Y-32332395D01*
X117872366Y-28887029D01*
X117356217Y-28264212D01*
X116471232Y-27774370D01*
X115507686Y-27466593D01*
X114502611Y-27352707D01*
X113494630Y-27437090D01*
X112522480Y-27716499D01*
X111623519Y-28180197D01*
X111497783Y-28264212D01*
X110981634Y-28887029D01*
X92980366Y-28887029D01*
X92464217Y-28264212D01*
X91579232Y-27774370D01*
X90615686Y-27466593D01*
X89610611Y-27352707D01*
X88602630Y-27437090D01*
X87630480Y-27716499D01*
X86731519Y-28180197D01*
X86605783Y-28264212D01*
X86089634Y-28887029D01*
X67961366Y-28887029D01*
X67445217Y-28264212D01*
X66560232Y-27774370D01*
X65596686Y-27466593D01*
X64591611Y-27352707D01*
X63583630Y-27437090D01*
X62611480Y-27716499D01*
X61712519Y-28180197D01*
X61586783Y-28264212D01*
X61070634Y-28887029D01*
X42942366Y-28887029D01*
X42426217Y-28264212D01*
X41541232Y-27774370D01*
X40577686Y-27466593D01*
X39572611Y-27352707D01*
X38564630Y-27437090D01*
X37592480Y-27716499D01*
X36693519Y-28180197D01*
X36567783Y-28264212D01*
X36051634Y-28887029D01*
X27711000Y-28887029D01*
X27711000Y-22526607D01*
X93897000Y-22526607D01*
X93897000Y-23193393D01*
X94027083Y-23847368D01*
X94282252Y-24463399D01*
X94652698Y-25017812D01*
X95124188Y-25489302D01*
X95678601Y-25859748D01*
X96294632Y-26114917D01*
X96948607Y-26245000D01*
X97615393Y-26245000D01*
X98269368Y-26114917D01*
X98885399Y-25859748D01*
X99439812Y-25489302D01*
X99911302Y-25017812D01*
X100281748Y-24463399D01*
X100536917Y-23847368D01*
X100667000Y-23193393D01*
X100667000Y-22526607D01*
X118916000Y-22526607D01*
X118916000Y-23193393D01*
X119046083Y-23847368D01*
X119301252Y-24463399D01*
X119671698Y-25017812D01*
X120143188Y-25489302D01*
X120697601Y-25859748D01*
X121313632Y-26114917D01*
X121967607Y-26245000D01*
X122634393Y-26245000D01*
X123288368Y-26114917D01*
X123904399Y-25859748D01*
X124458812Y-25489302D01*
X124930302Y-25017812D01*
X125300748Y-24463399D01*
X125555917Y-23847368D01*
X125686000Y-23193393D01*
X125686000Y-22526607D01*
X125555917Y-21872632D01*
X125300748Y-21256601D01*
X124930302Y-20702188D01*
X124458812Y-20230698D01*
X123904399Y-19860252D01*
X123288368Y-19605083D01*
X122634393Y-19475000D01*
X121967607Y-19475000D01*
X121313632Y-19605083D01*
X120697601Y-19860252D01*
X120143188Y-20230698D01*
X119671698Y-20702188D01*
X119301252Y-21256601D01*
X119046083Y-21872632D01*
X118916000Y-22526607D01*
X100667000Y-22526607D01*
X100536917Y-21872632D01*
X100281748Y-21256601D01*
X99911302Y-20702188D01*
X99439812Y-20230698D01*
X98885399Y-19860252D01*
X98269368Y-19605083D01*
X97615393Y-19475000D01*
X96948607Y-19475000D01*
X96294632Y-19605083D01*
X95678601Y-19860252D01*
X95124188Y-20230698D01*
X94652698Y-20702188D01*
X94282252Y-21256601D01*
X94027083Y-21872632D01*
X93897000Y-22526607D01*
X27711000Y-22526607D01*
X27711000Y-11759470D01*
X27837519Y-12026331D01*
X28145970Y-12441424D01*
X28529475Y-12788365D01*
X28973296Y-13053822D01*
X29460377Y-13227593D01*
X29972000Y-13303000D01*
X31372000Y-13303000D01*
X31372000Y-10795000D01*
X31626000Y-10795000D01*
X31626000Y-13303000D01*
X33026000Y-13303000D01*
X33537623Y-13227593D01*
X34024704Y-13053822D01*
X34468525Y-12788365D01*
X34852030Y-12441424D01*
X35160481Y-12026331D01*
X35382025Y-11559038D01*
X35478667Y-11205162D01*
X35445637Y-11078162D01*
X118324333Y-11078162D01*
X118420975Y-11432038D01*
X118642519Y-11899331D01*
X118950970Y-12314424D01*
X119334475Y-12661365D01*
X119778296Y-12926822D01*
X120265377Y-13100593D01*
X120777000Y-13176000D01*
X122177000Y-13176000D01*
X122177000Y-10668000D01*
X122431000Y-10668000D01*
X122431000Y-13176000D01*
X123831000Y-13176000D01*
X124342623Y-13100593D01*
X124829704Y-12926822D01*
X125273525Y-12661365D01*
X125657030Y-12314424D01*
X125965481Y-11899331D01*
X126187025Y-11432038D01*
X126283667Y-11078162D01*
X126176991Y-10668000D01*
X122431000Y-10668000D01*
X122177000Y-10668000D01*
X118431009Y-10668000D01*
X118324333Y-11078162D01*
X35445637Y-11078162D01*
X35371991Y-10795000D01*
X31626000Y-10795000D01*
X31372000Y-10795000D01*
X31352000Y-10795000D01*
X31352000Y-10541000D01*
X31372000Y-10541000D01*
X31372000Y-10521000D01*
X31626000Y-10521000D01*
X31626000Y-10541000D01*
X35371991Y-10541000D01*
X35478667Y-10130838D01*
X35382025Y-9776962D01*
X35160481Y-9309669D01*
X34852030Y-8894576D01*
X34468525Y-8547635D01*
X34024704Y-8282178D01*
X33662617Y-8153000D01*
X119784401Y-8153000D01*
X119778296Y-8155178D01*
%TA.AperFunction,Conductor*%
D15*
G36*
X119778296Y-8155178D02*
G01*
X119334475Y-8420635D01*
X118950970Y-8767576D01*
X118642519Y-9182669D01*
X118420975Y-9649962D01*
X118324333Y-10003838D01*
X118431009Y-10414000D01*
X122177000Y-10414000D01*
X122177000Y-10394000D01*
X122431000Y-10394000D01*
X122431000Y-10414000D01*
X126176991Y-10414000D01*
X126283667Y-10003838D01*
X126187025Y-9649962D01*
X125965481Y-9182669D01*
X125657030Y-8767576D01*
X125273525Y-8420635D01*
X124829704Y-8155178D01*
X124823599Y-8153000D01*
X126340000Y-8153000D01*
X126340001Y-203674079D01*
X126314025Y-203578962D01*
X126092481Y-203111669D01*
X125784030Y-202696576D01*
X125400525Y-202349635D01*
X124956704Y-202084178D01*
X124469623Y-201910407D01*
X123958000Y-201835000D01*
X122558000Y-201835000D01*
X122558000Y-204343000D01*
X122578000Y-204343000D01*
X122578000Y-204597000D01*
X122558000Y-204597000D01*
X122558000Y-204617000D01*
X122304000Y-204617000D01*
X122304000Y-204597000D01*
X118558009Y-204597000D01*
X118451333Y-205007162D01*
X118547975Y-205361038D01*
X118769519Y-205828331D01*
X119077970Y-206243424D01*
X119461475Y-206590365D01*
X119905296Y-206855822D01*
X119911401Y-206858000D01*
X33891599Y-206858000D01*
X33897704Y-206855822D01*
X34341525Y-206590365D01*
X34725030Y-206243424D01*
X35033481Y-205828331D01*
X35255025Y-205361038D01*
X35351667Y-205007162D01*
X35244991Y-204597000D01*
X31499000Y-204597000D01*
X31499000Y-204617000D01*
X31245000Y-204617000D01*
X31245000Y-204597000D01*
X31225000Y-204597000D01*
X31225000Y-204343000D01*
X31245000Y-204343000D01*
X31245000Y-201835000D01*
X31499000Y-201835000D01*
X31499000Y-204343000D01*
X35244991Y-204343000D01*
X35351667Y-203932838D01*
X118451333Y-203932838D01*
X118558009Y-204343000D01*
X122304000Y-204343000D01*
X122304000Y-201835000D01*
X120904000Y-201835000D01*
X120392377Y-201910407D01*
X119905296Y-202084178D01*
X119461475Y-202349635D01*
X119077970Y-202696576D01*
X118769519Y-203111669D01*
X118547975Y-203578962D01*
X118451333Y-203932838D01*
X35351667Y-203932838D01*
X35255025Y-203578962D01*
X35033481Y-203111669D01*
X34725030Y-202696576D01*
X34341525Y-202349635D01*
X33897704Y-202084178D01*
X33410623Y-201910407D01*
X32899000Y-201835000D01*
X31499000Y-201835000D01*
X31245000Y-201835000D01*
X29845000Y-201835000D01*
X29333377Y-201910407D01*
X28846296Y-202084178D01*
X28402475Y-202349635D01*
X28018970Y-202696576D01*
X27711000Y-203111022D01*
X27711000Y-187900674D01*
X34274932Y-187900674D01*
X35090908Y-188779530D01*
X36400840Y-189518437D01*
X37829756Y-189987591D01*
X39322743Y-190168963D01*
X40822428Y-190055583D01*
X42271176Y-189651807D01*
X43613314Y-188973153D01*
X43903092Y-188779530D01*
X44719068Y-187900674D01*
X59293932Y-187900674D01*
X60109908Y-188779530D01*
X61419840Y-189518437D01*
X62848756Y-189987591D01*
X64341743Y-190168963D01*
X65841428Y-190055583D01*
X67290176Y-189651807D01*
X68632314Y-188973153D01*
X68922092Y-188779530D01*
X69738068Y-187900674D01*
X84312932Y-187900674D01*
X85128908Y-188779530D01*
X86438840Y-189518437D01*
X87867756Y-189987591D01*
X89360743Y-190168963D01*
X90860428Y-190055583D01*
X92309176Y-189651807D01*
X93651314Y-188973153D01*
X93941092Y-188779530D01*
X94757068Y-187900674D01*
X109331932Y-187900674D01*
X110147908Y-188779530D01*
X111457840Y-189518437D01*
X112886756Y-189987591D01*
X114379743Y-190168963D01*
X115879428Y-190055583D01*
X117328176Y-189651807D01*
X118670314Y-188973153D01*
X118960092Y-188779530D01*
X119776068Y-187900674D01*
X114554000Y-182678605D01*
X109331932Y-187900674D01*
X94757068Y-187900674D01*
X89535000Y-182678605D01*
X84312932Y-187900674D01*
X69738068Y-187900674D01*
X64516000Y-182678605D01*
X59293932Y-187900674D01*
X44719068Y-187900674D01*
X39497000Y-182678605D01*
X34274932Y-187900674D01*
X27711000Y-187900674D01*
X27711000Y-182324743D01*
X31827037Y-182324743D01*
X31940417Y-183824428D01*
X32344193Y-185273176D01*
X33022847Y-186615314D01*
X33216470Y-186905092D01*
X34095326Y-187721068D01*
X39317395Y-182499000D01*
X39676605Y-182499000D01*
X44898674Y-187721068D01*
X45777530Y-186905092D01*
X46516437Y-185595160D01*
X46985591Y-184166244D01*
X47166963Y-182673257D01*
X47140615Y-182324743D01*
X56846037Y-182324743D01*
X56959417Y-183824428D01*
X57363193Y-185273176D01*
X58041847Y-186615314D01*
X58235470Y-186905092D01*
X59114326Y-187721068D01*
X64336395Y-182499000D01*
X64695605Y-182499000D01*
X69917674Y-187721068D01*
X70796530Y-186905092D01*
X71535437Y-185595160D01*
X72004591Y-184166244D01*
X72185963Y-182673257D01*
X72159615Y-182324743D01*
X81865037Y-182324743D01*
X81978417Y-183824428D01*
X82382193Y-185273176D01*
X83060847Y-186615314D01*
X83254470Y-186905092D01*
X84133326Y-187721068D01*
X89355395Y-182499000D01*
X89714605Y-182499000D01*
X94936674Y-187721068D01*
X95815530Y-186905092D01*
X96554437Y-185595160D01*
X97023591Y-184166244D01*
X97204963Y-182673257D01*
X97178615Y-182324743D01*
X106884037Y-182324743D01*
X106997417Y-183824428D01*
X107401193Y-185273176D01*
X108079847Y-186615314D01*
X108273470Y-186905092D01*
X109152326Y-187721068D01*
X114374395Y-182499000D01*
X114733605Y-182499000D01*
X119955674Y-187721068D01*
X120834530Y-186905092D01*
X121573437Y-185595160D01*
X122042591Y-184166244D01*
X122223963Y-182673257D01*
X122110583Y-181173572D01*
X121706807Y-179724824D01*
X121028153Y-178382686D01*
X120834530Y-178092908D01*
X119955674Y-177276932D01*
X114733605Y-182499000D01*
X114374395Y-182499000D01*
X109152326Y-177276932D01*
X108273470Y-178092908D01*
X107534563Y-179402840D01*
X107065409Y-180831756D01*
X106884037Y-182324743D01*
X97178615Y-182324743D01*
X97091583Y-181173572D01*
X96687807Y-179724824D01*
X96009153Y-178382686D01*
X95815530Y-178092908D01*
X94936674Y-177276932D01*
X89714605Y-182499000D01*
X89355395Y-182499000D01*
X84133326Y-177276932D01*
X83254470Y-178092908D01*
X82515563Y-179402840D01*
X82046409Y-180831756D01*
X81865037Y-182324743D01*
X72159615Y-182324743D01*
X72072583Y-181173572D01*
X71668807Y-179724824D01*
X70990153Y-178382686D01*
X70796530Y-178092908D01*
X69917674Y-177276932D01*
X64695605Y-182499000D01*
X64336395Y-182499000D01*
X59114326Y-177276932D01*
X58235470Y-178092908D01*
X57496563Y-179402840D01*
X57027409Y-180831756D01*
X56846037Y-182324743D01*
X47140615Y-182324743D01*
X47053583Y-181173572D01*
X46649807Y-179724824D01*
X45971153Y-178382686D01*
X45777530Y-178092908D01*
X44898674Y-177276932D01*
X39676605Y-182499000D01*
X39317395Y-182499000D01*
X34095326Y-177276932D01*
X33216470Y-178092908D01*
X32477563Y-179402840D01*
X32008409Y-180831756D01*
X31827037Y-182324743D01*
X27711000Y-182324743D01*
X27711000Y-177097326D01*
X34274932Y-177097326D01*
X39497000Y-182319395D01*
X44719068Y-177097326D01*
X59293932Y-177097326D01*
X64516000Y-182319395D01*
X69738068Y-177097326D01*
X84312932Y-177097326D01*
X89535000Y-182319395D01*
X94757068Y-177097326D01*
X109331932Y-177097326D01*
X114554000Y-182319395D01*
X119776068Y-177097326D01*
X118960092Y-176218470D01*
X117650160Y-175479563D01*
X116221244Y-175010409D01*
X114728257Y-174829037D01*
X113228572Y-174942417D01*
X111779824Y-175346193D01*
X110437686Y-176024847D01*
X110147908Y-176218470D01*
X109331932Y-177097326D01*
X94757068Y-177097326D01*
X93941092Y-176218470D01*
X92631160Y-175479563D01*
X91202244Y-175010409D01*
X89709257Y-174829037D01*
X88209572Y-174942417D01*
X86760824Y-175346193D01*
X85418686Y-176024847D01*
X85128908Y-176218470D01*
X84312932Y-177097326D01*
X69738068Y-177097326D01*
X68922092Y-176218470D01*
X67612160Y-175479563D01*
X66183244Y-175010409D01*
X64690257Y-174829037D01*
X63190572Y-174942417D01*
X61741824Y-175346193D01*
X60399686Y-176024847D01*
X60109908Y-176218470D01*
X59293932Y-177097326D01*
X44719068Y-177097326D01*
X43903092Y-176218470D01*
X42593160Y-175479563D01*
X41164244Y-175010409D01*
X39671257Y-174829037D01*
X38171572Y-174942417D01*
X36722824Y-175346193D01*
X35380686Y-176024847D01*
X35090908Y-176218470D01*
X34274932Y-177097326D01*
X27711000Y-177097326D01*
X27711000Y-162881674D01*
X34274932Y-162881674D01*
X35090908Y-163760530D01*
X36400840Y-164499437D01*
X37829756Y-164968591D01*
X39322743Y-165149963D01*
X40822428Y-165036583D01*
X42271176Y-164632807D01*
X43613314Y-163954153D01*
X43903092Y-163760530D01*
X44719068Y-162881674D01*
X59293932Y-162881674D01*
X60109908Y-163760530D01*
X61419840Y-164499437D01*
X62848756Y-164968591D01*
X64341743Y-165149963D01*
X65841428Y-165036583D01*
X67290176Y-164632807D01*
X68632314Y-163954153D01*
X68922092Y-163760530D01*
X69738068Y-162881674D01*
X84312932Y-162881674D01*
X85128908Y-163760530D01*
X86438840Y-164499437D01*
X87867756Y-164968591D01*
X89360743Y-165149963D01*
X90860428Y-165036583D01*
X92309176Y-164632807D01*
X93651314Y-163954153D01*
X93941092Y-163760530D01*
X94757068Y-162881674D01*
X109331932Y-162881674D01*
X110147908Y-163760530D01*
X111457840Y-164499437D01*
X112886756Y-164968591D01*
X114379743Y-165149963D01*
X115879428Y-165036583D01*
X117328176Y-164632807D01*
X118670314Y-163954153D01*
X118960092Y-163760530D01*
X119776068Y-162881674D01*
X114554000Y-157659605D01*
X109331932Y-162881674D01*
X94757068Y-162881674D01*
X89535000Y-157659605D01*
X84312932Y-162881674D01*
X69738068Y-162881674D01*
X64516000Y-157659605D01*
X59293932Y-162881674D01*
X44719068Y-162881674D01*
X39497000Y-157659605D01*
X34274932Y-162881674D01*
X27711000Y-162881674D01*
X27711000Y-157305743D01*
X31827037Y-157305743D01*
X31940417Y-158805428D01*
X32344193Y-160254176D01*
X33022847Y-161596314D01*
X33216470Y-161886092D01*
X34095326Y-162702068D01*
X39317395Y-157480000D01*
X39676605Y-157480000D01*
X44898674Y-162702068D01*
X45777530Y-161886092D01*
X46516437Y-160576160D01*
X46985591Y-159147244D01*
X47166963Y-157654257D01*
X47140615Y-157305743D01*
X56846037Y-157305743D01*
X56959417Y-158805428D01*
X57363193Y-160254176D01*
X58041847Y-161596314D01*
X58235470Y-161886092D01*
X59114326Y-162702068D01*
X64336395Y-157480000D01*
X64695605Y-157480000D01*
X69917674Y-162702068D01*
X70796530Y-161886092D01*
X71535437Y-160576160D01*
X72004591Y-159147244D01*
X72185963Y-157654257D01*
X72159615Y-157305743D01*
X81865037Y-157305743D01*
X81978417Y-158805428D01*
X82382193Y-160254176D01*
X83060847Y-161596314D01*
X83254470Y-161886092D01*
X84133326Y-162702068D01*
X89355395Y-157480000D01*
X89714605Y-157480000D01*
X94936674Y-162702068D01*
X95815530Y-161886092D01*
X96554437Y-160576160D01*
X97023591Y-159147244D01*
X97204963Y-157654257D01*
X97178615Y-157305743D01*
X106884037Y-157305743D01*
X106997417Y-158805428D01*
X107401193Y-160254176D01*
X108079847Y-161596314D01*
X108273470Y-161886092D01*
X109152326Y-162702068D01*
X114374395Y-157480000D01*
X114733605Y-157480000D01*
X119955674Y-162702068D01*
X120834530Y-161886092D01*
X121573437Y-160576160D01*
X122042591Y-159147244D01*
X122223963Y-157654257D01*
X122110583Y-156154572D01*
X121706807Y-154705824D01*
X121028153Y-153363686D01*
X120834530Y-153073908D01*
X119955674Y-152257932D01*
X114733605Y-157480000D01*
X114374395Y-157480000D01*
X109152326Y-152257932D01*
X108273470Y-153073908D01*
X107534563Y-154383840D01*
X107065409Y-155812756D01*
X106884037Y-157305743D01*
X97178615Y-157305743D01*
X97091583Y-156154572D01*
X96687807Y-154705824D01*
X96009153Y-153363686D01*
X95815530Y-153073908D01*
X94936674Y-152257932D01*
X89714605Y-157480000D01*
X89355395Y-157480000D01*
X84133326Y-152257932D01*
X83254470Y-153073908D01*
X82515563Y-154383840D01*
X82046409Y-155812756D01*
X81865037Y-157305743D01*
X72159615Y-157305743D01*
X72072583Y-156154572D01*
X71668807Y-154705824D01*
X70990153Y-153363686D01*
X70796530Y-153073908D01*
X69917674Y-152257932D01*
X64695605Y-157480000D01*
X64336395Y-157480000D01*
X59114326Y-152257932D01*
X58235470Y-153073908D01*
X57496563Y-154383840D01*
X57027409Y-155812756D01*
X56846037Y-157305743D01*
X47140615Y-157305743D01*
X47053583Y-156154572D01*
X46649807Y-154705824D01*
X45971153Y-153363686D01*
X45777530Y-153073908D01*
X44898674Y-152257932D01*
X39676605Y-157480000D01*
X39317395Y-157480000D01*
X34095326Y-152257932D01*
X33216470Y-153073908D01*
X32477563Y-154383840D01*
X32008409Y-155812756D01*
X31827037Y-157305743D01*
X27711000Y-157305743D01*
X27711000Y-152078326D01*
X34274932Y-152078326D01*
X39497000Y-157300395D01*
X44719068Y-152078326D01*
X59293932Y-152078326D01*
X64516000Y-157300395D01*
X69738068Y-152078326D01*
X84312932Y-152078326D01*
X89535000Y-157300395D01*
X94757068Y-152078326D01*
X109331932Y-152078326D01*
X114554000Y-157300395D01*
X119776068Y-152078326D01*
X118960092Y-151199470D01*
X117650160Y-150460563D01*
X116221244Y-149991409D01*
X114728257Y-149810037D01*
X113228572Y-149923417D01*
X111779824Y-150327193D01*
X110437686Y-151005847D01*
X110147908Y-151199470D01*
X109331932Y-152078326D01*
X94757068Y-152078326D01*
X93941092Y-151199470D01*
X92631160Y-150460563D01*
X91202244Y-149991409D01*
X89709257Y-149810037D01*
X88209572Y-149923417D01*
X86760824Y-150327193D01*
X85418686Y-151005847D01*
X85128908Y-151199470D01*
X84312932Y-152078326D01*
X69738068Y-152078326D01*
X68922092Y-151199470D01*
X67612160Y-150460563D01*
X66183244Y-149991409D01*
X64690257Y-149810037D01*
X63190572Y-149923417D01*
X61741824Y-150327193D01*
X60399686Y-151005847D01*
X60109908Y-151199470D01*
X59293932Y-152078326D01*
X44719068Y-152078326D01*
X43903092Y-151199470D01*
X42593160Y-150460563D01*
X41164244Y-149991409D01*
X39671257Y-149810037D01*
X38171572Y-149923417D01*
X36722824Y-150327193D01*
X35380686Y-151005847D01*
X35090908Y-151199470D01*
X34274932Y-152078326D01*
X27711000Y-152078326D01*
X27711000Y-127068971D01*
X73516634Y-127068971D01*
X74032783Y-127691788D01*
X74917768Y-128181630D01*
X75881314Y-128489407D01*
X76886389Y-128603293D01*
X77894370Y-128518910D01*
X78866520Y-128239501D01*
X79765481Y-127775803D01*
X79891217Y-127691788D01*
X80407366Y-127068971D01*
X76962000Y-123623605D01*
X73516634Y-127068971D01*
X27711000Y-127068971D01*
X27711000Y-123368389D01*
X71802707Y-123368389D01*
X71887090Y-124376370D01*
X72166499Y-125348520D01*
X72630197Y-126247481D01*
X72714212Y-126373217D01*
X73337029Y-126889366D01*
X76782395Y-123444000D01*
X77141605Y-123444000D01*
X80586971Y-126889366D01*
X81209788Y-126373217D01*
X81699630Y-125488232D01*
X82007407Y-124524686D01*
X82121293Y-123519611D01*
X82036910Y-122511630D01*
X81757501Y-121539480D01*
X81293803Y-120640519D01*
X81209788Y-120514783D01*
X80586971Y-119998634D01*
X77141605Y-123444000D01*
X76782395Y-123444000D01*
X73337029Y-119998634D01*
X72714212Y-120514783D01*
X72224370Y-121399768D01*
X71916593Y-122363314D01*
X71802707Y-123368389D01*
X27711000Y-123368389D01*
X27711000Y-119819029D01*
X73516634Y-119819029D01*
X76962000Y-123264395D01*
X80407366Y-119819029D01*
X79891217Y-119196212D01*
X79006232Y-118706370D01*
X78042686Y-118398593D01*
X77037611Y-118284707D01*
X76029630Y-118369090D01*
X75057480Y-118648499D01*
X74158519Y-119112197D01*
X74032783Y-119196212D01*
X73516634Y-119819029D01*
X27711000Y-119819029D01*
X27711000Y-116146971D01*
X36051634Y-116146971D01*
X36567783Y-116769788D01*
X37452768Y-117259630D01*
X38416314Y-117567407D01*
X39421389Y-117681293D01*
X40429370Y-117596910D01*
X41401520Y-117317501D01*
X42300481Y-116853803D01*
X42426217Y-116769788D01*
X42942366Y-116146971D01*
X61070634Y-116146971D01*
X61586783Y-116769788D01*
X62471768Y-117259630D01*
X63435314Y-117567407D01*
X64440389Y-117681293D01*
X65448370Y-117596910D01*
X66420520Y-117317501D01*
X67319481Y-116853803D01*
X67445217Y-116769788D01*
X67961366Y-116146971D01*
X86089634Y-116146971D01*
X86605783Y-116769788D01*
X87490768Y-117259630D01*
X88454314Y-117567407D01*
X89459389Y-117681293D01*
X90467370Y-117596910D01*
X91439520Y-117317501D01*
X92338481Y-116853803D01*
X92464217Y-116769788D01*
X92980366Y-116146971D01*
X110981634Y-116146971D01*
X111497783Y-116769788D01*
X112382768Y-117259630D01*
X113346314Y-117567407D01*
X114351389Y-117681293D01*
X115359370Y-117596910D01*
X116331520Y-117317501D01*
X117230481Y-116853803D01*
X117356217Y-116769788D01*
X117872366Y-116146971D01*
X114427000Y-112701605D01*
X110981634Y-116146971D01*
X92980366Y-116146971D01*
X89535000Y-112701605D01*
X86089634Y-116146971D01*
X67961366Y-116146971D01*
X64516000Y-112701605D01*
X61070634Y-116146971D01*
X42942366Y-116146971D01*
X39497000Y-112701605D01*
X36051634Y-116146971D01*
X27711000Y-116146971D01*
X27711000Y-112446389D01*
X34337707Y-112446389D01*
X34422090Y-113454370D01*
X34701499Y-114426520D01*
X35165197Y-115325481D01*
X35249212Y-115451217D01*
X35872029Y-115967366D01*
X39317395Y-112522000D01*
X39676605Y-112522000D01*
X43121971Y-115967366D01*
X43744788Y-115451217D01*
X44234630Y-114566232D01*
X44542407Y-113602686D01*
X44656293Y-112597611D01*
X44643634Y-112446389D01*
X59356707Y-112446389D01*
X59441090Y-113454370D01*
X59720499Y-114426520D01*
X60184197Y-115325481D01*
X60268212Y-115451217D01*
X60891029Y-115967366D01*
X64336395Y-112522000D01*
X64695605Y-112522000D01*
X68140971Y-115967366D01*
X68763788Y-115451217D01*
X69253630Y-114566232D01*
X69561407Y-113602686D01*
X69675293Y-112597611D01*
X69662634Y-112446389D01*
X84375707Y-112446389D01*
X84460090Y-113454370D01*
X84739499Y-114426520D01*
X85203197Y-115325481D01*
X85287212Y-115451217D01*
X85910029Y-115967366D01*
X89355395Y-112522000D01*
X89714605Y-112522000D01*
X93159971Y-115967366D01*
X93782788Y-115451217D01*
X94272630Y-114566232D01*
X94580407Y-113602686D01*
X94694293Y-112597611D01*
X94681634Y-112446389D01*
X109267707Y-112446389D01*
X109352090Y-113454370D01*
X109631499Y-114426520D01*
X110095197Y-115325481D01*
X110179212Y-115451217D01*
X110802029Y-115967366D01*
X114247395Y-112522000D01*
X114606605Y-112522000D01*
X118051971Y-115967366D01*
X118674788Y-115451217D01*
X119164630Y-114566232D01*
X119472407Y-113602686D01*
X119586293Y-112597611D01*
X119501910Y-111589630D01*
X119222501Y-110617480D01*
X118758803Y-109718519D01*
X118674788Y-109592783D01*
X118051971Y-109076634D01*
X114606605Y-112522000D01*
X114247395Y-112522000D01*
X110802029Y-109076634D01*
X110179212Y-109592783D01*
X109689370Y-110477768D01*
X109381593Y-111441314D01*
X109267707Y-112446389D01*
X94681634Y-112446389D01*
X94609910Y-111589630D01*
X94330501Y-110617480D01*
X93866803Y-109718519D01*
X93782788Y-109592783D01*
X93159971Y-109076634D01*
X89714605Y-112522000D01*
X89355395Y-112522000D01*
X85910029Y-109076634D01*
X85287212Y-109592783D01*
X84797370Y-110477768D01*
X84489593Y-111441314D01*
X84375707Y-112446389D01*
X69662634Y-112446389D01*
X69590910Y-111589630D01*
X69311501Y-110617480D01*
X68847803Y-109718519D01*
X68763788Y-109592783D01*
X68140971Y-109076634D01*
X64695605Y-112522000D01*
X64336395Y-112522000D01*
X60891029Y-109076634D01*
X60268212Y-109592783D01*
X59778370Y-110477768D01*
X59470593Y-111441314D01*
X59356707Y-112446389D01*
X44643634Y-112446389D01*
X44571910Y-111589630D01*
X44292501Y-110617480D01*
X43828803Y-109718519D01*
X43744788Y-109592783D01*
X43121971Y-109076634D01*
X39676605Y-112522000D01*
X39317395Y-112522000D01*
X35872029Y-109076634D01*
X35249212Y-109592783D01*
X34759370Y-110477768D01*
X34451593Y-111441314D01*
X34337707Y-112446389D01*
X27711000Y-112446389D01*
X27711000Y-108897029D01*
X36051634Y-108897029D01*
X39497000Y-112342395D01*
X42942366Y-108897029D01*
X61070634Y-108897029D01*
X64516000Y-112342395D01*
X67961366Y-108897029D01*
X86089634Y-108897029D01*
X89535000Y-112342395D01*
X92980366Y-108897029D01*
X110981634Y-108897029D01*
X114427000Y-112342395D01*
X117872366Y-108897029D01*
X117356217Y-108274212D01*
X116471232Y-107784370D01*
X115507686Y-107476593D01*
X114502611Y-107362707D01*
X113494630Y-107447090D01*
X112522480Y-107726499D01*
X111623519Y-108190197D01*
X111497783Y-108274212D01*
X110981634Y-108897029D01*
X92980366Y-108897029D01*
X92464217Y-108274212D01*
X91579232Y-107784370D01*
X90615686Y-107476593D01*
X89610611Y-107362707D01*
X88602630Y-107447090D01*
X87630480Y-107726499D01*
X86731519Y-108190197D01*
X86605783Y-108274212D01*
X86089634Y-108897029D01*
X67961366Y-108897029D01*
X67445217Y-108274212D01*
X66560232Y-107784370D01*
X65596686Y-107476593D01*
X64591611Y-107362707D01*
X63583630Y-107447090D01*
X62611480Y-107726499D01*
X61712519Y-108190197D01*
X61586783Y-108274212D01*
X61070634Y-108897029D01*
X42942366Y-108897029D01*
X42426217Y-108274212D01*
X41541232Y-107784370D01*
X40577686Y-107476593D01*
X39572611Y-107362707D01*
X38564630Y-107447090D01*
X37592480Y-107726499D01*
X36693519Y-108190197D01*
X36567783Y-108274212D01*
X36051634Y-108897029D01*
X27711000Y-108897029D01*
X27711000Y-76141971D01*
X36051634Y-76141971D01*
X36567783Y-76764788D01*
X37452768Y-77254630D01*
X38416314Y-77562407D01*
X39421389Y-77676293D01*
X40429370Y-77591910D01*
X41401520Y-77312501D01*
X42300481Y-76848803D01*
X42426217Y-76764788D01*
X42942366Y-76141971D01*
X61070634Y-76141971D01*
X61586783Y-76764788D01*
X62471768Y-77254630D01*
X63435314Y-77562407D01*
X64440389Y-77676293D01*
X65448370Y-77591910D01*
X66420520Y-77312501D01*
X67319481Y-76848803D01*
X67445217Y-76764788D01*
X67961366Y-76141971D01*
X86089634Y-76141971D01*
X86605783Y-76764788D01*
X87490768Y-77254630D01*
X88454314Y-77562407D01*
X89459389Y-77676293D01*
X90467370Y-77591910D01*
X91439520Y-77312501D01*
X92338481Y-76848803D01*
X92464217Y-76764788D01*
X92980366Y-76141971D01*
X111108634Y-76141971D01*
X111624783Y-76764788D01*
X112509768Y-77254630D01*
X113473314Y-77562407D01*
X114478389Y-77676293D01*
X115486370Y-77591910D01*
X116458520Y-77312501D01*
X117357481Y-76848803D01*
X117483217Y-76764788D01*
X117999366Y-76141971D01*
X114554000Y-72696605D01*
X111108634Y-76141971D01*
X92980366Y-76141971D01*
X89535000Y-72696605D01*
X86089634Y-76141971D01*
X67961366Y-76141971D01*
X64516000Y-72696605D01*
X61070634Y-76141971D01*
X42942366Y-76141971D01*
X39497000Y-72696605D01*
X36051634Y-76141971D01*
X27711000Y-76141971D01*
X27711000Y-72441389D01*
X34337707Y-72441389D01*
X34422090Y-73449370D01*
X34701499Y-74421520D01*
X35165197Y-75320481D01*
X35249212Y-75446217D01*
X35872029Y-75962366D01*
X39317395Y-72517000D01*
X39676605Y-72517000D01*
X43121971Y-75962366D01*
X43744788Y-75446217D01*
X44234630Y-74561232D01*
X44542407Y-73597686D01*
X44656293Y-72592611D01*
X44643634Y-72441389D01*
X59356707Y-72441389D01*
X59441090Y-73449370D01*
X59720499Y-74421520D01*
X60184197Y-75320481D01*
X60268212Y-75446217D01*
X60891029Y-75962366D01*
X64336395Y-72517000D01*
X64695605Y-72517000D01*
X68140971Y-75962366D01*
X68763788Y-75446217D01*
X69253630Y-74561232D01*
X69561407Y-73597686D01*
X69675293Y-72592611D01*
X69662634Y-72441389D01*
X84375707Y-72441389D01*
X84460090Y-73449370D01*
X84739499Y-74421520D01*
X85203197Y-75320481D01*
X85287212Y-75446217D01*
X85910029Y-75962366D01*
X89355395Y-72517000D01*
X89714605Y-72517000D01*
X93159971Y-75962366D01*
X93782788Y-75446217D01*
X94272630Y-74561232D01*
X94580407Y-73597686D01*
X94694293Y-72592611D01*
X94681634Y-72441389D01*
X109394707Y-72441389D01*
X109479090Y-73449370D01*
X109758499Y-74421520D01*
X110222197Y-75320481D01*
X110306212Y-75446217D01*
X110929029Y-75962366D01*
X114374395Y-72517000D01*
X114733605Y-72517000D01*
X118178971Y-75962366D01*
X118801788Y-75446217D01*
X119291630Y-74561232D01*
X119599407Y-73597686D01*
X119713293Y-72592611D01*
X119628910Y-71584630D01*
X119349501Y-70612480D01*
X118885803Y-69713519D01*
X118801788Y-69587783D01*
X118178971Y-69071634D01*
X114733605Y-72517000D01*
X114374395Y-72517000D01*
X110929029Y-69071634D01*
X110306212Y-69587783D01*
X109816370Y-70472768D01*
X109508593Y-71436314D01*
X109394707Y-72441389D01*
X94681634Y-72441389D01*
X94609910Y-71584630D01*
X94330501Y-70612480D01*
X93866803Y-69713519D01*
X93782788Y-69587783D01*
X93159971Y-69071634D01*
X89714605Y-72517000D01*
X89355395Y-72517000D01*
X85910029Y-69071634D01*
X85287212Y-69587783D01*
X84797370Y-70472768D01*
X84489593Y-71436314D01*
X84375707Y-72441389D01*
X69662634Y-72441389D01*
X69590910Y-71584630D01*
X69311501Y-70612480D01*
X68847803Y-69713519D01*
X68763788Y-69587783D01*
X68140971Y-69071634D01*
X64695605Y-72517000D01*
X64336395Y-72517000D01*
X60891029Y-69071634D01*
X60268212Y-69587783D01*
X59778370Y-70472768D01*
X59470593Y-71436314D01*
X59356707Y-72441389D01*
X44643634Y-72441389D01*
X44571910Y-71584630D01*
X44292501Y-70612480D01*
X43828803Y-69713519D01*
X43744788Y-69587783D01*
X43121971Y-69071634D01*
X39676605Y-72517000D01*
X39317395Y-72517000D01*
X35872029Y-69071634D01*
X35249212Y-69587783D01*
X34759370Y-70472768D01*
X34451593Y-71436314D01*
X34337707Y-72441389D01*
X27711000Y-72441389D01*
X27711000Y-68892029D01*
X36051634Y-68892029D01*
X39497000Y-72337395D01*
X42942366Y-68892029D01*
X61070634Y-68892029D01*
X64516000Y-72337395D01*
X67961366Y-68892029D01*
X86089634Y-68892029D01*
X89535000Y-72337395D01*
X92980366Y-68892029D01*
X111108634Y-68892029D01*
X114554000Y-72337395D01*
X117999366Y-68892029D01*
X117483217Y-68269212D01*
X116598232Y-67779370D01*
X115634686Y-67471593D01*
X114629611Y-67357707D01*
X113621630Y-67442090D01*
X112649480Y-67721499D01*
X111750519Y-68185197D01*
X111624783Y-68269212D01*
X111108634Y-68892029D01*
X92980366Y-68892029D01*
X92464217Y-68269212D01*
X91579232Y-67779370D01*
X90615686Y-67471593D01*
X89610611Y-67357707D01*
X88602630Y-67442090D01*
X87630480Y-67721499D01*
X86731519Y-68185197D01*
X86605783Y-68269212D01*
X86089634Y-68892029D01*
X67961366Y-68892029D01*
X67445217Y-68269212D01*
X66560232Y-67779370D01*
X65596686Y-67471593D01*
X64591611Y-67357707D01*
X63583630Y-67442090D01*
X62611480Y-67721499D01*
X61712519Y-68185197D01*
X61586783Y-68269212D01*
X61070634Y-68892029D01*
X42942366Y-68892029D01*
X42426217Y-68269212D01*
X41541232Y-67779370D01*
X40577686Y-67471593D01*
X39572611Y-67357707D01*
X38564630Y-67442090D01*
X37592480Y-67721499D01*
X36693519Y-68185197D01*
X36567783Y-68269212D01*
X36051634Y-68892029D01*
X27711000Y-68892029D01*
X27711000Y-36136971D01*
X36051634Y-36136971D01*
X36567783Y-36759788D01*
X37452768Y-37249630D01*
X38416314Y-37557407D01*
X39421389Y-37671293D01*
X40429370Y-37586910D01*
X41401520Y-37307501D01*
X42300481Y-36843803D01*
X42426217Y-36759788D01*
X42942366Y-36136971D01*
X61070634Y-36136971D01*
X61586783Y-36759788D01*
X62471768Y-37249630D01*
X63435314Y-37557407D01*
X64440389Y-37671293D01*
X65448370Y-37586910D01*
X66420520Y-37307501D01*
X67319481Y-36843803D01*
X67445217Y-36759788D01*
X67961366Y-36136971D01*
X86089634Y-36136971D01*
X86605783Y-36759788D01*
X87490768Y-37249630D01*
X88454314Y-37557407D01*
X89459389Y-37671293D01*
X90467370Y-37586910D01*
X91439520Y-37307501D01*
X92338481Y-36843803D01*
X92464217Y-36759788D01*
X92980366Y-36136971D01*
X110981634Y-36136971D01*
X111497783Y-36759788D01*
X112382768Y-37249630D01*
X113346314Y-37557407D01*
X114351389Y-37671293D01*
X115359370Y-37586910D01*
X116331520Y-37307501D01*
X117230481Y-36843803D01*
X117356217Y-36759788D01*
X117872366Y-36136971D01*
X114427000Y-32691605D01*
X110981634Y-36136971D01*
X92980366Y-36136971D01*
X89535000Y-32691605D01*
X86089634Y-36136971D01*
X67961366Y-36136971D01*
X64516000Y-32691605D01*
X61070634Y-36136971D01*
X42942366Y-36136971D01*
X39497000Y-32691605D01*
X36051634Y-36136971D01*
X27711000Y-36136971D01*
X27711000Y-32436389D01*
X34337707Y-32436389D01*
X34422090Y-33444370D01*
X34701499Y-34416520D01*
X35165197Y-35315481D01*
X35249212Y-35441217D01*
X35872029Y-35957366D01*
X39317395Y-32512000D01*
X39676605Y-32512000D01*
X43121971Y-35957366D01*
X43744788Y-35441217D01*
X44234630Y-34556232D01*
X44542407Y-33592686D01*
X44656293Y-32587611D01*
X44643634Y-32436389D01*
X59356707Y-32436389D01*
X59441090Y-33444370D01*
X59720499Y-34416520D01*
X60184197Y-35315481D01*
X60268212Y-35441217D01*
X60891029Y-35957366D01*
X64336395Y-32512000D01*
X64695605Y-32512000D01*
X68140971Y-35957366D01*
X68763788Y-35441217D01*
X69253630Y-34556232D01*
X69561407Y-33592686D01*
X69675293Y-32587611D01*
X69662634Y-32436389D01*
X84375707Y-32436389D01*
X84460090Y-33444370D01*
X84739499Y-34416520D01*
X85203197Y-35315481D01*
X85287212Y-35441217D01*
X85910029Y-35957366D01*
X89355395Y-32512000D01*
X89714605Y-32512000D01*
X93159971Y-35957366D01*
X93782788Y-35441217D01*
X94272630Y-34556232D01*
X94580407Y-33592686D01*
X94694293Y-32587611D01*
X94681634Y-32436389D01*
X109267707Y-32436389D01*
X109352090Y-33444370D01*
X109631499Y-34416520D01*
X110095197Y-35315481D01*
X110179212Y-35441217D01*
X110802029Y-35957366D01*
X114247395Y-32512000D01*
X114606605Y-32512000D01*
X118051971Y-35957366D01*
X118674788Y-35441217D01*
X119164630Y-34556232D01*
X119472407Y-33592686D01*
X119586293Y-32587611D01*
X119501910Y-31579630D01*
X119222501Y-30607480D01*
X118758803Y-29708519D01*
X118674788Y-29582783D01*
X118051971Y-29066634D01*
X114606605Y-32512000D01*
X114247395Y-32512000D01*
X110802029Y-29066634D01*
X110179212Y-29582783D01*
X109689370Y-30467768D01*
X109381593Y-31431314D01*
X109267707Y-32436389D01*
X94681634Y-32436389D01*
X94609910Y-31579630D01*
X94330501Y-30607480D01*
X93866803Y-29708519D01*
X93782788Y-29582783D01*
X93159971Y-29066634D01*
X89714605Y-32512000D01*
X89355395Y-32512000D01*
X85910029Y-29066634D01*
X85287212Y-29582783D01*
X84797370Y-30467768D01*
X84489593Y-31431314D01*
X84375707Y-32436389D01*
X69662634Y-32436389D01*
X69590910Y-31579630D01*
X69311501Y-30607480D01*
X68847803Y-29708519D01*
X68763788Y-29582783D01*
X68140971Y-29066634D01*
X64695605Y-32512000D01*
X64336395Y-32512000D01*
X60891029Y-29066634D01*
X60268212Y-29582783D01*
X59778370Y-30467768D01*
X59470593Y-31431314D01*
X59356707Y-32436389D01*
X44643634Y-32436389D01*
X44571910Y-31579630D01*
X44292501Y-30607480D01*
X43828803Y-29708519D01*
X43744788Y-29582783D01*
X43121971Y-29066634D01*
X39676605Y-32512000D01*
X39317395Y-32512000D01*
X35872029Y-29066634D01*
X35249212Y-29582783D01*
X34759370Y-30467768D01*
X34451593Y-31431314D01*
X34337707Y-32436389D01*
X27711000Y-32436389D01*
X27711000Y-28887029D01*
X36051634Y-28887029D01*
X39497000Y-32332395D01*
X42942366Y-28887029D01*
X61070634Y-28887029D01*
X64516000Y-32332395D01*
X67961366Y-28887029D01*
X86089634Y-28887029D01*
X89535000Y-32332395D01*
X92980366Y-28887029D01*
X110981634Y-28887029D01*
X114427000Y-32332395D01*
X117872366Y-28887029D01*
X117356217Y-28264212D01*
X116471232Y-27774370D01*
X115507686Y-27466593D01*
X114502611Y-27352707D01*
X113494630Y-27437090D01*
X112522480Y-27716499D01*
X111623519Y-28180197D01*
X111497783Y-28264212D01*
X110981634Y-28887029D01*
X92980366Y-28887029D01*
X92464217Y-28264212D01*
X91579232Y-27774370D01*
X90615686Y-27466593D01*
X89610611Y-27352707D01*
X88602630Y-27437090D01*
X87630480Y-27716499D01*
X86731519Y-28180197D01*
X86605783Y-28264212D01*
X86089634Y-28887029D01*
X67961366Y-28887029D01*
X67445217Y-28264212D01*
X66560232Y-27774370D01*
X65596686Y-27466593D01*
X64591611Y-27352707D01*
X63583630Y-27437090D01*
X62611480Y-27716499D01*
X61712519Y-28180197D01*
X61586783Y-28264212D01*
X61070634Y-28887029D01*
X42942366Y-28887029D01*
X42426217Y-28264212D01*
X41541232Y-27774370D01*
X40577686Y-27466593D01*
X39572611Y-27352707D01*
X38564630Y-27437090D01*
X37592480Y-27716499D01*
X36693519Y-28180197D01*
X36567783Y-28264212D01*
X36051634Y-28887029D01*
X27711000Y-28887029D01*
X27711000Y-22526607D01*
X93897000Y-22526607D01*
X93897000Y-23193393D01*
X94027083Y-23847368D01*
X94282252Y-24463399D01*
X94652698Y-25017812D01*
X95124188Y-25489302D01*
X95678601Y-25859748D01*
X96294632Y-26114917D01*
X96948607Y-26245000D01*
X97615393Y-26245000D01*
X98269368Y-26114917D01*
X98885399Y-25859748D01*
X99439812Y-25489302D01*
X99911302Y-25017812D01*
X100281748Y-24463399D01*
X100536917Y-23847368D01*
X100667000Y-23193393D01*
X100667000Y-22526607D01*
X118916000Y-22526607D01*
X118916000Y-23193393D01*
X119046083Y-23847368D01*
X119301252Y-24463399D01*
X119671698Y-25017812D01*
X120143188Y-25489302D01*
X120697601Y-25859748D01*
X121313632Y-26114917D01*
X121967607Y-26245000D01*
X122634393Y-26245000D01*
X123288368Y-26114917D01*
X123904399Y-25859748D01*
X124458812Y-25489302D01*
X124930302Y-25017812D01*
X125300748Y-24463399D01*
X125555917Y-23847368D01*
X125686000Y-23193393D01*
X125686000Y-22526607D01*
X125555917Y-21872632D01*
X125300748Y-21256601D01*
X124930302Y-20702188D01*
X124458812Y-20230698D01*
X123904399Y-19860252D01*
X123288368Y-19605083D01*
X122634393Y-19475000D01*
X121967607Y-19475000D01*
X121313632Y-19605083D01*
X120697601Y-19860252D01*
X120143188Y-20230698D01*
X119671698Y-20702188D01*
X119301252Y-21256601D01*
X119046083Y-21872632D01*
X118916000Y-22526607D01*
X100667000Y-22526607D01*
X100536917Y-21872632D01*
X100281748Y-21256601D01*
X99911302Y-20702188D01*
X99439812Y-20230698D01*
X98885399Y-19860252D01*
X98269368Y-19605083D01*
X97615393Y-19475000D01*
X96948607Y-19475000D01*
X96294632Y-19605083D01*
X95678601Y-19860252D01*
X95124188Y-20230698D01*
X94652698Y-20702188D01*
X94282252Y-21256601D01*
X94027083Y-21872632D01*
X93897000Y-22526607D01*
X27711000Y-22526607D01*
X27711000Y-11759470D01*
X27837519Y-12026331D01*
X28145970Y-12441424D01*
X28529475Y-12788365D01*
X28973296Y-13053822D01*
X29460377Y-13227593D01*
X29972000Y-13303000D01*
X31372000Y-13303000D01*
X31372000Y-10795000D01*
X31626000Y-10795000D01*
X31626000Y-13303000D01*
X33026000Y-13303000D01*
X33537623Y-13227593D01*
X34024704Y-13053822D01*
X34468525Y-12788365D01*
X34852030Y-12441424D01*
X35160481Y-12026331D01*
X35382025Y-11559038D01*
X35478667Y-11205162D01*
X35445637Y-11078162D01*
X118324333Y-11078162D01*
X118420975Y-11432038D01*
X118642519Y-11899331D01*
X118950970Y-12314424D01*
X119334475Y-12661365D01*
X119778296Y-12926822D01*
X120265377Y-13100593D01*
X120777000Y-13176000D01*
X122177000Y-13176000D01*
X122177000Y-10668000D01*
X122431000Y-10668000D01*
X122431000Y-13176000D01*
X123831000Y-13176000D01*
X124342623Y-13100593D01*
X124829704Y-12926822D01*
X125273525Y-12661365D01*
X125657030Y-12314424D01*
X125965481Y-11899331D01*
X126187025Y-11432038D01*
X126283667Y-11078162D01*
X126176991Y-10668000D01*
X122431000Y-10668000D01*
X122177000Y-10668000D01*
X118431009Y-10668000D01*
X118324333Y-11078162D01*
X35445637Y-11078162D01*
X35371991Y-10795000D01*
X31626000Y-10795000D01*
X31372000Y-10795000D01*
X31352000Y-10795000D01*
X31352000Y-10541000D01*
X31372000Y-10541000D01*
X31372000Y-10521000D01*
X31626000Y-10521000D01*
X31626000Y-10541000D01*
X35371991Y-10541000D01*
X35478667Y-10130838D01*
X35382025Y-9776962D01*
X35160481Y-9309669D01*
X34852030Y-8894576D01*
X34468525Y-8547635D01*
X34024704Y-8282178D01*
X33662617Y-8153000D01*
X119784401Y-8153000D01*
X119778296Y-8155178D01*
G37*
%TD.AperFunction*%
%TD*%
M02*
