%TF.GenerationSoftware,KiCad,Pcbnew,(5.1.9)-1*%
%TF.CreationDate,2021-09-12T18:44:50+01:00*%
%TF.ProjectId,Function Generator Front Panel,46756e63-7469-46f6-9e20-47656e657261,rev?*%
%TF.SameCoordinates,Original*%
%TF.FileFunction,Other,Fab,Top*%
%FSLAX46Y46*%
G04 Gerber Fmt 4.6, Leading zero omitted, Abs format (unit mm)*
G04 Created by KiCad (PCBNEW (5.1.9)-1) date 2021-09-12 18:44:50*
%MOMM*%
%LPD*%
G01*
G04 APERTURE LIST*
%ADD10C,0.150000*%
G04 APERTURE END LIST*
%TO.C,REF\u002A\u002A*%
D10*
X78549666Y-193103380D02*
X78216333Y-192627190D01*
X77978238Y-193103380D02*
X77978238Y-192103380D01*
X78359190Y-192103380D01*
X78454428Y-192151000D01*
X78502047Y-192198619D01*
X78549666Y-192293857D01*
X78549666Y-192436714D01*
X78502047Y-192531952D01*
X78454428Y-192579571D01*
X78359190Y-192627190D01*
X77978238Y-192627190D01*
X78978238Y-192579571D02*
X79311571Y-192579571D01*
X79454428Y-193103380D02*
X78978238Y-193103380D01*
X78978238Y-192103380D01*
X79454428Y-192103380D01*
X80216333Y-192579571D02*
X79883000Y-192579571D01*
X79883000Y-193103380D02*
X79883000Y-192103380D01*
X80359190Y-192103380D01*
X80883000Y-192103380D02*
X80883000Y-192341476D01*
X80644904Y-192246238D02*
X80883000Y-192341476D01*
X81121095Y-192246238D01*
X80740142Y-192531952D02*
X80883000Y-192341476D01*
X81025857Y-192531952D01*
X81644904Y-192103380D02*
X81644904Y-192341476D01*
X81406809Y-192246238D02*
X81644904Y-192341476D01*
X81883000Y-192246238D01*
X81502047Y-192531952D02*
X81644904Y-192341476D01*
X81787761Y-192531952D01*
X77359190Y-191103380D02*
X77168714Y-191103380D01*
X77073476Y-191151000D01*
X77025857Y-191198619D01*
X76930619Y-191341476D01*
X76883000Y-191531952D01*
X76883000Y-191912904D01*
X76930619Y-192008142D01*
X76978238Y-192055761D01*
X77073476Y-192103380D01*
X77263952Y-192103380D01*
X77359190Y-192055761D01*
X77406809Y-192008142D01*
X77454428Y-191912904D01*
X77454428Y-191674809D01*
X77406809Y-191579571D01*
X77359190Y-191531952D01*
X77263952Y-191484333D01*
X77073476Y-191484333D01*
X76978238Y-191531952D01*
X76930619Y-191579571D01*
X76883000Y-191674809D01*
X77883000Y-191722428D02*
X78644904Y-191722428D01*
X78263952Y-192103380D02*
X78263952Y-191341476D01*
X79644904Y-192103380D02*
X79073476Y-192103380D01*
X79359190Y-192103380D02*
X79359190Y-191103380D01*
X79263952Y-191246238D01*
X79168714Y-191341476D01*
X79073476Y-191389095D01*
X80216333Y-192103380D02*
X80121095Y-192055761D01*
X80073476Y-191960523D01*
X80073476Y-191103380D01*
X80740142Y-192103380D02*
X80644904Y-192055761D01*
X80597285Y-192008142D01*
X80549666Y-191912904D01*
X80549666Y-191627190D01*
X80597285Y-191531952D01*
X80644904Y-191484333D01*
X80740142Y-191436714D01*
X80883000Y-191436714D01*
X80978238Y-191484333D01*
X81025857Y-191531952D01*
X81073476Y-191627190D01*
X81073476Y-191912904D01*
X81025857Y-192008142D01*
X80978238Y-192055761D01*
X80883000Y-192103380D01*
X80740142Y-192103380D01*
X81930619Y-191436714D02*
X81930619Y-192246238D01*
X81883000Y-192341476D01*
X81835380Y-192389095D01*
X81740142Y-192436714D01*
X81597285Y-192436714D01*
X81502047Y-192389095D01*
X81930619Y-192055761D02*
X81835380Y-192103380D01*
X81644904Y-192103380D01*
X81549666Y-192055761D01*
X81502047Y-192008142D01*
X81454428Y-191912904D01*
X81454428Y-191627190D01*
X81502047Y-191531952D01*
X81549666Y-191484333D01*
X81644904Y-191436714D01*
X81835380Y-191436714D01*
X81930619Y-191484333D01*
X82549666Y-192103380D02*
X82454428Y-192055761D01*
X82406809Y-192008142D01*
X82359190Y-191912904D01*
X82359190Y-191627190D01*
X82406809Y-191531952D01*
X82454428Y-191484333D01*
X82549666Y-191436714D01*
X82692523Y-191436714D01*
X82787761Y-191484333D01*
X82835380Y-191531952D01*
X82883000Y-191627190D01*
X82883000Y-191912904D01*
X82835380Y-192008142D01*
X82787761Y-192055761D01*
X82692523Y-192103380D01*
X82549666Y-192103380D01*
%TO.C,H1*%
X114113523Y-15193380D02*
X114113523Y-14193380D01*
X114446857Y-14907666D01*
X114780190Y-14193380D01*
X114780190Y-15193380D01*
X115399238Y-15193380D02*
X115304000Y-15145761D01*
X115256380Y-15098142D01*
X115208761Y-15002904D01*
X115208761Y-14717190D01*
X115256380Y-14621952D01*
X115304000Y-14574333D01*
X115399238Y-14526714D01*
X115542095Y-14526714D01*
X115637333Y-14574333D01*
X115684952Y-14621952D01*
X115732571Y-14717190D01*
X115732571Y-15002904D01*
X115684952Y-15098142D01*
X115637333Y-15145761D01*
X115542095Y-15193380D01*
X115399238Y-15193380D01*
X116589714Y-14526714D02*
X116589714Y-15193380D01*
X116161142Y-14526714D02*
X116161142Y-15050523D01*
X116208761Y-15145761D01*
X116304000Y-15193380D01*
X116446857Y-15193380D01*
X116542095Y-15145761D01*
X116589714Y-15098142D01*
X117065904Y-14526714D02*
X117065904Y-15193380D01*
X117065904Y-14621952D02*
X117113523Y-14574333D01*
X117208761Y-14526714D01*
X117351619Y-14526714D01*
X117446857Y-14574333D01*
X117494476Y-14669571D01*
X117494476Y-15193380D01*
X117827809Y-14526714D02*
X118208761Y-14526714D01*
X117970666Y-14193380D02*
X117970666Y-15050523D01*
X118018285Y-15145761D01*
X118113523Y-15193380D01*
X118208761Y-15193380D01*
X118542095Y-15193380D02*
X118542095Y-14526714D01*
X118542095Y-14193380D02*
X118494476Y-14241000D01*
X118542095Y-14288619D01*
X118589714Y-14241000D01*
X118542095Y-14193380D01*
X118542095Y-14288619D01*
X119018285Y-14526714D02*
X119018285Y-15193380D01*
X119018285Y-14621952D02*
X119065904Y-14574333D01*
X119161142Y-14526714D01*
X119304000Y-14526714D01*
X119399238Y-14574333D01*
X119446857Y-14669571D01*
X119446857Y-15193380D01*
X120351619Y-14526714D02*
X120351619Y-15336238D01*
X120304000Y-15431476D01*
X120256380Y-15479095D01*
X120161142Y-15526714D01*
X120018285Y-15526714D01*
X119923047Y-15479095D01*
X120351619Y-15145761D02*
X120256380Y-15193380D01*
X120065904Y-15193380D01*
X119970666Y-15145761D01*
X119923047Y-15098142D01*
X119875428Y-15002904D01*
X119875428Y-14717190D01*
X119923047Y-14621952D01*
X119970666Y-14574333D01*
X120065904Y-14526714D01*
X120256380Y-14526714D01*
X120351619Y-14574333D01*
X120589714Y-15288619D02*
X121351619Y-15288619D01*
X121589714Y-15193380D02*
X121589714Y-14193380D01*
X121589714Y-14669571D02*
X122161142Y-14669571D01*
X122161142Y-15193380D02*
X122161142Y-14193380D01*
X122780190Y-15193380D02*
X122684952Y-15145761D01*
X122637333Y-15098142D01*
X122589714Y-15002904D01*
X122589714Y-14717190D01*
X122637333Y-14621952D01*
X122684952Y-14574333D01*
X122780190Y-14526714D01*
X122923047Y-14526714D01*
X123018285Y-14574333D01*
X123065904Y-14621952D01*
X123113523Y-14717190D01*
X123113523Y-15002904D01*
X123065904Y-15098142D01*
X123018285Y-15145761D01*
X122923047Y-15193380D01*
X122780190Y-15193380D01*
X123684952Y-15193380D02*
X123589714Y-15145761D01*
X123542095Y-15050523D01*
X123542095Y-14193380D01*
X124446857Y-15145761D02*
X124351619Y-15193380D01*
X124161142Y-15193380D01*
X124065904Y-15145761D01*
X124018285Y-15050523D01*
X124018285Y-14669571D01*
X124065904Y-14574333D01*
X124161142Y-14526714D01*
X124351619Y-14526714D01*
X124446857Y-14574333D01*
X124494476Y-14669571D01*
X124494476Y-14764809D01*
X124018285Y-14860047D01*
X124684952Y-15288619D02*
X125446857Y-15288619D01*
X125637333Y-15145761D02*
X125780190Y-15193380D01*
X126018285Y-15193380D01*
X126113523Y-15145761D01*
X126161142Y-15098142D01*
X126208761Y-15002904D01*
X126208761Y-14907666D01*
X126161142Y-14812428D01*
X126113523Y-14764809D01*
X126018285Y-14717190D01*
X125827809Y-14669571D01*
X125732571Y-14621952D01*
X125684952Y-14574333D01*
X125637333Y-14479095D01*
X125637333Y-14383857D01*
X125684952Y-14288619D01*
X125732571Y-14241000D01*
X125827809Y-14193380D01*
X126065904Y-14193380D01*
X126208761Y-14241000D01*
X126780190Y-15193380D02*
X126684952Y-15145761D01*
X126637333Y-15050523D01*
X126637333Y-14193380D01*
X127304000Y-15193380D02*
X127208761Y-15145761D01*
X127161142Y-15098142D01*
X127113523Y-15002904D01*
X127113523Y-14717190D01*
X127161142Y-14621952D01*
X127208761Y-14574333D01*
X127304000Y-14526714D01*
X127446857Y-14526714D01*
X127542095Y-14574333D01*
X127589714Y-14621952D01*
X127637333Y-14717190D01*
X127637333Y-15002904D01*
X127589714Y-15098142D01*
X127542095Y-15145761D01*
X127446857Y-15193380D01*
X127304000Y-15193380D01*
X127923047Y-14526714D02*
X128304000Y-14526714D01*
X128065904Y-14193380D02*
X128065904Y-15050523D01*
X128113523Y-15145761D01*
X128208761Y-15193380D01*
X128304000Y-15193380D01*
X128494476Y-14526714D02*
X128875428Y-14526714D01*
X128637333Y-14193380D02*
X128637333Y-15050523D01*
X128684952Y-15145761D01*
X128780190Y-15193380D01*
X128875428Y-15193380D01*
X129589714Y-15145761D02*
X129494476Y-15193380D01*
X129304000Y-15193380D01*
X129208761Y-15145761D01*
X129161142Y-15050523D01*
X129161142Y-14669571D01*
X129208761Y-14574333D01*
X129304000Y-14526714D01*
X129494476Y-14526714D01*
X129589714Y-14574333D01*
X129637333Y-14669571D01*
X129637333Y-14764809D01*
X129161142Y-14860047D01*
X130494476Y-15193380D02*
X130494476Y-14193380D01*
X130494476Y-15145761D02*
X130399238Y-15193380D01*
X130208761Y-15193380D01*
X130113523Y-15145761D01*
X130065904Y-15098142D01*
X130018285Y-15002904D01*
X130018285Y-14717190D01*
X130065904Y-14621952D01*
X130113523Y-14574333D01*
X130208761Y-14526714D01*
X130399238Y-14526714D01*
X130494476Y-14574333D01*
X121842095Y-10993380D02*
X121842095Y-9993380D01*
X121842095Y-10469571D02*
X122413523Y-10469571D01*
X122413523Y-10993380D02*
X122413523Y-9993380D01*
X123413523Y-10993380D02*
X122842095Y-10993380D01*
X123127809Y-10993380D02*
X123127809Y-9993380D01*
X123032571Y-10136238D01*
X122937333Y-10231476D01*
X122842095Y-10279095D01*
%TO.C,H2*%
X23181523Y-209122380D02*
X23181523Y-208122380D01*
X23514857Y-208836666D01*
X23848190Y-208122380D01*
X23848190Y-209122380D01*
X24467238Y-209122380D02*
X24372000Y-209074761D01*
X24324380Y-209027142D01*
X24276761Y-208931904D01*
X24276761Y-208646190D01*
X24324380Y-208550952D01*
X24372000Y-208503333D01*
X24467238Y-208455714D01*
X24610095Y-208455714D01*
X24705333Y-208503333D01*
X24752952Y-208550952D01*
X24800571Y-208646190D01*
X24800571Y-208931904D01*
X24752952Y-209027142D01*
X24705333Y-209074761D01*
X24610095Y-209122380D01*
X24467238Y-209122380D01*
X25657714Y-208455714D02*
X25657714Y-209122380D01*
X25229142Y-208455714D02*
X25229142Y-208979523D01*
X25276761Y-209074761D01*
X25372000Y-209122380D01*
X25514857Y-209122380D01*
X25610095Y-209074761D01*
X25657714Y-209027142D01*
X26133904Y-208455714D02*
X26133904Y-209122380D01*
X26133904Y-208550952D02*
X26181523Y-208503333D01*
X26276761Y-208455714D01*
X26419619Y-208455714D01*
X26514857Y-208503333D01*
X26562476Y-208598571D01*
X26562476Y-209122380D01*
X26895809Y-208455714D02*
X27276761Y-208455714D01*
X27038666Y-208122380D02*
X27038666Y-208979523D01*
X27086285Y-209074761D01*
X27181523Y-209122380D01*
X27276761Y-209122380D01*
X27610095Y-209122380D02*
X27610095Y-208455714D01*
X27610095Y-208122380D02*
X27562476Y-208170000D01*
X27610095Y-208217619D01*
X27657714Y-208170000D01*
X27610095Y-208122380D01*
X27610095Y-208217619D01*
X28086285Y-208455714D02*
X28086285Y-209122380D01*
X28086285Y-208550952D02*
X28133904Y-208503333D01*
X28229142Y-208455714D01*
X28372000Y-208455714D01*
X28467238Y-208503333D01*
X28514857Y-208598571D01*
X28514857Y-209122380D01*
X29419619Y-208455714D02*
X29419619Y-209265238D01*
X29372000Y-209360476D01*
X29324380Y-209408095D01*
X29229142Y-209455714D01*
X29086285Y-209455714D01*
X28991047Y-209408095D01*
X29419619Y-209074761D02*
X29324380Y-209122380D01*
X29133904Y-209122380D01*
X29038666Y-209074761D01*
X28991047Y-209027142D01*
X28943428Y-208931904D01*
X28943428Y-208646190D01*
X28991047Y-208550952D01*
X29038666Y-208503333D01*
X29133904Y-208455714D01*
X29324380Y-208455714D01*
X29419619Y-208503333D01*
X29657714Y-209217619D02*
X30419619Y-209217619D01*
X30657714Y-209122380D02*
X30657714Y-208122380D01*
X30657714Y-208598571D02*
X31229142Y-208598571D01*
X31229142Y-209122380D02*
X31229142Y-208122380D01*
X31848190Y-209122380D02*
X31752952Y-209074761D01*
X31705333Y-209027142D01*
X31657714Y-208931904D01*
X31657714Y-208646190D01*
X31705333Y-208550952D01*
X31752952Y-208503333D01*
X31848190Y-208455714D01*
X31991047Y-208455714D01*
X32086285Y-208503333D01*
X32133904Y-208550952D01*
X32181523Y-208646190D01*
X32181523Y-208931904D01*
X32133904Y-209027142D01*
X32086285Y-209074761D01*
X31991047Y-209122380D01*
X31848190Y-209122380D01*
X32752952Y-209122380D02*
X32657714Y-209074761D01*
X32610095Y-208979523D01*
X32610095Y-208122380D01*
X33514857Y-209074761D02*
X33419619Y-209122380D01*
X33229142Y-209122380D01*
X33133904Y-209074761D01*
X33086285Y-208979523D01*
X33086285Y-208598571D01*
X33133904Y-208503333D01*
X33229142Y-208455714D01*
X33419619Y-208455714D01*
X33514857Y-208503333D01*
X33562476Y-208598571D01*
X33562476Y-208693809D01*
X33086285Y-208789047D01*
X33752952Y-209217619D02*
X34514857Y-209217619D01*
X34705333Y-209074761D02*
X34848190Y-209122380D01*
X35086285Y-209122380D01*
X35181523Y-209074761D01*
X35229142Y-209027142D01*
X35276761Y-208931904D01*
X35276761Y-208836666D01*
X35229142Y-208741428D01*
X35181523Y-208693809D01*
X35086285Y-208646190D01*
X34895809Y-208598571D01*
X34800571Y-208550952D01*
X34752952Y-208503333D01*
X34705333Y-208408095D01*
X34705333Y-208312857D01*
X34752952Y-208217619D01*
X34800571Y-208170000D01*
X34895809Y-208122380D01*
X35133904Y-208122380D01*
X35276761Y-208170000D01*
X35848190Y-209122380D02*
X35752952Y-209074761D01*
X35705333Y-208979523D01*
X35705333Y-208122380D01*
X36372000Y-209122380D02*
X36276761Y-209074761D01*
X36229142Y-209027142D01*
X36181523Y-208931904D01*
X36181523Y-208646190D01*
X36229142Y-208550952D01*
X36276761Y-208503333D01*
X36372000Y-208455714D01*
X36514857Y-208455714D01*
X36610095Y-208503333D01*
X36657714Y-208550952D01*
X36705333Y-208646190D01*
X36705333Y-208931904D01*
X36657714Y-209027142D01*
X36610095Y-209074761D01*
X36514857Y-209122380D01*
X36372000Y-209122380D01*
X36991047Y-208455714D02*
X37372000Y-208455714D01*
X37133904Y-208122380D02*
X37133904Y-208979523D01*
X37181523Y-209074761D01*
X37276761Y-209122380D01*
X37372000Y-209122380D01*
X37562476Y-208455714D02*
X37943428Y-208455714D01*
X37705333Y-208122380D02*
X37705333Y-208979523D01*
X37752952Y-209074761D01*
X37848190Y-209122380D01*
X37943428Y-209122380D01*
X38657714Y-209074761D02*
X38562476Y-209122380D01*
X38372000Y-209122380D01*
X38276761Y-209074761D01*
X38229142Y-208979523D01*
X38229142Y-208598571D01*
X38276761Y-208503333D01*
X38372000Y-208455714D01*
X38562476Y-208455714D01*
X38657714Y-208503333D01*
X38705333Y-208598571D01*
X38705333Y-208693809D01*
X38229142Y-208789047D01*
X39562476Y-209122380D02*
X39562476Y-208122380D01*
X39562476Y-209074761D02*
X39467238Y-209122380D01*
X39276761Y-209122380D01*
X39181523Y-209074761D01*
X39133904Y-209027142D01*
X39086285Y-208931904D01*
X39086285Y-208646190D01*
X39133904Y-208550952D01*
X39181523Y-208503333D01*
X39276761Y-208455714D01*
X39467238Y-208455714D01*
X39562476Y-208503333D01*
X30910095Y-204922380D02*
X30910095Y-203922380D01*
X30910095Y-204398571D02*
X31481523Y-204398571D01*
X31481523Y-204922380D02*
X31481523Y-203922380D01*
X31910095Y-204017619D02*
X31957714Y-203970000D01*
X32052952Y-203922380D01*
X32291047Y-203922380D01*
X32386285Y-203970000D01*
X32433904Y-204017619D01*
X32481523Y-204112857D01*
X32481523Y-204208095D01*
X32433904Y-204350952D01*
X31862476Y-204922380D01*
X32481523Y-204922380D01*
%TO.C,H3*%
X114240523Y-209122380D02*
X114240523Y-208122380D01*
X114573857Y-208836666D01*
X114907190Y-208122380D01*
X114907190Y-209122380D01*
X115526238Y-209122380D02*
X115431000Y-209074761D01*
X115383380Y-209027142D01*
X115335761Y-208931904D01*
X115335761Y-208646190D01*
X115383380Y-208550952D01*
X115431000Y-208503333D01*
X115526238Y-208455714D01*
X115669095Y-208455714D01*
X115764333Y-208503333D01*
X115811952Y-208550952D01*
X115859571Y-208646190D01*
X115859571Y-208931904D01*
X115811952Y-209027142D01*
X115764333Y-209074761D01*
X115669095Y-209122380D01*
X115526238Y-209122380D01*
X116716714Y-208455714D02*
X116716714Y-209122380D01*
X116288142Y-208455714D02*
X116288142Y-208979523D01*
X116335761Y-209074761D01*
X116431000Y-209122380D01*
X116573857Y-209122380D01*
X116669095Y-209074761D01*
X116716714Y-209027142D01*
X117192904Y-208455714D02*
X117192904Y-209122380D01*
X117192904Y-208550952D02*
X117240523Y-208503333D01*
X117335761Y-208455714D01*
X117478619Y-208455714D01*
X117573857Y-208503333D01*
X117621476Y-208598571D01*
X117621476Y-209122380D01*
X117954809Y-208455714D02*
X118335761Y-208455714D01*
X118097666Y-208122380D02*
X118097666Y-208979523D01*
X118145285Y-209074761D01*
X118240523Y-209122380D01*
X118335761Y-209122380D01*
X118669095Y-209122380D02*
X118669095Y-208455714D01*
X118669095Y-208122380D02*
X118621476Y-208170000D01*
X118669095Y-208217619D01*
X118716714Y-208170000D01*
X118669095Y-208122380D01*
X118669095Y-208217619D01*
X119145285Y-208455714D02*
X119145285Y-209122380D01*
X119145285Y-208550952D02*
X119192904Y-208503333D01*
X119288142Y-208455714D01*
X119431000Y-208455714D01*
X119526238Y-208503333D01*
X119573857Y-208598571D01*
X119573857Y-209122380D01*
X120478619Y-208455714D02*
X120478619Y-209265238D01*
X120431000Y-209360476D01*
X120383380Y-209408095D01*
X120288142Y-209455714D01*
X120145285Y-209455714D01*
X120050047Y-209408095D01*
X120478619Y-209074761D02*
X120383380Y-209122380D01*
X120192904Y-209122380D01*
X120097666Y-209074761D01*
X120050047Y-209027142D01*
X120002428Y-208931904D01*
X120002428Y-208646190D01*
X120050047Y-208550952D01*
X120097666Y-208503333D01*
X120192904Y-208455714D01*
X120383380Y-208455714D01*
X120478619Y-208503333D01*
X120716714Y-209217619D02*
X121478619Y-209217619D01*
X121716714Y-209122380D02*
X121716714Y-208122380D01*
X121716714Y-208598571D02*
X122288142Y-208598571D01*
X122288142Y-209122380D02*
X122288142Y-208122380D01*
X122907190Y-209122380D02*
X122811952Y-209074761D01*
X122764333Y-209027142D01*
X122716714Y-208931904D01*
X122716714Y-208646190D01*
X122764333Y-208550952D01*
X122811952Y-208503333D01*
X122907190Y-208455714D01*
X123050047Y-208455714D01*
X123145285Y-208503333D01*
X123192904Y-208550952D01*
X123240523Y-208646190D01*
X123240523Y-208931904D01*
X123192904Y-209027142D01*
X123145285Y-209074761D01*
X123050047Y-209122380D01*
X122907190Y-209122380D01*
X123811952Y-209122380D02*
X123716714Y-209074761D01*
X123669095Y-208979523D01*
X123669095Y-208122380D01*
X124573857Y-209074761D02*
X124478619Y-209122380D01*
X124288142Y-209122380D01*
X124192904Y-209074761D01*
X124145285Y-208979523D01*
X124145285Y-208598571D01*
X124192904Y-208503333D01*
X124288142Y-208455714D01*
X124478619Y-208455714D01*
X124573857Y-208503333D01*
X124621476Y-208598571D01*
X124621476Y-208693809D01*
X124145285Y-208789047D01*
X124811952Y-209217619D02*
X125573857Y-209217619D01*
X125764333Y-209074761D02*
X125907190Y-209122380D01*
X126145285Y-209122380D01*
X126240523Y-209074761D01*
X126288142Y-209027142D01*
X126335761Y-208931904D01*
X126335761Y-208836666D01*
X126288142Y-208741428D01*
X126240523Y-208693809D01*
X126145285Y-208646190D01*
X125954809Y-208598571D01*
X125859571Y-208550952D01*
X125811952Y-208503333D01*
X125764333Y-208408095D01*
X125764333Y-208312857D01*
X125811952Y-208217619D01*
X125859571Y-208170000D01*
X125954809Y-208122380D01*
X126192904Y-208122380D01*
X126335761Y-208170000D01*
X126907190Y-209122380D02*
X126811952Y-209074761D01*
X126764333Y-208979523D01*
X126764333Y-208122380D01*
X127431000Y-209122380D02*
X127335761Y-209074761D01*
X127288142Y-209027142D01*
X127240523Y-208931904D01*
X127240523Y-208646190D01*
X127288142Y-208550952D01*
X127335761Y-208503333D01*
X127431000Y-208455714D01*
X127573857Y-208455714D01*
X127669095Y-208503333D01*
X127716714Y-208550952D01*
X127764333Y-208646190D01*
X127764333Y-208931904D01*
X127716714Y-209027142D01*
X127669095Y-209074761D01*
X127573857Y-209122380D01*
X127431000Y-209122380D01*
X128050047Y-208455714D02*
X128431000Y-208455714D01*
X128192904Y-208122380D02*
X128192904Y-208979523D01*
X128240523Y-209074761D01*
X128335761Y-209122380D01*
X128431000Y-209122380D01*
X128621476Y-208455714D02*
X129002428Y-208455714D01*
X128764333Y-208122380D02*
X128764333Y-208979523D01*
X128811952Y-209074761D01*
X128907190Y-209122380D01*
X129002428Y-209122380D01*
X129716714Y-209074761D02*
X129621476Y-209122380D01*
X129431000Y-209122380D01*
X129335761Y-209074761D01*
X129288142Y-208979523D01*
X129288142Y-208598571D01*
X129335761Y-208503333D01*
X129431000Y-208455714D01*
X129621476Y-208455714D01*
X129716714Y-208503333D01*
X129764333Y-208598571D01*
X129764333Y-208693809D01*
X129288142Y-208789047D01*
X130621476Y-209122380D02*
X130621476Y-208122380D01*
X130621476Y-209074761D02*
X130526238Y-209122380D01*
X130335761Y-209122380D01*
X130240523Y-209074761D01*
X130192904Y-209027142D01*
X130145285Y-208931904D01*
X130145285Y-208646190D01*
X130192904Y-208550952D01*
X130240523Y-208503333D01*
X130335761Y-208455714D01*
X130526238Y-208455714D01*
X130621476Y-208503333D01*
X121969095Y-204922380D02*
X121969095Y-203922380D01*
X121969095Y-204398571D02*
X122540523Y-204398571D01*
X122540523Y-204922380D02*
X122540523Y-203922380D01*
X122921476Y-203922380D02*
X123540523Y-203922380D01*
X123207190Y-204303333D01*
X123350047Y-204303333D01*
X123445285Y-204350952D01*
X123492904Y-204398571D01*
X123540523Y-204493809D01*
X123540523Y-204731904D01*
X123492904Y-204827142D01*
X123445285Y-204874761D01*
X123350047Y-204922380D01*
X123064333Y-204922380D01*
X122969095Y-204874761D01*
X122921476Y-204827142D01*
%TO.C,H4*%
X23308523Y-15320380D02*
X23308523Y-14320380D01*
X23641857Y-15034666D01*
X23975190Y-14320380D01*
X23975190Y-15320380D01*
X24594238Y-15320380D02*
X24499000Y-15272761D01*
X24451380Y-15225142D01*
X24403761Y-15129904D01*
X24403761Y-14844190D01*
X24451380Y-14748952D01*
X24499000Y-14701333D01*
X24594238Y-14653714D01*
X24737095Y-14653714D01*
X24832333Y-14701333D01*
X24879952Y-14748952D01*
X24927571Y-14844190D01*
X24927571Y-15129904D01*
X24879952Y-15225142D01*
X24832333Y-15272761D01*
X24737095Y-15320380D01*
X24594238Y-15320380D01*
X25784714Y-14653714D02*
X25784714Y-15320380D01*
X25356142Y-14653714D02*
X25356142Y-15177523D01*
X25403761Y-15272761D01*
X25499000Y-15320380D01*
X25641857Y-15320380D01*
X25737095Y-15272761D01*
X25784714Y-15225142D01*
X26260904Y-14653714D02*
X26260904Y-15320380D01*
X26260904Y-14748952D02*
X26308523Y-14701333D01*
X26403761Y-14653714D01*
X26546619Y-14653714D01*
X26641857Y-14701333D01*
X26689476Y-14796571D01*
X26689476Y-15320380D01*
X27022809Y-14653714D02*
X27403761Y-14653714D01*
X27165666Y-14320380D02*
X27165666Y-15177523D01*
X27213285Y-15272761D01*
X27308523Y-15320380D01*
X27403761Y-15320380D01*
X27737095Y-15320380D02*
X27737095Y-14653714D01*
X27737095Y-14320380D02*
X27689476Y-14368000D01*
X27737095Y-14415619D01*
X27784714Y-14368000D01*
X27737095Y-14320380D01*
X27737095Y-14415619D01*
X28213285Y-14653714D02*
X28213285Y-15320380D01*
X28213285Y-14748952D02*
X28260904Y-14701333D01*
X28356142Y-14653714D01*
X28499000Y-14653714D01*
X28594238Y-14701333D01*
X28641857Y-14796571D01*
X28641857Y-15320380D01*
X29546619Y-14653714D02*
X29546619Y-15463238D01*
X29499000Y-15558476D01*
X29451380Y-15606095D01*
X29356142Y-15653714D01*
X29213285Y-15653714D01*
X29118047Y-15606095D01*
X29546619Y-15272761D02*
X29451380Y-15320380D01*
X29260904Y-15320380D01*
X29165666Y-15272761D01*
X29118047Y-15225142D01*
X29070428Y-15129904D01*
X29070428Y-14844190D01*
X29118047Y-14748952D01*
X29165666Y-14701333D01*
X29260904Y-14653714D01*
X29451380Y-14653714D01*
X29546619Y-14701333D01*
X29784714Y-15415619D02*
X30546619Y-15415619D01*
X30784714Y-15320380D02*
X30784714Y-14320380D01*
X30784714Y-14796571D02*
X31356142Y-14796571D01*
X31356142Y-15320380D02*
X31356142Y-14320380D01*
X31975190Y-15320380D02*
X31879952Y-15272761D01*
X31832333Y-15225142D01*
X31784714Y-15129904D01*
X31784714Y-14844190D01*
X31832333Y-14748952D01*
X31879952Y-14701333D01*
X31975190Y-14653714D01*
X32118047Y-14653714D01*
X32213285Y-14701333D01*
X32260904Y-14748952D01*
X32308523Y-14844190D01*
X32308523Y-15129904D01*
X32260904Y-15225142D01*
X32213285Y-15272761D01*
X32118047Y-15320380D01*
X31975190Y-15320380D01*
X32879952Y-15320380D02*
X32784714Y-15272761D01*
X32737095Y-15177523D01*
X32737095Y-14320380D01*
X33641857Y-15272761D02*
X33546619Y-15320380D01*
X33356142Y-15320380D01*
X33260904Y-15272761D01*
X33213285Y-15177523D01*
X33213285Y-14796571D01*
X33260904Y-14701333D01*
X33356142Y-14653714D01*
X33546619Y-14653714D01*
X33641857Y-14701333D01*
X33689476Y-14796571D01*
X33689476Y-14891809D01*
X33213285Y-14987047D01*
X33879952Y-15415619D02*
X34641857Y-15415619D01*
X34832333Y-15272761D02*
X34975190Y-15320380D01*
X35213285Y-15320380D01*
X35308523Y-15272761D01*
X35356142Y-15225142D01*
X35403761Y-15129904D01*
X35403761Y-15034666D01*
X35356142Y-14939428D01*
X35308523Y-14891809D01*
X35213285Y-14844190D01*
X35022809Y-14796571D01*
X34927571Y-14748952D01*
X34879952Y-14701333D01*
X34832333Y-14606095D01*
X34832333Y-14510857D01*
X34879952Y-14415619D01*
X34927571Y-14368000D01*
X35022809Y-14320380D01*
X35260904Y-14320380D01*
X35403761Y-14368000D01*
X35975190Y-15320380D02*
X35879952Y-15272761D01*
X35832333Y-15177523D01*
X35832333Y-14320380D01*
X36499000Y-15320380D02*
X36403761Y-15272761D01*
X36356142Y-15225142D01*
X36308523Y-15129904D01*
X36308523Y-14844190D01*
X36356142Y-14748952D01*
X36403761Y-14701333D01*
X36499000Y-14653714D01*
X36641857Y-14653714D01*
X36737095Y-14701333D01*
X36784714Y-14748952D01*
X36832333Y-14844190D01*
X36832333Y-15129904D01*
X36784714Y-15225142D01*
X36737095Y-15272761D01*
X36641857Y-15320380D01*
X36499000Y-15320380D01*
X37118047Y-14653714D02*
X37499000Y-14653714D01*
X37260904Y-14320380D02*
X37260904Y-15177523D01*
X37308523Y-15272761D01*
X37403761Y-15320380D01*
X37499000Y-15320380D01*
X37689476Y-14653714D02*
X38070428Y-14653714D01*
X37832333Y-14320380D02*
X37832333Y-15177523D01*
X37879952Y-15272761D01*
X37975190Y-15320380D01*
X38070428Y-15320380D01*
X38784714Y-15272761D02*
X38689476Y-15320380D01*
X38499000Y-15320380D01*
X38403761Y-15272761D01*
X38356142Y-15177523D01*
X38356142Y-14796571D01*
X38403761Y-14701333D01*
X38499000Y-14653714D01*
X38689476Y-14653714D01*
X38784714Y-14701333D01*
X38832333Y-14796571D01*
X38832333Y-14891809D01*
X38356142Y-14987047D01*
X39689476Y-15320380D02*
X39689476Y-14320380D01*
X39689476Y-15272761D02*
X39594238Y-15320380D01*
X39403761Y-15320380D01*
X39308523Y-15272761D01*
X39260904Y-15225142D01*
X39213285Y-15129904D01*
X39213285Y-14844190D01*
X39260904Y-14748952D01*
X39308523Y-14701333D01*
X39403761Y-14653714D01*
X39594238Y-14653714D01*
X39689476Y-14701333D01*
X31037095Y-11120380D02*
X31037095Y-10120380D01*
X31037095Y-10596571D02*
X31608523Y-10596571D01*
X31608523Y-11120380D02*
X31608523Y-10120380D01*
X32513285Y-10453714D02*
X32513285Y-11120380D01*
X32275190Y-10072761D02*
X32037095Y-10787047D01*
X32656142Y-10787047D01*
%TO.C,H5*%
X36306523Y-167932380D02*
X36306523Y-168646666D01*
X36258904Y-168789523D01*
X36163666Y-168884761D01*
X36020809Y-168932380D01*
X35925571Y-168932380D01*
X37211285Y-168932380D02*
X37211285Y-168408571D01*
X37163666Y-168313333D01*
X37068428Y-168265714D01*
X36877952Y-168265714D01*
X36782714Y-168313333D01*
X37211285Y-168884761D02*
X37116047Y-168932380D01*
X36877952Y-168932380D01*
X36782714Y-168884761D01*
X36735095Y-168789523D01*
X36735095Y-168694285D01*
X36782714Y-168599047D01*
X36877952Y-168551428D01*
X37116047Y-168551428D01*
X37211285Y-168503809D01*
X38116047Y-168884761D02*
X38020809Y-168932380D01*
X37830333Y-168932380D01*
X37735095Y-168884761D01*
X37687476Y-168837142D01*
X37639857Y-168741904D01*
X37639857Y-168456190D01*
X37687476Y-168360952D01*
X37735095Y-168313333D01*
X37830333Y-168265714D01*
X38020809Y-168265714D01*
X38116047Y-168313333D01*
X38544619Y-168932380D02*
X38544619Y-167932380D01*
X38639857Y-168551428D02*
X38925571Y-168932380D01*
X38925571Y-168265714D02*
X38544619Y-168646666D01*
X39116047Y-169027619D02*
X39877952Y-169027619D01*
X40116047Y-168932380D02*
X40116047Y-167932380D01*
X40116047Y-168408571D02*
X40687476Y-168408571D01*
X40687476Y-168932380D02*
X40687476Y-167932380D01*
X41306523Y-168932380D02*
X41211285Y-168884761D01*
X41163666Y-168837142D01*
X41116047Y-168741904D01*
X41116047Y-168456190D01*
X41163666Y-168360952D01*
X41211285Y-168313333D01*
X41306523Y-168265714D01*
X41449380Y-168265714D01*
X41544619Y-168313333D01*
X41592238Y-168360952D01*
X41639857Y-168456190D01*
X41639857Y-168741904D01*
X41592238Y-168837142D01*
X41544619Y-168884761D01*
X41449380Y-168932380D01*
X41306523Y-168932380D01*
X42211285Y-168932380D02*
X42116047Y-168884761D01*
X42068428Y-168789523D01*
X42068428Y-167932380D01*
X42973190Y-168884761D02*
X42877952Y-168932380D01*
X42687476Y-168932380D01*
X42592238Y-168884761D01*
X42544619Y-168789523D01*
X42544619Y-168408571D01*
X42592238Y-168313333D01*
X42687476Y-168265714D01*
X42877952Y-168265714D01*
X42973190Y-168313333D01*
X43020809Y-168408571D01*
X43020809Y-168503809D01*
X42544619Y-168599047D01*
X39035095Y-157932380D02*
X39035095Y-156932380D01*
X39035095Y-157408571D02*
X39606523Y-157408571D01*
X39606523Y-157932380D02*
X39606523Y-156932380D01*
X40558904Y-156932380D02*
X40082714Y-156932380D01*
X40035095Y-157408571D01*
X40082714Y-157360952D01*
X40177952Y-157313333D01*
X40416047Y-157313333D01*
X40511285Y-157360952D01*
X40558904Y-157408571D01*
X40606523Y-157503809D01*
X40606523Y-157741904D01*
X40558904Y-157837142D01*
X40511285Y-157884761D01*
X40416047Y-157932380D01*
X40177952Y-157932380D01*
X40082714Y-157884761D01*
X40035095Y-157837142D01*
%TO.C,H6*%
X61325523Y-192951380D02*
X61325523Y-193665666D01*
X61277904Y-193808523D01*
X61182666Y-193903761D01*
X61039809Y-193951380D01*
X60944571Y-193951380D01*
X62230285Y-193951380D02*
X62230285Y-193427571D01*
X62182666Y-193332333D01*
X62087428Y-193284714D01*
X61896952Y-193284714D01*
X61801714Y-193332333D01*
X62230285Y-193903761D02*
X62135047Y-193951380D01*
X61896952Y-193951380D01*
X61801714Y-193903761D01*
X61754095Y-193808523D01*
X61754095Y-193713285D01*
X61801714Y-193618047D01*
X61896952Y-193570428D01*
X62135047Y-193570428D01*
X62230285Y-193522809D01*
X63135047Y-193903761D02*
X63039809Y-193951380D01*
X62849333Y-193951380D01*
X62754095Y-193903761D01*
X62706476Y-193856142D01*
X62658857Y-193760904D01*
X62658857Y-193475190D01*
X62706476Y-193379952D01*
X62754095Y-193332333D01*
X62849333Y-193284714D01*
X63039809Y-193284714D01*
X63135047Y-193332333D01*
X63563619Y-193951380D02*
X63563619Y-192951380D01*
X63658857Y-193570428D02*
X63944571Y-193951380D01*
X63944571Y-193284714D02*
X63563619Y-193665666D01*
X64135047Y-194046619D02*
X64896952Y-194046619D01*
X65135047Y-193951380D02*
X65135047Y-192951380D01*
X65135047Y-193427571D02*
X65706476Y-193427571D01*
X65706476Y-193951380D02*
X65706476Y-192951380D01*
X66325523Y-193951380D02*
X66230285Y-193903761D01*
X66182666Y-193856142D01*
X66135047Y-193760904D01*
X66135047Y-193475190D01*
X66182666Y-193379952D01*
X66230285Y-193332333D01*
X66325523Y-193284714D01*
X66468380Y-193284714D01*
X66563619Y-193332333D01*
X66611238Y-193379952D01*
X66658857Y-193475190D01*
X66658857Y-193760904D01*
X66611238Y-193856142D01*
X66563619Y-193903761D01*
X66468380Y-193951380D01*
X66325523Y-193951380D01*
X67230285Y-193951380D02*
X67135047Y-193903761D01*
X67087428Y-193808523D01*
X67087428Y-192951380D01*
X67992190Y-193903761D02*
X67896952Y-193951380D01*
X67706476Y-193951380D01*
X67611238Y-193903761D01*
X67563619Y-193808523D01*
X67563619Y-193427571D01*
X67611238Y-193332333D01*
X67706476Y-193284714D01*
X67896952Y-193284714D01*
X67992190Y-193332333D01*
X68039809Y-193427571D01*
X68039809Y-193522809D01*
X67563619Y-193618047D01*
X64054095Y-182951380D02*
X64054095Y-181951380D01*
X64054095Y-182427571D02*
X64625523Y-182427571D01*
X64625523Y-182951380D02*
X64625523Y-181951380D01*
X65530285Y-181951380D02*
X65339809Y-181951380D01*
X65244571Y-181999000D01*
X65196952Y-182046619D01*
X65101714Y-182189476D01*
X65054095Y-182379952D01*
X65054095Y-182760904D01*
X65101714Y-182856142D01*
X65149333Y-182903761D01*
X65244571Y-182951380D01*
X65435047Y-182951380D01*
X65530285Y-182903761D01*
X65577904Y-182856142D01*
X65625523Y-182760904D01*
X65625523Y-182522809D01*
X65577904Y-182427571D01*
X65530285Y-182379952D01*
X65435047Y-182332333D01*
X65244571Y-182332333D01*
X65149333Y-182379952D01*
X65101714Y-182427571D01*
X65054095Y-182522809D01*
%TO.C,H7*%
X61325523Y-167932380D02*
X61325523Y-168646666D01*
X61277904Y-168789523D01*
X61182666Y-168884761D01*
X61039809Y-168932380D01*
X60944571Y-168932380D01*
X62230285Y-168932380D02*
X62230285Y-168408571D01*
X62182666Y-168313333D01*
X62087428Y-168265714D01*
X61896952Y-168265714D01*
X61801714Y-168313333D01*
X62230285Y-168884761D02*
X62135047Y-168932380D01*
X61896952Y-168932380D01*
X61801714Y-168884761D01*
X61754095Y-168789523D01*
X61754095Y-168694285D01*
X61801714Y-168599047D01*
X61896952Y-168551428D01*
X62135047Y-168551428D01*
X62230285Y-168503809D01*
X63135047Y-168884761D02*
X63039809Y-168932380D01*
X62849333Y-168932380D01*
X62754095Y-168884761D01*
X62706476Y-168837142D01*
X62658857Y-168741904D01*
X62658857Y-168456190D01*
X62706476Y-168360952D01*
X62754095Y-168313333D01*
X62849333Y-168265714D01*
X63039809Y-168265714D01*
X63135047Y-168313333D01*
X63563619Y-168932380D02*
X63563619Y-167932380D01*
X63658857Y-168551428D02*
X63944571Y-168932380D01*
X63944571Y-168265714D02*
X63563619Y-168646666D01*
X64135047Y-169027619D02*
X64896952Y-169027619D01*
X65135047Y-168932380D02*
X65135047Y-167932380D01*
X65135047Y-168408571D02*
X65706476Y-168408571D01*
X65706476Y-168932380D02*
X65706476Y-167932380D01*
X66325523Y-168932380D02*
X66230285Y-168884761D01*
X66182666Y-168837142D01*
X66135047Y-168741904D01*
X66135047Y-168456190D01*
X66182666Y-168360952D01*
X66230285Y-168313333D01*
X66325523Y-168265714D01*
X66468380Y-168265714D01*
X66563619Y-168313333D01*
X66611238Y-168360952D01*
X66658857Y-168456190D01*
X66658857Y-168741904D01*
X66611238Y-168837142D01*
X66563619Y-168884761D01*
X66468380Y-168932380D01*
X66325523Y-168932380D01*
X67230285Y-168932380D02*
X67135047Y-168884761D01*
X67087428Y-168789523D01*
X67087428Y-167932380D01*
X67992190Y-168884761D02*
X67896952Y-168932380D01*
X67706476Y-168932380D01*
X67611238Y-168884761D01*
X67563619Y-168789523D01*
X67563619Y-168408571D01*
X67611238Y-168313333D01*
X67706476Y-168265714D01*
X67896952Y-168265714D01*
X67992190Y-168313333D01*
X68039809Y-168408571D01*
X68039809Y-168503809D01*
X67563619Y-168599047D01*
X64054095Y-157932380D02*
X64054095Y-156932380D01*
X64054095Y-157408571D02*
X64625523Y-157408571D01*
X64625523Y-157932380D02*
X64625523Y-156932380D01*
X65006476Y-156932380D02*
X65673142Y-156932380D01*
X65244571Y-157932380D01*
%TO.C,H8*%
X36306523Y-192951380D02*
X36306523Y-193665666D01*
X36258904Y-193808523D01*
X36163666Y-193903761D01*
X36020809Y-193951380D01*
X35925571Y-193951380D01*
X37211285Y-193951380D02*
X37211285Y-193427571D01*
X37163666Y-193332333D01*
X37068428Y-193284714D01*
X36877952Y-193284714D01*
X36782714Y-193332333D01*
X37211285Y-193903761D02*
X37116047Y-193951380D01*
X36877952Y-193951380D01*
X36782714Y-193903761D01*
X36735095Y-193808523D01*
X36735095Y-193713285D01*
X36782714Y-193618047D01*
X36877952Y-193570428D01*
X37116047Y-193570428D01*
X37211285Y-193522809D01*
X38116047Y-193903761D02*
X38020809Y-193951380D01*
X37830333Y-193951380D01*
X37735095Y-193903761D01*
X37687476Y-193856142D01*
X37639857Y-193760904D01*
X37639857Y-193475190D01*
X37687476Y-193379952D01*
X37735095Y-193332333D01*
X37830333Y-193284714D01*
X38020809Y-193284714D01*
X38116047Y-193332333D01*
X38544619Y-193951380D02*
X38544619Y-192951380D01*
X38639857Y-193570428D02*
X38925571Y-193951380D01*
X38925571Y-193284714D02*
X38544619Y-193665666D01*
X39116047Y-194046619D02*
X39877952Y-194046619D01*
X40116047Y-193951380D02*
X40116047Y-192951380D01*
X40116047Y-193427571D02*
X40687476Y-193427571D01*
X40687476Y-193951380D02*
X40687476Y-192951380D01*
X41306523Y-193951380D02*
X41211285Y-193903761D01*
X41163666Y-193856142D01*
X41116047Y-193760904D01*
X41116047Y-193475190D01*
X41163666Y-193379952D01*
X41211285Y-193332333D01*
X41306523Y-193284714D01*
X41449380Y-193284714D01*
X41544619Y-193332333D01*
X41592238Y-193379952D01*
X41639857Y-193475190D01*
X41639857Y-193760904D01*
X41592238Y-193856142D01*
X41544619Y-193903761D01*
X41449380Y-193951380D01*
X41306523Y-193951380D01*
X42211285Y-193951380D02*
X42116047Y-193903761D01*
X42068428Y-193808523D01*
X42068428Y-192951380D01*
X42973190Y-193903761D02*
X42877952Y-193951380D01*
X42687476Y-193951380D01*
X42592238Y-193903761D01*
X42544619Y-193808523D01*
X42544619Y-193427571D01*
X42592238Y-193332333D01*
X42687476Y-193284714D01*
X42877952Y-193284714D01*
X42973190Y-193332333D01*
X43020809Y-193427571D01*
X43020809Y-193522809D01*
X42544619Y-193618047D01*
X39035095Y-182951380D02*
X39035095Y-181951380D01*
X39035095Y-182427571D02*
X39606523Y-182427571D01*
X39606523Y-182951380D02*
X39606523Y-181951380D01*
X40225571Y-182379952D02*
X40130333Y-182332333D01*
X40082714Y-182284714D01*
X40035095Y-182189476D01*
X40035095Y-182141857D01*
X40082714Y-182046619D01*
X40130333Y-181999000D01*
X40225571Y-181951380D01*
X40416047Y-181951380D01*
X40511285Y-181999000D01*
X40558904Y-182046619D01*
X40606523Y-182141857D01*
X40606523Y-182189476D01*
X40558904Y-182284714D01*
X40511285Y-182332333D01*
X40416047Y-182379952D01*
X40225571Y-182379952D01*
X40130333Y-182427571D01*
X40082714Y-182475190D01*
X40035095Y-182570428D01*
X40035095Y-182760904D01*
X40082714Y-182856142D01*
X40130333Y-182903761D01*
X40225571Y-182951380D01*
X40416047Y-182951380D01*
X40511285Y-182903761D01*
X40558904Y-182856142D01*
X40606523Y-182760904D01*
X40606523Y-182570428D01*
X40558904Y-182475190D01*
X40511285Y-182427571D01*
X40416047Y-182379952D01*
%TO.C,H9*%
X111363523Y-192951380D02*
X111363523Y-193665666D01*
X111315904Y-193808523D01*
X111220666Y-193903761D01*
X111077809Y-193951380D01*
X110982571Y-193951380D01*
X112268285Y-193951380D02*
X112268285Y-193427571D01*
X112220666Y-193332333D01*
X112125428Y-193284714D01*
X111934952Y-193284714D01*
X111839714Y-193332333D01*
X112268285Y-193903761D02*
X112173047Y-193951380D01*
X111934952Y-193951380D01*
X111839714Y-193903761D01*
X111792095Y-193808523D01*
X111792095Y-193713285D01*
X111839714Y-193618047D01*
X111934952Y-193570428D01*
X112173047Y-193570428D01*
X112268285Y-193522809D01*
X113173047Y-193903761D02*
X113077809Y-193951380D01*
X112887333Y-193951380D01*
X112792095Y-193903761D01*
X112744476Y-193856142D01*
X112696857Y-193760904D01*
X112696857Y-193475190D01*
X112744476Y-193379952D01*
X112792095Y-193332333D01*
X112887333Y-193284714D01*
X113077809Y-193284714D01*
X113173047Y-193332333D01*
X113601619Y-193951380D02*
X113601619Y-192951380D01*
X113696857Y-193570428D02*
X113982571Y-193951380D01*
X113982571Y-193284714D02*
X113601619Y-193665666D01*
X114173047Y-194046619D02*
X114934952Y-194046619D01*
X115173047Y-193951380D02*
X115173047Y-192951380D01*
X115173047Y-193427571D02*
X115744476Y-193427571D01*
X115744476Y-193951380D02*
X115744476Y-192951380D01*
X116363523Y-193951380D02*
X116268285Y-193903761D01*
X116220666Y-193856142D01*
X116173047Y-193760904D01*
X116173047Y-193475190D01*
X116220666Y-193379952D01*
X116268285Y-193332333D01*
X116363523Y-193284714D01*
X116506380Y-193284714D01*
X116601619Y-193332333D01*
X116649238Y-193379952D01*
X116696857Y-193475190D01*
X116696857Y-193760904D01*
X116649238Y-193856142D01*
X116601619Y-193903761D01*
X116506380Y-193951380D01*
X116363523Y-193951380D01*
X117268285Y-193951380D02*
X117173047Y-193903761D01*
X117125428Y-193808523D01*
X117125428Y-192951380D01*
X118030190Y-193903761D02*
X117934952Y-193951380D01*
X117744476Y-193951380D01*
X117649238Y-193903761D01*
X117601619Y-193808523D01*
X117601619Y-193427571D01*
X117649238Y-193332333D01*
X117744476Y-193284714D01*
X117934952Y-193284714D01*
X118030190Y-193332333D01*
X118077809Y-193427571D01*
X118077809Y-193522809D01*
X117601619Y-193618047D01*
X114092095Y-182951380D02*
X114092095Y-181951380D01*
X114092095Y-182427571D02*
X114663523Y-182427571D01*
X114663523Y-182951380D02*
X114663523Y-181951380D01*
X115187333Y-182951380D02*
X115377809Y-182951380D01*
X115473047Y-182903761D01*
X115520666Y-182856142D01*
X115615904Y-182713285D01*
X115663523Y-182522809D01*
X115663523Y-182141857D01*
X115615904Y-182046619D01*
X115568285Y-181999000D01*
X115473047Y-181951380D01*
X115282571Y-181951380D01*
X115187333Y-181999000D01*
X115139714Y-182046619D01*
X115092095Y-182141857D01*
X115092095Y-182379952D01*
X115139714Y-182475190D01*
X115187333Y-182522809D01*
X115282571Y-182570428D01*
X115473047Y-182570428D01*
X115568285Y-182522809D01*
X115615904Y-182475190D01*
X115663523Y-182379952D01*
%TO.C,H10*%
X111363523Y-167932380D02*
X111363523Y-168646666D01*
X111315904Y-168789523D01*
X111220666Y-168884761D01*
X111077809Y-168932380D01*
X110982571Y-168932380D01*
X112268285Y-168932380D02*
X112268285Y-168408571D01*
X112220666Y-168313333D01*
X112125428Y-168265714D01*
X111934952Y-168265714D01*
X111839714Y-168313333D01*
X112268285Y-168884761D02*
X112173047Y-168932380D01*
X111934952Y-168932380D01*
X111839714Y-168884761D01*
X111792095Y-168789523D01*
X111792095Y-168694285D01*
X111839714Y-168599047D01*
X111934952Y-168551428D01*
X112173047Y-168551428D01*
X112268285Y-168503809D01*
X113173047Y-168884761D02*
X113077809Y-168932380D01*
X112887333Y-168932380D01*
X112792095Y-168884761D01*
X112744476Y-168837142D01*
X112696857Y-168741904D01*
X112696857Y-168456190D01*
X112744476Y-168360952D01*
X112792095Y-168313333D01*
X112887333Y-168265714D01*
X113077809Y-168265714D01*
X113173047Y-168313333D01*
X113601619Y-168932380D02*
X113601619Y-167932380D01*
X113696857Y-168551428D02*
X113982571Y-168932380D01*
X113982571Y-168265714D02*
X113601619Y-168646666D01*
X114173047Y-169027619D02*
X114934952Y-169027619D01*
X115173047Y-168932380D02*
X115173047Y-167932380D01*
X115173047Y-168408571D02*
X115744476Y-168408571D01*
X115744476Y-168932380D02*
X115744476Y-167932380D01*
X116363523Y-168932380D02*
X116268285Y-168884761D01*
X116220666Y-168837142D01*
X116173047Y-168741904D01*
X116173047Y-168456190D01*
X116220666Y-168360952D01*
X116268285Y-168313333D01*
X116363523Y-168265714D01*
X116506380Y-168265714D01*
X116601619Y-168313333D01*
X116649238Y-168360952D01*
X116696857Y-168456190D01*
X116696857Y-168741904D01*
X116649238Y-168837142D01*
X116601619Y-168884761D01*
X116506380Y-168932380D01*
X116363523Y-168932380D01*
X117268285Y-168932380D02*
X117173047Y-168884761D01*
X117125428Y-168789523D01*
X117125428Y-167932380D01*
X118030190Y-168884761D02*
X117934952Y-168932380D01*
X117744476Y-168932380D01*
X117649238Y-168884761D01*
X117601619Y-168789523D01*
X117601619Y-168408571D01*
X117649238Y-168313333D01*
X117744476Y-168265714D01*
X117934952Y-168265714D01*
X118030190Y-168313333D01*
X118077809Y-168408571D01*
X118077809Y-168503809D01*
X117601619Y-168599047D01*
X113615904Y-157932380D02*
X113615904Y-156932380D01*
X113615904Y-157408571D02*
X114187333Y-157408571D01*
X114187333Y-157932380D02*
X114187333Y-156932380D01*
X115187333Y-157932380D02*
X114615904Y-157932380D01*
X114901619Y-157932380D02*
X114901619Y-156932380D01*
X114806380Y-157075238D01*
X114711142Y-157170476D01*
X114615904Y-157218095D01*
X115806380Y-156932380D02*
X115901619Y-156932380D01*
X115996857Y-156980000D01*
X116044476Y-157027619D01*
X116092095Y-157122857D01*
X116139714Y-157313333D01*
X116139714Y-157551428D01*
X116092095Y-157741904D01*
X116044476Y-157837142D01*
X115996857Y-157884761D01*
X115901619Y-157932380D01*
X115806380Y-157932380D01*
X115711142Y-157884761D01*
X115663523Y-157837142D01*
X115615904Y-157741904D01*
X115568285Y-157551428D01*
X115568285Y-157313333D01*
X115615904Y-157122857D01*
X115663523Y-157027619D01*
X115711142Y-156980000D01*
X115806380Y-156932380D01*
%TO.C,H11*%
X86344523Y-192951380D02*
X86344523Y-193665666D01*
X86296904Y-193808523D01*
X86201666Y-193903761D01*
X86058809Y-193951380D01*
X85963571Y-193951380D01*
X87249285Y-193951380D02*
X87249285Y-193427571D01*
X87201666Y-193332333D01*
X87106428Y-193284714D01*
X86915952Y-193284714D01*
X86820714Y-193332333D01*
X87249285Y-193903761D02*
X87154047Y-193951380D01*
X86915952Y-193951380D01*
X86820714Y-193903761D01*
X86773095Y-193808523D01*
X86773095Y-193713285D01*
X86820714Y-193618047D01*
X86915952Y-193570428D01*
X87154047Y-193570428D01*
X87249285Y-193522809D01*
X88154047Y-193903761D02*
X88058809Y-193951380D01*
X87868333Y-193951380D01*
X87773095Y-193903761D01*
X87725476Y-193856142D01*
X87677857Y-193760904D01*
X87677857Y-193475190D01*
X87725476Y-193379952D01*
X87773095Y-193332333D01*
X87868333Y-193284714D01*
X88058809Y-193284714D01*
X88154047Y-193332333D01*
X88582619Y-193951380D02*
X88582619Y-192951380D01*
X88677857Y-193570428D02*
X88963571Y-193951380D01*
X88963571Y-193284714D02*
X88582619Y-193665666D01*
X89154047Y-194046619D02*
X89915952Y-194046619D01*
X90154047Y-193951380D02*
X90154047Y-192951380D01*
X90154047Y-193427571D02*
X90725476Y-193427571D01*
X90725476Y-193951380D02*
X90725476Y-192951380D01*
X91344523Y-193951380D02*
X91249285Y-193903761D01*
X91201666Y-193856142D01*
X91154047Y-193760904D01*
X91154047Y-193475190D01*
X91201666Y-193379952D01*
X91249285Y-193332333D01*
X91344523Y-193284714D01*
X91487380Y-193284714D01*
X91582619Y-193332333D01*
X91630238Y-193379952D01*
X91677857Y-193475190D01*
X91677857Y-193760904D01*
X91630238Y-193856142D01*
X91582619Y-193903761D01*
X91487380Y-193951380D01*
X91344523Y-193951380D01*
X92249285Y-193951380D02*
X92154047Y-193903761D01*
X92106428Y-193808523D01*
X92106428Y-192951380D01*
X93011190Y-193903761D02*
X92915952Y-193951380D01*
X92725476Y-193951380D01*
X92630238Y-193903761D01*
X92582619Y-193808523D01*
X92582619Y-193427571D01*
X92630238Y-193332333D01*
X92725476Y-193284714D01*
X92915952Y-193284714D01*
X93011190Y-193332333D01*
X93058809Y-193427571D01*
X93058809Y-193522809D01*
X92582619Y-193618047D01*
X88596904Y-182951380D02*
X88596904Y-181951380D01*
X88596904Y-182427571D02*
X89168333Y-182427571D01*
X89168333Y-182951380D02*
X89168333Y-181951380D01*
X90168333Y-182951380D02*
X89596904Y-182951380D01*
X89882619Y-182951380D02*
X89882619Y-181951380D01*
X89787380Y-182094238D01*
X89692142Y-182189476D01*
X89596904Y-182237095D01*
X91120714Y-182951380D02*
X90549285Y-182951380D01*
X90835000Y-182951380D02*
X90835000Y-181951380D01*
X90739761Y-182094238D01*
X90644523Y-182189476D01*
X90549285Y-182237095D01*
%TO.C,H12*%
X86344523Y-167932380D02*
X86344523Y-168646666D01*
X86296904Y-168789523D01*
X86201666Y-168884761D01*
X86058809Y-168932380D01*
X85963571Y-168932380D01*
X87249285Y-168932380D02*
X87249285Y-168408571D01*
X87201666Y-168313333D01*
X87106428Y-168265714D01*
X86915952Y-168265714D01*
X86820714Y-168313333D01*
X87249285Y-168884761D02*
X87154047Y-168932380D01*
X86915952Y-168932380D01*
X86820714Y-168884761D01*
X86773095Y-168789523D01*
X86773095Y-168694285D01*
X86820714Y-168599047D01*
X86915952Y-168551428D01*
X87154047Y-168551428D01*
X87249285Y-168503809D01*
X88154047Y-168884761D02*
X88058809Y-168932380D01*
X87868333Y-168932380D01*
X87773095Y-168884761D01*
X87725476Y-168837142D01*
X87677857Y-168741904D01*
X87677857Y-168456190D01*
X87725476Y-168360952D01*
X87773095Y-168313333D01*
X87868333Y-168265714D01*
X88058809Y-168265714D01*
X88154047Y-168313333D01*
X88582619Y-168932380D02*
X88582619Y-167932380D01*
X88677857Y-168551428D02*
X88963571Y-168932380D01*
X88963571Y-168265714D02*
X88582619Y-168646666D01*
X89154047Y-169027619D02*
X89915952Y-169027619D01*
X90154047Y-168932380D02*
X90154047Y-167932380D01*
X90154047Y-168408571D02*
X90725476Y-168408571D01*
X90725476Y-168932380D02*
X90725476Y-167932380D01*
X91344523Y-168932380D02*
X91249285Y-168884761D01*
X91201666Y-168837142D01*
X91154047Y-168741904D01*
X91154047Y-168456190D01*
X91201666Y-168360952D01*
X91249285Y-168313333D01*
X91344523Y-168265714D01*
X91487380Y-168265714D01*
X91582619Y-168313333D01*
X91630238Y-168360952D01*
X91677857Y-168456190D01*
X91677857Y-168741904D01*
X91630238Y-168837142D01*
X91582619Y-168884761D01*
X91487380Y-168932380D01*
X91344523Y-168932380D01*
X92249285Y-168932380D02*
X92154047Y-168884761D01*
X92106428Y-168789523D01*
X92106428Y-167932380D01*
X93011190Y-168884761D02*
X92915952Y-168932380D01*
X92725476Y-168932380D01*
X92630238Y-168884761D01*
X92582619Y-168789523D01*
X92582619Y-168408571D01*
X92630238Y-168313333D01*
X92725476Y-168265714D01*
X92915952Y-168265714D01*
X93011190Y-168313333D01*
X93058809Y-168408571D01*
X93058809Y-168503809D01*
X92582619Y-168599047D01*
X88596904Y-157932380D02*
X88596904Y-156932380D01*
X88596904Y-157408571D02*
X89168333Y-157408571D01*
X89168333Y-157932380D02*
X89168333Y-156932380D01*
X90168333Y-157932380D02*
X89596904Y-157932380D01*
X89882619Y-157932380D02*
X89882619Y-156932380D01*
X89787380Y-157075238D01*
X89692142Y-157170476D01*
X89596904Y-157218095D01*
X90549285Y-157027619D02*
X90596904Y-156980000D01*
X90692142Y-156932380D01*
X90930238Y-156932380D01*
X91025476Y-156980000D01*
X91073095Y-157027619D01*
X91120714Y-157122857D01*
X91120714Y-157218095D01*
X91073095Y-157360952D01*
X90501666Y-157932380D01*
X91120714Y-157932380D01*
%TO.C,H13*%
X86487380Y-119974380D02*
X86487380Y-118974380D01*
X86868333Y-118974380D01*
X86963571Y-119022000D01*
X87011190Y-119069619D01*
X87058809Y-119164857D01*
X87058809Y-119307714D01*
X87011190Y-119402952D01*
X86963571Y-119450571D01*
X86868333Y-119498190D01*
X86487380Y-119498190D01*
X87630238Y-119974380D02*
X87535000Y-119926761D01*
X87487380Y-119879142D01*
X87439761Y-119783904D01*
X87439761Y-119498190D01*
X87487380Y-119402952D01*
X87535000Y-119355333D01*
X87630238Y-119307714D01*
X87773095Y-119307714D01*
X87868333Y-119355333D01*
X87915952Y-119402952D01*
X87963571Y-119498190D01*
X87963571Y-119783904D01*
X87915952Y-119879142D01*
X87868333Y-119926761D01*
X87773095Y-119974380D01*
X87630238Y-119974380D01*
X88249285Y-119307714D02*
X88630238Y-119307714D01*
X88392142Y-118974380D02*
X88392142Y-119831523D01*
X88439761Y-119926761D01*
X88535000Y-119974380D01*
X88630238Y-119974380D01*
X88725476Y-120069619D02*
X89487380Y-120069619D01*
X89725476Y-119974380D02*
X89725476Y-118974380D01*
X89725476Y-119450571D02*
X90296904Y-119450571D01*
X90296904Y-119974380D02*
X90296904Y-118974380D01*
X90915952Y-119974380D02*
X90820714Y-119926761D01*
X90773095Y-119879142D01*
X90725476Y-119783904D01*
X90725476Y-119498190D01*
X90773095Y-119402952D01*
X90820714Y-119355333D01*
X90915952Y-119307714D01*
X91058809Y-119307714D01*
X91154047Y-119355333D01*
X91201666Y-119402952D01*
X91249285Y-119498190D01*
X91249285Y-119783904D01*
X91201666Y-119879142D01*
X91154047Y-119926761D01*
X91058809Y-119974380D01*
X90915952Y-119974380D01*
X91820714Y-119974380D02*
X91725476Y-119926761D01*
X91677857Y-119831523D01*
X91677857Y-118974380D01*
X92582619Y-119926761D02*
X92487380Y-119974380D01*
X92296904Y-119974380D01*
X92201666Y-119926761D01*
X92154047Y-119831523D01*
X92154047Y-119450571D01*
X92201666Y-119355333D01*
X92296904Y-119307714D01*
X92487380Y-119307714D01*
X92582619Y-119355333D01*
X92630238Y-119450571D01*
X92630238Y-119545809D01*
X92154047Y-119641047D01*
X88596904Y-112974380D02*
X88596904Y-111974380D01*
X88596904Y-112450571D02*
X89168333Y-112450571D01*
X89168333Y-112974380D02*
X89168333Y-111974380D01*
X90168333Y-112974380D02*
X89596904Y-112974380D01*
X89882619Y-112974380D02*
X89882619Y-111974380D01*
X89787380Y-112117238D01*
X89692142Y-112212476D01*
X89596904Y-112260095D01*
X90501666Y-111974380D02*
X91120714Y-111974380D01*
X90787380Y-112355333D01*
X90930238Y-112355333D01*
X91025476Y-112402952D01*
X91073095Y-112450571D01*
X91120714Y-112545809D01*
X91120714Y-112783904D01*
X91073095Y-112879142D01*
X91025476Y-112926761D01*
X90930238Y-112974380D01*
X90644523Y-112974380D01*
X90549285Y-112926761D01*
X90501666Y-112879142D01*
%TO.C,H14*%
X61468380Y-79969380D02*
X61468380Y-78969380D01*
X61849333Y-78969380D01*
X61944571Y-79017000D01*
X61992190Y-79064619D01*
X62039809Y-79159857D01*
X62039809Y-79302714D01*
X61992190Y-79397952D01*
X61944571Y-79445571D01*
X61849333Y-79493190D01*
X61468380Y-79493190D01*
X62611238Y-79969380D02*
X62516000Y-79921761D01*
X62468380Y-79874142D01*
X62420761Y-79778904D01*
X62420761Y-79493190D01*
X62468380Y-79397952D01*
X62516000Y-79350333D01*
X62611238Y-79302714D01*
X62754095Y-79302714D01*
X62849333Y-79350333D01*
X62896952Y-79397952D01*
X62944571Y-79493190D01*
X62944571Y-79778904D01*
X62896952Y-79874142D01*
X62849333Y-79921761D01*
X62754095Y-79969380D01*
X62611238Y-79969380D01*
X63230285Y-79302714D02*
X63611238Y-79302714D01*
X63373142Y-78969380D02*
X63373142Y-79826523D01*
X63420761Y-79921761D01*
X63516000Y-79969380D01*
X63611238Y-79969380D01*
X63706476Y-80064619D02*
X64468380Y-80064619D01*
X64706476Y-79969380D02*
X64706476Y-78969380D01*
X64706476Y-79445571D02*
X65277904Y-79445571D01*
X65277904Y-79969380D02*
X65277904Y-78969380D01*
X65896952Y-79969380D02*
X65801714Y-79921761D01*
X65754095Y-79874142D01*
X65706476Y-79778904D01*
X65706476Y-79493190D01*
X65754095Y-79397952D01*
X65801714Y-79350333D01*
X65896952Y-79302714D01*
X66039809Y-79302714D01*
X66135047Y-79350333D01*
X66182666Y-79397952D01*
X66230285Y-79493190D01*
X66230285Y-79778904D01*
X66182666Y-79874142D01*
X66135047Y-79921761D01*
X66039809Y-79969380D01*
X65896952Y-79969380D01*
X66801714Y-79969380D02*
X66706476Y-79921761D01*
X66658857Y-79826523D01*
X66658857Y-78969380D01*
X67563619Y-79921761D02*
X67468380Y-79969380D01*
X67277904Y-79969380D01*
X67182666Y-79921761D01*
X67135047Y-79826523D01*
X67135047Y-79445571D01*
X67182666Y-79350333D01*
X67277904Y-79302714D01*
X67468380Y-79302714D01*
X67563619Y-79350333D01*
X67611238Y-79445571D01*
X67611238Y-79540809D01*
X67135047Y-79636047D01*
X63577904Y-72969380D02*
X63577904Y-71969380D01*
X63577904Y-72445571D02*
X64149333Y-72445571D01*
X64149333Y-72969380D02*
X64149333Y-71969380D01*
X65149333Y-72969380D02*
X64577904Y-72969380D01*
X64863619Y-72969380D02*
X64863619Y-71969380D01*
X64768380Y-72112238D01*
X64673142Y-72207476D01*
X64577904Y-72255095D01*
X66006476Y-72302714D02*
X66006476Y-72969380D01*
X65768380Y-71921761D02*
X65530285Y-72636047D01*
X66149333Y-72636047D01*
%TO.C,H15*%
X86487380Y-79969380D02*
X86487380Y-78969380D01*
X86868333Y-78969380D01*
X86963571Y-79017000D01*
X87011190Y-79064619D01*
X87058809Y-79159857D01*
X87058809Y-79302714D01*
X87011190Y-79397952D01*
X86963571Y-79445571D01*
X86868333Y-79493190D01*
X86487380Y-79493190D01*
X87630238Y-79969380D02*
X87535000Y-79921761D01*
X87487380Y-79874142D01*
X87439761Y-79778904D01*
X87439761Y-79493190D01*
X87487380Y-79397952D01*
X87535000Y-79350333D01*
X87630238Y-79302714D01*
X87773095Y-79302714D01*
X87868333Y-79350333D01*
X87915952Y-79397952D01*
X87963571Y-79493190D01*
X87963571Y-79778904D01*
X87915952Y-79874142D01*
X87868333Y-79921761D01*
X87773095Y-79969380D01*
X87630238Y-79969380D01*
X88249285Y-79302714D02*
X88630238Y-79302714D01*
X88392142Y-78969380D02*
X88392142Y-79826523D01*
X88439761Y-79921761D01*
X88535000Y-79969380D01*
X88630238Y-79969380D01*
X88725476Y-80064619D02*
X89487380Y-80064619D01*
X89725476Y-79969380D02*
X89725476Y-78969380D01*
X89725476Y-79445571D02*
X90296904Y-79445571D01*
X90296904Y-79969380D02*
X90296904Y-78969380D01*
X90915952Y-79969380D02*
X90820714Y-79921761D01*
X90773095Y-79874142D01*
X90725476Y-79778904D01*
X90725476Y-79493190D01*
X90773095Y-79397952D01*
X90820714Y-79350333D01*
X90915952Y-79302714D01*
X91058809Y-79302714D01*
X91154047Y-79350333D01*
X91201666Y-79397952D01*
X91249285Y-79493190D01*
X91249285Y-79778904D01*
X91201666Y-79874142D01*
X91154047Y-79921761D01*
X91058809Y-79969380D01*
X90915952Y-79969380D01*
X91820714Y-79969380D02*
X91725476Y-79921761D01*
X91677857Y-79826523D01*
X91677857Y-78969380D01*
X92582619Y-79921761D02*
X92487380Y-79969380D01*
X92296904Y-79969380D01*
X92201666Y-79921761D01*
X92154047Y-79826523D01*
X92154047Y-79445571D01*
X92201666Y-79350333D01*
X92296904Y-79302714D01*
X92487380Y-79302714D01*
X92582619Y-79350333D01*
X92630238Y-79445571D01*
X92630238Y-79540809D01*
X92154047Y-79636047D01*
X88596904Y-72969380D02*
X88596904Y-71969380D01*
X88596904Y-72445571D02*
X89168333Y-72445571D01*
X89168333Y-72969380D02*
X89168333Y-71969380D01*
X90168333Y-72969380D02*
X89596904Y-72969380D01*
X89882619Y-72969380D02*
X89882619Y-71969380D01*
X89787380Y-72112238D01*
X89692142Y-72207476D01*
X89596904Y-72255095D01*
X91073095Y-71969380D02*
X90596904Y-71969380D01*
X90549285Y-72445571D01*
X90596904Y-72397952D01*
X90692142Y-72350333D01*
X90930238Y-72350333D01*
X91025476Y-72397952D01*
X91073095Y-72445571D01*
X91120714Y-72540809D01*
X91120714Y-72778904D01*
X91073095Y-72874142D01*
X91025476Y-72921761D01*
X90930238Y-72969380D01*
X90692142Y-72969380D01*
X90596904Y-72921761D01*
X90549285Y-72874142D01*
%TO.C,H16*%
X36449380Y-39964380D02*
X36449380Y-38964380D01*
X36830333Y-38964380D01*
X36925571Y-39012000D01*
X36973190Y-39059619D01*
X37020809Y-39154857D01*
X37020809Y-39297714D01*
X36973190Y-39392952D01*
X36925571Y-39440571D01*
X36830333Y-39488190D01*
X36449380Y-39488190D01*
X37592238Y-39964380D02*
X37497000Y-39916761D01*
X37449380Y-39869142D01*
X37401761Y-39773904D01*
X37401761Y-39488190D01*
X37449380Y-39392952D01*
X37497000Y-39345333D01*
X37592238Y-39297714D01*
X37735095Y-39297714D01*
X37830333Y-39345333D01*
X37877952Y-39392952D01*
X37925571Y-39488190D01*
X37925571Y-39773904D01*
X37877952Y-39869142D01*
X37830333Y-39916761D01*
X37735095Y-39964380D01*
X37592238Y-39964380D01*
X38211285Y-39297714D02*
X38592238Y-39297714D01*
X38354142Y-38964380D02*
X38354142Y-39821523D01*
X38401761Y-39916761D01*
X38497000Y-39964380D01*
X38592238Y-39964380D01*
X38687476Y-40059619D02*
X39449380Y-40059619D01*
X39687476Y-39964380D02*
X39687476Y-38964380D01*
X39687476Y-39440571D02*
X40258904Y-39440571D01*
X40258904Y-39964380D02*
X40258904Y-38964380D01*
X40877952Y-39964380D02*
X40782714Y-39916761D01*
X40735095Y-39869142D01*
X40687476Y-39773904D01*
X40687476Y-39488190D01*
X40735095Y-39392952D01*
X40782714Y-39345333D01*
X40877952Y-39297714D01*
X41020809Y-39297714D01*
X41116047Y-39345333D01*
X41163666Y-39392952D01*
X41211285Y-39488190D01*
X41211285Y-39773904D01*
X41163666Y-39869142D01*
X41116047Y-39916761D01*
X41020809Y-39964380D01*
X40877952Y-39964380D01*
X41782714Y-39964380D02*
X41687476Y-39916761D01*
X41639857Y-39821523D01*
X41639857Y-38964380D01*
X42544619Y-39916761D02*
X42449380Y-39964380D01*
X42258904Y-39964380D01*
X42163666Y-39916761D01*
X42116047Y-39821523D01*
X42116047Y-39440571D01*
X42163666Y-39345333D01*
X42258904Y-39297714D01*
X42449380Y-39297714D01*
X42544619Y-39345333D01*
X42592238Y-39440571D01*
X42592238Y-39535809D01*
X42116047Y-39631047D01*
X38558904Y-32964380D02*
X38558904Y-31964380D01*
X38558904Y-32440571D02*
X39130333Y-32440571D01*
X39130333Y-32964380D02*
X39130333Y-31964380D01*
X40130333Y-32964380D02*
X39558904Y-32964380D01*
X39844619Y-32964380D02*
X39844619Y-31964380D01*
X39749380Y-32107238D01*
X39654142Y-32202476D01*
X39558904Y-32250095D01*
X40987476Y-31964380D02*
X40797000Y-31964380D01*
X40701761Y-32012000D01*
X40654142Y-32059619D01*
X40558904Y-32202476D01*
X40511285Y-32392952D01*
X40511285Y-32773904D01*
X40558904Y-32869142D01*
X40606523Y-32916761D01*
X40701761Y-32964380D01*
X40892238Y-32964380D01*
X40987476Y-32916761D01*
X41035095Y-32869142D01*
X41082714Y-32773904D01*
X41082714Y-32535809D01*
X41035095Y-32440571D01*
X40987476Y-32392952D01*
X40892238Y-32345333D01*
X40701761Y-32345333D01*
X40606523Y-32392952D01*
X40558904Y-32440571D01*
X40511285Y-32535809D01*
%TO.C,H17*%
X36449380Y-119974380D02*
X36449380Y-118974380D01*
X36830333Y-118974380D01*
X36925571Y-119022000D01*
X36973190Y-119069619D01*
X37020809Y-119164857D01*
X37020809Y-119307714D01*
X36973190Y-119402952D01*
X36925571Y-119450571D01*
X36830333Y-119498190D01*
X36449380Y-119498190D01*
X37592238Y-119974380D02*
X37497000Y-119926761D01*
X37449380Y-119879142D01*
X37401761Y-119783904D01*
X37401761Y-119498190D01*
X37449380Y-119402952D01*
X37497000Y-119355333D01*
X37592238Y-119307714D01*
X37735095Y-119307714D01*
X37830333Y-119355333D01*
X37877952Y-119402952D01*
X37925571Y-119498190D01*
X37925571Y-119783904D01*
X37877952Y-119879142D01*
X37830333Y-119926761D01*
X37735095Y-119974380D01*
X37592238Y-119974380D01*
X38211285Y-119307714D02*
X38592238Y-119307714D01*
X38354142Y-118974380D02*
X38354142Y-119831523D01*
X38401761Y-119926761D01*
X38497000Y-119974380D01*
X38592238Y-119974380D01*
X38687476Y-120069619D02*
X39449380Y-120069619D01*
X39687476Y-119974380D02*
X39687476Y-118974380D01*
X39687476Y-119450571D02*
X40258904Y-119450571D01*
X40258904Y-119974380D02*
X40258904Y-118974380D01*
X40877952Y-119974380D02*
X40782714Y-119926761D01*
X40735095Y-119879142D01*
X40687476Y-119783904D01*
X40687476Y-119498190D01*
X40735095Y-119402952D01*
X40782714Y-119355333D01*
X40877952Y-119307714D01*
X41020809Y-119307714D01*
X41116047Y-119355333D01*
X41163666Y-119402952D01*
X41211285Y-119498190D01*
X41211285Y-119783904D01*
X41163666Y-119879142D01*
X41116047Y-119926761D01*
X41020809Y-119974380D01*
X40877952Y-119974380D01*
X41782714Y-119974380D02*
X41687476Y-119926761D01*
X41639857Y-119831523D01*
X41639857Y-118974380D01*
X42544619Y-119926761D02*
X42449380Y-119974380D01*
X42258904Y-119974380D01*
X42163666Y-119926761D01*
X42116047Y-119831523D01*
X42116047Y-119450571D01*
X42163666Y-119355333D01*
X42258904Y-119307714D01*
X42449380Y-119307714D01*
X42544619Y-119355333D01*
X42592238Y-119450571D01*
X42592238Y-119545809D01*
X42116047Y-119641047D01*
X38558904Y-112974380D02*
X38558904Y-111974380D01*
X38558904Y-112450571D02*
X39130333Y-112450571D01*
X39130333Y-112974380D02*
X39130333Y-111974380D01*
X40130333Y-112974380D02*
X39558904Y-112974380D01*
X39844619Y-112974380D02*
X39844619Y-111974380D01*
X39749380Y-112117238D01*
X39654142Y-112212476D01*
X39558904Y-112260095D01*
X40463666Y-111974380D02*
X41130333Y-111974380D01*
X40701761Y-112974380D01*
%TO.C,H18*%
X111379380Y-119974380D02*
X111379380Y-118974380D01*
X111760333Y-118974380D01*
X111855571Y-119022000D01*
X111903190Y-119069619D01*
X111950809Y-119164857D01*
X111950809Y-119307714D01*
X111903190Y-119402952D01*
X111855571Y-119450571D01*
X111760333Y-119498190D01*
X111379380Y-119498190D01*
X112522238Y-119974380D02*
X112427000Y-119926761D01*
X112379380Y-119879142D01*
X112331761Y-119783904D01*
X112331761Y-119498190D01*
X112379380Y-119402952D01*
X112427000Y-119355333D01*
X112522238Y-119307714D01*
X112665095Y-119307714D01*
X112760333Y-119355333D01*
X112807952Y-119402952D01*
X112855571Y-119498190D01*
X112855571Y-119783904D01*
X112807952Y-119879142D01*
X112760333Y-119926761D01*
X112665095Y-119974380D01*
X112522238Y-119974380D01*
X113141285Y-119307714D02*
X113522238Y-119307714D01*
X113284142Y-118974380D02*
X113284142Y-119831523D01*
X113331761Y-119926761D01*
X113427000Y-119974380D01*
X113522238Y-119974380D01*
X113617476Y-120069619D02*
X114379380Y-120069619D01*
X114617476Y-119974380D02*
X114617476Y-118974380D01*
X114617476Y-119450571D02*
X115188904Y-119450571D01*
X115188904Y-119974380D02*
X115188904Y-118974380D01*
X115807952Y-119974380D02*
X115712714Y-119926761D01*
X115665095Y-119879142D01*
X115617476Y-119783904D01*
X115617476Y-119498190D01*
X115665095Y-119402952D01*
X115712714Y-119355333D01*
X115807952Y-119307714D01*
X115950809Y-119307714D01*
X116046047Y-119355333D01*
X116093666Y-119402952D01*
X116141285Y-119498190D01*
X116141285Y-119783904D01*
X116093666Y-119879142D01*
X116046047Y-119926761D01*
X115950809Y-119974380D01*
X115807952Y-119974380D01*
X116712714Y-119974380D02*
X116617476Y-119926761D01*
X116569857Y-119831523D01*
X116569857Y-118974380D01*
X117474619Y-119926761D02*
X117379380Y-119974380D01*
X117188904Y-119974380D01*
X117093666Y-119926761D01*
X117046047Y-119831523D01*
X117046047Y-119450571D01*
X117093666Y-119355333D01*
X117188904Y-119307714D01*
X117379380Y-119307714D01*
X117474619Y-119355333D01*
X117522238Y-119450571D01*
X117522238Y-119545809D01*
X117046047Y-119641047D01*
X113488904Y-112974380D02*
X113488904Y-111974380D01*
X113488904Y-112450571D02*
X114060333Y-112450571D01*
X114060333Y-112974380D02*
X114060333Y-111974380D01*
X115060333Y-112974380D02*
X114488904Y-112974380D01*
X114774619Y-112974380D02*
X114774619Y-111974380D01*
X114679380Y-112117238D01*
X114584142Y-112212476D01*
X114488904Y-112260095D01*
X115631761Y-112402952D02*
X115536523Y-112355333D01*
X115488904Y-112307714D01*
X115441285Y-112212476D01*
X115441285Y-112164857D01*
X115488904Y-112069619D01*
X115536523Y-112022000D01*
X115631761Y-111974380D01*
X115822238Y-111974380D01*
X115917476Y-112022000D01*
X115965095Y-112069619D01*
X116012714Y-112164857D01*
X116012714Y-112212476D01*
X115965095Y-112307714D01*
X115917476Y-112355333D01*
X115822238Y-112402952D01*
X115631761Y-112402952D01*
X115536523Y-112450571D01*
X115488904Y-112498190D01*
X115441285Y-112593428D01*
X115441285Y-112783904D01*
X115488904Y-112879142D01*
X115536523Y-112926761D01*
X115631761Y-112974380D01*
X115822238Y-112974380D01*
X115917476Y-112926761D01*
X115965095Y-112879142D01*
X116012714Y-112783904D01*
X116012714Y-112593428D01*
X115965095Y-112498190D01*
X115917476Y-112450571D01*
X115822238Y-112402952D01*
%TO.C,H19*%
X111379380Y-39964380D02*
X111379380Y-38964380D01*
X111760333Y-38964380D01*
X111855571Y-39012000D01*
X111903190Y-39059619D01*
X111950809Y-39154857D01*
X111950809Y-39297714D01*
X111903190Y-39392952D01*
X111855571Y-39440571D01*
X111760333Y-39488190D01*
X111379380Y-39488190D01*
X112522238Y-39964380D02*
X112427000Y-39916761D01*
X112379380Y-39869142D01*
X112331761Y-39773904D01*
X112331761Y-39488190D01*
X112379380Y-39392952D01*
X112427000Y-39345333D01*
X112522238Y-39297714D01*
X112665095Y-39297714D01*
X112760333Y-39345333D01*
X112807952Y-39392952D01*
X112855571Y-39488190D01*
X112855571Y-39773904D01*
X112807952Y-39869142D01*
X112760333Y-39916761D01*
X112665095Y-39964380D01*
X112522238Y-39964380D01*
X113141285Y-39297714D02*
X113522238Y-39297714D01*
X113284142Y-38964380D02*
X113284142Y-39821523D01*
X113331761Y-39916761D01*
X113427000Y-39964380D01*
X113522238Y-39964380D01*
X113617476Y-40059619D02*
X114379380Y-40059619D01*
X114617476Y-39964380D02*
X114617476Y-38964380D01*
X114617476Y-39440571D02*
X115188904Y-39440571D01*
X115188904Y-39964380D02*
X115188904Y-38964380D01*
X115807952Y-39964380D02*
X115712714Y-39916761D01*
X115665095Y-39869142D01*
X115617476Y-39773904D01*
X115617476Y-39488190D01*
X115665095Y-39392952D01*
X115712714Y-39345333D01*
X115807952Y-39297714D01*
X115950809Y-39297714D01*
X116046047Y-39345333D01*
X116093666Y-39392952D01*
X116141285Y-39488190D01*
X116141285Y-39773904D01*
X116093666Y-39869142D01*
X116046047Y-39916761D01*
X115950809Y-39964380D01*
X115807952Y-39964380D01*
X116712714Y-39964380D02*
X116617476Y-39916761D01*
X116569857Y-39821523D01*
X116569857Y-38964380D01*
X117474619Y-39916761D02*
X117379380Y-39964380D01*
X117188904Y-39964380D01*
X117093666Y-39916761D01*
X117046047Y-39821523D01*
X117046047Y-39440571D01*
X117093666Y-39345333D01*
X117188904Y-39297714D01*
X117379380Y-39297714D01*
X117474619Y-39345333D01*
X117522238Y-39440571D01*
X117522238Y-39535809D01*
X117046047Y-39631047D01*
X113488904Y-32964380D02*
X113488904Y-31964380D01*
X113488904Y-32440571D02*
X114060333Y-32440571D01*
X114060333Y-32964380D02*
X114060333Y-31964380D01*
X115060333Y-32964380D02*
X114488904Y-32964380D01*
X114774619Y-32964380D02*
X114774619Y-31964380D01*
X114679380Y-32107238D01*
X114584142Y-32202476D01*
X114488904Y-32250095D01*
X115536523Y-32964380D02*
X115727000Y-32964380D01*
X115822238Y-32916761D01*
X115869857Y-32869142D01*
X115965095Y-32726285D01*
X116012714Y-32535809D01*
X116012714Y-32154857D01*
X115965095Y-32059619D01*
X115917476Y-32012000D01*
X115822238Y-31964380D01*
X115631761Y-31964380D01*
X115536523Y-32012000D01*
X115488904Y-32059619D01*
X115441285Y-32154857D01*
X115441285Y-32392952D01*
X115488904Y-32488190D01*
X115536523Y-32535809D01*
X115631761Y-32583428D01*
X115822238Y-32583428D01*
X115917476Y-32535809D01*
X115965095Y-32488190D01*
X116012714Y-32392952D01*
%TO.C,H20*%
X61468380Y-39964380D02*
X61468380Y-38964380D01*
X61849333Y-38964380D01*
X61944571Y-39012000D01*
X61992190Y-39059619D01*
X62039809Y-39154857D01*
X62039809Y-39297714D01*
X61992190Y-39392952D01*
X61944571Y-39440571D01*
X61849333Y-39488190D01*
X61468380Y-39488190D01*
X62611238Y-39964380D02*
X62516000Y-39916761D01*
X62468380Y-39869142D01*
X62420761Y-39773904D01*
X62420761Y-39488190D01*
X62468380Y-39392952D01*
X62516000Y-39345333D01*
X62611238Y-39297714D01*
X62754095Y-39297714D01*
X62849333Y-39345333D01*
X62896952Y-39392952D01*
X62944571Y-39488190D01*
X62944571Y-39773904D01*
X62896952Y-39869142D01*
X62849333Y-39916761D01*
X62754095Y-39964380D01*
X62611238Y-39964380D01*
X63230285Y-39297714D02*
X63611238Y-39297714D01*
X63373142Y-38964380D02*
X63373142Y-39821523D01*
X63420761Y-39916761D01*
X63516000Y-39964380D01*
X63611238Y-39964380D01*
X63706476Y-40059619D02*
X64468380Y-40059619D01*
X64706476Y-39964380D02*
X64706476Y-38964380D01*
X64706476Y-39440571D02*
X65277904Y-39440571D01*
X65277904Y-39964380D02*
X65277904Y-38964380D01*
X65896952Y-39964380D02*
X65801714Y-39916761D01*
X65754095Y-39869142D01*
X65706476Y-39773904D01*
X65706476Y-39488190D01*
X65754095Y-39392952D01*
X65801714Y-39345333D01*
X65896952Y-39297714D01*
X66039809Y-39297714D01*
X66135047Y-39345333D01*
X66182666Y-39392952D01*
X66230285Y-39488190D01*
X66230285Y-39773904D01*
X66182666Y-39869142D01*
X66135047Y-39916761D01*
X66039809Y-39964380D01*
X65896952Y-39964380D01*
X66801714Y-39964380D02*
X66706476Y-39916761D01*
X66658857Y-39821523D01*
X66658857Y-38964380D01*
X67563619Y-39916761D02*
X67468380Y-39964380D01*
X67277904Y-39964380D01*
X67182666Y-39916761D01*
X67135047Y-39821523D01*
X67135047Y-39440571D01*
X67182666Y-39345333D01*
X67277904Y-39297714D01*
X67468380Y-39297714D01*
X67563619Y-39345333D01*
X67611238Y-39440571D01*
X67611238Y-39535809D01*
X67135047Y-39631047D01*
X63577904Y-32964380D02*
X63577904Y-31964380D01*
X63577904Y-32440571D02*
X64149333Y-32440571D01*
X64149333Y-32964380D02*
X64149333Y-31964380D01*
X64577904Y-32059619D02*
X64625523Y-32012000D01*
X64720761Y-31964380D01*
X64958857Y-31964380D01*
X65054095Y-32012000D01*
X65101714Y-32059619D01*
X65149333Y-32154857D01*
X65149333Y-32250095D01*
X65101714Y-32392952D01*
X64530285Y-32964380D01*
X65149333Y-32964380D01*
X65768380Y-31964380D02*
X65863619Y-31964380D01*
X65958857Y-32012000D01*
X66006476Y-32059619D01*
X66054095Y-32154857D01*
X66101714Y-32345333D01*
X66101714Y-32583428D01*
X66054095Y-32773904D01*
X66006476Y-32869142D01*
X65958857Y-32916761D01*
X65863619Y-32964380D01*
X65768380Y-32964380D01*
X65673142Y-32916761D01*
X65625523Y-32869142D01*
X65577904Y-32773904D01*
X65530285Y-32583428D01*
X65530285Y-32345333D01*
X65577904Y-32154857D01*
X65625523Y-32059619D01*
X65673142Y-32012000D01*
X65768380Y-31964380D01*
%TO.C,H21*%
X36449380Y-79969380D02*
X36449380Y-78969380D01*
X36830333Y-78969380D01*
X36925571Y-79017000D01*
X36973190Y-79064619D01*
X37020809Y-79159857D01*
X37020809Y-79302714D01*
X36973190Y-79397952D01*
X36925571Y-79445571D01*
X36830333Y-79493190D01*
X36449380Y-79493190D01*
X37592238Y-79969380D02*
X37497000Y-79921761D01*
X37449380Y-79874142D01*
X37401761Y-79778904D01*
X37401761Y-79493190D01*
X37449380Y-79397952D01*
X37497000Y-79350333D01*
X37592238Y-79302714D01*
X37735095Y-79302714D01*
X37830333Y-79350333D01*
X37877952Y-79397952D01*
X37925571Y-79493190D01*
X37925571Y-79778904D01*
X37877952Y-79874142D01*
X37830333Y-79921761D01*
X37735095Y-79969380D01*
X37592238Y-79969380D01*
X38211285Y-79302714D02*
X38592238Y-79302714D01*
X38354142Y-78969380D02*
X38354142Y-79826523D01*
X38401761Y-79921761D01*
X38497000Y-79969380D01*
X38592238Y-79969380D01*
X38687476Y-80064619D02*
X39449380Y-80064619D01*
X39687476Y-79969380D02*
X39687476Y-78969380D01*
X39687476Y-79445571D02*
X40258904Y-79445571D01*
X40258904Y-79969380D02*
X40258904Y-78969380D01*
X40877952Y-79969380D02*
X40782714Y-79921761D01*
X40735095Y-79874142D01*
X40687476Y-79778904D01*
X40687476Y-79493190D01*
X40735095Y-79397952D01*
X40782714Y-79350333D01*
X40877952Y-79302714D01*
X41020809Y-79302714D01*
X41116047Y-79350333D01*
X41163666Y-79397952D01*
X41211285Y-79493190D01*
X41211285Y-79778904D01*
X41163666Y-79874142D01*
X41116047Y-79921761D01*
X41020809Y-79969380D01*
X40877952Y-79969380D01*
X41782714Y-79969380D02*
X41687476Y-79921761D01*
X41639857Y-79826523D01*
X41639857Y-78969380D01*
X42544619Y-79921761D02*
X42449380Y-79969380D01*
X42258904Y-79969380D01*
X42163666Y-79921761D01*
X42116047Y-79826523D01*
X42116047Y-79445571D01*
X42163666Y-79350333D01*
X42258904Y-79302714D01*
X42449380Y-79302714D01*
X42544619Y-79350333D01*
X42592238Y-79445571D01*
X42592238Y-79540809D01*
X42116047Y-79636047D01*
X38558904Y-72969380D02*
X38558904Y-71969380D01*
X38558904Y-72445571D02*
X39130333Y-72445571D01*
X39130333Y-72969380D02*
X39130333Y-71969380D01*
X39558904Y-72064619D02*
X39606523Y-72017000D01*
X39701761Y-71969380D01*
X39939857Y-71969380D01*
X40035095Y-72017000D01*
X40082714Y-72064619D01*
X40130333Y-72159857D01*
X40130333Y-72255095D01*
X40082714Y-72397952D01*
X39511285Y-72969380D01*
X40130333Y-72969380D01*
X41082714Y-72969380D02*
X40511285Y-72969380D01*
X40797000Y-72969380D02*
X40797000Y-71969380D01*
X40701761Y-72112238D01*
X40606523Y-72207476D01*
X40511285Y-72255095D01*
%TO.C,H22*%
X111506380Y-79969380D02*
X111506380Y-78969380D01*
X111887333Y-78969380D01*
X111982571Y-79017000D01*
X112030190Y-79064619D01*
X112077809Y-79159857D01*
X112077809Y-79302714D01*
X112030190Y-79397952D01*
X111982571Y-79445571D01*
X111887333Y-79493190D01*
X111506380Y-79493190D01*
X112649238Y-79969380D02*
X112554000Y-79921761D01*
X112506380Y-79874142D01*
X112458761Y-79778904D01*
X112458761Y-79493190D01*
X112506380Y-79397952D01*
X112554000Y-79350333D01*
X112649238Y-79302714D01*
X112792095Y-79302714D01*
X112887333Y-79350333D01*
X112934952Y-79397952D01*
X112982571Y-79493190D01*
X112982571Y-79778904D01*
X112934952Y-79874142D01*
X112887333Y-79921761D01*
X112792095Y-79969380D01*
X112649238Y-79969380D01*
X113268285Y-79302714D02*
X113649238Y-79302714D01*
X113411142Y-78969380D02*
X113411142Y-79826523D01*
X113458761Y-79921761D01*
X113554000Y-79969380D01*
X113649238Y-79969380D01*
X113744476Y-80064619D02*
X114506380Y-80064619D01*
X114744476Y-79969380D02*
X114744476Y-78969380D01*
X114744476Y-79445571D02*
X115315904Y-79445571D01*
X115315904Y-79969380D02*
X115315904Y-78969380D01*
X115934952Y-79969380D02*
X115839714Y-79921761D01*
X115792095Y-79874142D01*
X115744476Y-79778904D01*
X115744476Y-79493190D01*
X115792095Y-79397952D01*
X115839714Y-79350333D01*
X115934952Y-79302714D01*
X116077809Y-79302714D01*
X116173047Y-79350333D01*
X116220666Y-79397952D01*
X116268285Y-79493190D01*
X116268285Y-79778904D01*
X116220666Y-79874142D01*
X116173047Y-79921761D01*
X116077809Y-79969380D01*
X115934952Y-79969380D01*
X116839714Y-79969380D02*
X116744476Y-79921761D01*
X116696857Y-79826523D01*
X116696857Y-78969380D01*
X117601619Y-79921761D02*
X117506380Y-79969380D01*
X117315904Y-79969380D01*
X117220666Y-79921761D01*
X117173047Y-79826523D01*
X117173047Y-79445571D01*
X117220666Y-79350333D01*
X117315904Y-79302714D01*
X117506380Y-79302714D01*
X117601619Y-79350333D01*
X117649238Y-79445571D01*
X117649238Y-79540809D01*
X117173047Y-79636047D01*
X113615904Y-72969380D02*
X113615904Y-71969380D01*
X113615904Y-72445571D02*
X114187333Y-72445571D01*
X114187333Y-72969380D02*
X114187333Y-71969380D01*
X114615904Y-72064619D02*
X114663523Y-72017000D01*
X114758761Y-71969380D01*
X114996857Y-71969380D01*
X115092095Y-72017000D01*
X115139714Y-72064619D01*
X115187333Y-72159857D01*
X115187333Y-72255095D01*
X115139714Y-72397952D01*
X114568285Y-72969380D01*
X115187333Y-72969380D01*
X115568285Y-72064619D02*
X115615904Y-72017000D01*
X115711142Y-71969380D01*
X115949238Y-71969380D01*
X116044476Y-72017000D01*
X116092095Y-72064619D01*
X116139714Y-72159857D01*
X116139714Y-72255095D01*
X116092095Y-72397952D01*
X115520666Y-72969380D01*
X116139714Y-72969380D01*
%TO.C,H23*%
X119681952Y-29312380D02*
X119205761Y-29312380D01*
X119205761Y-28312380D01*
X120396238Y-29264761D02*
X120301000Y-29312380D01*
X120110523Y-29312380D01*
X120015285Y-29264761D01*
X119967666Y-29169523D01*
X119967666Y-28788571D01*
X120015285Y-28693333D01*
X120110523Y-28645714D01*
X120301000Y-28645714D01*
X120396238Y-28693333D01*
X120443857Y-28788571D01*
X120443857Y-28883809D01*
X119967666Y-28979047D01*
X121301000Y-29312380D02*
X121301000Y-28312380D01*
X121301000Y-29264761D02*
X121205761Y-29312380D01*
X121015285Y-29312380D01*
X120920047Y-29264761D01*
X120872428Y-29217142D01*
X120824809Y-29121904D01*
X120824809Y-28836190D01*
X120872428Y-28740952D01*
X120920047Y-28693333D01*
X121015285Y-28645714D01*
X121205761Y-28645714D01*
X121301000Y-28693333D01*
X121539095Y-29407619D02*
X122301000Y-29407619D01*
X122539095Y-29312380D02*
X122539095Y-28312380D01*
X122539095Y-28788571D02*
X123110523Y-28788571D01*
X123110523Y-29312380D02*
X123110523Y-28312380D01*
X123729571Y-29312380D02*
X123634333Y-29264761D01*
X123586714Y-29217142D01*
X123539095Y-29121904D01*
X123539095Y-28836190D01*
X123586714Y-28740952D01*
X123634333Y-28693333D01*
X123729571Y-28645714D01*
X123872428Y-28645714D01*
X123967666Y-28693333D01*
X124015285Y-28740952D01*
X124062904Y-28836190D01*
X124062904Y-29121904D01*
X124015285Y-29217142D01*
X123967666Y-29264761D01*
X123872428Y-29312380D01*
X123729571Y-29312380D01*
X124634333Y-29312380D02*
X124539095Y-29264761D01*
X124491476Y-29169523D01*
X124491476Y-28312380D01*
X125396238Y-29264761D02*
X125301000Y-29312380D01*
X125110523Y-29312380D01*
X125015285Y-29264761D01*
X124967666Y-29169523D01*
X124967666Y-28788571D01*
X125015285Y-28693333D01*
X125110523Y-28645714D01*
X125301000Y-28645714D01*
X125396238Y-28693333D01*
X125443857Y-28788571D01*
X125443857Y-28883809D01*
X124967666Y-28979047D01*
X121362904Y-23312380D02*
X121362904Y-22312380D01*
X121362904Y-22788571D02*
X121934333Y-22788571D01*
X121934333Y-23312380D02*
X121934333Y-22312380D01*
X122362904Y-22407619D02*
X122410523Y-22360000D01*
X122505761Y-22312380D01*
X122743857Y-22312380D01*
X122839095Y-22360000D01*
X122886714Y-22407619D01*
X122934333Y-22502857D01*
X122934333Y-22598095D01*
X122886714Y-22740952D01*
X122315285Y-23312380D01*
X122934333Y-23312380D01*
X123267666Y-22312380D02*
X123886714Y-22312380D01*
X123553380Y-22693333D01*
X123696238Y-22693333D01*
X123791476Y-22740952D01*
X123839095Y-22788571D01*
X123886714Y-22883809D01*
X123886714Y-23121904D01*
X123839095Y-23217142D01*
X123791476Y-23264761D01*
X123696238Y-23312380D01*
X123410523Y-23312380D01*
X123315285Y-23264761D01*
X123267666Y-23217142D01*
%TO.C,H24*%
X94662952Y-29312380D02*
X94186761Y-29312380D01*
X94186761Y-28312380D01*
X95377238Y-29264761D02*
X95282000Y-29312380D01*
X95091523Y-29312380D01*
X94996285Y-29264761D01*
X94948666Y-29169523D01*
X94948666Y-28788571D01*
X94996285Y-28693333D01*
X95091523Y-28645714D01*
X95282000Y-28645714D01*
X95377238Y-28693333D01*
X95424857Y-28788571D01*
X95424857Y-28883809D01*
X94948666Y-28979047D01*
X96282000Y-29312380D02*
X96282000Y-28312380D01*
X96282000Y-29264761D02*
X96186761Y-29312380D01*
X95996285Y-29312380D01*
X95901047Y-29264761D01*
X95853428Y-29217142D01*
X95805809Y-29121904D01*
X95805809Y-28836190D01*
X95853428Y-28740952D01*
X95901047Y-28693333D01*
X95996285Y-28645714D01*
X96186761Y-28645714D01*
X96282000Y-28693333D01*
X96520095Y-29407619D02*
X97282000Y-29407619D01*
X97520095Y-29312380D02*
X97520095Y-28312380D01*
X97520095Y-28788571D02*
X98091523Y-28788571D01*
X98091523Y-29312380D02*
X98091523Y-28312380D01*
X98710571Y-29312380D02*
X98615333Y-29264761D01*
X98567714Y-29217142D01*
X98520095Y-29121904D01*
X98520095Y-28836190D01*
X98567714Y-28740952D01*
X98615333Y-28693333D01*
X98710571Y-28645714D01*
X98853428Y-28645714D01*
X98948666Y-28693333D01*
X98996285Y-28740952D01*
X99043904Y-28836190D01*
X99043904Y-29121904D01*
X98996285Y-29217142D01*
X98948666Y-29264761D01*
X98853428Y-29312380D01*
X98710571Y-29312380D01*
X99615333Y-29312380D02*
X99520095Y-29264761D01*
X99472476Y-29169523D01*
X99472476Y-28312380D01*
X100377238Y-29264761D02*
X100282000Y-29312380D01*
X100091523Y-29312380D01*
X99996285Y-29264761D01*
X99948666Y-29169523D01*
X99948666Y-28788571D01*
X99996285Y-28693333D01*
X100091523Y-28645714D01*
X100282000Y-28645714D01*
X100377238Y-28693333D01*
X100424857Y-28788571D01*
X100424857Y-28883809D01*
X99948666Y-28979047D01*
X96343904Y-23312380D02*
X96343904Y-22312380D01*
X96343904Y-22788571D02*
X96915333Y-22788571D01*
X96915333Y-23312380D02*
X96915333Y-22312380D01*
X97343904Y-22407619D02*
X97391523Y-22360000D01*
X97486761Y-22312380D01*
X97724857Y-22312380D01*
X97820095Y-22360000D01*
X97867714Y-22407619D01*
X97915333Y-22502857D01*
X97915333Y-22598095D01*
X97867714Y-22740952D01*
X97296285Y-23312380D01*
X97915333Y-23312380D01*
X98772476Y-22645714D02*
X98772476Y-23312380D01*
X98534380Y-22264761D02*
X98296285Y-22979047D01*
X98915333Y-22979047D01*
%TO.C,H25*%
X72700095Y-130848761D02*
X72842952Y-130896380D01*
X73081047Y-130896380D01*
X73176285Y-130848761D01*
X73223904Y-130801142D01*
X73271523Y-130705904D01*
X73271523Y-130610666D01*
X73223904Y-130515428D01*
X73176285Y-130467809D01*
X73081047Y-130420190D01*
X72890571Y-130372571D01*
X72795333Y-130324952D01*
X72747714Y-130277333D01*
X72700095Y-130182095D01*
X72700095Y-130086857D01*
X72747714Y-129991619D01*
X72795333Y-129944000D01*
X72890571Y-129896380D01*
X73128666Y-129896380D01*
X73271523Y-129944000D01*
X73604857Y-130229714D02*
X73795333Y-130896380D01*
X73985809Y-130420190D01*
X74176285Y-130896380D01*
X74366761Y-130229714D01*
X74747714Y-130896380D02*
X74747714Y-130229714D01*
X74747714Y-129896380D02*
X74700095Y-129944000D01*
X74747714Y-129991619D01*
X74795333Y-129944000D01*
X74747714Y-129896380D01*
X74747714Y-129991619D01*
X75081047Y-130229714D02*
X75462000Y-130229714D01*
X75223904Y-129896380D02*
X75223904Y-130753523D01*
X75271523Y-130848761D01*
X75366761Y-130896380D01*
X75462000Y-130896380D01*
X76223904Y-130848761D02*
X76128666Y-130896380D01*
X75938190Y-130896380D01*
X75842952Y-130848761D01*
X75795333Y-130801142D01*
X75747714Y-130705904D01*
X75747714Y-130420190D01*
X75795333Y-130324952D01*
X75842952Y-130277333D01*
X75938190Y-130229714D01*
X76128666Y-130229714D01*
X76223904Y-130277333D01*
X76652476Y-130896380D02*
X76652476Y-129896380D01*
X77081047Y-130896380D02*
X77081047Y-130372571D01*
X77033428Y-130277333D01*
X76938190Y-130229714D01*
X76795333Y-130229714D01*
X76700095Y-130277333D01*
X76652476Y-130324952D01*
X77319142Y-130991619D02*
X78081047Y-130991619D01*
X78319142Y-130896380D02*
X78319142Y-129896380D01*
X78319142Y-130372571D02*
X78890571Y-130372571D01*
X78890571Y-130896380D02*
X78890571Y-129896380D01*
X79509619Y-130896380D02*
X79414380Y-130848761D01*
X79366761Y-130801142D01*
X79319142Y-130705904D01*
X79319142Y-130420190D01*
X79366761Y-130324952D01*
X79414380Y-130277333D01*
X79509619Y-130229714D01*
X79652476Y-130229714D01*
X79747714Y-130277333D01*
X79795333Y-130324952D01*
X79842952Y-130420190D01*
X79842952Y-130705904D01*
X79795333Y-130801142D01*
X79747714Y-130848761D01*
X79652476Y-130896380D01*
X79509619Y-130896380D01*
X80414380Y-130896380D02*
X80319142Y-130848761D01*
X80271523Y-130753523D01*
X80271523Y-129896380D01*
X81176285Y-130848761D02*
X81081047Y-130896380D01*
X80890571Y-130896380D01*
X80795333Y-130848761D01*
X80747714Y-130753523D01*
X80747714Y-130372571D01*
X80795333Y-130277333D01*
X80890571Y-130229714D01*
X81081047Y-130229714D01*
X81176285Y-130277333D01*
X81223904Y-130372571D01*
X81223904Y-130467809D01*
X80747714Y-130563047D01*
X76023904Y-123896380D02*
X76023904Y-122896380D01*
X76023904Y-123372571D02*
X76595333Y-123372571D01*
X76595333Y-123896380D02*
X76595333Y-122896380D01*
X77023904Y-122991619D02*
X77071523Y-122944000D01*
X77166761Y-122896380D01*
X77404857Y-122896380D01*
X77500095Y-122944000D01*
X77547714Y-122991619D01*
X77595333Y-123086857D01*
X77595333Y-123182095D01*
X77547714Y-123324952D01*
X76976285Y-123896380D01*
X77595333Y-123896380D01*
X78500095Y-122896380D02*
X78023904Y-122896380D01*
X77976285Y-123372571D01*
X78023904Y-123324952D01*
X78119142Y-123277333D01*
X78357238Y-123277333D01*
X78452476Y-123324952D01*
X78500095Y-123372571D01*
X78547714Y-123467809D01*
X78547714Y-123705904D01*
X78500095Y-123801142D01*
X78452476Y-123848761D01*
X78357238Y-123896380D01*
X78119142Y-123896380D01*
X78023904Y-123848761D01*
X77976285Y-123801142D01*
%TO.C,H26*%
X85273095Y-39916761D02*
X85415952Y-39964380D01*
X85654047Y-39964380D01*
X85749285Y-39916761D01*
X85796904Y-39869142D01*
X85844523Y-39773904D01*
X85844523Y-39678666D01*
X85796904Y-39583428D01*
X85749285Y-39535809D01*
X85654047Y-39488190D01*
X85463571Y-39440571D01*
X85368333Y-39392952D01*
X85320714Y-39345333D01*
X85273095Y-39250095D01*
X85273095Y-39154857D01*
X85320714Y-39059619D01*
X85368333Y-39012000D01*
X85463571Y-38964380D01*
X85701666Y-38964380D01*
X85844523Y-39012000D01*
X86177857Y-39297714D02*
X86368333Y-39964380D01*
X86558809Y-39488190D01*
X86749285Y-39964380D01*
X86939761Y-39297714D01*
X87320714Y-39964380D02*
X87320714Y-39297714D01*
X87320714Y-38964380D02*
X87273095Y-39012000D01*
X87320714Y-39059619D01*
X87368333Y-39012000D01*
X87320714Y-38964380D01*
X87320714Y-39059619D01*
X87654047Y-39297714D02*
X88035000Y-39297714D01*
X87796904Y-38964380D02*
X87796904Y-39821523D01*
X87844523Y-39916761D01*
X87939761Y-39964380D01*
X88035000Y-39964380D01*
X88796904Y-39916761D02*
X88701666Y-39964380D01*
X88511190Y-39964380D01*
X88415952Y-39916761D01*
X88368333Y-39869142D01*
X88320714Y-39773904D01*
X88320714Y-39488190D01*
X88368333Y-39392952D01*
X88415952Y-39345333D01*
X88511190Y-39297714D01*
X88701666Y-39297714D01*
X88796904Y-39345333D01*
X89225476Y-39964380D02*
X89225476Y-38964380D01*
X89654047Y-39964380D02*
X89654047Y-39440571D01*
X89606428Y-39345333D01*
X89511190Y-39297714D01*
X89368333Y-39297714D01*
X89273095Y-39345333D01*
X89225476Y-39392952D01*
X89892142Y-40059619D02*
X90654047Y-40059619D01*
X90892142Y-39964380D02*
X90892142Y-38964380D01*
X90892142Y-39440571D02*
X91463571Y-39440571D01*
X91463571Y-39964380D02*
X91463571Y-38964380D01*
X92082619Y-39964380D02*
X91987380Y-39916761D01*
X91939761Y-39869142D01*
X91892142Y-39773904D01*
X91892142Y-39488190D01*
X91939761Y-39392952D01*
X91987380Y-39345333D01*
X92082619Y-39297714D01*
X92225476Y-39297714D01*
X92320714Y-39345333D01*
X92368333Y-39392952D01*
X92415952Y-39488190D01*
X92415952Y-39773904D01*
X92368333Y-39869142D01*
X92320714Y-39916761D01*
X92225476Y-39964380D01*
X92082619Y-39964380D01*
X92987380Y-39964380D02*
X92892142Y-39916761D01*
X92844523Y-39821523D01*
X92844523Y-38964380D01*
X93749285Y-39916761D02*
X93654047Y-39964380D01*
X93463571Y-39964380D01*
X93368333Y-39916761D01*
X93320714Y-39821523D01*
X93320714Y-39440571D01*
X93368333Y-39345333D01*
X93463571Y-39297714D01*
X93654047Y-39297714D01*
X93749285Y-39345333D01*
X93796904Y-39440571D01*
X93796904Y-39535809D01*
X93320714Y-39631047D01*
X88596904Y-32964380D02*
X88596904Y-31964380D01*
X88596904Y-32440571D02*
X89168333Y-32440571D01*
X89168333Y-32964380D02*
X89168333Y-31964380D01*
X89596904Y-32059619D02*
X89644523Y-32012000D01*
X89739761Y-31964380D01*
X89977857Y-31964380D01*
X90073095Y-32012000D01*
X90120714Y-32059619D01*
X90168333Y-32154857D01*
X90168333Y-32250095D01*
X90120714Y-32392952D01*
X89549285Y-32964380D01*
X90168333Y-32964380D01*
X91025476Y-31964380D02*
X90835000Y-31964380D01*
X90739761Y-32012000D01*
X90692142Y-32059619D01*
X90596904Y-32202476D01*
X90549285Y-32392952D01*
X90549285Y-32773904D01*
X90596904Y-32869142D01*
X90644523Y-32916761D01*
X90739761Y-32964380D01*
X90930238Y-32964380D01*
X91025476Y-32916761D01*
X91073095Y-32869142D01*
X91120714Y-32773904D01*
X91120714Y-32535809D01*
X91073095Y-32440571D01*
X91025476Y-32392952D01*
X90930238Y-32345333D01*
X90739761Y-32345333D01*
X90644523Y-32392952D01*
X90596904Y-32440571D01*
X90549285Y-32535809D01*
%TO.C,H27*%
X60254095Y-119926761D02*
X60396952Y-119974380D01*
X60635047Y-119974380D01*
X60730285Y-119926761D01*
X60777904Y-119879142D01*
X60825523Y-119783904D01*
X60825523Y-119688666D01*
X60777904Y-119593428D01*
X60730285Y-119545809D01*
X60635047Y-119498190D01*
X60444571Y-119450571D01*
X60349333Y-119402952D01*
X60301714Y-119355333D01*
X60254095Y-119260095D01*
X60254095Y-119164857D01*
X60301714Y-119069619D01*
X60349333Y-119022000D01*
X60444571Y-118974380D01*
X60682666Y-118974380D01*
X60825523Y-119022000D01*
X61158857Y-119307714D02*
X61349333Y-119974380D01*
X61539809Y-119498190D01*
X61730285Y-119974380D01*
X61920761Y-119307714D01*
X62301714Y-119974380D02*
X62301714Y-119307714D01*
X62301714Y-118974380D02*
X62254095Y-119022000D01*
X62301714Y-119069619D01*
X62349333Y-119022000D01*
X62301714Y-118974380D01*
X62301714Y-119069619D01*
X62635047Y-119307714D02*
X63016000Y-119307714D01*
X62777904Y-118974380D02*
X62777904Y-119831523D01*
X62825523Y-119926761D01*
X62920761Y-119974380D01*
X63016000Y-119974380D01*
X63777904Y-119926761D02*
X63682666Y-119974380D01*
X63492190Y-119974380D01*
X63396952Y-119926761D01*
X63349333Y-119879142D01*
X63301714Y-119783904D01*
X63301714Y-119498190D01*
X63349333Y-119402952D01*
X63396952Y-119355333D01*
X63492190Y-119307714D01*
X63682666Y-119307714D01*
X63777904Y-119355333D01*
X64206476Y-119974380D02*
X64206476Y-118974380D01*
X64635047Y-119974380D02*
X64635047Y-119450571D01*
X64587428Y-119355333D01*
X64492190Y-119307714D01*
X64349333Y-119307714D01*
X64254095Y-119355333D01*
X64206476Y-119402952D01*
X64873142Y-120069619D02*
X65635047Y-120069619D01*
X65873142Y-119974380D02*
X65873142Y-118974380D01*
X65873142Y-119450571D02*
X66444571Y-119450571D01*
X66444571Y-119974380D02*
X66444571Y-118974380D01*
X67063619Y-119974380D02*
X66968380Y-119926761D01*
X66920761Y-119879142D01*
X66873142Y-119783904D01*
X66873142Y-119498190D01*
X66920761Y-119402952D01*
X66968380Y-119355333D01*
X67063619Y-119307714D01*
X67206476Y-119307714D01*
X67301714Y-119355333D01*
X67349333Y-119402952D01*
X67396952Y-119498190D01*
X67396952Y-119783904D01*
X67349333Y-119879142D01*
X67301714Y-119926761D01*
X67206476Y-119974380D01*
X67063619Y-119974380D01*
X67968380Y-119974380D02*
X67873142Y-119926761D01*
X67825523Y-119831523D01*
X67825523Y-118974380D01*
X68730285Y-119926761D02*
X68635047Y-119974380D01*
X68444571Y-119974380D01*
X68349333Y-119926761D01*
X68301714Y-119831523D01*
X68301714Y-119450571D01*
X68349333Y-119355333D01*
X68444571Y-119307714D01*
X68635047Y-119307714D01*
X68730285Y-119355333D01*
X68777904Y-119450571D01*
X68777904Y-119545809D01*
X68301714Y-119641047D01*
X63577904Y-112974380D02*
X63577904Y-111974380D01*
X63577904Y-112450571D02*
X64149333Y-112450571D01*
X64149333Y-112974380D02*
X64149333Y-111974380D01*
X64577904Y-112069619D02*
X64625523Y-112022000D01*
X64720761Y-111974380D01*
X64958857Y-111974380D01*
X65054095Y-112022000D01*
X65101714Y-112069619D01*
X65149333Y-112164857D01*
X65149333Y-112260095D01*
X65101714Y-112402952D01*
X64530285Y-112974380D01*
X65149333Y-112974380D01*
X65482666Y-111974380D02*
X66149333Y-111974380D01*
X65720761Y-112974380D01*
%TD*%
M02*
