%TF.GenerationSoftware,KiCad,Pcbnew,(5.1.9)-1*%
%TF.CreationDate,2021-09-12T18:44:50+01:00*%
%TF.ProjectId,Function Generator Front Panel,46756e63-7469-46f6-9e20-47656e657261,rev?*%
%TF.SameCoordinates,Original*%
%TF.FileFunction,Other,User*%
%FSLAX46Y46*%
G04 Gerber Fmt 4.6, Leading zero omitted, Abs format (unit mm)*
G04 Created by KiCad (PCBNEW (5.1.9)-1) date 2021-09-12 18:44:50*
%MOMM*%
%LPD*%
G01*
G04 APERTURE LIST*
%ADD10C,0.050000*%
G04 APERTURE END LIST*
D10*
%TO.C,H1*%
X120904000Y-7291000D02*
X123704000Y-7291000D01*
X120904000Y-13791000D02*
X123704000Y-13791000D01*
X123704000Y-7291000D02*
G75*
G02*
X123704000Y-13791000I0J-3250000D01*
G01*
X120904000Y-7291000D02*
G75*
G03*
X120904000Y-13791000I0J-3250000D01*
G01*
%TO.C,H2*%
X29972000Y-207720000D02*
X32772000Y-207720000D01*
X29972000Y-201220000D02*
X32772000Y-201220000D01*
X29972000Y-201220000D02*
G75*
G03*
X29972000Y-207720000I0J-3250000D01*
G01*
X32772000Y-201220000D02*
G75*
G02*
X32772000Y-207720000I0J-3250000D01*
G01*
%TO.C,H3*%
X121031000Y-201220000D02*
X123831000Y-201220000D01*
X121031000Y-207720000D02*
X123831000Y-207720000D01*
X123831000Y-201220000D02*
G75*
G02*
X123831000Y-207720000I0J-3250000D01*
G01*
X121031000Y-201220000D02*
G75*
G03*
X121031000Y-207720000I0J-3250000D01*
G01*
%TO.C,H4*%
X30099000Y-13918000D02*
X32899000Y-13918000D01*
X30099000Y-7418000D02*
X32899000Y-7418000D01*
X30099000Y-7418000D02*
G75*
G03*
X30099000Y-13918000I0J-3250000D01*
G01*
X32899000Y-7418000D02*
G75*
G02*
X32899000Y-13918000I0J-3250000D01*
G01*
%TO.C,H5*%
X49497000Y-157480000D02*
G75*
G03*
X49497000Y-157480000I-10000000J0D01*
G01*
%TO.C,H6*%
X74516000Y-182499000D02*
G75*
G03*
X74516000Y-182499000I-10000000J0D01*
G01*
%TO.C,H7*%
X74516000Y-157480000D02*
G75*
G03*
X74516000Y-157480000I-10000000J0D01*
G01*
%TO.C,H8*%
X49497000Y-182499000D02*
G75*
G03*
X49497000Y-182499000I-10000000J0D01*
G01*
%TO.C,H9*%
X124554000Y-182499000D02*
G75*
G03*
X124554000Y-182499000I-10000000J0D01*
G01*
%TO.C,H10*%
X124554000Y-157480000D02*
G75*
G03*
X124554000Y-157480000I-10000000J0D01*
G01*
%TO.C,H11*%
X99535000Y-182499000D02*
G75*
G03*
X99535000Y-182499000I-10000000J0D01*
G01*
%TO.C,H12*%
X99535000Y-157480000D02*
G75*
G03*
X99535000Y-157480000I-10000000J0D01*
G01*
%TO.C,H13*%
X95785000Y-112522000D02*
G75*
G03*
X95785000Y-112522000I-6250000J0D01*
G01*
%TO.C,H14*%
X70766000Y-72517000D02*
G75*
G03*
X70766000Y-72517000I-6250000J0D01*
G01*
%TO.C,H15*%
X95785000Y-72517000D02*
G75*
G03*
X95785000Y-72517000I-6250000J0D01*
G01*
%TO.C,H16*%
X45747000Y-32512000D02*
G75*
G03*
X45747000Y-32512000I-6250000J0D01*
G01*
%TO.C,H17*%
X45747000Y-112522000D02*
G75*
G03*
X45747000Y-112522000I-6250000J0D01*
G01*
%TO.C,H18*%
X120677000Y-112522000D02*
G75*
G03*
X120677000Y-112522000I-6250000J0D01*
G01*
%TO.C,H19*%
X120677000Y-32512000D02*
G75*
G03*
X120677000Y-32512000I-6250000J0D01*
G01*
%TO.C,H20*%
X70766000Y-32512000D02*
G75*
G03*
X70766000Y-32512000I-6250000J0D01*
G01*
%TO.C,H21*%
X45747000Y-72517000D02*
G75*
G03*
X45747000Y-72517000I-6250000J0D01*
G01*
%TO.C,H22*%
X120804000Y-72517000D02*
G75*
G03*
X120804000Y-72517000I-6250000J0D01*
G01*
%TO.C,H23*%
X126551000Y-22860000D02*
G75*
G03*
X126551000Y-22860000I-4250000J0D01*
G01*
%TO.C,H24*%
X101532000Y-22860000D02*
G75*
G03*
X101532000Y-22860000I-4250000J0D01*
G01*
%TO.C,H25*%
X83212000Y-123444000D02*
G75*
G03*
X83212000Y-123444000I-6250000J0D01*
G01*
%TO.C,H26*%
X95785000Y-32512000D02*
G75*
G03*
X95785000Y-32512000I-6250000J0D01*
G01*
%TO.C,H27*%
X70766000Y-112522000D02*
G75*
G03*
X70766000Y-112522000I-6250000J0D01*
G01*
%TD*%
M02*
