M48
; DRILL file {KiCad (5.1.9)-1} date 09/12/21 18:44:54
; FORMAT={-:-/ absolute / inch / decimal}
; #@! TF.CreationDate,2021-09-12T18:44:54+01:00
; #@! TF.GenerationSoftware,Kicad,Pcbnew,(5.1.9)-1
; #@! TF.FileFunction,Plated,1,2,PTH
FMAT,2
INCH
T1C0.1260
T2C0.1969
T3C0.2756
T4C0.3937
%
G90
G05
T2
X3.83Y-0.9
X4.815Y-0.9
T3
X1.555Y-1.28
X1.555Y-2.855
X1.555Y-4.43
X2.54Y-1.28
X2.54Y-2.855
X2.54Y-4.43
X3.03Y-4.86
X3.525Y-1.28
X3.525Y-2.855
X3.525Y-4.43
X4.505Y-1.28
X4.505Y-4.43
X4.51Y-2.855
T4
X1.555Y-6.2
X1.555Y-7.185
X2.54Y-6.2
X2.54Y-7.185
X3.525Y-6.2
X3.525Y-7.185
X4.51Y-6.2
X4.51Y-7.185
T1
G00X1.18Y-8.05
M15
G01X1.2902Y-8.05
M16
G05
G00X1.185Y-0.42
M15
G01X1.2952Y-0.42
M16
G05
G00X4.76Y-0.415
M15
G01X4.8702Y-0.415
M16
G05
G00X4.765Y-8.05
M15
G01X4.8752Y-8.05
M16
G05
T0
M30
